<?xml version="1.0" encoding="utf-8" ?>
<svg baseProfile="full" height="100%" version="1.1" width="100%" xmlns="http://www.w3.org/2000/svg" xmlns:ev="http://www.w3.org/2001/xml-events" xmlns:xlink="http://www.w3.org/1999/xlink"><defs><style type="text/css"><![CDATA[
.payload_progress {
  fill:none;
  stroke: blue;
  stroke-width: 2
}

.player_advantage {
  fill:none;
  stroke: red;
  stroke-width: 1

}

.player_lifeline {
  fill:none;
  stroke: green;
  stroke-width: 1
}

.graph_border {
  fill: none;
  stroke: black;
}

.minute_ref_line {
  stroke: gray;
  stroke-width: 1;
  stroke-dasharray: 1,4
}

.progress_target_line {
  stroke: gray;
  stroke_width: 1;
  stroke-dasharray: 3,1
}

.progress_completion_line {
  stroke: gray;
  stroke_width: 1
}


]]></style></defs><text x="10" y="20">Seoul Dynasty at San Francisco Shock on Dorado round 1</text><g style="graph" transform="translate(10, 45)"><rect class="graph_border" height="400" width="930" x="0" y="0" /><line class="minute_ref_line" x1="120" x2="120" y1="0" y2="400" /><text x="120" y="420">1:00</text><line class="minute_ref_line" x1="240" x2="240" y1="0" y2="400" /><text x="240" y="420">2:00</text><line class="minute_ref_line" x1="360" x2="360" y1="0" y2="400" /><text x="360" y="420">3:00</text><line class="minute_ref_line" x1="480" x2="480" y1="0" y2="400" /><text x="480" y="420">4:00</text><line class="minute_ref_line" x1="600" x2="600" y1="0" y2="400" /><text x="600" y="420">5:00</text><line class="minute_ref_line" x1="720" x2="720" y1="0" y2="400" /><text x="720" y="420">6:00</text><line class="minute_ref_line" x1="840" x2="840" y1="0" y2="400" /><text x="840" y="420">7:00</text><polyline class="payload_progress" points="0,400 0,400.0 2,400.0 4,400.0 6,397.71999999999997 8,395.44 10,393.16 12,390.84 14,387.44 16,385.15999999999997 18,381.72 20,379.44 22,377.15999999999997 24,374.84000000000003 26,371.44 28,371.44 30,370.28 32,370.28 34,370.28 36,370.28 38,369.16 40,369.16 42,365.72 44,363.44 46,361.16 48,358.84000000000003 50,355.44 52,353.16 54,350.84 56,347.44 58,345.16 60,341.72 62,338.28000000000003 64,337.15999999999997 66,333.72 68,331.44 70,329.15999999999997 72,326.84 74,325.72 76,323.44 78,321.15999999999997 80,318.84000000000003 82,316.56 84,314.28000000000003 86,312.0 88,309.71999999999997 90,308.56 92,306.28000000000003 94,306.28000000000003 96,306.28000000000003 98,306.28000000000003 100,306.28000000000003 102,306.28000000000003 104,306.28000000000003 106,306.28000000000003 108,306.28000000000003 110,306.28000000000003 112,306.28000000000003 114,306.28000000000003 116,306.28000000000003 118,306.28000000000003 120,306.28000000000003 122,306.28000000000003 124,306.28000000000003 126,306.28000000000003 128,306.28000000000003 130,306.28000000000003 132,306.28000000000003 134,306.28000000000003 136,307.44 138,308.56 140,308.56 142,307.44 144,307.44 146,307.44 148,306.28000000000003 150,305.16 152,305.16 154,301.71999999999997 156,297.16 158,294.84 160,292.56 162,290.28000000000003 164,288.0 166,284.56 168,281.16 170,277.71999999999997 172,275.44 174,272.0 176,272.0 178,272.0 180,272.0 182,272.0 184,272.0 186,272.0 188,272.0 190,272.0 192,272.0 194,272.0 196,272.0 198,272.0 200,272.0 202,272.0 204,272.0 206,269.72 208,266.28 210,263.99999999999994 212,261.71999999999997 214,258.28 216,254.84 218,252.55999999999997 220,250.27999999999997 222,248.0 224,245.72000000000003 226,243.44 228,242.28 230,240.0 232,237.72000000000003 234,235.44 236,233.16 238,228.56 240,226.28 242,225.15999999999997 244,224.00000000000003 246,224.00000000000003 248,224.00000000000003 250,224.00000000000003 252,224.00000000000003 254,224.00000000000003 256,224.00000000000003 258,224.00000000000003 260,224.00000000000003 262,224.00000000000003 264,224.00000000000003 266,224.00000000000003 268,224.00000000000003 270,224.00000000000003 272,224.00000000000003 274,224.00000000000003 276,224.00000000000003 278,224.00000000000003 280,224.00000000000003 282,224.00000000000003 284,224.00000000000003 286,225.15999999999997 288,225.15999999999997 290,226.28 292,226.28 294,226.28 296,227.44 298,228.56 300,228.56 302,228.56 304,228.56 306,228.56 308,228.56 310,226.28 312,224.00000000000003 314,221.72 316,221.72 318,221.72 320,220.56 322,220.56 324,220.56 326,220.56 328,219.44 330,218.28000000000003 332,217.15999999999997 334,217.15999999999997 336,217.15999999999997 338,217.15999999999997 340,217.15999999999997 342,217.15999999999997 344,216.0 346,216.0 348,214.84 350,213.72 352,213.72 354,213.72 356,213.72 358,213.72 360,213.72 362,213.72 364,213.72 366,210.28000000000003 368,206.84 370,206.84 372,206.84 374,206.84 376,206.84 378,206.84 380,206.84 382,206.84 384,206.84 386,205.72 388,205.72 390,205.72 392,205.72 394,205.72 396,205.72 398,205.72 400,205.72 402,205.72 404,205.72 406,205.72 408,205.72 410,204.56000000000003 412,202.28000000000003 414,200.0 416,197.71999999999997 418,193.16 420,193.16 422,193.16 424,192.0 426,192.0 428,193.16 430,193.16 432,192.0 434,192.0 436,192.0 438,192.0 440,192.0 442,192.0 444,192.0 446,192.0 448,192.0 450,192.0 452,192.0 454,192.0 456,192.0 458,192.0 460,192.0 462,189.72000000000003 464,187.44 466,185.16 468,182.83999999999997 470,179.44 472,177.16 474,173.72 476,172.56 478,169.16000000000003 480,166.84 482,164.56 484,162.27999999999997 486,158.84 488,156.56 490,154.28000000000003 492,152.0 494,149.72 496,147.44000000000003 498,145.16 500,142.83999999999997 502,141.71999999999997 504,139.44 506,139.44 508,139.44 510,139.44 512,139.44 514,139.44 516,138.28 518,138.28 520,138.28 522,138.28 524,137.16 526,134.83999999999997 528,134.83999999999997 530,134.83999999999997 532,133.72000000000003 534,133.72000000000003 536,133.72000000000003 538,133.72000000000003 540,133.72000000000003 542,133.72000000000003 544,131.44 546,127.99999999999999 548,125.72000000000001 550,122.27999999999999 552,120.00000000000001 554,117.72 556,117.72 558,117.72 560,117.72 562,116.56 564,114.27999999999999 566,112.00000000000001 568,108.55999999999999 570,105.16000000000001 572,104.0 574,104.0 576,102.84 578,102.84 580,102.84 582,101.71999999999998 584,98.28000000000002 586,96.0 588,93.71999999999998 590,90.28 592,87.99999999999999 594,84.56000000000002 596,82.28 598,78.84000000000002 600,76.56 602,74.27999999999999 604,73.15999999999998 606,70.84000000000002 608,67.43999999999998 610,65.16000000000003 612,61.72 614,59.43999999999998 616,58.28000000000002 618,58.28000000000002 620,58.28000000000002 622,58.28000000000002 624,58.28000000000002 626,58.28000000000002 628,58.28000000000002 630,58.28000000000002 632,59.43999999999998 634,59.43999999999998 636,58.28000000000002 638,58.28000000000002 640,58.28000000000002 642,58.28000000000002 644,59.43999999999998 646,59.43999999999998 648,59.43999999999998 650,58.28000000000002 652,57.16000000000001 654,57.16000000000001 656,57.16000000000001 658,57.16000000000001 660,57.16000000000001 662,57.16000000000001 664,57.16000000000001 666,57.16000000000001 668,57.16000000000001 670,57.16000000000001 672,57.16000000000001 674,57.16000000000001 676,57.16000000000001 678,57.16000000000001 680,57.16000000000001 682,57.16000000000001 684,57.16000000000001 686,57.16000000000001 688,57.16000000000001 690,57.16000000000001 692,57.16000000000001 694,57.16000000000001 696,57.16000000000001 698,57.16000000000001 700,58.28000000000002 702,59.43999999999998 704,59.43999999999998 706,59.43999999999998 708,59.43999999999998 710,60.55999999999999 712,60.55999999999999 714,61.72 716,61.72 718,61.72 720,62.84 722,62.84 724,64.00000000000001 726,64.00000000000001 728,64.00000000000001 730,65.16000000000003 732,65.16000000000003 734,66.27999999999999 736,66.27999999999999 738,66.27999999999999 740,67.43999999999998 742,68.56 744,68.56 746,68.56 748,68.56 750,69.72 752,69.72 754,69.72 756,70.84000000000002 758,70.84000000000002 760,72.00000000000001 762,72.00000000000001 764,70.84000000000002 766,67.43999999999998 768,64.00000000000001 770,64.00000000000001 772,62.84 774,61.72 776,57.16000000000001 778,56.00000000000001 780,53.71999999999999 782,51.44000000000002 784,48.0 786,45.719999999999985 788,45.719999999999985 790,44.560000000000024 792,44.560000000000024 794,43.44000000000001 796,42.28000000000001 798,39.99999999999999 800,39.99999999999999 802,37.72000000000002 804,36.56000000000002 806,36.56000000000002 808,36.56000000000002 810,34.28 812,31.999999999999986 814,28.56000000000001 816,26.279999999999994 818,22.840000000000018 820,20.560000000000002 822,18.279999999999987 824,16.000000000000014 826,16.000000000000014 828,16.000000000000014 830,16.000000000000014 832,16.000000000000014 834,16.000000000000014 836,16.000000000000014 838,16.000000000000014 840,16.000000000000014 842,16.000000000000014 844,16.000000000000014 846,16.000000000000014 848,16.000000000000014 850,16.000000000000014 852,16.000000000000014 854,16.000000000000014 856,16.000000000000014 858,16.000000000000014 860,16.000000000000014 862,16.000000000000014 864,16.000000000000014 866,18.279999999999987 868,18.279999999999987 870,17.160000000000018 872,17.160000000000018 874,17.160000000000018 876,17.160000000000018 878,17.160000000000018 880,17.160000000000018 882,16.000000000000014 884,16.000000000000014 886,16.000000000000014 888,16.000000000000014 890,16.000000000000014 892,13.719999999999999 894,12.559999999999993 896,11.439999999999984 898,11.439999999999984 900,11.439999999999984 902,11.439999999999984 904,11.439999999999984 906,11.439999999999984 908,11.439999999999984 910,11.439999999999984 912,9.160000000000013 914,8.000000000000007 916,8.000000000000007 918,6.840000000000002 920,6.840000000000002 922,6.840000000000002 924,6.840000000000002 926,6.840000000000002 928,6.840000000000002 930,3.440000000000021 930,1.1600000000000055" /><line class="progress_target_line" x1="174" x2="174" y1="0" y2="272.0" /><line class="progress_completion_line" x1="0" x2="174" y1="272.0" y2="272.0" /><text x="174" y="-5">01:27</text><line class="progress_target_line" x1="526" x2="526" y1="0" y2="134.83999999999997" /><line class="progress_completion_line" x1="174" x2="526" y1="134.83999999999997" y2="134.83999999999997" /><text x="526" y="-5">04:23</text><polyline class="player_advantage" points="0,200.0 0,200.0 2,200.0 4,200.0 6,200.0 8,200.0 10,200.0 12,200.0 14,200.0 16,200.0 18,200.0 20,200.0 22,200.0 24,200.0 26,200.0 28,200.0 30,200.0 32,200.0 34,200.0 36,200.0 38,200.0 40,200.0 42,200.0 44,200.0 46,200.0 48,200.0 50,200.0 52,200.0 54,200.0 56,200.0 58,200.0 60,200.0 62,200.0 64,200.0 66,200.0 68,200.0 70,200.0 72,200.0 74,200.0 76,200.0 78,200.0 80,200.0 82,200.0 84,200.0 86,200.0 88,200.0 90,200.0 92,200.0 94,200.0 96,200.0 98,200.0 100,200.0 102,200.0 104,166.66666666666666 106,166.66666666666666 108,166.66666666666666 110,166.66666666666666 112,166.66666666666666 114,200.0 116,200.0 118,200.0 120,200.0 122,200.0 124,233.33333333333331 126,233.33333333333331 128,233.33333333333331 130,233.33333333333331 132,233.33333333333331 134,233.33333333333331 136,233.33333333333331 138,233.33333333333331 140,200.0 142,200.0 144,166.66666666666666 146,100.0 148,100.0 150,100.0 152,100.0 154,66.66666666666663 156,66.66666666666663 158,66.66666666666663 160,66.66666666666663 162,66.66666666666663 164,100.0 166,100.0 168,133.33333333333331 170,166.66666666666666 172,166.66666666666666 174,166.66666666666666 176,200.0 178,200.0 180,200.0 182,200.0 184,200.0 186,200.0 188,200.0 190,200.0 192,200.0 194,200.0 196,200.0 198,200.0 200,200.0 202,200.0 204,200.0 206,200.0 208,200.0 210,200.0 212,200.0 214,200.0 216,200.0 218,200.0 220,200.0 222,200.0 224,200.0 226,200.0 228,200.0 230,200.0 232,200.0 234,200.0 236,200.0 238,200.0 240,200.0 242,200.0 244,200.0 246,200.0 248,200.0 250,200.0 252,200.0 254,233.33333333333331 256,233.33333333333331 258,233.33333333333331 260,233.33333333333331 262,233.33333333333331 264,233.33333333333331 266,233.33333333333331 268,233.33333333333331 270,233.33333333333331 272,233.33333333333331 274,266.66666666666663 276,233.33333333333331 278,233.33333333333331 280,233.33333333333331 282,233.33333333333331 284,233.33333333333331 286,233.33333333333331 288,233.33333333333331 290,233.33333333333331 292,233.33333333333331 294,233.33333333333331 296,200.0 298,200.0 300,200.0 302,200.0 304,200.0 306,200.0 308,200.0 310,200.0 312,200.0 314,200.0 316,200.0 318,200.0 320,200.0 322,200.0 324,200.0 326,200.0 328,200.0 330,200.0 332,200.0 334,200.0 336,200.0 338,200.0 340,200.0 342,200.0 344,166.66666666666666 346,166.66666666666666 348,166.66666666666666 350,166.66666666666666 352,200.0 354,200.0 356,200.0 358,233.33333333333331 360,233.33333333333331 362,200.0 364,200.0 366,200.0 368,200.0 370,200.0 372,200.0 374,200.0 376,200.0 378,200.0 380,200.0 382,200.0 384,200.0 386,200.0 388,200.0 390,233.33333333333331 392,233.33333333333331 394,233.33333333333331 396,233.33333333333331 398,233.33333333333331 400,200.0 402,200.0 404,200.0 406,200.0 408,200.0 410,200.0 412,200.0 414,200.0 416,233.33333333333331 418,233.33333333333331 420,200.0 422,200.0 424,200.0 426,200.0 428,233.33333333333331 430,200.0 432,200.0 434,200.0 436,133.33333333333331 438,166.66666666666666 440,200.0 442,200.0 444,166.66666666666666 446,166.66666666666666 448,100.0 450,100.0 452,66.66666666666663 454,66.66666666666663 456,100.0 458,133.33333333333331 460,133.33333333333331 462,133.33333333333331 464,66.66666666666663 466,133.33333333333331 468,166.66666666666666 470,166.66666666666666 472,166.66666666666666 474,166.66666666666666 476,166.66666666666666 478,166.66666666666666 480,166.66666666666666 482,166.66666666666666 484,200.0 486,200.0 488,200.0 490,200.0 492,200.0 494,200.0 496,200.0 498,200.0 500,200.0 502,200.0 504,200.0 506,200.0 508,200.0 510,166.66666666666666 512,166.66666666666666 514,166.66666666666666 516,200.0 518,166.66666666666666 520,200.0 522,166.66666666666666 524,166.66666666666666 526,166.66666666666666 528,200.0 530,200.0 532,200.0 534,200.0 536,166.66666666666666 538,166.66666666666666 540,133.33333333333331 542,100.0 544,100.0 546,100.0 548,100.0 550,100.0 552,133.33333333333331 554,133.33333333333331 556,166.66666666666666 558,166.66666666666666 560,166.66666666666666 562,200.0 564,166.66666666666666 566,166.66666666666666 568,166.66666666666666 570,166.66666666666666 572,166.66666666666666 574,166.66666666666666 576,166.66666666666666 578,166.66666666666666 580,166.66666666666666 582,166.66666666666666 584,200.0 586,200.0 588,200.0 590,200.0 592,200.0 594,200.0 596,200.0 598,200.0 600,200.0 602,200.0 604,200.0 606,200.0 608,200.0 610,200.0 612,200.0 614,200.0 616,200.0 618,200.0 620,200.0 622,200.0 624,200.0 626,200.0 628,200.0 630,200.0 632,200.0 634,200.0 636,200.0 638,200.0 640,200.0 642,200.0 644,200.0 646,200.0 648,200.0 650,200.0 652,200.0 654,200.0 656,200.0 658,166.66666666666666 660,166.66666666666666 662,200.0 664,200.0 666,200.0 668,166.66666666666666 670,166.66666666666666 672,200.0 674,200.0 676,200.0 678,200.0 680,200.0 682,200.0 684,266.66666666666663 686,266.66666666666663 688,266.66666666666663 690,233.33333333333331 692,233.33333333333331 694,233.33333333333331 696,266.66666666666663 698,266.66666666666663 700,333.3333333333333 702,333.3333333333333 704,366.6666666666667 706,333.3333333333333 708,333.3333333333333 710,333.3333333333333 712,333.3333333333333 714,333.3333333333333 716,333.3333333333333 718,300.0 720,300.0 722,233.33333333333331 724,200.0 726,200.0 728,200.0 730,200.0 732,200.0 734,200.0 736,200.0 738,200.0 740,200.0 742,200.0 744,200.0 746,200.0 748,200.0 750,200.0 752,200.0 754,200.0 756,200.0 758,200.0 760,200.0 762,200.0 764,200.0 766,200.0 768,200.0 770,200.0 772,200.0 774,200.0 776,200.0 778,200.0 780,200.0 782,200.0 784,200.0 786,200.0 788,200.0 790,200.0 792,200.0 794,200.0 796,200.0 798,200.0 800,200.0 802,200.0 804,200.0 806,200.0 808,200.0 810,200.0 812,200.0 814,200.0 816,200.0 818,200.0 820,200.0 822,200.0 824,200.0 826,200.0 828,200.0 830,233.33333333333331 832,233.33333333333331 834,233.33333333333331 836,233.33333333333331 838,266.66666666666663 840,233.33333333333331 842,233.33333333333331 844,233.33333333333331 846,233.33333333333331 848,233.33333333333331 850,233.33333333333331 852,200.0 854,166.66666666666666 856,166.66666666666666 858,133.33333333333331 860,166.66666666666666 862,166.66666666666666 864,166.66666666666666 866,166.66666666666666 868,166.66666666666666 870,166.66666666666666 872,166.66666666666666 874,200.0 876,200.0 878,200.0 880,200.0 882,200.0 884,200.0 886,200.0 888,200.0 890,200.0 892,200.0 894,200.0 896,200.0 898,233.33333333333331 900,200.0 902,200.0 904,200.0 906,200.0 908,200.0 910,200.0 912,133.33333333333331 914,133.33333333333331 916,133.33333333333331 918,100.0 920,66.66666666666663 922,66.66666666666663 924,66.66666666666663 926,33.333333333333314 928,33.333333333333314 930,33.333333333333314 930,66.66666666666663" /></g></svg>