<?xml version="1.0" encoding="utf-8" ?>
<svg baseProfile="full" height="100%" version="1.1" width="100%" xmlns="http://www.w3.org/2000/svg" xmlns:ev="http://www.w3.org/2001/xml-events" xmlns:xlink="http://www.w3.org/1999/xlink"><defs><style type="text/css"><![CDATA[
.payload_progress {
  fill:none;
  stroke: blue;
  stroke-width: 2
}

.player_advantage {
  fill:none;
  stroke: red;
  stroke-width: 1

}

.player_lifeline {
  fill:none;
  stroke: green;
  stroke-width: 1
}

.graph_border {
  fill: none;
  stroke: black;
}

.minute_ref_line {
  stroke: gray;
  stroke-width: 1;
  stroke-dasharray: 1,4
}

.progress_target_line {
  stroke: gray;
  stroke_width: 1;
  stroke-dasharray: 3,1
}

.progress_completion_line {
  stroke: gray;
  stroke_width: 1
}


]]></style></defs><text x="10" y="20">Seoul Dynasty at San Francisco Shock on Dorado round 2</text><g style="graph" transform="translate(10, 45)"><rect class="graph_border" height="400" width="1034" x="0" y="0" /><line class="minute_ref_line" x1="120" x2="120" y1="0" y2="400" /><text x="120" y="420">1:00</text><line class="minute_ref_line" x1="240" x2="240" y1="0" y2="400" /><text x="240" y="420">2:00</text><line class="minute_ref_line" x1="360" x2="360" y1="0" y2="400" /><text x="360" y="420">3:00</text><line class="minute_ref_line" x1="480" x2="480" y1="0" y2="400" /><text x="480" y="420">4:00</text><line class="minute_ref_line" x1="600" x2="600" y1="0" y2="400" /><text x="600" y="420">5:00</text><line class="minute_ref_line" x1="720" x2="720" y1="0" y2="400" /><text x="720" y="420">6:00</text><line class="minute_ref_line" x1="840" x2="840" y1="0" y2="400" /><text x="840" y="420">7:00</text><line class="minute_ref_line" x1="960" x2="960" y1="0" y2="400" /><text x="960" y="420">8:00</text><polyline class="payload_progress" points="0,400 0,379.44 2,400.0 4,400.0 6,400.0 8,395.44 10,393.16 12,393.16 14,393.16 16,390.84 18,386.28 20,384.0 22,381.72 24,381.72 26,381.72 28,381.72 30,381.72 32,381.72 34,379.44 36,379.44 38,379.44 40,379.44 42,379.44 44,379.44 46,379.44 48,379.44 50,379.44 52,379.44 54,379.44 56,379.44 58,379.44 60,379.44 62,379.44 64,379.44 66,379.44 68,379.44 70,379.44 72,379.44 74,379.44 76,379.44 78,379.44 80,379.44 82,379.44 84,379.44 86,379.44 88,379.44 90,379.44 92,379.44 94,379.44 96,377.15999999999997 98,377.15999999999997 100,377.15999999999997 102,377.15999999999997 104,377.15999999999997 106,377.15999999999997 108,377.15999999999997 110,377.15999999999997 112,377.15999999999997 114,377.15999999999997 116,377.15999999999997 118,377.15999999999997 120,379.44 122,379.44 124,379.44 126,379.44 128,379.44 130,381.72 132,381.72 134,381.72 136,381.72 138,381.72 140,381.72 142,379.44 144,379.44 146,379.44 148,379.44 150,379.44 152,379.44 154,374.84000000000003 156,372.56 158,370.28 160,365.72 162,363.44 164,363.44 166,363.44 168,361.16 170,356.56 172,356.56 174,352.0 176,349.71999999999997 178,348.56 180,345.16 182,340.55999999999995 184,338.28000000000003 186,336.0 188,333.72 190,331.44 192,329.15999999999997 194,329.15999999999997 196,329.15999999999997 198,329.15999999999997 200,324.56 202,324.56 204,324.56 206,324.56 208,324.56 210,324.56 212,324.56 214,324.56 216,324.56 218,324.56 220,324.56 222,324.56 224,324.56 226,324.56 228,324.56 230,322.28 232,322.28 234,322.28 236,322.28 238,322.28 240,320.0 242,320.0 244,320.0 246,320.0 248,320.0 250,320.0 252,320.0 254,320.0 256,317.72 258,315.44 260,313.16 262,313.16 264,313.16 266,313.16 268,310.84000000000003 270,310.84000000000003 272,310.84000000000003 274,310.84000000000003 276,310.84000000000003 278,306.28000000000003 280,306.28000000000003 282,304.0 284,301.71999999999997 286,299.44 288,294.84 290,292.56 292,290.28000000000003 294,288.0 296,285.71999999999997 298,281.16 300,278.84000000000003 302,276.56 304,276.56 306,276.56 308,276.56 310,278.84000000000003 312,278.84000000000003 314,278.84000000000003 316,276.56 318,276.56 320,276.56 322,276.56 324,276.56 326,276.56 328,276.56 330,276.56 332,276.56 334,276.56 336,277.71999999999997 338,278.84000000000003 340,278.84000000000003 342,276.56 344,276.56 346,276.56 348,276.56 350,276.56 352,278.84000000000003 354,278.84000000000003 356,276.56 358,276.56 360,276.56 362,276.56 364,276.56 366,276.56 368,276.56 370,278.84000000000003 372,278.84000000000003 374,278.84000000000003 376,278.84000000000003 378,278.84000000000003 380,281.16 382,281.16 384,283.44 386,283.44 388,283.44 390,283.44 392,283.44 394,283.44 396,283.44 398,283.44 400,283.44 402,285.71999999999997 404,285.71999999999997 406,288.0 408,288.0 410,288.0 412,288.0 414,288.0 416,288.0 418,288.0 420,288.0 422,288.0 424,288.0 426,288.0 428,288.0 430,288.0 432,288.0 434,288.0 436,285.71999999999997 438,285.71999999999997 440,285.71999999999997 442,285.71999999999997 444,288.0 446,288.0 448,288.0 450,285.71999999999997 452,283.44 454,283.44 456,283.44 458,283.44 460,283.44 462,281.16 464,281.16 466,281.16 468,281.16 470,278.84000000000003 472,278.84000000000003 474,278.84000000000003 476,278.84000000000003 478,278.84000000000003 480,278.84000000000003 482,274.28 484,274.28 486,272.0 488,272.0 490,269.72 492,269.72 494,269.72 496,269.72 498,269.72 500,269.72 502,269.72 504,269.72 506,269.72 508,269.72 510,269.72 512,269.72 514,269.72 516,269.72 518,269.72 520,272.0 522,272.0 524,269.72 526,269.72 528,269.72 530,269.72 532,267.44000000000005 534,265.16 536,262.84000000000003 538,260.56 540,258.28 542,256.0 544,253.72 546,250.27999999999997 548,248.0 550,246.84 552,244.55999999999997 554,240.0 556,240.0 558,237.72000000000003 560,235.44 562,230.83999999999997 564,228.56 566,228.56 568,228.56 570,224.00000000000003 572,219.44 574,217.15999999999997 576,214.84 578,210.28000000000003 580,210.28000000000003 582,208.0 584,205.72 586,201.16 588,201.16 590,196.55999999999997 592,196.55999999999997 594,196.55999999999997 596,194.28 598,194.28 600,194.28 602,192.0 604,192.0 606,192.0 608,192.0 610,192.0 612,192.0 614,192.0 616,189.72000000000003 618,189.72000000000003 620,189.72000000000003 622,189.72000000000003 624,189.72000000000003 626,189.72000000000003 628,189.72000000000003 630,189.72000000000003 632,187.44 634,182.83999999999997 636,182.83999999999997 638,180.56 640,175.99999999999997 642,175.99999999999997 644,175.99999999999997 646,173.72 648,169.16000000000003 650,166.84 652,164.56 654,160.0 656,157.72 658,155.43999999999997 660,153.16 662,150.84 664,148.55999999999997 666,146.28 668,144.0 670,141.71999999999997 672,139.44 674,139.44 676,138.28 678,138.28 680,137.16 682,137.16 684,134.83999999999997 686,134.83999999999997 688,134.83999999999997 690,133.72000000000003 692,132.56 694,132.56 696,132.56 698,132.56 700,132.56 702,132.56 704,132.56 706,132.56 708,132.56 710,132.56 712,132.56 714,132.56 716,132.56 718,132.56 720,132.56 722,132.56 724,130.28 726,130.28 728,130.28 730,130.28 732,130.28 734,130.28 736,130.28 738,130.28 740,127.99999999999999 742,124.56 744,121.15999999999998 746,118.84000000000002 748,116.56 750,113.16000000000001 752,109.72 754,109.72 756,105.16000000000001 758,102.84 760,100.55999999999999 762,100.55999999999999 764,100.55999999999999 766,100.55999999999999 768,100.55999999999999 770,100.55999999999999 772,98.28000000000002 774,93.71999999999998 776,91.44000000000001 778,89.16 780,86.83999999999999 782,82.28 784,82.28 786,77.72000000000001 788,75.44 790,73.15999999999998 792,73.15999999999998 794,73.15999999999998 796,73.15999999999998 798,68.56 800,68.56 802,68.56 804,70.84000000000002 806,70.84000000000002 808,68.56 810,68.56 812,68.56 814,68.56 816,68.56 818,68.56 820,68.56 822,68.56 824,70.84000000000002 826,70.84000000000002 828,70.84000000000002 830,70.84000000000002 832,73.15999999999998 834,73.15999999999998 836,73.15999999999998 838,73.15999999999998 840,73.15999999999998 842,73.15999999999998 844,75.44 846,75.44 848,75.44 850,75.44 852,75.44 854,75.44 856,75.44 858,75.44 860,75.44 862,75.44 864,75.44 866,75.44 868,75.44 870,75.44 872,73.15999999999998 874,66.27999999999999 876,64.00000000000001 878,64.00000000000001 880,64.00000000000001 882,66.27999999999999 884,66.27999999999999 886,66.27999999999999 888,66.27999999999999 890,64.00000000000001 892,64.00000000000001 894,64.00000000000001 896,64.00000000000001 898,64.00000000000001 900,66.27999999999999 902,66.27999999999999 904,66.27999999999999 906,64.00000000000001 908,64.00000000000001 910,66.27999999999999 912,66.27999999999999 914,66.27999999999999 916,68.56 918,68.56 920,68.56 922,68.56 924,68.56 926,68.56 928,68.56 930,68.56 932,68.56 934,68.56 936,68.56 938,68.56 940,68.56 942,68.56 944,68.56 946,68.56 948,64.00000000000001 950,64.00000000000001 952,59.43999999999998 954,57.16000000000001 956,54.84 958,52.55999999999999 960,50.280000000000015 962,50.280000000000015 964,50.280000000000015 966,50.280000000000015 968,50.280000000000015 970,50.280000000000015 972,50.280000000000015 974,50.280000000000015 976,50.280000000000015 978,50.280000000000015 980,50.280000000000015 982,50.280000000000015 984,50.280000000000015 986,50.280000000000015 988,50.280000000000015 990,50.280000000000015 992,50.280000000000015 994,50.280000000000015 996,50.280000000000015 998,50.280000000000015 1000,50.280000000000015 1002,50.280000000000015 1004,50.280000000000015 1006,50.280000000000015 1008,50.280000000000015 1010,50.280000000000015 1012,50.280000000000015 1014,50.280000000000015 1016,50.280000000000015 1018,50.280000000000015 1020,50.280000000000015 1022,50.280000000000015 1024,50.280000000000015 1026,50.280000000000015 1028,50.280000000000015 1030,50.280000000000015 1032,50.280000000000015 1034,50.280000000000015 1034,50.280000000000015" /><line class="progress_target_line" x1="486" x2="486" y1="0" y2="272.0" /><line class="progress_completion_line" x1="0" x2="486" y1="272.0" y2="272.0" /><text x="486" y="-5">04:03</text><line class="progress_target_line" x1="684" x2="684" y1="0" y2="134.83999999999997" /><line class="progress_completion_line" x1="486" x2="684" y1="134.83999999999997" y2="134.83999999999997" /><text x="684" y="-5">05:42</text><polyline class="player_advantage" points="0,200.0 0,200.0 2,200.0 4,200.0 6,200.0 8,200.0 10,200.0 12,200.0 14,200.0 16,200.0 18,166.66666666666666 20,166.66666666666666 22,166.66666666666666 24,166.66666666666666 26,200.0 28,200.0 30,200.0 32,200.0 34,200.0 36,200.0 38,200.0 40,166.66666666666666 42,166.66666666666666 44,166.66666666666666 46,166.66666666666666 48,166.66666666666666 50,166.66666666666666 52,166.66666666666666 54,166.66666666666666 56,166.66666666666666 58,166.66666666666666 60,166.66666666666666 62,166.66666666666666 64,166.66666666666666 66,166.66666666666666 68,166.66666666666666 70,166.66666666666666 72,166.66666666666666 74,166.66666666666666 76,166.66666666666666 78,166.66666666666666 80,166.66666666666666 82,166.66666666666666 84,200.0 86,200.0 88,200.0 90,200.0 92,200.0 94,200.0 96,200.0 98,166.66666666666666 100,166.66666666666666 102,166.66666666666666 104,166.66666666666666 106,166.66666666666666 108,166.66666666666666 110,166.66666666666666 112,133.33333333333331 114,133.33333333333331 116,133.33333333333331 118,133.33333333333331 120,166.66666666666666 122,166.66666666666666 124,166.66666666666666 126,166.66666666666666 128,166.66666666666666 130,166.66666666666666 132,200.0 134,200.0 136,200.0 138,200.0 140,200.0 142,200.0 144,200.0 146,200.0 148,200.0 150,200.0 152,200.0 154,200.0 156,200.0 158,200.0 160,200.0 162,200.0 164,200.0 166,200.0 168,200.0 170,200.0 172,200.0 174,200.0 176,200.0 178,200.0 180,200.0 182,200.0 184,200.0 186,200.0 188,200.0 190,200.0 192,200.0 194,200.0 196,200.0 198,200.0 200,200.0 202,200.0 204,200.0 206,200.0 208,200.0 210,200.0 212,200.0 214,200.0 216,200.0 218,200.0 220,200.0 222,200.0 224,200.0 226,200.0 228,200.0 230,200.0 232,200.0 234,200.0 236,200.0 238,233.33333333333331 240,233.33333333333331 242,233.33333333333331 244,266.66666666666663 246,266.66666666666663 248,266.66666666666663 250,266.66666666666663 252,266.66666666666663 254,266.66666666666663 256,266.66666666666663 258,266.66666666666663 260,233.33333333333331 262,233.33333333333331 264,233.33333333333331 266,200.0 268,200.0 270,200.0 272,200.0 274,200.0 276,200.0 278,200.0 280,200.0 282,233.33333333333331 284,233.33333333333331 286,233.33333333333331 288,233.33333333333331 290,233.33333333333331 292,233.33333333333331 294,233.33333333333331 296,233.33333333333331 298,233.33333333333331 300,233.33333333333331 302,200.0 304,200.0 306,200.0 308,166.66666666666666 310,166.66666666666666 312,166.66666666666666 314,200.0 316,166.66666666666666 318,200.0 320,200.0 322,166.66666666666666 324,166.66666666666666 326,166.66666666666666 328,166.66666666666666 330,166.66666666666666 332,166.66666666666666 334,166.66666666666666 336,166.66666666666666 338,166.66666666666666 340,166.66666666666666 342,166.66666666666666 344,100.0 346,133.33333333333331 348,133.33333333333331 350,133.33333333333331 352,133.33333333333331 354,100.0 356,133.33333333333331 358,166.66666666666666 360,100.0 362,133.33333333333331 364,133.33333333333331 366,166.66666666666666 368,166.66666666666666 370,166.66666666666666 372,166.66666666666666 374,200.0 376,200.0 378,200.0 380,200.0 382,200.0 384,200.0 386,200.0 388,200.0 390,200.0 392,200.0 394,200.0 396,200.0 398,200.0 400,200.0 402,200.0 404,200.0 406,200.0 408,200.0 410,200.0 412,200.0 414,200.0 416,200.0 418,200.0 420,200.0 422,200.0 424,233.33333333333331 426,233.33333333333331 428,200.0 430,200.0 432,233.33333333333331 434,233.33333333333331 436,233.33333333333331 438,233.33333333333331 440,266.66666666666663 442,266.66666666666663 444,233.33333333333331 446,233.33333333333331 448,233.33333333333331 450,233.33333333333331 452,233.33333333333331 454,233.33333333333331 456,200.0 458,200.0 460,200.0 462,200.0 464,233.33333333333331 466,233.33333333333331 468,233.33333333333331 470,233.33333333333331 472,233.33333333333331 474,233.33333333333331 476,233.33333333333331 478,233.33333333333331 480,233.33333333333331 482,233.33333333333331 484,233.33333333333331 486,200.0 488,200.0 490,233.33333333333331 492,233.33333333333331 494,233.33333333333331 496,233.33333333333331 498,233.33333333333331 500,233.33333333333331 502,233.33333333333331 504,233.33333333333331 506,233.33333333333331 508,233.33333333333331 510,233.33333333333331 512,233.33333333333331 514,233.33333333333331 516,233.33333333333331 518,200.0 520,200.0 522,200.0 524,200.0 526,200.0 528,200.0 530,200.0 532,200.0 534,200.0 536,200.0 538,200.0 540,200.0 542,200.0 544,200.0 546,200.0 548,200.0 550,200.0 552,200.0 554,200.0 556,200.0 558,200.0 560,200.0 562,200.0 564,200.0 566,200.0 568,200.0 570,200.0 572,200.0 574,200.0 576,200.0 578,200.0 580,200.0 582,200.0 584,200.0 586,200.0 588,200.0 590,200.0 592,200.0 594,200.0 596,200.0 598,233.33333333333331 600,233.33333333333331 602,233.33333333333331 604,233.33333333333331 606,233.33333333333331 608,233.33333333333331 610,233.33333333333331 612,233.33333333333331 614,233.33333333333331 616,233.33333333333331 618,233.33333333333331 620,266.66666666666663 622,266.66666666666663 624,266.66666666666663 626,266.66666666666663 628,266.66666666666663 630,266.66666666666663 632,233.33333333333331 634,233.33333333333331 636,233.33333333333331 638,233.33333333333331 640,233.33333333333331 642,233.33333333333331 644,233.33333333333331 646,233.33333333333331 648,233.33333333333331 650,233.33333333333331 652,233.33333333333331 654,233.33333333333331 656,233.33333333333331 658,233.33333333333331 660,233.33333333333331 662,233.33333333333331 664,233.33333333333331 666,233.33333333333331 668,200.0 670,200.0 672,200.0 674,200.0 676,200.0 678,200.0 680,200.0 682,200.0 684,200.0 686,200.0 688,200.0 690,200.0 692,200.0 694,200.0 696,200.0 698,200.0 700,200.0 702,233.33333333333331 704,233.33333333333331 706,233.33333333333331 708,233.33333333333331 710,233.33333333333331 712,233.33333333333331 714,233.33333333333331 716,233.33333333333331 718,233.33333333333331 720,233.33333333333331 722,233.33333333333331 724,233.33333333333331 726,233.33333333333331 728,233.33333333333331 730,266.66666666666663 732,266.66666666666663 734,266.66666666666663 736,333.3333333333333 738,300.0 740,300.0 742,300.0 744,300.0 746,300.0 748,300.0 750,233.33333333333331 752,266.66666666666663 754,233.33333333333331 756,233.33333333333331 758,200.0 760,200.0 762,200.0 764,200.0 766,200.0 768,200.0 770,200.0 772,200.0 774,200.0 776,200.0 778,200.0 780,200.0 782,200.0 784,200.0 786,200.0 788,166.66666666666666 790,166.66666666666666 792,166.66666666666666 794,166.66666666666666 796,166.66666666666666 798,133.33333333333331 800,133.33333333333331 802,100.0 804,100.0 806,100.0 808,100.0 810,133.33333333333331 812,133.33333333333331 814,100.0 816,100.0 818,100.0 820,133.33333333333331 822,133.33333333333331 824,166.66666666666666 826,166.66666666666666 828,166.66666666666666 830,166.66666666666666 832,166.66666666666666 834,200.0 836,200.0 838,200.0 840,200.0 842,200.0 844,200.0 846,200.0 848,200.0 850,200.0 852,200.0 854,200.0 856,200.0 858,200.0 860,200.0 862,200.0 864,200.0 866,200.0 868,200.0 870,200.0 872,200.0 874,200.0 876,200.0 878,200.0 880,233.33333333333331 882,233.33333333333331 884,233.33333333333331 886,233.33333333333331 888,233.33333333333331 890,200.0 892,200.0 894,200.0 896,200.0 898,166.66666666666666 900,166.66666666666666 902,200.0 904,233.33333333333331 906,233.33333333333331 908,200.0 910,200.0 912,233.33333333333331 914,200.0 916,233.33333333333331 918,233.33333333333331 920,233.33333333333331 922,200.0 924,200.0 926,200.0 928,200.0 930,200.0 932,200.0 934,200.0 936,200.0 938,200.0 940,200.0 942,200.0 944,200.0 946,200.0 948,200.0 950,166.66666666666666 952,166.66666666666666 954,166.66666666666666 956,166.66666666666666 958,166.66666666666666 960,166.66666666666666 962,166.66666666666666 964,133.33333333333331 966,133.33333333333331 968,166.66666666666666 970,166.66666666666666 972,166.66666666666666 974,200.0 976,200.0 978,200.0 980,200.0 982,200.0 984,233.33333333333331 986,166.66666666666666 988,200.0 990,200.0 992,233.33333333333331 994,200.0 996,200.0 998,200.0 1000,200.0 1002,200.0 1004,200.0 1006,200.0 1008,200.0 1010,166.66666666666666 1012,133.33333333333331 1014,166.66666666666666 1016,133.33333333333331 1018,133.33333333333331 1020,133.33333333333331 1022,133.33333333333331 1024,133.33333333333331 1026,133.33333333333331 1028,133.33333333333331 1030,166.66666666666666 1032,100.0 1034,33.333333333333314 1034,33.333333333333314" /></g></svg>