<?xml version="1.0" encoding="utf-8" ?>
<svg baseProfile="full" height="100%" version="1.1" width="100%" xmlns="http://www.w3.org/2000/svg" xmlns:ev="http://www.w3.org/2001/xml-events" xmlns:xlink="http://www.w3.org/1999/xlink"><defs><style type="text/css"><![CDATA[
.payload_progress {
  fill:none;
  stroke: blue;
  stroke-width: 2
}

.player_advantage {
  fill:none;
  stroke: red;
  stroke-width: 1

}

.player_lifeline {
  fill:none;
  stroke: green;
  stroke-width: 1
}

.graph_border {
  fill: none;
  stroke: black;
}

.minute_ref_line {
  stroke: gray;
  stroke-width: 1;
  stroke-dasharray: 1,4
}

.progress_target_line {
  stroke: gray;
  stroke_width: 1;
  stroke-dasharray: 3,1
}

.progress_completion_line {
  stroke: gray;
  stroke_width: 1
}


]]></style></defs><text x="10" y="20">Shanghai Dragons at Dallas Fuel on junkertown round 1</text><g style="graph" transform="translate(10, 45)"><rect class="graph_border" height="400" width="1100" x="0" y="0" /><line class="minute_ref_line" x1="120" x2="120" y1="0" y2="400" /><text x="120" y="420">1:00</text><line class="minute_ref_line" x1="240" x2="240" y1="0" y2="400" /><text x="240" y="420">2:00</text><line class="minute_ref_line" x1="360" x2="360" y1="0" y2="400" /><text x="360" y="420">3:00</text><line class="minute_ref_line" x1="480" x2="480" y1="0" y2="400" /><text x="480" y="420">4:00</text><line class="minute_ref_line" x1="600" x2="600" y1="0" y2="400" /><text x="600" y="420">5:00</text><line class="minute_ref_line" x1="720" x2="720" y1="0" y2="400" /><text x="720" y="420">6:00</text><line class="minute_ref_line" x1="840" x2="840" y1="0" y2="400" /><text x="840" y="420">7:00</text><line class="minute_ref_line" x1="960" x2="960" y1="0" y2="400" /><text x="960" y="420">8:00</text><line class="minute_ref_line" x1="1080" x2="1080" y1="0" y2="400" /><text x="1080" y="420">9:00</text><polyline class="payload_progress" points="0,400 0,378.28 2,378.28 4,376.0 6,373.72 8,370.28 10,366.84000000000003 12,365.72 14,363.44 16,360.0 18,356.56 20,353.16 22,352.0 24,348.56 26,346.28000000000003 28,342.84 30,340.55999999999995 32,337.15999999999997 34,336.0 36,333.72 38,330.28 40,329.15999999999997 42,329.15999999999997 44,328.0 46,325.72 48,325.72 50,325.72 52,325.72 54,325.72 56,324.56 58,322.28 60,321.15999999999997 62,321.15999999999997 64,321.15999999999997 66,321.15999999999997 68,321.15999999999997 70,321.15999999999997 72,321.15999999999997 74,321.15999999999997 76,320.0 78,317.72 80,315.44 82,315.44 84,315.44 86,315.44 88,315.44 90,315.44 92,315.44 94,315.44 96,315.44 98,315.44 100,315.44 102,315.44 104,315.44 106,315.44 108,315.44 110,315.44 112,315.44 114,315.44 116,315.44 118,315.44 120,315.44 122,315.44 124,315.44 126,315.44 128,315.44 130,315.44 132,315.44 134,315.44 136,315.44 138,315.44 140,316.56 142,316.56 144,316.56 146,317.72 148,317.72 150,318.84000000000003 152,318.84000000000003 154,318.84000000000003 156,318.84000000000003 158,318.84000000000003 160,318.84000000000003 162,318.84000000000003 164,318.84000000000003 166,318.84000000000003 168,318.84000000000003 170,318.84000000000003 172,318.84000000000003 174,318.84000000000003 176,318.84000000000003 178,316.56 180,314.28000000000003 182,312.0 184,310.84000000000003 186,310.84000000000003 188,310.84000000000003 190,310.84000000000003 192,310.84000000000003 194,310.84000000000003 196,310.84000000000003 198,310.84000000000003 200,310.84000000000003 202,310.84000000000003 204,310.84000000000003 206,310.84000000000003 208,310.84000000000003 210,310.84000000000003 212,310.84000000000003 214,310.84000000000003 216,310.84000000000003 218,310.84000000000003 220,310.84000000000003 222,310.84000000000003 224,310.84000000000003 226,310.84000000000003 228,312.0 230,312.0 232,313.16 234,313.16 236,313.16 238,314.28000000000003 240,314.28000000000003 242,315.44 244,315.44 246,315.44 248,316.56 250,316.56 252,316.56 254,316.56 256,316.56 258,316.56 260,316.56 262,316.56 264,315.44 266,313.16 268,309.71999999999997 270,308.56 272,308.56 274,308.56 276,308.56 278,308.56 280,308.56 282,308.56 284,308.56 286,308.56 288,308.56 290,308.56 292,308.56 294,308.56 296,308.56 298,308.56 300,308.56 302,308.56 304,308.56 306,309.71999999999997 308,309.71999999999997 310,309.71999999999997 312,310.84000000000003 314,310.84000000000003 316,310.84000000000003 318,312.0 320,312.0 322,313.16 324,313.16 326,313.16 328,313.16 330,314.28000000000003 332,314.28000000000003 334,315.44 336,315.44 338,315.44 340,316.56 342,316.56 344,316.56 346,317.72 348,317.72 350,317.72 352,317.72 354,317.72 356,317.72 358,317.72 360,317.72 362,317.72 364,317.72 366,317.72 368,316.56 370,315.44 372,312.0 374,310.84000000000003 376,310.84000000000003 378,310.84000000000003 380,310.84000000000003 382,310.84000000000003 384,309.71999999999997 386,309.71999999999997 388,309.71999999999997 390,307.44 392,305.16 394,305.16 396,305.16 398,305.16 400,305.16 402,305.16 404,305.16 406,305.16 408,305.16 410,305.16 412,305.16 414,305.16 416,305.16 418,305.16 420,305.16 422,305.16 424,305.16 426,305.16 428,305.16 430,305.16 432,305.16 434,305.16 436,305.16 438,305.16 440,305.16 442,305.16 444,305.16 446,305.16 448,305.16 450,305.16 452,305.16 454,305.16 456,305.16 458,305.16 460,305.16 462,305.16 464,305.16 466,305.16 468,305.16 470,305.16 472,305.16 474,305.16 476,305.16 478,305.16 480,305.16 482,305.16 484,305.16 486,305.16 488,305.16 490,305.16 492,305.16 494,305.16 496,305.16 498,305.16 500,305.16 502,305.16 504,305.16 506,305.16 508,305.16 510,305.16 512,305.16 514,305.16 516,305.16 518,305.16 520,305.16 522,305.16 524,305.16 526,305.16 528,305.16 530,305.16 532,305.16 534,305.16 536,305.16 538,305.16 540,305.16 542,305.16 544,302.84 546,299.44 548,297.16 550,293.71999999999997 552,291.44 554,288.0 556,285.71999999999997 558,282.28 560,280.0 562,276.56 564,273.16 566,270.84000000000003 568,269.72 570,269.72 572,269.72 574,269.72 576,269.72 578,269.72 580,269.72 582,269.72 584,269.72 586,269.72 588,269.72 590,269.72 592,268.56 594,265.16 596,262.84000000000003 598,259.44000000000005 600,257.16 602,253.72 604,251.44000000000003 606,248.0 608,245.72000000000003 610,243.44 612,241.16 614,238.83999999999997 616,237.72000000000003 618,234.28 620,232.00000000000003 622,230.83999999999997 624,230.83999999999997 626,230.83999999999997 628,230.83999999999997 630,229.72000000000003 632,228.56 634,226.28 636,225.15999999999997 638,221.72 640,219.44 642,217.15999999999997 644,214.84 646,212.56 648,210.28000000000003 650,210.28000000000003 652,210.28000000000003 654,210.28000000000003 656,210.28000000000003 658,210.28000000000003 660,210.28000000000003 662,210.28000000000003 664,210.28000000000003 666,210.28000000000003 668,210.28000000000003 670,210.28000000000003 672,210.28000000000003 674,210.28000000000003 676,210.28000000000003 678,211.44 680,211.44 682,212.56 684,212.56 686,212.56 688,213.72 690,213.72 692,213.72 694,214.84 696,214.84 698,216.0 700,216.0 702,216.0 704,217.15999999999997 706,217.15999999999997 708,218.28000000000003 710,218.28000000000003 712,218.28000000000003 714,219.44 716,219.44 718,219.44 720,220.56 722,220.56 724,220.56 726,221.72 728,221.72 730,222.83999999999997 732,222.83999999999997 734,222.83999999999997 736,224.00000000000003 738,224.00000000000003 740,224.00000000000003 742,225.15999999999997 744,225.15999999999997 746,225.15999999999997 748,225.15999999999997 750,225.15999999999997 752,225.15999999999997 754,225.15999999999997 756,225.15999999999997 758,225.15999999999997 760,222.83999999999997 762,220.56 764,218.28000000000003 766,216.0 768,214.84 770,212.56 772,211.44 774,209.15999999999997 776,205.72 778,203.43999999999997 780,201.16 782,198.84 784,196.55999999999997 786,194.28 788,190.83999999999997 790,189.72000000000003 792,188.56 794,188.56 796,188.56 798,188.56 800,188.56 802,188.56 804,188.56 806,188.56 808,188.56 810,188.56 812,188.56 814,188.56 816,188.56 818,187.44 820,185.16 822,182.83999999999997 824,179.44 826,177.16 828,173.72 830,171.44 832,169.16000000000003 834,166.84 836,164.56 838,162.27999999999997 840,160.0 842,156.56 844,153.16 846,152.0 848,152.0 850,152.0 852,152.0 854,152.0 856,149.72 858,147.44000000000003 860,145.16 862,145.16 864,145.16 866,145.16 868,145.16 870,145.16 872,145.16 874,145.16 876,145.16 878,145.16 880,145.16 882,145.16 884,145.16 886,142.83999999999997 888,140.56000000000003 890,138.28 892,136.0 894,133.72000000000003 896,132.56 898,129.16 900,126.84000000000002 902,123.44 904,121.15999999999998 906,117.72 908,115.43999999999998 910,113.16000000000001 912,113.16000000000001 914,113.16000000000001 916,113.16000000000001 918,113.16000000000001 920,113.16000000000001 922,112.00000000000001 924,109.72 926,109.72 928,107.43999999999998 930,105.16000000000001 932,104.0 934,101.71999999999998 936,100.55999999999999 938,98.28000000000002 940,94.83999999999999 942,92.56000000000002 944,90.28 946,89.16 948,85.72000000000001 950,83.44 952,81.15999999999998 954,78.84000000000002 956,76.56 958,74.27999999999999 960,72.00000000000001 962,69.72 964,67.43999999999998 966,65.16000000000003 968,62.84 970,60.55999999999999 972,58.28000000000002 974,54.84 976,54.84 978,52.55999999999999 980,51.44000000000002 982,51.44000000000002 984,51.44000000000002 986,49.160000000000004 988,48.0 990,48.0 992,48.0 994,48.0 996,48.0 998,48.0 1000,48.0 1002,48.0 1004,48.0 1006,48.0 1008,48.0 1010,48.0 1012,48.0 1014,49.160000000000004 1016,49.160000000000004 1018,49.160000000000004 1020,50.280000000000015 1022,50.280000000000015 1024,50.280000000000015 1026,51.44000000000002 1028,51.44000000000002 1030,52.55999999999999 1032,52.55999999999999 1034,52.55999999999999 1036,52.55999999999999 1038,52.55999999999999 1040,52.55999999999999 1042,52.55999999999999 1044,52.55999999999999 1046,52.55999999999999 1048,52.55999999999999 1050,50.280000000000015 1052,48.0 1054,48.0 1056,48.0 1058,48.0 1060,48.0 1062,48.0 1064,48.0 1066,48.0 1068,48.0 1070,48.0 1072,48.0 1074,48.0 1076,48.0 1078,48.0 1080,48.0 1082,48.0 1084,48.0 1086,48.0 1088,48.0 1090,48.0 1092,48.0 1094,48.0 1096,48.0 1098,48.0 1100,46.83999999999999 1100,332.56" /><line class="progress_target_line" x1="566" x2="566" y1="0" y2="270.84000000000003" /><line class="progress_completion_line" x1="0" x2="566" y1="270.84000000000003" y2="270.84000000000003" /><text x="566" y="-5">04:43</text><line class="progress_target_line" x1="892" x2="892" y1="0" y2="136.0" /><line class="progress_completion_line" x1="566" x2="892" y1="136.0" y2="136.0" /><text x="892" y="-5">07:26</text><polyline class="player_advantage" points="0,200.0 0,200.0 2,200.0 4,200.0 6,200.0 8,200.0 10,200.0 12,200.0 14,200.0 16,200.0 18,200.0 20,200.0 22,200.0 24,200.0 26,200.0 28,200.0 30,200.0 32,200.0 34,200.0 36,200.0 38,200.0 40,200.0 42,200.0 44,200.0 46,200.0 48,166.66666666666666 50,166.66666666666666 52,200.0 54,200.0 56,200.0 58,200.0 60,200.0 62,200.0 64,200.0 66,200.0 68,200.0 70,200.0 72,200.0 74,200.0 76,200.0 78,200.0 80,200.0 82,166.66666666666666 84,133.33333333333331 86,166.66666666666666 88,166.66666666666666 90,200.0 92,200.0 94,200.0 96,166.66666666666666 98,166.66666666666666 100,166.66666666666666 102,200.0 104,200.0 106,200.0 108,233.33333333333331 110,233.33333333333331 112,233.33333333333331 114,233.33333333333331 116,266.66666666666663 118,266.66666666666663 120,266.66666666666663 122,266.66666666666663 124,233.33333333333331 126,200.0 128,200.0 130,200.0 132,200.0 134,200.0 136,200.0 138,200.0 140,200.0 142,200.0 144,200.0 146,200.0 148,200.0 150,200.0 152,200.0 154,200.0 156,200.0 158,200.0 160,200.0 162,200.0 164,200.0 166,200.0 168,200.0 170,200.0 172,200.0 174,200.0 176,200.0 178,200.0 180,200.0 182,200.0 184,200.0 186,200.0 188,166.66666666666666 190,200.0 192,166.66666666666666 194,200.0 196,200.0 198,233.33333333333331 200,233.33333333333331 202,233.33333333333331 204,266.66666666666663 206,266.66666666666663 208,266.66666666666663 210,300.0 212,300.0 214,300.0 216,266.66666666666663 218,266.66666666666663 220,266.66666666666663 222,233.33333333333331 224,233.33333333333331 226,233.33333333333331 228,233.33333333333331 230,200.0 232,200.0 234,200.0 236,200.0 238,200.0 240,200.0 242,200.0 244,200.0 246,200.0 248,200.0 250,200.0 252,200.0 254,200.0 256,200.0 258,200.0 260,200.0 262,200.0 264,200.0 266,200.0 268,200.0 270,200.0 272,200.0 274,233.33333333333331 276,233.33333333333331 278,200.0 280,200.0 282,200.0 284,200.0 286,233.33333333333331 288,233.33333333333331 290,233.33333333333331 292,200.0 294,200.0 296,233.33333333333331 298,233.33333333333331 300,233.33333333333331 302,233.33333333333331 304,166.66666666666666 306,200.0 308,200.0 310,200.0 312,200.0 314,200.0 316,200.0 318,200.0 320,200.0 322,200.0 324,200.0 326,200.0 328,200.0 330,200.0 332,200.0 334,233.33333333333331 336,233.33333333333331 338,233.33333333333331 340,233.33333333333331 342,200.0 344,166.66666666666666 346,166.66666666666666 348,166.66666666666666 350,166.66666666666666 352,166.66666666666666 354,166.66666666666666 356,166.66666666666666 358,166.66666666666666 360,200.0 362,200.0 364,200.0 366,200.0 368,200.0 370,200.0 372,200.0 374,200.0 376,200.0 378,200.0 380,200.0 382,233.33333333333331 384,233.33333333333331 386,166.66666666666666 388,200.0 390,200.0 392,200.0 394,200.0 396,200.0 398,200.0 400,166.66666666666666 402,166.66666666666666 404,233.33333333333331 406,200.0 408,233.33333333333331 410,233.33333333333331 412,233.33333333333331 414,233.33333333333331 416,233.33333333333331 418,233.33333333333331 420,233.33333333333331 422,200.0 424,200.0 426,200.0 428,200.0 430,233.33333333333331 432,233.33333333333331 434,233.33333333333331 436,233.33333333333331 438,233.33333333333331 440,233.33333333333331 442,233.33333333333331 444,233.33333333333331 446,200.0 448,166.66666666666666 450,166.66666666666666 452,200.0 454,200.0 456,200.0 458,200.0 460,200.0 462,200.0 464,233.33333333333331 466,233.33333333333331 468,233.33333333333331 470,200.0 472,200.0 474,200.0 476,200.0 478,200.0 480,200.0 482,200.0 484,200.0 486,200.0 488,200.0 490,200.0 492,200.0 494,200.0 496,233.33333333333331 498,233.33333333333331 500,200.0 502,200.0 504,200.0 506,200.0 508,200.0 510,166.66666666666666 512,166.66666666666666 514,166.66666666666666 516,166.66666666666666 518,166.66666666666666 520,133.33333333333331 522,200.0 524,166.66666666666666 526,166.66666666666666 528,166.66666666666666 530,233.33333333333331 532,200.0 534,100.0 536,100.0 538,200.0 540,166.66666666666666 542,66.66666666666663 544,66.66666666666663 546,66.66666666666663 548,66.66666666666663 550,66.66666666666663 552,100.0 554,100.0 556,133.33333333333331 558,133.33333333333331 560,166.66666666666666 562,166.66666666666666 564,166.66666666666666 566,200.0 568,200.0 570,200.0 572,200.0 574,200.0 576,200.0 578,200.0 580,200.0 582,200.0 584,200.0 586,200.0 588,200.0 590,166.66666666666666 592,166.66666666666666 594,200.0 596,200.0 598,200.0 600,200.0 602,200.0 604,200.0 606,200.0 608,200.0 610,200.0 612,200.0 614,200.0 616,200.0 618,200.0 620,200.0 622,200.0 624,200.0 626,200.0 628,200.0 630,200.0 632,200.0 634,200.0 636,200.0 638,200.0 640,200.0 642,200.0 644,200.0 646,200.0 648,200.0 650,200.0 652,166.66666666666666 654,200.0 656,233.33333333333331 658,266.66666666666663 660,300.0 662,300.0 664,300.0 666,300.0 668,300.0 670,300.0 672,266.66666666666663 674,266.66666666666663 676,233.33333333333331 678,266.66666666666663 680,233.33333333333331 682,233.33333333333331 684,233.33333333333331 686,233.33333333333331 688,233.33333333333331 690,233.33333333333331 692,233.33333333333331 694,266.66666666666663 696,233.33333333333331 698,233.33333333333331 700,233.33333333333331 702,233.33333333333331 704,233.33333333333331 706,233.33333333333331 708,233.33333333333331 710,233.33333333333331 712,233.33333333333331 714,233.33333333333331 716,233.33333333333331 718,200.0 720,300.0 722,266.66666666666663 724,233.33333333333331 726,200.0 728,200.0 730,200.0 732,200.0 734,200.0 736,200.0 738,200.0 740,200.0 742,200.0 744,200.0 746,200.0 748,200.0 750,200.0 752,200.0 754,200.0 756,200.0 758,200.0 760,200.0 762,200.0 764,200.0 766,200.0 768,200.0 770,200.0 772,200.0 774,200.0 776,200.0 778,200.0 780,166.66666666666666 782,166.66666666666666 784,166.66666666666666 786,200.0 788,200.0 790,200.0 792,200.0 794,200.0 796,200.0 798,200.0 800,233.33333333333331 802,233.33333333333331 804,200.0 806,200.0 808,200.0 810,200.0 812,200.0 814,200.0 816,200.0 818,166.66666666666666 820,166.66666666666666 822,166.66666666666666 824,166.66666666666666 826,133.33333333333331 828,133.33333333333331 830,133.33333333333331 832,100.0 834,100.0 836,133.33333333333331 838,133.33333333333331 840,166.66666666666666 842,100.0 844,133.33333333333331 846,166.66666666666666 848,133.33333333333331 850,166.66666666666666 852,200.0 854,133.33333333333331 856,166.66666666666666 858,133.33333333333331 860,133.33333333333331 862,133.33333333333331 864,133.33333333333331 866,166.66666666666666 868,166.66666666666666 870,166.66666666666666 872,166.66666666666666 874,200.0 876,200.0 878,200.0 880,200.0 882,200.0 884,200.0 886,200.0 888,200.0 890,200.0 892,200.0 894,200.0 896,200.0 898,200.0 900,200.0 902,200.0 904,200.0 906,200.0 908,200.0 910,200.0 912,200.0 914,200.0 916,200.0 918,200.0 920,200.0 922,200.0 924,166.66666666666666 926,166.66666666666666 928,166.66666666666666 930,166.66666666666666 932,200.0 934,200.0 936,200.0 938,200.0 940,200.0 942,200.0 944,200.0 946,166.66666666666666 948,200.0 950,166.66666666666666 952,166.66666666666666 954,166.66666666666666 956,166.66666666666666 958,166.66666666666666 960,200.0 962,200.0 964,233.33333333333331 966,200.0 968,200.0 970,200.0 972,200.0 974,200.0 976,200.0 978,166.66666666666666 980,166.66666666666666 982,166.66666666666666 984,200.0 986,233.33333333333331 988,233.33333333333331 990,233.33333333333331 992,233.33333333333331 994,200.0 996,233.33333333333331 998,266.66666666666663 1000,266.66666666666663 1002,233.33333333333331 1004,200.0 1006,200.0 1008,200.0 1010,300.0 1012,233.33333333333331 1014,233.33333333333331 1016,200.0 1018,200.0 1020,200.0 1022,233.33333333333331 1024,200.0 1026,233.33333333333331 1028,233.33333333333331 1030,233.33333333333331 1032,233.33333333333331 1034,233.33333333333331 1036,233.33333333333331 1038,233.33333333333331 1040,233.33333333333331 1042,200.0 1044,200.0 1046,200.0 1048,200.0 1050,200.0 1052,233.33333333333331 1054,233.33333333333331 1056,200.0 1058,233.33333333333331 1060,233.33333333333331 1062,233.33333333333331 1064,233.33333333333331 1066,266.66666666666663 1068,300.0 1070,300.0 1072,300.0 1074,300.0 1076,300.0 1078,266.66666666666663 1080,266.66666666666663 1082,266.66666666666663 1084,266.66666666666663 1086,300.0 1088,300.0 1090,266.66666666666663 1092,233.33333333333331 1094,233.33333333333331 1096,233.33333333333331 1098,233.33333333333331 1100,266.66666666666663 1100,200.0" /></g></svg>