<?xml version="1.0" encoding="utf-8" ?>
<svg baseProfile="full" height="100%" version="1.1" width="100%" xmlns="http://www.w3.org/2000/svg" xmlns:ev="http://www.w3.org/2001/xml-events" xmlns:xlink="http://www.w3.org/1999/xlink"><defs><style type="text/css"><![CDATA[
.payload_progress {
  fill:none;
  stroke: blue;
  stroke-width: 2
}

.player_advantage {
  fill:none;
  stroke: red;
  stroke-width: 1

}

.player_lifeline {
  fill:none;
  stroke: green;
  stroke-width: 1
}

.graph_border {
  fill: none;
  stroke: black;
}

.minute_ref_line {
  stroke: gray;
  stroke-width: 1;
  stroke-dasharray: 1,4
}

.progress_target_line {
  stroke: gray;
  stroke_width: 1;
  stroke-dasharray: 3,1
}

.progress_completion_line {
  stroke: gray;
  stroke_width: 1
}


]]></style></defs><text x="10" y="20">Shanghai Dragons at Dallas Fuel on junkertown round 2</text><g style="graph" transform="translate(10, 45)"><rect class="graph_border" height="400" width="804" x="0" y="0" /><line class="minute_ref_line" x1="120" x2="120" y1="0" y2="400" /><text x="120" y="420">1:00</text><line class="minute_ref_line" x1="240" x2="240" y1="0" y2="400" /><text x="240" y="420">2:00</text><line class="minute_ref_line" x1="360" x2="360" y1="0" y2="400" /><text x="360" y="420">3:00</text><line class="minute_ref_line" x1="480" x2="480" y1="0" y2="400" /><text x="480" y="420">4:00</text><line class="minute_ref_line" x1="600" x2="600" y1="0" y2="400" /><text x="600" y="420">5:00</text><line class="minute_ref_line" x1="720" x2="720" y1="0" y2="400" /><text x="720" y="420">6:00</text><polyline class="payload_progress" points="0,400 0,400.0 2,400.0 4,400.0 6,400.0 8,400.0 10,400.0 12,400.0 14,400.0 16,400.0 18,400.0 20,400.0 22,400.0 24,400.0 26,400.0 28,400.0 30,400.0 32,400.0 34,400.0 36,400.0 38,400.0 40,400.0 42,400.0 44,400.0 46,400.0 48,400.0 50,400.0 52,400.0 54,400.0 56,400.0 58,400.0 60,400.0 62,400.0 64,400.0 66,400.0 68,400.0 70,400.0 72,400.0 74,400.0 76,400.0 78,400.0 80,400.0 82,400.0 84,400.0 86,400.0 88,400.0 90,400.0 92,400.0 94,400.0 96,400.0 98,400.0 100,400.0 102,400.0 104,400.0 106,400.0 108,400.0 110,400.0 112,400.0 114,400.0 116,400.0 118,400.0 120,400.0 122,400.0 124,400.0 126,400.0 128,400.0 130,400.0 132,400.0 134,400.0 136,400.0 138,400.0 140,400.0 142,400.0 144,400.0 146,400.0 148,400.0 150,400.0 152,400.0 154,400.0 156,400.0 158,400.0 160,400.0 162,400.0 164,400.0 166,400.0 168,400.0 170,400.0 172,400.0 174,400.0 176,400.0 178,400.0 180,400.0 182,400.0 184,400.0 186,400.0 188,400.0 190,400.0 192,400.0 194,400.0 196,400.0 198,400.0 200,400.0 202,400.0 204,400.0 206,400.0 208,400.0 210,400.0 212,400.0 214,400.0 216,400.0 218,400.0 220,400.0 222,400.0 224,400.0 226,400.0 228,400.0 230,400.0 232,400.0 234,400.0 236,400.0 238,400.0 240,400.0 242,400.0 244,400.0 246,400.0 248,400.0 250,400.0 252,400.0 254,400.0 256,400.0 258,400.0 260,400.0 262,400.0 264,400.0 266,400.0 268,400.0 270,400.0 272,400.0 274,400.0 276,400.0 278,400.0 280,400.0 282,400.0 284,400.0 286,400.0 288,400.0 290,400.0 292,400.0 294,400.0 296,400.0 298,400.0 300,400.0 302,400.0 304,400.0 306,400.0 308,400.0 310,400.0 312,400.0 314,400.0 316,400.0 318,400.0 320,400.0 322,400.0 324,400.0 326,400.0 328,400.0 330,400.0 332,400.0 334,400.0 336,400.0 338,400.0 340,400.0 342,400.0 344,400.0 346,400.0 348,400.0 350,400.0 352,400.0 354,400.0 356,400.0 358,400.0 360,400.0 362,400.0 364,400.0 366,400.0 368,400.0 370,400.0 372,400.0 374,400.0 376,400.0 378,400.0 380,400.0 382,400.0 384,400.0 386,400.0 388,400.0 390,400.0 392,400.0 394,400.0 396,400.0 398,400.0 400,400.0 402,400.0 404,400.0 406,400.0 408,400.0 410,400.0 412,400.0 414,400.0 416,400.0 418,400.0 420,400.0 422,400.0 424,400.0 426,400.0 428,400.0 430,400.0 432,400.0 434,400.0 436,400.0 438,400.0 440,400.0 442,400.0 444,400.0 446,400.0 448,400.0 450,400.0 452,400.0 454,400.0 456,400.0 458,400.0 460,400.0 462,400.0 464,400.0 466,400.0 468,400.0 470,400.0 472,400.0 474,400.0 476,400.0 478,400.0 480,400.0 482,400.0 484,400.0 486,400.0 488,400.0 490,400.0 492,400.0 494,400.0 496,400.0 498,400.0 500,400.0 502,400.0 504,400.0 506,400.0 508,400.0 510,400.0 512,400.0 514,400.0 516,400.0 518,400.0 520,400.0 522,400.0 524,400.0 526,400.0 528,400.0 530,400.0 532,400.0 534,400.0 536,400.0 538,400.0 540,400.0 542,400.0 544,400.0 546,400.0 548,400.0 550,400.0 552,400.0 554,400.0 556,400.0 558,400.0 560,400.0 562,400.0 564,400.0 566,400.0 568,400.0 570,400.0 572,400.0 574,400.0 576,400.0 578,400.0 580,400.0 582,400.0 584,400.0 586,400.0 588,400.0 590,400.0 592,400.0 594,400.0 596,400.0 598,400.0 600,400.0 602,400.0 604,400.0 606,400.0 608,400.0 610,400.0 612,400.0 614,400.0 616,400.0 618,400.0 620,400.0 622,400.0 624,400.0 626,400.0 628,400.0 630,400.0 632,400.0 634,400.0 636,400.0 638,400.0 640,400.0 642,400.0 644,400.0 646,400.0 648,400.0 650,400.0 652,400.0 654,400.0 656,400.0 658,400.0 660,400.0 662,400.0 664,400.0 666,400.0 668,400.0 670,400.0 672,400.0 674,400.0 676,400.0 678,400.0 680,400.0 682,400.0 684,400.0 686,400.0 688,400.0 690,400.0 692,400.0 694,400.0 696,400.0 698,400.0 700,400.0 702,400.0 704,400.0 706,400.0 708,400.0 710,400.0 712,400.0 714,400.0 716,400.0 718,400.0 720,400.0 722,400.0 724,400.0 726,400.0 728,400.0 730,400.0 732,400.0 734,400.0 736,400.0 738,400.0 740,400.0 742,400.0 744,400.0 746,400.0 748,400.0 750,400.0 752,400.0 754,400.0 756,400.0 758,400.0 760,400.0 762,400.0 764,400.0 766,400.0 768,400.0 770,400.0 772,400.0 774,400.0 776,400.0 778,400.0 780,400.0 782,400.0 784,400.0 786,400.0 788,400.0 790,400.0 792,400.0 794,400.0 796,400.0 798,400.0 800,400.0 802,330.28 804,331.44" /><polyline class="player_advantage" points="0,200.0 0,200.0 2,200.0 4,200.0 6,200.0 8,200.0 10,200.0 12,200.0 14,233.33333333333331 16,233.33333333333331 18,233.33333333333331 20,233.33333333333331 22,233.33333333333331 24,266.66666666666663 26,266.66666666666663 28,300.0 30,300.0 32,300.0 34,266.66666666666663 36,266.66666666666663 38,266.66666666666663 40,233.33333333333331 42,233.33333333333331 44,233.33333333333331 46,200.0 48,200.0 50,200.0 52,200.0 54,200.0 56,200.0 58,200.0 60,200.0 62,200.0 64,200.0 66,200.0 68,200.0 70,200.0 72,233.33333333333331 74,233.33333333333331 76,233.33333333333331 78,233.33333333333331 80,233.33333333333331 82,233.33333333333331 84,233.33333333333331 86,200.0 88,200.0 90,200.0 92,200.0 94,200.0 96,200.0 98,200.0 100,200.0 102,200.0 104,200.0 106,200.0 108,200.0 110,200.0 112,200.0 114,200.0 116,200.0 118,200.0 120,200.0 122,200.0 124,200.0 126,200.0 128,233.33333333333331 130,233.33333333333331 132,266.66666666666663 134,300.0 136,300.0 138,333.3333333333333 140,366.6666666666667 142,300.0 144,366.6666666666667 146,266.66666666666663 148,266.66666666666663 150,200.0 152,200.0 154,200.0 156,166.66666666666666 158,166.66666666666666 160,166.66666666666666 162,200.0 164,233.33333333333331 166,233.33333333333331 168,233.33333333333331 170,233.33333333333331 172,233.33333333333331 174,233.33333333333331 176,233.33333333333331 178,233.33333333333331 180,233.33333333333331 182,200.0 184,200.0 186,200.0 188,200.0 190,200.0 192,200.0 194,200.0 196,200.0 198,200.0 200,200.0 202,200.0 204,200.0 206,200.0 208,200.0 210,200.0 212,200.0 214,200.0 216,200.0 218,200.0 220,200.0 222,200.0 224,200.0 226,200.0 228,200.0 230,200.0 232,200.0 234,166.66666666666666 236,166.66666666666666 238,166.66666666666666 240,200.0 242,166.66666666666666 244,166.66666666666666 246,133.33333333333331 248,133.33333333333331 250,133.33333333333331 252,166.66666666666666 254,200.0 256,166.66666666666666 258,166.66666666666666 260,166.66666666666666 262,133.33333333333331 264,166.66666666666666 266,166.66666666666666 268,166.66666666666666 270,166.66666666666666 272,166.66666666666666 274,166.66666666666666 276,166.66666666666666 278,166.66666666666666 280,133.33333333333331 282,200.0 284,166.66666666666666 286,166.66666666666666 288,166.66666666666666 290,166.66666666666666 292,166.66666666666666 294,133.33333333333331 296,133.33333333333331 298,133.33333333333331 300,166.66666666666666 302,166.66666666666666 304,166.66666666666666 306,166.66666666666666 308,166.66666666666666 310,166.66666666666666 312,200.0 314,200.0 316,200.0 318,200.0 320,200.0 322,200.0 324,200.0 326,200.0 328,200.0 330,200.0 332,200.0 334,200.0 336,200.0 338,200.0 340,200.0 342,200.0 344,200.0 346,200.0 348,200.0 350,200.0 352,200.0 354,200.0 356,200.0 358,200.0 360,200.0 362,166.66666666666666 364,166.66666666666666 366,166.66666666666666 368,166.66666666666666 370,166.66666666666666 372,166.66666666666666 374,200.0 376,233.33333333333331 378,200.0 380,200.0 382,200.0 384,200.0 386,166.66666666666666 388,166.66666666666666 390,166.66666666666666 392,166.66666666666666 394,166.66666666666666 396,166.66666666666666 398,166.66666666666666 400,166.66666666666666 402,133.33333333333331 404,166.66666666666666 406,133.33333333333331 408,133.33333333333331 410,100.0 412,166.66666666666666 414,166.66666666666666 416,166.66666666666666 418,166.66666666666666 420,200.0 422,166.66666666666666 424,200.0 426,200.0 428,200.0 430,200.0 432,166.66666666666666 434,166.66666666666666 436,166.66666666666666 438,166.66666666666666 440,200.0 442,200.0 444,200.0 446,200.0 448,233.33333333333331 450,200.0 452,200.0 454,200.0 456,200.0 458,200.0 460,200.0 462,200.0 464,200.0 466,200.0 468,200.0 470,200.0 472,200.0 474,200.0 476,200.0 478,200.0 480,166.66666666666666 482,133.33333333333331 484,133.33333333333331 486,133.33333333333331 488,133.33333333333331 490,100.0 492,100.0 494,133.33333333333331 496,133.33333333333331 498,166.66666666666666 500,166.66666666666666 502,166.66666666666666 504,166.66666666666666 506,133.33333333333331 508,133.33333333333331 510,166.66666666666666 512,166.66666666666666 514,166.66666666666666 516,166.66666666666666 518,166.66666666666666 520,166.66666666666666 522,166.66666666666666 524,200.0 526,200.0 528,200.0 530,200.0 532,233.33333333333331 534,200.0 536,200.0 538,200.0 540,200.0 542,200.0 544,200.0 546,200.0 548,200.0 550,200.0 552,200.0 554,200.0 556,200.0 558,200.0 560,200.0 562,200.0 564,200.0 566,200.0 568,200.0 570,200.0 572,200.0 574,200.0 576,200.0 578,200.0 580,200.0 582,200.0 584,233.33333333333331 586,200.0 588,200.0 590,200.0 592,200.0 594,200.0 596,200.0 598,200.0 600,166.66666666666666 602,166.66666666666666 604,233.33333333333331 606,233.33333333333331 608,233.33333333333331 610,233.33333333333331 612,233.33333333333331 614,233.33333333333331 616,200.0 618,233.33333333333331 620,233.33333333333331 622,233.33333333333331 624,233.33333333333331 626,233.33333333333331 628,233.33333333333331 630,233.33333333333331 632,233.33333333333331 634,233.33333333333331 636,233.33333333333331 638,200.0 640,200.0 642,200.0 644,233.33333333333331 646,200.0 648,200.0 650,200.0 652,200.0 654,200.0 656,200.0 658,233.33333333333331 660,233.33333333333331 662,200.0 664,200.0 666,200.0 668,200.0 670,133.33333333333331 672,133.33333333333331 674,133.33333333333331 676,133.33333333333331 678,133.33333333333331 680,100.0 682,100.0 684,100.0 686,133.33333333333331 688,133.33333333333331 690,200.0 692,200.0 694,133.33333333333331 696,133.33333333333331 698,200.0 700,166.66666666666666 702,133.33333333333331 704,100.0 706,100.0 708,100.0 710,100.0 712,133.33333333333331 714,166.66666666666666 716,166.66666666666666 718,166.66666666666666 720,166.66666666666666 722,200.0 724,200.0 726,200.0 728,200.0 730,200.0 732,200.0 734,200.0 736,200.0 738,200.0 740,200.0 742,200.0 744,200.0 746,200.0 748,200.0 750,200.0 752,200.0 754,200.0 756,200.0 758,200.0 760,200.0 762,200.0 764,200.0 766,200.0 768,200.0 770,166.66666666666666 772,200.0 774,200.0 776,200.0 778,200.0 780,200.0 782,200.0 784,166.66666666666666 786,166.66666666666666 788,133.33333333333331 790,133.33333333333331 792,133.33333333333331 794,100.0 796,66.66666666666663 798,33.333333333333314 800,66.66666666666663 802,0.0 804,0.0" /></g></svg>