<?xml version="1.0" encoding="utf-8" ?>
<svg baseProfile="full" height="100%" version="1.1" width="100%" xmlns="http://www.w3.org/2000/svg" xmlns:ev="http://www.w3.org/2001/xml-events" xmlns:xlink="http://www.w3.org/1999/xlink"><defs /><text x="10" y="20">Los Angeles Gladiators at Philadelphia Fusion on Route 66 round 1</text><g transform="translate(10,20)" /><rect fill="none" height="400" stroke="rgb(10%,10%,16%)" width="492" x="10" y="45" /><line stroke="gray" stroke-dasharray="1,4" stroke-width="1" x1="130" x2="130" y1="45" y2="445" /><text x="130" y="460">1:00</text><line stroke="gray" stroke-dasharray="1,4" stroke-width="1" x1="250" x2="250" y1="45" y2="445" /><text x="250" y="460">2:00</text><line stroke="gray" stroke-dasharray="1,4" stroke-width="1" x1="370" x2="370" y1="45" y2="445" /><text x="370" y="460">3:00</text><line stroke="gray" stroke-dasharray="1,4" stroke-width="1" x1="490" x2="490" y1="45" y2="445" /><text x="490" y="460">4:00</text><polyline fill="none" points="10,445 10,445.0 12,445.0 14,445.0 16,445.0 18,445.0 20,442.72 22,440.44 24,438.16 26,435.84 28,434.72 30,432.44 32,430.16 34,425.56 36,423.28 38,421.0 40,417.56 42,414.16 44,410.72 46,409.56 48,406.15999999999997 50,403.84 52,403.84 54,403.84 56,401.56 58,400.44 60,400.44 62,399.28 64,399.28 66,399.28 68,399.28 70,399.28 72,399.28 74,399.28 76,399.28 78,399.28 80,399.28 82,399.28 84,399.28 86,399.28 88,399.28 90,399.28 92,400.44 94,400.44 96,401.56 98,401.56 100,401.56 102,402.72 104,402.72 106,403.84 108,403.84 110,405.0 112,405.0 114,406.15999999999997 116,406.15999999999997 118,406.15999999999997 120,407.28 122,407.28 124,407.28 126,408.44 128,409.56 130,409.56 132,409.56 134,410.72 136,410.72 138,410.72 140,411.84 142,411.84 144,413.0 146,413.0 148,413.0 150,414.16 152,414.16 154,415.28 156,415.28 158,416.44 160,416.44 162,416.44 164,417.56 166,417.56 168,418.72 170,418.72 172,418.72 174,419.84 176,419.84 178,421.0 180,421.0 182,421.0 184,421.0 186,421.0 188,421.0 190,421.0 192,421.0 194,421.0 196,419.84 198,416.44 200,415.28 202,413.0 204,409.56 206,407.28 208,406.15999999999997 210,406.15999999999997 212,406.15999999999997 214,406.15999999999997 216,406.15999999999997 218,406.15999999999997 220,405.0 222,405.0 224,405.0 226,405.0 228,403.84 230,403.84 232,403.84 234,403.84 236,402.72 238,402.72 240,401.56 242,401.56 244,399.28 246,399.28 248,399.28 250,397.0 252,397.0 254,397.0 256,395.84000000000003 258,395.84000000000003 260,395.84000000000003 262,395.84000000000003 264,395.84000000000003 266,395.84000000000003 268,395.84000000000003 270,395.84000000000003 272,395.84000000000003 274,395.84000000000003 276,395.84000000000003 278,394.72 280,393.56 282,390.15999999999997 284,387.84000000000003 286,385.56 288,383.28 290,382.16 292,377.56 294,375.28 296,374.15999999999997 298,371.84000000000003 300,371.84000000000003 302,371.84000000000003 304,371.84000000000003 306,371.84000000000003 308,371.84000000000003 310,371.84000000000003 312,371.84000000000003 314,371.84000000000003 316,371.84000000000003 318,371.84000000000003 320,371.84000000000003 322,369.56 324,367.28 326,363.84000000000003 328,361.56 330,359.28 332,357.0 334,354.72 336,352.44 338,349.0 340,346.72 342,344.44 344,342.15999999999997 346,339.84 348,337.56 350,335.28 352,335.28 354,335.28 356,331.84000000000003 358,329.56 360,329.56 362,329.56 364,329.56 366,329.56 368,329.56 370,329.56 372,329.56 374,329.56 376,329.56 378,329.56 380,329.56 382,330.72 384,330.72 386,330.72 388,331.84000000000003 390,331.84000000000003 392,331.84000000000003 394,331.84000000000003 396,331.84000000000003 398,331.84000000000003 400,331.84000000000003 402,331.84000000000003 404,331.84000000000003 406,330.72 408,330.72 410,330.72 412,330.72 414,330.72 416,330.72 418,329.56 420,329.56 422,329.56 424,329.56 426,329.56 428,329.56 430,329.56 432,329.56 434,329.56 436,329.56 438,329.56 440,329.56 442,329.56 444,329.56 446,329.56 448,329.56 450,327.28 452,327.28 454,326.16 456,326.16 458,326.16 460,326.16 462,326.16 464,326.16 466,326.16 468,326.16 470,326.16 472,326.16 474,326.16 476,326.16 478,326.16 480,323.84000000000003 482,322.71999999999997 484,319.28 486,318.15999999999997 488,318.15999999999997 490,318.15999999999997 492,318.15999999999997 494,318.15999999999997 496,318.15999999999997 498,318.15999999999997 500,318.15999999999997 502,318.15999999999997 502,318.15999999999997" stroke="blue" stroke-width="2" /><polyline fill="none" points="10,245.0 10,245.0 12,245.0 14,245.0 16,245.0 18,245.0 20,245.0 22,245.0 24,245.0 26,245.0 28,245.0 30,245.0 32,245.0 34,245.0 36,245.0 38,245.0 40,245.0 42,245.0 44,245.0 46,245.0 48,245.0 50,245.0 52,245.0 54,245.0 56,278.3333333333333 58,278.3333333333333 60,278.3333333333333 62,278.3333333333333 64,311.66666666666663 66,311.66666666666663 68,311.66666666666663 70,311.66666666666663 72,311.66666666666663 74,311.66666666666663 76,311.66666666666663 78,311.66666666666663 80,311.66666666666663 82,345.0 84,311.66666666666663 86,278.3333333333333 88,311.66666666666663 90,311.66666666666663 92,278.3333333333333 94,245.0 96,278.3333333333333 98,278.3333333333333 100,245.0 102,245.0 104,245.0 106,245.0 108,245.0 110,245.0 112,245.0 114,245.0 116,245.0 118,245.0 120,245.0 122,245.0 124,245.0 126,245.0 128,278.3333333333333 130,278.3333333333333 132,278.3333333333333 134,278.3333333333333 136,278.3333333333333 138,311.66666666666663 140,278.3333333333333 142,278.3333333333333 144,278.3333333333333 146,278.3333333333333 148,278.3333333333333 150,278.3333333333333 152,278.3333333333333 154,278.3333333333333 156,245.0 158,245.0 160,245.0 162,245.0 164,245.0 166,245.0 168,245.0 170,245.0 172,245.0 174,245.0 176,245.0 178,245.0 180,245.0 182,245.0 184,245.0 186,245.0 188,245.0 190,245.0 192,245.0 194,245.0 196,245.0 198,245.0 200,245.0 202,245.0 204,245.0 206,245.0 208,245.0 210,245.0 212,245.0 214,245.0 216,245.0 218,245.0 220,245.0 222,245.0 224,245.0 226,245.0 228,245.0 230,245.0 232,245.0 234,245.0 236,245.0 238,245.0 240,245.0 242,245.0 244,245.0 246,245.0 248,245.0 250,245.0 252,245.0 254,245.0 256,245.0 258,245.0 260,245.0 262,245.0 264,245.0 266,245.0 268,245.0 270,245.0 272,245.0 274,245.0 276,245.0 278,245.0 280,245.0 282,245.0 284,245.0 286,245.0 288,245.0 290,245.0 292,245.0 294,245.0 296,211.66666666666666 298,211.66666666666666 300,211.66666666666666 302,211.66666666666666 304,211.66666666666666 306,211.66666666666666 308,178.33333333333331 310,211.66666666666666 312,211.66666666666666 314,245.0 316,245.0 318,245.0 320,245.0 322,245.0 324,245.0 326,245.0 328,245.0 330,245.0 332,245.0 334,245.0 336,245.0 338,245.0 340,245.0 342,245.0 344,245.0 346,245.0 348,245.0 350,245.0 352,245.0 354,278.3333333333333 356,278.3333333333333 358,278.3333333333333 360,311.66666666666663 362,311.66666666666663 364,278.3333333333333 366,278.3333333333333 368,278.3333333333333 370,278.3333333333333 372,245.0 374,245.0 376,245.0 378,245.0 380,211.66666666666666 382,245.0 384,245.0 386,245.0 388,245.0 390,245.0 392,245.0 394,245.0 396,245.0 398,245.0 400,245.0 402,245.0 404,245.0 406,245.0 408,245.0 410,245.0 412,245.0 414,245.0 416,245.0 418,245.0 420,245.0 422,245.0 424,245.0 426,245.0 428,245.0 430,211.66666666666666 432,211.66666666666666 434,211.66666666666666 436,211.66666666666666 438,245.0 440,245.0 442,245.0 444,211.66666666666666 446,211.66666666666666 448,211.66666666666666 450,211.66666666666666 452,211.66666666666666 454,245.0 456,245.0 458,245.0 460,245.0 462,278.3333333333333 464,278.3333333333333 466,311.66666666666663 468,311.66666666666663 470,278.3333333333333 472,278.3333333333333 474,245.0 476,245.0 478,245.0 480,278.3333333333333 482,245.0 484,245.0 486,245.0 488,278.3333333333333 490,245.0 492,245.0 494,311.66666666666663 496,311.66666666666663 498,345.0 500,345.0 502,278.3333333333333 502,311.66666666666663" stroke="red" stroke-width="1" /><polyline fill="none" points="10,75.76923076923077 62,75.76923076923077" stroke="green" stroke-width="1" /><polyline fill="none" points="84,75.76923076923077 126,75.76923076923077" stroke="green" stroke-width="1" /><polyline fill="none" points="140,75.76923076923077 452,75.76923076923077" stroke="green" stroke-width="1" /><polyline fill="none" points="472,75.76923076923077 502,75.76923076923077" stroke="green" stroke-width="1" /><polyline fill="none" points="10,106.53846153846155 136,106.53846153846155" stroke="green" stroke-width="1" /><polyline fill="none" points="156,106.53846153846155 358,106.53846153846155" stroke="green" stroke-width="1" /><polyline fill="none" points="380,106.53846153846155 492,106.53846153846155" stroke="green" stroke-width="1" /><polyline fill="none" points="10,137.30769230769232 496,137.30769230769232" stroke="green" stroke-width="1" /><polyline fill="none" points="502,137.30769230769232 502,137.30769230769232" stroke="green" stroke-width="1" /><polyline fill="none" points="10,168.0769230769231 54,168.0769230769231" stroke="green" stroke-width="1" /><polyline fill="none" points="74,168.0769230769231 352,168.0769230769231" stroke="green" stroke-width="1" /><polyline fill="none" points="372,168.0769230769231 470,168.0769230769231" stroke="green" stroke-width="1" /><polyline fill="none" points="490,168.0769230769231 502,168.0769230769231" stroke="green" stroke-width="1" /><polyline fill="none" points="10,198.84615384615384 80,198.84615384615384" stroke="green" stroke-width="1" /><polyline fill="none" points="94,198.84615384615384 94,198.84615384615384" stroke="green" stroke-width="1" /><polyline fill="none" points="100,198.84615384615384 464,198.84615384615384" stroke="green" stroke-width="1" /><polyline fill="none" points="484,198.84615384615384 502,198.84615384615384" stroke="green" stroke-width="1" /><polyline fill="none" points="10,229.6153846153846 72,229.6153846153846" stroke="green" stroke-width="1" /><polyline fill="none" points="86,229.6153846153846 86,229.6153846153846" stroke="green" stroke-width="1" /><polyline fill="none" points="92,229.6153846153846 482,229.6153846153846" stroke="green" stroke-width="1" /><polyline fill="none" points="488,229.6153846153846 488,229.6153846153846" stroke="green" stroke-width="1" /><polyline fill="none" points="502,229.6153846153846 502,229.6153846153846" stroke="green" stroke-width="1" /><polyline fill="none" points="10,260.38461538461536 294,260.38461538461536" stroke="green" stroke-width="1" /><polyline fill="none" points="314,260.38461538461536 468,260.38461538461536" stroke="green" stroke-width="1" /><polyline fill="none" points="488,260.38461538461536 502,260.38461538461536" stroke="green" stroke-width="1" /><polyline fill="none" points="10,291.1538461538462 428,291.1538461538462" stroke="green" stroke-width="1" /><polyline fill="none" points="438,291.1538461538462 502,291.1538461538462" stroke="green" stroke-width="1" /><polyline fill="none" points="10,321.9230769230769 306,321.9230769230769" stroke="green" stroke-width="1" /><polyline fill="none" points="310,321.9230769230769 502,321.9230769230769" stroke="green" stroke-width="1" /><polyline fill="none" points="10,352.6923076923077 502,352.6923076923077" stroke="green" stroke-width="1" /><polyline fill="none" points="10,383.46153846153845 362,383.46153846153845" stroke="green" stroke-width="1" /><polyline fill="none" points="382,383.46153846153845 472,383.46153846153845" stroke="green" stroke-width="1" /><polyline fill="none" points="480,383.46153846153845 480,383.46153846153845" stroke="green" stroke-width="1" /><polyline fill="none" points="488,383.46153846153845 488,383.46153846153845" stroke="green" stroke-width="1" /><polyline fill="none" points="494,383.46153846153845 502,383.46153846153845" stroke="green" stroke-width="1" /><polyline fill="none" points="10,414.2307692307692 442,414.2307692307692" stroke="green" stroke-width="1" /><polyline fill="none" points="462,414.2307692307692 502,414.2307692307692" stroke="green" stroke-width="1" /></svg>