<?xml version="1.0" encoding="utf-8" ?>
<svg baseProfile="full" height="100%" version="1.1" width="100%" xmlns="http://www.w3.org/2000/svg" xmlns:ev="http://www.w3.org/2001/xml-events" xmlns:xlink="http://www.w3.org/1999/xlink"><defs /><text x="10" y="20">Los Angeles Gladiators at Philadelphia Fusion on Route 66 round 2</text><g transform="translate(10,20)" /><rect fill="none" height="400" stroke="rgb(10%,10%,16%)" width="532" x="10" y="45" /><line stroke="gray" stroke-dasharray="1,4" stroke-width="1" x1="130" x2="130" y1="45" y2="445" /><text x="130" y="460">1:00</text><line stroke="gray" stroke-dasharray="1,4" stroke-width="1" x1="250" x2="250" y1="45" y2="445" /><text x="250" y="460">2:00</text><line stroke="gray" stroke-dasharray="1,4" stroke-width="1" x1="370" x2="370" y1="45" y2="445" /><text x="370" y="460">3:00</text><line stroke="gray" stroke-dasharray="1,4" stroke-width="1" x1="490" x2="490" y1="45" y2="445" /><text x="490" y="460">4:00</text><polyline fill="none" points="10,445 10,445.0 12,445.0 14,445.0 16,442.72 18,442.72 20,438.16 22,438.16 24,438.16 26,438.16 28,429.0 30,424.44 32,424.44 34,424.44 36,417.56 38,417.56 40,417.56 42,410.72 44,406.15999999999997 46,392.44 48,392.44 50,392.44 52,392.44 54,392.44 56,392.44 58,392.44 60,392.44 62,392.44 64,392.44 66,392.44 68,392.44 70,392.44 72,392.44 74,390.15999999999997 76,386.72 78,383.28 80,383.28 82,383.28 84,383.28 86,374.15999999999997 88,374.15999999999997 90,374.15999999999997 92,374.15999999999997 94,374.15999999999997 96,374.15999999999997 98,374.15999999999997 100,374.15999999999997 102,374.15999999999997 104,374.15999999999997 106,374.15999999999997 108,374.15999999999997 110,374.15999999999997 112,374.15999999999997 114,374.15999999999997 116,374.15999999999997 118,374.15999999999997 120,374.15999999999997 122,374.15999999999997 124,371.84000000000003 126,371.84000000000003 128,371.84000000000003 130,369.56 132,365.0 134,365.0 136,365.0 138,365.0 140,365.0 142,365.0 144,365.0 146,365.0 148,365.0 150,365.0 152,365.0 154,365.0 156,365.0 158,365.0 160,365.0 162,365.0 164,365.0 166,365.0 168,365.0 170,365.0 172,365.0 174,365.0 176,367.28 178,367.28 180,367.28 182,367.28 184,370.72 186,370.72 188,370.72 190,370.72 192,370.72 194,370.72 196,370.72 198,370.72 200,370.72 202,370.72 204,376.44 206,375.28 208,375.28 210,375.28 212,375.28 214,375.28 216,375.28 218,375.28 220,375.28 222,375.28 224,375.28 226,375.28 228,375.28 230,375.28 232,375.28 234,375.28 236,378.72 238,378.72 240,378.72 242,378.72 244,378.72 246,378.72 248,378.72 250,378.72 252,378.72 254,378.72 256,378.72 258,378.72 260,378.72 262,378.72 264,378.72 266,378.72 268,378.72 270,378.72 272,378.72 274,378.72 276,378.72 278,378.72 280,378.72 282,378.72 284,378.72 286,378.72 288,378.72 290,378.72 292,378.72 294,378.72 296,378.72 298,378.72 300,378.72 302,378.72 304,378.72 306,378.72 308,378.72 310,378.72 312,381.0 314,381.0 316,383.28 318,383.28 320,383.28 322,383.28 324,383.28 326,383.28 328,383.28 330,383.28 332,383.28 334,383.28 336,382.16 338,382.16 340,379.84000000000003 342,376.44 344,374.15999999999997 346,374.15999999999997 348,369.56 350,365.0 352,362.72 354,360.44 356,355.84000000000003 358,355.84000000000003 360,355.84000000000003 362,355.84000000000003 364,355.84000000000003 366,355.84000000000003 368,355.84000000000003 370,355.84000000000003 372,355.84000000000003 374,355.84000000000003 376,355.84000000000003 378,355.84000000000003 380,355.84000000000003 382,355.84000000000003 384,355.84000000000003 386,355.84000000000003 388,355.84000000000003 390,355.84000000000003 392,355.84000000000003 394,355.84000000000003 396,355.84000000000003 398,355.84000000000003 400,355.84000000000003 402,355.84000000000003 404,355.84000000000003 406,355.84000000000003 408,355.84000000000003 410,355.84000000000003 412,355.84000000000003 414,357.0 416,357.0 418,359.28 420,360.44 422,360.44 424,361.56 426,361.56 428,361.56 430,361.56 432,361.56 434,361.56 436,361.56 438,361.56 440,361.56 442,360.44 444,360.44 446,360.44 448,360.44 450,359.28 452,355.84000000000003 454,355.84000000000003 456,355.84000000000003 458,355.84000000000003 460,355.84000000000003 462,355.84000000000003 464,354.72 466,355.84000000000003 468,354.72 470,354.72 472,354.72 474,354.72 476,354.72 478,353.56 480,353.56 482,353.56 484,353.56 486,353.56 488,353.56 490,351.28 492,351.28 494,351.28 496,351.28 498,351.28 500,349.0 502,349.0 504,346.72 506,346.72 508,344.44 510,339.84 512,339.84 514,333.0 516,333.0 518,328.44 520,328.44 522,328.44 524,326.16 526,321.56 528,321.56 530,321.56 532,321.56 534,321.56 536,321.56 538,321.56 540,321.56 542,346.72 542,334.15999999999997" stroke="blue" stroke-width="2" /><polyline fill="none" points="10,245.0 10,245.0 12,245.0 14,245.0 16,245.0 18,245.0 20,245.0 22,245.0 24,245.0 26,245.0 28,245.0 30,245.0 32,245.0 34,245.0 36,245.0 38,245.0 40,245.0 42,245.0 44,245.0 46,245.0 48,245.0 50,245.0 52,245.0 54,245.0 56,245.0 58,245.0 60,245.0 62,245.0 64,245.0 66,245.0 68,245.0 70,245.0 72,245.0 74,245.0 76,245.0 78,245.0 80,245.0 82,245.0 84,245.0 86,245.0 88,245.0 90,245.0 92,245.0 94,245.0 96,245.0 98,245.0 100,245.0 102,245.0 104,245.0 106,245.0 108,245.0 110,245.0 112,245.0 114,245.0 116,245.0 118,245.0 120,278.3333333333333 122,278.3333333333333 124,278.3333333333333 126,211.66666666666666 128,211.66666666666666 130,211.66666666666666 132,211.66666666666666 134,211.66666666666666 136,211.66666666666666 138,211.66666666666666 140,245.0 142,245.0 144,245.0 146,245.0 148,245.0 150,245.0 152,245.0 154,245.0 156,211.66666666666666 158,178.33333333333331 160,145.0 162,111.66666666666663 164,111.66666666666663 166,78.33333333333331 168,78.33333333333331 170,78.33333333333331 172,78.33333333333331 174,78.33333333333331 176,145.0 178,178.33333333333331 180,211.66666666666666 182,211.66666666666666 184,245.0 186,245.0 188,245.0 190,245.0 192,245.0 194,245.0 196,245.0 198,245.0 200,245.0 202,245.0 204,245.0 206,245.0 208,245.0 210,245.0 212,245.0 214,245.0 216,245.0 218,245.0 220,245.0 222,245.0 224,245.0 226,245.0 228,245.0 230,245.0 232,245.0 234,245.0 236,245.0 238,245.0 240,245.0 242,245.0 244,245.0 246,245.0 248,245.0 250,245.0 252,245.0 254,245.0 256,245.0 258,245.0 260,245.0 262,278.3333333333333 264,278.3333333333333 266,278.3333333333333 268,245.0 270,245.0 272,245.0 274,245.0 276,245.0 278,245.0 280,211.66666666666666 282,178.33333333333331 284,211.66666666666666 286,178.33333333333331 288,178.33333333333331 290,245.0 292,178.33333333333331 294,178.33333333333331 296,178.33333333333331 298,178.33333333333331 300,211.66666666666666 302,211.66666666666666 304,211.66666666666666 306,211.66666666666666 308,211.66666666666666 310,211.66666666666666 312,245.0 314,245.0 316,245.0 318,245.0 320,245.0 322,245.0 324,245.0 326,245.0 328,245.0 330,245.0 332,245.0 334,245.0 336,245.0 338,245.0 340,211.66666666666666 342,211.66666666666666 344,211.66666666666666 346,211.66666666666666 348,211.66666666666666 350,211.66666666666666 352,211.66666666666666 354,211.66666666666666 356,211.66666666666666 358,245.0 360,245.0 362,245.0 364,245.0 366,245.0 368,245.0 370,245.0 372,245.0 374,245.0 376,245.0 378,245.0 380,245.0 382,278.3333333333333 384,278.3333333333333 386,278.3333333333333 388,245.0 390,245.0 392,245.0 394,245.0 396,245.0 398,245.0 400,245.0 402,245.0 404,245.0 406,245.0 408,245.0 410,245.0 412,245.0 414,245.0 416,245.0 418,245.0 420,245.0 422,245.0 424,245.0 426,245.0 428,245.0 430,245.0 432,245.0 434,245.0 436,245.0 438,245.0 440,245.0 442,245.0 444,245.0 446,245.0 448,245.0 450,245.0 452,245.0 454,211.66666666666666 456,211.66666666666666 458,211.66666666666666 460,245.0 462,245.0 464,245.0 466,245.0 468,245.0 470,245.0 472,245.0 474,245.0 476,245.0 478,245.0 480,245.0 482,245.0 484,245.0 486,245.0 488,245.0 490,245.0 492,245.0 494,245.0 496,245.0 498,245.0 500,245.0 502,311.66666666666663 504,278.3333333333333 506,311.66666666666663 508,311.66666666666663 510,311.66666666666663 512,311.66666666666663 514,311.66666666666663 516,345.0 518,345.0 520,345.0 522,345.0 524,345.0 526,378.3333333333333 528,345.0 530,311.66666666666663 532,345.0 534,345.0 536,345.0 538,345.0 540,345.0 542,345.0 542,245.0" stroke="red" stroke-width="1" /><polyline fill="none" points="10,75.76923076923077 260,75.76923076923077" stroke="green" stroke-width="1" /><polyline fill="none" points="280,75.76923076923077 524,75.76923076923077" stroke="green" stroke-width="1" /><polyline fill="none" points="542,75.76923076923077 542,75.76923076923077" stroke="green" stroke-width="1" /><polyline fill="none" points="10,106.53846153846155 538,106.53846153846155" stroke="green" stroke-width="1" /><polyline fill="none" points="542,106.53846153846155 542,106.53846153846155" stroke="green" stroke-width="1" /><polyline fill="none" points="10,137.30769230769232 500,137.30769230769232" stroke="green" stroke-width="1" /><polyline fill="none" points="504,137.30769230769232 504,137.30769230769232" stroke="green" stroke-width="1" /><polyline fill="none" points="528,137.30769230769232 542,137.30769230769232" stroke="green" stroke-width="1" /><polyline fill="none" points="10,168.0769230769231 380,168.0769230769231" stroke="green" stroke-width="1" /><polyline fill="none" points="388,168.0769230769231 500,168.0769230769231" stroke="green" stroke-width="1" /><polyline fill="none" points="528,168.0769230769231 542,168.0769230769231" stroke="green" stroke-width="1" /><polyline fill="none" points="10,198.84615384615384 514,198.84615384615384" stroke="green" stroke-width="1" /><polyline fill="none" points="540,198.84615384615384 542,198.84615384615384" stroke="green" stroke-width="1" /><polyline fill="none" points="10,229.6153846153846 118,229.6153846153846" stroke="green" stroke-width="1" /><polyline fill="none" points="126,229.6153846153846 526,229.6153846153846" stroke="green" stroke-width="1" /><polyline fill="none" points="530,229.6153846153846 530,229.6153846153846" stroke="green" stroke-width="1" /><polyline fill="none" points="542,229.6153846153846 542,229.6153846153846" stroke="green" stroke-width="1" /><polyline fill="none" points="10,260.38461538461536 124,260.38461538461536" stroke="green" stroke-width="1" /><polyline fill="none" points="140,260.38461538461536 164,260.38461538461536" stroke="green" stroke-width="1" /><polyline fill="none" points="184,260.38461538461536 274,260.38461538461536" stroke="green" stroke-width="1" /><polyline fill="none" points="290,260.38461538461536 290,260.38461538461536" stroke="green" stroke-width="1" /><polyline fill="none" points="294,260.38461538461536 542,260.38461538461536" stroke="green" stroke-width="1" /><polyline fill="none" points="10,291.1538461538462 292,291.1538461538462" stroke="green" stroke-width="1" /><polyline fill="none" points="312,291.1538461538462 338,291.1538461538462" stroke="green" stroke-width="1" /><polyline fill="none" points="358,291.1538461538462 542,291.1538461538462" stroke="green" stroke-width="1" /><polyline fill="none" points="10,321.9230769230769 156,321.9230769230769" stroke="green" stroke-width="1" /><polyline fill="none" points="176,321.9230769230769 280,321.9230769230769" stroke="green" stroke-width="1" /><polyline fill="none" points="284,321.9230769230769 284,321.9230769230769" stroke="green" stroke-width="1" /><polyline fill="none" points="290,321.9230769230769 290,321.9230769230769" stroke="green" stroke-width="1" /><polyline fill="none" points="300,321.9230769230769 542,321.9230769230769" stroke="green" stroke-width="1" /><polyline fill="none" points="10,352.6923076923077 158,352.6923076923077" stroke="green" stroke-width="1" /><polyline fill="none" points="178,352.6923076923077 266,352.6923076923077" stroke="green" stroke-width="1" /><polyline fill="none" points="276,352.6923076923077 542,352.6923076923077" stroke="green" stroke-width="1" /><polyline fill="none" points="10,383.46153846153845 154,383.46153846153845" stroke="green" stroke-width="1" /><polyline fill="none" points="176,383.46153846153845 452,383.46153846153845" stroke="green" stroke-width="1" /><polyline fill="none" points="460,383.46153846153845 542,383.46153846153845" stroke="green" stroke-width="1" /><polyline fill="none" points="10,414.2307692307692 160,414.2307692307692" stroke="green" stroke-width="1" /><polyline fill="none" points="180,414.2307692307692 542,414.2307692307692" stroke="green" stroke-width="1" /></svg>