<?xml version="1.0" encoding="utf-8" ?>
<svg baseProfile="full" height="100%" version="1.1" width="100%" xmlns="http://www.w3.org/2000/svg" xmlns:ev="http://www.w3.org/2001/xml-events" xmlns:xlink="http://www.w3.org/1999/xlink"><defs><style type="text/css"><![CDATA[
.player_lifelines {
  display: none
}

.player_lifeline {
  fill:none;
  stroke: green;
  stroke-width: 1;
  display: inline
}

.graph_border {
  fill: none;
  stroke: black;
}

.minute_ref_line {
  stroke: gray;
  stroke-width: 1;
  stroke-dasharray: 1,4
}


        .fight_area {
        fill: lightyellow;
        stroke: gold;
        stroke-width: 1
        }
        
        .replay_area {
        fill:lightgray;
        stroke: lightgray;
        stroke-width: 0
        }
        
        .progress_target_line {
        stroke: gray;
        stroke_width: 1;
        stroke-dasharray: 3,1
        }

        .progress_completion_line {
        stroke: gray;
        stroke_width: 1
        }
        
        .payload_progress {
        fill:none;
        stroke: blue;
        stroke-width: 2
        }
        
        .player_advantage {
        fill:none;
        stroke: red;
        stroke-width: 1
        }
        ]]></style></defs><text x="10" y="20">Los Angeles Gladiators(A) at Los Angeles Valiant on junkertown round 1</text><g class="graph" transform="translate(10, 45)"><rect class="graph_border" height="400" width="618" x="0" y="0" /><g class="fights"><rect class="fight_area" height="53.71999999999997" width="20" x="28" y="316.56" /><text x="28" y="316.56">#1 1</text><rect class="fight_area" height="100.56" width="40" x="76" y="216.0" /><text x="76" y="216.0">#2 5</text><rect class="fight_area" height="36.56" width="18" x="222" y="179.44" /><text x="222" y="179.44">#3 0</text><rect class="fight_area" height="9.160000000000025" width="12" x="286" y="170.27999999999997" /><text x="286" y="170.27999999999997">#4 0</text><rect class="fight_area" height="79.99999999999997" width="20" x="332" y="90.28" /><text x="332" y="90.28">#5 4</text><rect class="fight_area" height="4.559999999999988" width="20" x="446" y="85.72000000000001" /><text x="446" y="85.72000000000001">#6 -1</text><rect class="fight_area" height="66.28000000000003" width="20" x="492" y="19.43999999999999" /><text x="492" y="19.43999999999999">#7 1</text><rect class="fight_area" height="19.43999999999999" width="48" x="570" y="0.0" /><text x="570" y="0.0">#8 3</text></g><g class="replays"><rect class="replay_area" height="398" width="4" x="380" y="1" /></g><g class="completion"><line class="progress_target_line" x1="144" x2="144" y1="0.0" y2="270.84000000000003" /><line class="progress_completion_line" x1="0" x2="144" y1="270.84000000000003" y2="270.84000000000003" /><text x="144" y="-5">01:12</text><line class="progress_target_line" x1="386" x2="386" y1="0.0" y2="133.72000000000003" /><line class="progress_completion_line" x1="144" x2="386" y1="133.72000000000003" y2="133.72000000000003" /><text x="386" y="-5">03:13</text><line class="progress_target_line" x1="618" x2="618" y1="0.0" y2="0.0" /><line class="progress_completion_line" x1="386" x2="618" y1="0.0" y2="0.0" /><text x="618" y="-5">05:09</text></g><g class="progress"><polyline class="payload_progress" points="0,400 2,400.0 4,400.0 6,400.0 8,397.71999999999997 10,395.44 12,393.16 14,390.84 16,387.44 18,384.0 20,381.72 22,378.28 24,376.0 26,373.72 28,370.28 30,368.0 32,364.56 34,362.28 36,358.84000000000003 38,355.44 40,353.16 42,350.84 44,347.44 46,345.16 48,341.72 50,339.44 52,336.0 54,333.72 56,330.28 58,328.0 60,325.72 62,324.56 64,322.28 66,318.84000000000003 68,316.56 70,316.56 72,316.56 74,316.56 76,316.56 78,316.56 80,316.56 82,316.56 84,316.56 86,316.56 88,315.44 90,315.44 92,315.44 94,315.44 96,315.44 98,315.44 100,315.44 102,315.44 104,315.44 106,315.44 108,315.44 110,315.44 112,315.44 114,314.28000000000003 116,310.84000000000003 118,308.56 120,305.16 122,302.84 124,299.44 126,297.16 128,293.71999999999997 130,290.28000000000003 132,288.0 134,285.71999999999997 136,282.28 138,280.0 140,276.56 142,274.28 144,270.84000000000003 146,269.72 148,269.72 150,269.72 152,269.72 154,269.72 156,269.72 158,269.72 160,269.72 162,269.72 164,269.72 166,269.72 168,269.72 170,268.56 172,265.16 174,262.84000000000003 176,259.44000000000005 178,257.16 180,253.72 182,251.44000000000003 184,248.0 186,244.55999999999997 188,242.28 190,240.0 192,237.72000000000003 194,234.28 196,233.16 198,229.72000000000003 200,229.72000000000003 202,229.72000000000003 204,228.56 206,227.44 208,225.15999999999997 210,222.83999999999997 212,219.44 214,218.28000000000003 216,216.0 218,216.0 220,216.0 222,216.0 224,216.0 226,216.0 228,216.0 230,216.0 232,216.0 234,216.0 236,216.0 238,216.0 240,217.15999999999997 242,217.15999999999997 244,217.15999999999997 246,217.15999999999997 248,217.15999999999997 250,217.15999999999997 252,217.15999999999997 254,217.15999999999997 256,217.15999999999997 258,217.15999999999997 260,216.0 262,213.72 264,210.28000000000003 266,208.0 268,204.56000000000003 270,202.28000000000003 272,200.0 274,196.55999999999997 276,193.16 278,190.83999999999997 280,187.44 282,185.16 284,182.83999999999997 286,179.44 288,177.16 290,177.16 292,177.16 294,174.84000000000003 296,173.72 298,173.72 300,173.72 302,172.56 304,171.44 306,171.44 308,171.44 310,171.44 312,171.44 314,171.44 316,171.44 318,171.44 320,170.27999999999997 322,170.27999999999997 324,170.27999999999997 326,170.27999999999997 328,170.27999999999997 330,170.27999999999997 332,170.27999999999997 334,169.16000000000003 336,166.84 338,164.56 340,162.27999999999997 342,160.0 344,157.72 346,155.43999999999997 348,152.0 350,149.72 352,146.28 354,145.16 356,145.16 358,145.16 360,145.16 362,145.16 364,145.16 366,145.16 368,145.16 370,145.16 372,145.16" /><polyline class="payload_progress" points="384,137.16 386,133.72000000000003 388,131.44 390,129.16 392,126.84000000000002 394,123.44 396,121.15999999999998 398,117.72 400,115.43999999999998 402,112.00000000000001 404,109.72 406,106.28000000000002 408,104.0 410,100.55999999999999 412,98.28000000000002 414,94.83999999999999 416,92.56000000000002 418,91.44000000000001 420,91.44000000000001 422,91.44000000000001 424,91.44000000000001 426,91.44000000000001 428,91.44000000000001 430,91.44000000000001 432,91.44000000000001 434,91.44000000000001 436,91.44000000000001 438,91.44000000000001 440,91.44000000000001 442,91.44000000000001 444,91.44000000000001 446,90.28 448,89.16 450,89.16 452,89.16 454,89.16 456,89.16 458,86.83999999999999 460,85.72000000000001 462,85.72000000000001 464,85.72000000000001 466,85.72000000000001 468,85.72000000000001 470,85.72000000000001 472,85.72000000000001 474,85.72000000000001 476,85.72000000000001 478,85.72000000000001 480,85.72000000000001 482,85.72000000000001 484,85.72000000000001 486,85.72000000000001 488,85.72000000000001 490,85.72000000000001 492,85.72000000000001 494,82.28 496,79.99999999999999 498,77.72000000000001 500,75.44 502,72.00000000000001 504,69.72 506,66.27999999999999 508,65.16000000000003 510,64.00000000000001 512,61.72 514,59.43999999999998 516,56.00000000000001 518,53.71999999999999 520,50.280000000000015 522,48.0 524,44.560000000000024 526,42.28000000000001 528,38.83999999999999 530,36.56000000000002 532,33.15999999999999 534,31.999999999999986 536,28.56000000000001 538,26.279999999999994 540,24.00000000000002 542,21.720000000000006 544,19.43999999999999 546,19.43999999999999 548,19.43999999999999 550,19.43999999999999 552,19.43999999999999 554,19.43999999999999 556,19.43999999999999 558,19.43999999999999 560,19.43999999999999 562,19.43999999999999 564,19.43999999999999 566,19.43999999999999 568,19.43999999999999 570,19.43999999999999 572,19.43999999999999 574,19.43999999999999 576,19.43999999999999 578,18.279999999999987 580,17.160000000000018 582,17.160000000000018 584,17.160000000000018 586,17.160000000000018 588,16.000000000000014 590,14.840000000000009 592,13.719999999999999 594,12.559999999999993 596,12.559999999999993 598,12.559999999999993 600,12.559999999999993 602,12.559999999999993 604,12.559999999999993 606,12.559999999999993 608,12.559999999999993 610,9.160000000000013 612,6.840000000000002 614,3.440000000000021 616,1.1600000000000055 618,0.0" /></g><g class="player_lifelines"><polyline class="player_lifeline" points="0,30.76923076923077 284,30.76923076923077" /><polyline class="player_lifeline" points="304,30.76923076923077 444,30.76923076923077" /><polyline class="player_lifeline" points="464,30.76923076923077 618,30.76923076923077" /><polyline class="player_lifeline" points="0,61.53846153846154 296,61.53846153846154" /><polyline class="player_lifeline" points="318,61.53846153846154 618,61.53846153846154" /><polyline class="player_lifeline" points="0,92.3076923076923 618,92.3076923076923" /><polyline class="player_lifeline" points="0,123.07692307692308 238,123.07692307692308" /><polyline class="player_lifeline" points="244,123.07692307692308 618,123.07692307692308" /><polyline class="player_lifeline" points="0,153.84615384615384 618,153.84615384615384" /><polyline class="player_lifeline" points="0,184.6153846153846 342,184.6153846153846" /><polyline class="player_lifeline" points="364,184.6153846153846 618,184.6153846153846" /><polyline class="player_lifeline" points="0,215.3846153846154 220,215.3846153846154" /><polyline class="player_lifeline" points="240,215.3846153846154 288,215.3846153846154" /><polyline class="player_lifeline" points="306,215.3846153846154 598,215.3846153846154" /><polyline class="player_lifeline" points="618,215.3846153846154 618,215.3846153846154" /><polyline class="player_lifeline" points="0,246.15384615384616 104,246.15384615384616" /><polyline class="player_lifeline" points="126,246.15384615384616 338,246.15384615384616" /><polyline class="player_lifeline" points="358,246.15384615384616 618,246.15384615384616" /><polyline class="player_lifeline" points="0,276.9230769230769 80,276.9230769230769" /><polyline class="player_lifeline" points="98,276.9230769230769 338,276.9230769230769" /><polyline class="player_lifeline" points="360,276.9230769230769 490,276.9230769230769" /><polyline class="player_lifeline" points="510,276.9230769230769 618,276.9230769230769" /><polyline class="player_lifeline" points="0,307.6923076923077 112,307.6923076923077" /><polyline class="player_lifeline" points="124,307.6923076923077 344,307.6923076923077" /><polyline class="player_lifeline" points="364,307.6923076923077 618,307.6923076923077" /><polyline class="player_lifeline" points="0,338.46153846153845 26,338.46153846153845" /><polyline class="player_lifeline" points="32,338.46153846153845 74,338.46153846153845" /><polyline class="player_lifeline" points="94,338.46153846153845 288,338.46153846153845" /><polyline class="player_lifeline" points="308,338.46153846153845 350,338.46153846153845" /><polyline class="player_lifeline" points="370,338.46153846153845 568,338.46153846153845" /><polyline class="player_lifeline" points="616,338.46153846153845 618,338.46153846153845" /><polyline class="player_lifeline" points="0,369.2307692307692 114,369.2307692307692" /><polyline class="player_lifeline" points="124,369.2307692307692 330,369.2307692307692" /><polyline class="player_lifeline" points="342,369.2307692307692 588,369.2307692307692" /><polyline class="player_lifeline" points="608,369.2307692307692 618,369.2307692307692" /></g><g class="advantages"><polyline class="player_advantage" points="2,200.0 4,200.0 6,200.0 8,200.0 10,200.0 12,200.0 14,200.0 16,200.0 18,200.0 20,200.0 22,200.0 24,200.0 26,200.0 28,166.66666666666666 30,166.66666666666666 32,200.0 34,200.0 36,200.0 38,200.0 40,200.0 42,200.0 44,200.0 46,200.0 48,200.0 50,200.0 52,200.0 54,200.0 56,200.0 58,200.0 60,200.0 62,200.0 64,200.0 66,200.0 68,200.0 70,200.0 72,200.0 74,200.0 76,166.66666666666666 78,166.66666666666666 80,166.66666666666666 82,133.33333333333331 84,133.33333333333331 86,133.33333333333331 88,133.33333333333331 90,133.33333333333331 92,133.33333333333331 94,166.66666666666666 96,166.66666666666666 98,200.0 100,200.0 102,200.0 104,200.0 106,166.66666666666666 108,166.66666666666666 110,166.66666666666666 112,166.66666666666666 114,133.33333333333331 116,100.0 118,100.0 120,100.0 122,100.0 124,166.66666666666666 126,200.0 128,200.0 130,200.0 132,200.0 134,200.0 136,200.0 138,200.0 140,200.0 142,200.0 144,200.0 146,200.0 148,200.0 150,200.0 152,200.0 154,200.0 156,200.0 158,200.0 160,200.0 162,200.0 164,200.0 166,200.0 168,200.0 170,200.0 172,200.0 174,200.0 176,200.0 178,200.0 180,200.0 182,200.0 184,200.0 186,200.0 188,200.0 190,200.0 192,200.0 194,200.0 196,200.0 198,200.0 200,200.0 202,200.0 204,200.0 206,200.0 208,200.0 210,200.0 212,200.0 214,200.0 216,200.0 218,200.0 220,200.0 222,166.66666666666666 224,166.66666666666666 226,166.66666666666666 228,166.66666666666666 230,166.66666666666666 232,166.66666666666666 234,166.66666666666666 236,166.66666666666666 238,166.66666666666666 240,233.33333333333331 242,233.33333333333331 244,200.0 246,200.0 248,200.0 250,200.0 252,200.0 254,200.0 256,200.0 258,200.0 260,200.0 262,200.0 264,200.0 266,200.0 268,200.0 270,200.0 272,200.0 274,200.0 276,200.0 278,200.0 280,200.0 282,200.0 284,200.0 286,233.33333333333331 288,233.33333333333331 290,166.66666666666666 292,166.66666666666666 294,166.66666666666666 296,166.66666666666666 298,200.0 300,200.0 302,200.0 304,166.66666666666666 306,200.0 308,233.33333333333331 310,233.33333333333331 312,233.33333333333331 314,233.33333333333331 316,233.33333333333331 318,200.0 320,200.0 322,200.0 324,200.0 326,200.0 328,200.0 330,200.0 332,166.66666666666666 334,166.66666666666666 336,166.66666666666666 338,166.66666666666666 340,100.0 342,133.33333333333331 344,166.66666666666666 346,133.33333333333331 348,133.33333333333331 350,133.33333333333331 352,100.0 354,100.0 356,100.0 358,133.33333333333331 360,166.66666666666666 362,166.66666666666666 364,166.66666666666666 366,166.66666666666666 368,166.66666666666666 370,200.0 372,200.0" /><polyline class="player_advantage" points="384,200.0 386,200.0 388,200.0 390,200.0 392,200.0 394,200.0 396,200.0 398,200.0 400,200.0 402,200.0 404,200.0 406,200.0 408,200.0 410,200.0 412,200.0 414,200.0 416,200.0 418,200.0 420,200.0 422,200.0 424,200.0 426,200.0 428,200.0 430,200.0 432,200.0 434,200.0 436,200.0 438,200.0 440,200.0 442,200.0 444,200.0 446,233.33333333333331 448,233.33333333333331 450,233.33333333333331 452,233.33333333333331 454,233.33333333333331 456,233.33333333333331 458,233.33333333333331 460,233.33333333333331 462,233.33333333333331 464,200.0 466,200.0 468,200.0 470,200.0 472,200.0 474,200.0 476,200.0 478,200.0 480,200.0 482,200.0 484,200.0 486,200.0 488,200.0 490,200.0 492,166.66666666666666 494,166.66666666666666 496,166.66666666666666 498,166.66666666666666 500,166.66666666666666 502,166.66666666666666 504,166.66666666666666 506,166.66666666666666 508,166.66666666666666 510,200.0 512,200.0 514,200.0 516,200.0 518,200.0 520,200.0 522,200.0 524,200.0 526,200.0 528,200.0 530,200.0 532,200.0 534,200.0 536,200.0 538,200.0 540,200.0 542,200.0 544,200.0 546,200.0 548,200.0 550,200.0 552,200.0 554,200.0 556,200.0 558,200.0 560,200.0 562,200.0 564,200.0 566,200.0 568,200.0 570,166.66666666666666 572,166.66666666666666 574,166.66666666666666 576,166.66666666666666 578,166.66666666666666 580,166.66666666666666 582,166.66666666666666 584,166.66666666666666 586,166.66666666666666 588,166.66666666666666 590,133.33333333333331 592,133.33333333333331 594,133.33333333333331 596,133.33333333333331 598,133.33333333333331 600,100.0 602,100.0 604,100.0 606,100.0 608,133.33333333333331 610,133.33333333333331 612,133.33333333333331 614,133.33333333333331 616,166.66666666666666 618,200.0" /></g><g class="minute_ref"><line class="minute_ref_line" x1="120" x2="120" y1="0" y2="400" /><text x="120" y="420">1:00</text><line class="minute_ref_line" x1="240" x2="240" y1="0" y2="400" /><text x="240" y="420">2:00</text><line class="minute_ref_line" x1="360" x2="360" y1="0" y2="400" /><text x="360" y="420">3:00</text><line class="minute_ref_line" x1="480" x2="480" y1="0" y2="400" /><text x="480" y="420">4:00</text><line class="minute_ref_line" x1="600" x2="600" y1="0" y2="400" /><text x="600" y="420">5:00</text></g></g></svg>