<?xml version="1.0" encoding="utf-8" ?>
<svg baseProfile="full" height="100%" version="1.1" width="100%" xmlns="http://www.w3.org/2000/svg" xmlns:ev="http://www.w3.org/2001/xml-events" xmlns:xlink="http://www.w3.org/1999/xlink"><defs><style type="text/css"><![CDATA[
.player_lifelines {
  display: none
}

.player_lifeline {
  fill:none;
  stroke: green;
  stroke-width: 1;
  display: inline
}

.graph_border {
  fill: none;
  stroke: black;
}

.minute_ref_line {
  stroke: gray;
  stroke-width: 1;
  stroke-dasharray: 1,4
}


        .fight_area {
        fill: lightyellow;
        stroke: gold;
        stroke-width: 1
        }
        
        .replay_area {
        fill:lightgray;
        stroke: lightgray;
        stroke-width: 0
        }
        
        .progress_target_line {
        stroke: gray;
        stroke_width: 1;
        stroke-dasharray: 3,1
        }

        .progress_completion_line {
        stroke: gray;
        stroke_width: 1
        }
        
        .payload_progress {
        fill:none;
        stroke: blue;
        stroke-width: 2
        }
        
        .player_advantage {
        fill:none;
        stroke: red;
        stroke-width: 1
        }
        ]]></style></defs><text x="10" y="20">Los Angeles Gladiators at Los Angeles Valiant(A) on junkertown round 2</text><g class="graph" transform="translate(10, 45)"><rect class="graph_border" height="400" width="828" x="0" y="0" /><g class="fights"><rect class="fight_area" height="116.55999999999995" width="50" x="68" y="210.28000000000003" /><text x="68" y="210.28000000000003">#1 4</text><rect class="fight_area" height="10.279999999999973" width="4" x="204" y="206.28000000000003" /><text x="204" y="206.28000000000003">#2 -2</text><rect class="fight_area" height="18.28" width="20" x="268" y="194.28" /><text x="268" y="194.28">#3 -1</text><rect class="fight_area" height="8.0" width="22" x="388" y="190.28" /><text x="388" y="190.28">#4 -2</text><rect class="fight_area" height="11.440000000000026" width="6" x="442" y="182.83999999999997" /><text x="442" y="182.83999999999997">#5 -2</text><rect class="fight_area" height="11.440000000000026" width="18" x="528" y="182.83999999999997" /><text x="528" y="182.83999999999997">#6 -4</text><rect class="fight_area" height="13.719999999999999" width="34" x="644" y="180.56" /><text x="644" y="180.56">#7 -4</text><rect class="fight_area" height="6.840000000000003" width="20" x="728" y="173.72" /><text x="728" y="173.72">#8 -1</text><rect class="fight_area" height="226.28" width="38" x="790" y="173.72" /><text x="790" y="173.72">#9 -5</text></g><g class="replays"><rect class="replay_area" height="398" width="4" x="300" y="1" /><rect class="replay_area" height="398" width="14" x="426" y="1" /></g><g class="completion"><line class="progress_target_line" x1="136" x2="136" y1="0.0" y2="267.44000000000005" /><line class="progress_completion_line" x1="0" x2="136" y1="267.44000000000005" y2="267.44000000000005" /><text x="136" y="-5">01:08</text></g><g class="progress"><polyline class="payload_progress" points="0,400 2,400.0 4,400.0 6,400.0 8,397.71999999999997 10,395.44 12,390.84 14,386.28 16,384.0 18,384.0 20,379.44 22,377.15999999999997 24,374.84000000000003 26,374.84000000000003 28,370.28 30,366.84000000000003 32,365.72 34,365.72 36,364.56 38,361.16 40,352.0 42,352.0 44,352.0 46,348.56 48,348.56 50,348.56 52,348.56 54,345.16 56,329.15999999999997 58,329.15999999999997 60,329.15999999999997 62,329.15999999999997 64,329.15999999999997 66,326.84 68,326.84 70,326.84 72,326.84 74,326.84 76,326.84 78,326.84 80,326.84 82,324.56 84,324.56 86,324.56 88,324.56 90,324.56 92,324.56 94,320.0 96,320.0 98,320.0 100,320.0 102,313.16 104,313.16 106,310.84000000000003 108,307.44 110,304.0 112,301.71999999999997 114,301.71999999999997 116,294.84 118,283.44 120,283.44 122,276.56 124,274.28 126,274.28 128,274.28 130,274.28 132,274.28 134,274.28 136,267.44000000000005 138,267.44000000000005 140,267.44000000000005 142,267.44000000000005 144,267.44000000000005 146,267.44000000000005 148,267.44000000000005 150,267.44000000000005 152,267.44000000000005 154,267.44000000000005 156,267.44000000000005 158,267.44000000000005 160,267.44000000000005 162,265.16 164,265.16 166,258.28 168,253.72 170,253.72 172,244.55999999999997 174,244.55999999999997 176,244.55999999999997 178,244.55999999999997 180,233.16 182,233.16 184,228.56 186,228.56 188,228.56 190,226.28 192,219.44 194,210.28000000000003 196,210.28000000000003 198,210.28000000000003 200,210.28000000000003 202,210.28000000000003 204,210.28000000000003 206,210.28000000000003 208,210.28000000000003 210,210.28000000000003 212,210.28000000000003 214,210.28000000000003 216,210.28000000000003 218,210.28000000000003 220,210.28000000000003 222,210.28000000000003 224,210.28000000000003 226,210.28000000000003 228,210.28000000000003 230,210.28000000000003 232,210.28000000000003 234,210.28000000000003 236,210.28000000000003 238,210.28000000000003 240,219.44 242,219.44 244,219.44 246,219.44 248,219.44 250,219.44 252,219.44 254,219.44 256,219.44 258,219.44 260,219.44 262,217.15999999999997 264,214.84 266,214.84 268,212.56 270,212.56 272,210.28000000000003 274,210.28000000000003 276,210.28000000000003 278,210.28000000000003 280,210.28000000000003 282,210.28000000000003 284,210.28000000000003 286,210.28000000000003 288,210.28000000000003 290,210.28000000000003 292,210.28000000000003" /><polyline class="payload_progress" points="304,217.15999999999997 306,217.15999999999997 308,217.15999999999997 310,219.44 312,218.28000000000003 314,218.28000000000003 316,218.28000000000003 318,218.28000000000003 320,218.28000000000003 322,218.28000000000003 324,218.28000000000003 326,218.28000000000003 328,218.28000000000003 330,218.28000000000003 332,218.28000000000003 334,218.28000000000003 336,218.28000000000003 338,218.28000000000003 340,218.28000000000003 342,218.28000000000003 344,217.15999999999997 346,214.84 348,214.84 350,212.56 352,212.56 354,212.56 356,208.0 358,208.0 360,201.16 362,201.16 364,194.28 366,195.44000000000003 368,194.28 370,194.28 372,194.28 374,194.28 376,194.28 378,194.28 380,194.28 382,194.28 384,194.28 386,194.28 388,194.28 390,194.28 392,192.0 394,192.0 396,192.0 398,192.0 400,192.0 402,192.0 404,192.0 406,192.0 408,192.0 410,192.0 412,192.0 414,192.0 416,192.0 418,192.0" /><polyline class="payload_progress" points="440,196.55999999999997 442,194.28 444,194.28 446,194.28 448,194.28 450,194.28 452,194.28 454,192.0 456,192.0 458,189.72000000000003 460,189.72000000000003 462,187.44 464,185.16 466,182.83999999999997 468,182.83999999999997 470,182.83999999999997 472,182.83999999999997 474,182.83999999999997 476,182.83999999999997 478,182.83999999999997 480,182.83999999999997 482,182.83999999999997 484,182.83999999999997 486,182.83999999999997 488,182.83999999999997 490,182.83999999999997 492,182.83999999999997 494,182.83999999999997 496,182.83999999999997 498,182.83999999999997 500,182.83999999999997 502,182.83999999999997 504,182.83999999999997 506,182.83999999999997 508,182.83999999999997 510,182.83999999999997 512,182.83999999999997 514,182.83999999999997 516,182.83999999999997 518,182.83999999999997 520,182.83999999999997 522,182.83999999999997 524,182.83999999999997 526,182.83999999999997 528,182.83999999999997 530,182.83999999999997 532,182.83999999999997 534,182.83999999999997 536,182.83999999999997 538,182.83999999999997 540,182.83999999999997 542,182.83999999999997 544,182.83999999999997 546,182.83999999999997 548,182.83999999999997 550,182.83999999999997 552,182.83999999999997 554,182.83999999999997 556,182.83999999999997 558,194.28 560,381.72 562,381.72 564,381.72 566,400.0 568,400.0 570,400.0 572,400.0 574,400.0 576,400.0 578,400.0 580,400.0 582,400.0 584,400.0 586,400.0 588,400.0 590,400.0 592,400.0 594,400.0 596,400.0 598,400.0 600,400.0 602,400.0 604,400.0 606,400.0 608,400.0 610,205.72 612,203.43999999999997 614,203.43999999999997 616,203.43999999999997 618,203.43999999999997 620,203.43999999999997 622,203.43999999999997 624,203.43999999999997 626,203.43999999999997 628,201.16 630,201.16 632,201.16 634,201.16 636,198.84 638,198.84 640,198.84 642,194.28 644,194.28 646,192.0 648,192.0 650,190.83999999999997 652,182.83999999999997 654,180.56 656,180.56 658,180.56 660,175.99999999999997 662,175.99999999999997 664,175.99999999999997 666,175.99999999999997 668,175.99999999999997 670,175.99999999999997 672,175.99999999999997 674,175.99999999999997 676,175.99999999999997 678,175.99999999999997 680,175.99999999999997 682,175.99999999999997 684,175.99999999999997 686,175.99999999999997 688,175.99999999999997 690,178.28 692,178.28 694,178.28 696,178.28 698,178.28 700,178.28 702,178.28 704,178.28 706,178.28 708,178.28 710,178.28 712,178.28 714,178.28 716,178.28 718,178.28 720,180.56 722,180.56 724,180.56 726,180.56 728,180.56 730,180.56 732,180.56 734,180.56 736,180.56 738,180.56 740,180.56 742,180.56 744,180.56 746,180.56 748,180.56 750,180.56 752,180.56 754,180.56 756,180.56 758,189.72000000000003 760,189.72000000000003 762,189.72000000000003 764,189.72000000000003 766,189.72000000000003 768,189.72000000000003 770,189.72000000000003 772,189.72000000000003 774,189.72000000000003 776,189.72000000000003 778,189.72000000000003 780,178.28 782,175.99999999999997 784,175.99999999999997 786,175.99999999999997 788,173.72 790,173.72 792,173.72 794,173.72 796,173.72 798,173.72 800,173.72 802,173.72 804,173.72 806,173.72 808,173.72 810,173.72 812,173.72 814,173.72 816,173.72 818,173.72 820,173.72 822,173.72 824,173.72 826,173.72 828,173.72 828,400.0" /></g><g class="player_lifelines"><polyline class="player_lifeline" points="0,30.76923076923077 116,30.76923076923077" /><polyline class="player_lifeline" points="136,30.76923076923077 386,30.76923076923077" /><polyline class="player_lifeline" points="390,30.76923076923077 828,30.76923076923077" /><polyline class="player_lifeline" points="0,61.53846153846154 82,61.53846153846154" /><polyline class="player_lifeline" points="100,61.53846153846154 526,61.53846153846154" /><polyline class="player_lifeline" points="546,61.53846153846154 828,61.53846153846154" /><polyline class="player_lifeline" points="0,92.3076923076923 112,92.3076923076923" /><polyline class="player_lifeline" points="132,92.3076923076923 828,92.3076923076923" /><polyline class="player_lifeline" points="0,123.07692307692308 104,123.07692307692308" /><polyline class="player_lifeline" points="122,123.07692307692308 828,123.07692307692308" /><polyline class="player_lifeline" points="0,153.84615384615384 92,153.84615384615384" /><polyline class="player_lifeline" points="104,153.84615384615384 828,153.84615384615384" /><polyline class="player_lifeline" points="0,184.6153846153846 114,184.6153846153846" /><polyline class="player_lifeline" points="126,184.6153846153846 828,184.6153846153846" /><polyline class="player_lifeline" points="0,215.3846153846154 394,215.3846153846154" /><polyline class="player_lifeline" points="400,215.3846153846154 530,215.3846153846154" /><polyline class="player_lifeline" points="550,215.3846153846154 660,215.3846153846154" /><polyline class="player_lifeline" points="680,215.3846153846154 726,215.3846153846154" /><polyline class="player_lifeline" points="748,215.3846153846154 788,215.3846153846154" /><polyline class="player_lifeline" points="810,215.3846153846154 828,215.3846153846154" /><polyline class="player_lifeline" points="0,246.15384615384616 530,246.15384615384616" /><polyline class="player_lifeline" points="550,246.15384615384616 792,246.15384615384616" /><polyline class="player_lifeline" points="818,246.15384615384616 828,246.15384615384616" /><polyline class="player_lifeline" points="0,276.9230769230769 206,276.9230769230769" /><polyline class="player_lifeline" points="220,276.9230769230769 526,276.9230769230769" /><polyline class="player_lifeline" points="546,276.9230769230769 812,276.9230769230769" /><polyline class="player_lifeline" points="828,276.9230769230769 828,276.9230769230769" /><polyline class="player_lifeline" points="0,307.6923076923077 440,307.6923076923077" /><polyline class="player_lifeline" points="446,307.6923076923077 446,307.6923076923077" /><polyline class="player_lifeline" points="452,307.6923076923077 544,307.6923076923077" /><polyline class="player_lifeline" points="558,307.6923076923077 676,307.6923076923077" /><polyline class="player_lifeline" points="696,307.6923076923077 812,307.6923076923077" /><polyline class="player_lifeline" points="828,307.6923076923077 828,307.6923076923077" /><polyline class="player_lifeline" points="0,338.46153846153845 66,338.46153846153845" /><polyline class="player_lifeline" points="70,338.46153846153845 92,338.46153846153845" /><polyline class="player_lifeline" points="106,338.46153846153845 408,338.46153846153845" /><polyline class="player_lifeline" points="440,338.46153846153845 642,338.46153846153845" /><polyline class="player_lifeline" points="660,338.46153846153845 824,338.46153846153845" /><polyline class="player_lifeline" points="828,338.46153846153845 828,338.46153846153845" /><polyline class="player_lifeline" points="0,369.2307692307692 202,369.2307692307692" /><polyline class="player_lifeline" points="224,369.2307692307692 266,369.2307692307692" /><polyline class="player_lifeline" points="288,369.2307692307692 394,369.2307692307692" /><polyline class="player_lifeline" points="414,369.2307692307692 530,369.2307692307692" /><polyline class="player_lifeline" points="550,369.2307692307692 650,369.2307692307692" /><polyline class="player_lifeline" points="668,369.2307692307692 828,369.2307692307692" /></g><g class="advantages"><polyline class="player_advantage" points="2,200.0 4,200.0 6,200.0 8,200.0 10,200.0 12,200.0 14,200.0 16,200.0 18,200.0 20,200.0 22,200.0 24,200.0 26,200.0 28,200.0 30,200.0 32,200.0 34,200.0 36,200.0 38,200.0 40,200.0 42,200.0 44,200.0 46,200.0 48,200.0 50,200.0 52,200.0 54,200.0 56,200.0 58,200.0 60,200.0 62,200.0 64,200.0 66,200.0 68,233.33333333333331 70,200.0 72,200.0 74,200.0 76,200.0 78,200.0 80,200.0 82,200.0 84,166.66666666666666 86,166.66666666666666 88,166.66666666666666 90,166.66666666666666 92,166.66666666666666 94,166.66666666666666 96,166.66666666666666 98,166.66666666666666 100,200.0 102,200.0 104,233.33333333333331 106,166.66666666666666 108,166.66666666666666 110,166.66666666666666 112,166.66666666666666 114,133.33333333333331 116,100.0 118,66.66666666666663 120,66.66666666666663 122,100.0 124,100.0 126,133.33333333333331 128,133.33333333333331 130,133.33333333333331 132,166.66666666666666 134,166.66666666666666 136,200.0 138,200.0 140,200.0 142,200.0 144,200.0 146,200.0 148,200.0 150,200.0 152,200.0 154,200.0 156,200.0 158,200.0 160,200.0 162,200.0 164,200.0 166,200.0 168,200.0 170,200.0 172,200.0 174,200.0 176,200.0 178,200.0 180,200.0 182,200.0 184,200.0 186,200.0 188,200.0 190,200.0 192,200.0 194,200.0 196,200.0 198,200.0 200,200.0 202,200.0 204,233.33333333333331 206,233.33333333333331 208,266.66666666666663 210,266.66666666666663 212,266.66666666666663 214,266.66666666666663 216,266.66666666666663 218,266.66666666666663 220,233.33333333333331 222,233.33333333333331 224,200.0 226,200.0 228,200.0 230,200.0 232,200.0 234,200.0 236,200.0 238,200.0 240,200.0 242,200.0 244,200.0 246,200.0 248,200.0 250,200.0 252,200.0 254,200.0 256,200.0 258,200.0 260,200.0 262,200.0 264,200.0 266,200.0 268,233.33333333333331 270,233.33333333333331 272,233.33333333333331 274,233.33333333333331 276,233.33333333333331 278,233.33333333333331 280,233.33333333333331 282,233.33333333333331 284,233.33333333333331 286,233.33333333333331 288,200.0 290,200.0 292,200.0" /><polyline class="player_advantage" points="304,200.0 306,200.0 308,200.0 310,200.0 312,200.0 314,200.0 316,200.0 318,200.0 320,200.0 322,200.0 324,200.0 326,200.0 328,200.0 330,200.0 332,200.0 334,200.0 336,200.0 338,200.0 340,200.0 342,200.0 344,200.0 346,200.0 348,200.0 350,200.0 352,200.0 354,200.0 356,200.0 358,200.0 360,200.0 362,200.0 364,200.0 366,200.0 368,200.0 370,200.0 372,200.0 374,200.0 376,200.0 378,200.0 380,200.0 382,200.0 384,200.0 386,200.0 388,166.66666666666666 390,200.0 392,200.0 394,200.0 396,266.66666666666663 398,266.66666666666663 400,233.33333333333331 402,233.33333333333331 404,233.33333333333331 406,233.33333333333331 408,233.33333333333331 410,266.66666666666663 412,266.66666666666663 414,233.33333333333331 416,233.33333333333331 418,233.33333333333331" /><polyline class="player_advantage" points="440,200.0 442,233.33333333333331 444,233.33333333333331 446,200.0 448,233.33333333333331 450,233.33333333333331 452,200.0 454,200.0 456,200.0 458,200.0 460,200.0 462,200.0 464,200.0 466,200.0 468,200.0 470,200.0 472,200.0 474,200.0 476,200.0 478,200.0 480,200.0 482,200.0 484,200.0 486,200.0 488,200.0 490,200.0 492,200.0 494,200.0 496,200.0 498,200.0 500,200.0 502,200.0 504,200.0 506,200.0 508,200.0 510,200.0 512,200.0 514,200.0 516,200.0 518,200.0 520,200.0 522,200.0 524,200.0 526,200.0 528,200.0 530,200.0 532,300.0 534,300.0 536,300.0 538,300.0 540,300.0 542,300.0 544,300.0 546,333.3333333333333 548,333.3333333333333 550,233.33333333333331 552,233.33333333333331 554,233.33333333333331 556,233.33333333333331 558,200.0 560,200.0 562,200.0 564,200.0 566,200.0 568,200.0 570,200.0 572,200.0 574,200.0 576,200.0 578,200.0 580,200.0 582,200.0 584,200.0 586,200.0 588,200.0 590,200.0 592,200.0 594,200.0 596,200.0 598,200.0 600,200.0 602,200.0 604,200.0 606,200.0 608,200.0 610,200.0 612,200.0 614,200.0 616,200.0 618,200.0 620,200.0 622,200.0 624,200.0 626,200.0 628,200.0 630,200.0 632,200.0 634,200.0 636,200.0 638,200.0 640,200.0 642,200.0 644,233.33333333333331 646,233.33333333333331 648,233.33333333333331 650,233.33333333333331 652,266.66666666666663 654,266.66666666666663 656,266.66666666666663 658,266.66666666666663 660,233.33333333333331 662,266.66666666666663 664,266.66666666666663 666,266.66666666666663 668,233.33333333333331 670,233.33333333333331 672,233.33333333333331 674,233.33333333333331 676,233.33333333333331 678,266.66666666666663 680,233.33333333333331 682,233.33333333333331 684,233.33333333333331 686,233.33333333333331 688,233.33333333333331 690,233.33333333333331 692,233.33333333333331 694,233.33333333333331 696,200.0 698,200.0 700,200.0 702,200.0 704,200.0 706,200.0 708,200.0 710,200.0 712,200.0 714,200.0 716,200.0 718,200.0 720,200.0 722,200.0 724,200.0 726,200.0 728,233.33333333333331 730,233.33333333333331 732,233.33333333333331 734,233.33333333333331 736,233.33333333333331 738,233.33333333333331 740,233.33333333333331 742,233.33333333333331 744,233.33333333333331 746,233.33333333333331 748,200.0 750,200.0 752,200.0 754,200.0 756,200.0 758,200.0 760,200.0 762,200.0 764,200.0 766,200.0 768,200.0 770,200.0 772,200.0 774,200.0 776,200.0 778,200.0 780,200.0 782,200.0 784,200.0 786,200.0 788,200.0 790,233.33333333333331 792,233.33333333333331 794,266.66666666666663 796,266.66666666666663 798,266.66666666666663 800,266.66666666666663 802,266.66666666666663 804,266.66666666666663 806,266.66666666666663 808,266.66666666666663 810,233.33333333333331 812,233.33333333333331 814,300.0 816,300.0 818,266.66666666666663 820,266.66666666666663 822,266.66666666666663 824,266.66666666666663 826,300.0 828,300.0 828,200.0" /></g><g class="minute_ref"><line class="minute_ref_line" x1="120" x2="120" y1="0" y2="400" /><text x="120" y="420">1:00</text><line class="minute_ref_line" x1="240" x2="240" y1="0" y2="400" /><text x="240" y="420">2:00</text><line class="minute_ref_line" x1="360" x2="360" y1="0" y2="400" /><text x="360" y="420">3:00</text><line class="minute_ref_line" x1="480" x2="480" y1="0" y2="400" /><text x="480" y="420">4:00</text><line class="minute_ref_line" x1="600" x2="600" y1="0" y2="400" /><text x="600" y="420">5:00</text><line class="minute_ref_line" x1="720" x2="720" y1="0" y2="400" /><text x="720" y="420">6:00</text></g></g></svg>