<?xml version="1.0" encoding="utf-8" ?>
<svg baseProfile="full" height="100%" version="1.1" width="100%" xmlns="http://www.w3.org/2000/svg" xmlns:ev="http://www.w3.org/2001/xml-events" xmlns:xlink="http://www.w3.org/1999/xlink"><defs><style type="text/css"><![CDATA[
.payload_progress {
  fill:none;
  stroke: blue;
  stroke-width: 2
}

.player_advantage {
  fill:none;
  stroke: red;
  stroke-width: 1

}

.player_lifeline {
  fill:none;
  stroke: green;
  stroke-width: 1
}

.graph_border {
  fill: none;
  stroke: black;
}

.minute_ref_line {
  stroke: gray;
  stroke-width: 1;
  stroke-dasharray: 1,4
}

.progress_target_line {
  stroke: gray;
  stroke_width: 1;
  stroke-dasharray: 3,1
}

.progress_completion_line {
  stroke: gray;
  stroke_width: 1
}


]]></style></defs><text x="10" y="20">Boston Uprising at Los Angeles Gladiators on Route 66 round 1</text><g style="graph" transform="translate(10, 45)"><rect class="graph_border" height="400" width="934" x="0" y="0" /><line class="minute_ref_line" x1="120" x2="120" y1="0" y2="400" /><text x="120" y="420">1:00</text><line class="minute_ref_line" x1="240" x2="240" y1="0" y2="400" /><text x="240" y="420">2:00</text><line class="minute_ref_line" x1="360" x2="360" y1="0" y2="400" /><text x="360" y="420">3:00</text><line class="minute_ref_line" x1="480" x2="480" y1="0" y2="400" /><text x="480" y="420">4:00</text><line class="minute_ref_line" x1="600" x2="600" y1="0" y2="400" /><text x="600" y="420">5:00</text><line class="minute_ref_line" x1="720" x2="720" y1="0" y2="400" /><text x="720" y="420">6:00</text><line class="minute_ref_line" x1="840" x2="840" y1="0" y2="400" /><text x="840" y="420">7:00</text><polyline class="payload_progress" points="0,400 0,400.0 2,400.0 4,400.0 6,400.0 8,398.84 10,396.56 12,394.28000000000003 14,392.0 16,390.84 18,387.44 20,385.15999999999997 22,382.84 24,379.44 26,376.0 28,373.72 30,370.28 32,368.0 34,365.72 36,362.28 38,360.0 40,357.71999999999997 42,354.28000000000003 44,352.0 46,349.71999999999997 48,347.44 50,346.28000000000003 52,345.16 54,344.0 56,344.0 58,342.84 60,340.55999999999995 62,337.15999999999997 64,334.84 66,332.56 68,331.44 70,330.28 72,330.28 74,329.15999999999997 76,326.84 78,324.56 80,322.28 82,320.0 84,317.72 86,314.28000000000003 88,312.0 90,309.71999999999997 92,307.44 94,305.16 96,302.84 98,300.56 100,298.28000000000003 102,296.0 104,293.71999999999997 106,291.44 108,289.15999999999997 110,285.71999999999997 112,284.56 114,284.56 116,284.56 118,282.28 120,282.28 122,282.28 124,282.28 126,282.28 128,282.28 130,282.28 132,280.0 134,278.84000000000003 136,278.84000000000003 138,277.71999999999997 140,275.44 142,275.44 144,274.28 146,274.28 148,274.28 150,274.28 152,274.28 154,274.28 156,274.28 158,274.28 160,274.28 162,274.28 164,274.28 166,274.28 168,274.28 170,274.28 172,274.28 174,274.28 176,274.28 178,274.28 180,274.28 182,274.28 184,274.28 186,274.28 188,275.44 190,275.44 192,276.56 194,276.56 196,276.56 198,277.71999999999997 200,277.71999999999997 202,278.84000000000003 204,278.84000000000003 206,280.0 208,280.0 210,280.0 212,281.16 214,281.16 216,282.28 218,282.28 220,282.28 222,282.28 224,282.28 226,282.28 228,282.28 230,282.28 232,282.28 234,282.28 236,280.0 238,278.84000000000003 240,278.84000000000003 242,278.84000000000003 244,278.84000000000003 246,278.84000000000003 248,278.84000000000003 250,278.84000000000003 252,278.84000000000003 254,278.84000000000003 256,278.84000000000003 258,277.71999999999997 260,276.56 262,274.28 264,274.28 266,274.28 268,273.16 270,273.16 272,273.16 274,272.0 276,272.0 278,272.0 280,272.0 282,272.0 284,272.0 286,272.0 288,272.0 290,272.0 292,272.0 294,270.84000000000003 296,270.84000000000003 298,270.84000000000003 300,268.56 302,265.16 304,263.99999999999994 306,263.99999999999994 308,263.99999999999994 310,263.99999999999994 312,263.99999999999994 314,263.99999999999994 316,263.99999999999994 318,263.99999999999994 320,263.99999999999994 322,263.99999999999994 324,263.99999999999994 326,263.99999999999994 328,263.99999999999994 330,263.99999999999994 332,263.99999999999994 334,262.84000000000003 336,260.56 338,258.28 340,256.0 342,253.72 344,251.44000000000003 346,249.16 348,246.84 350,244.55999999999997 352,242.28 354,238.83999999999997 356,237.72000000000003 358,234.28 360,232.00000000000003 362,229.72000000000003 364,227.44 366,226.28 368,224.00000000000003 370,221.72 372,221.72 374,221.72 376,221.72 378,221.72 380,221.72 382,221.72 384,221.72 386,221.72 388,221.72 390,221.72 392,221.72 394,221.72 396,221.72 398,221.72 400,221.72 402,221.72 404,221.72 406,221.72 408,221.72 410,221.72 412,221.72 414,221.72 416,221.72 418,221.72 420,221.72 422,221.72 424,221.72 426,221.72 428,221.72 430,221.72 432,220.56 434,219.44 436,217.15999999999997 438,214.84 440,212.56 442,210.28000000000003 444,208.0 446,205.72 448,203.43999999999997 450,200.0 452,197.71999999999997 454,194.28 456,192.0 458,189.72000000000003 460,187.44 462,185.16 464,182.83999999999997 466,181.72000000000003 468,179.44 470,177.16 472,175.99999999999997 474,173.72 476,171.44 478,170.27999999999997 480,170.27999999999997 482,169.16000000000003 484,168.00000000000003 486,165.72 488,164.56 490,164.56 492,164.56 494,164.56 496,164.56 498,163.44 500,163.44 502,163.44 504,163.44 506,163.44 508,163.44 510,163.44 512,162.27999999999997 514,158.84 516,157.72 518,156.56 520,156.56 522,156.56 524,156.56 526,156.56 528,156.56 530,156.56 532,156.56 534,155.43999999999997 536,152.0 538,149.72 540,146.28 542,144.0 544,140.56000000000003 546,138.28 548,136.0 550,132.56 552,129.16 554,126.84000000000002 556,123.44 558,122.27999999999999 560,122.27999999999999 562,121.15999999999998 564,118.84000000000002 566,118.84000000000002 568,118.84000000000002 570,118.84000000000002 572,118.84000000000002 574,118.84000000000002 576,118.84000000000002 578,118.84000000000002 580,118.84000000000002 582,118.84000000000002 584,118.84000000000002 586,118.84000000000002 588,118.84000000000002 590,118.84000000000002 592,118.84000000000002 594,118.84000000000002 596,118.84000000000002 598,118.84000000000002 600,118.84000000000002 602,118.84000000000002 604,118.84000000000002 606,118.84000000000002 608,118.84000000000002 610,118.84000000000002 612,118.84000000000002 614,118.84000000000002 616,118.84000000000002 618,118.84000000000002 620,118.84000000000002 622,118.84000000000002 624,118.84000000000002 626,118.84000000000002 628,118.84000000000002 630,118.84000000000002 632,118.84000000000002 634,118.84000000000002 636,118.84000000000002 638,116.56 640,114.27999999999999 642,112.00000000000001 644,109.72 646,107.43999999999998 648,105.16000000000001 650,102.84 652,100.55999999999999 654,98.28000000000002 656,94.83999999999999 658,92.56000000000002 660,90.28 662,87.99999999999999 664,85.72000000000001 666,82.28 668,79.99999999999999 670,77.72000000000001 672,75.44 674,74.27999999999999 676,74.27999999999999 678,74.27999999999999 680,74.27999999999999 682,74.27999999999999 684,74.27999999999999 686,74.27999999999999 688,74.27999999999999 690,74.27999999999999 692,74.27999999999999 694,74.27999999999999 696,74.27999999999999 698,74.27999999999999 700,74.27999999999999 702,74.27999999999999 704,74.27999999999999 706,74.27999999999999 708,74.27999999999999 710,74.27999999999999 712,74.27999999999999 714,74.27999999999999 716,74.27999999999999 718,74.27999999999999 720,74.27999999999999 722,74.27999999999999 724,74.27999999999999 726,73.15999999999998 728,70.84000000000002 730,68.56 732,66.27999999999999 734,64.00000000000001 736,64.00000000000001 738,62.84 740,62.84 742,62.84 744,62.84 746,60.55999999999999 748,60.55999999999999 750,60.55999999999999 752,60.55999999999999 754,58.28000000000002 756,58.28000000000002 758,58.28000000000002 760,58.28000000000002 762,58.28000000000002 764,58.28000000000002 766,58.28000000000002 768,58.28000000000002 770,58.28000000000002 772,58.28000000000002 774,58.28000000000002 776,58.28000000000002 778,58.28000000000002 780,58.28000000000002 782,58.28000000000002 784,58.28000000000002 786,58.28000000000002 788,58.28000000000002 790,58.28000000000002 792,57.16000000000001 794,57.16000000000001 796,57.16000000000001 798,57.16000000000001 800,57.16000000000001 802,54.84 804,52.55999999999999 806,49.160000000000004 808,46.83999999999999 810,44.560000000000024 812,41.16 814,37.72000000000002 816,35.440000000000005 818,33.15999999999999 820,30.83999999999998 822,27.439999999999998 824,25.159999999999982 826,22.840000000000018 828,20.560000000000002 830,18.279999999999987 832,16.000000000000014 834,13.719999999999999 836,11.439999999999984 838,9.160000000000013 840,6.840000000000002 842,5.719999999999992 844,5.719999999999992 846,5.719999999999992 848,5.719999999999992 850,5.719999999999992 852,5.719999999999992 854,5.719999999999992 856,5.719999999999992 858,5.719999999999992 860,5.719999999999992 862,5.719999999999992 864,5.719999999999992 866,5.719999999999992 868,5.719999999999992 870,5.719999999999992 872,5.719999999999992 874,5.719999999999992 876,5.719999999999992 878,5.719999999999992 880,5.719999999999992 882,5.719999999999992 884,5.719999999999992 886,5.719999999999992 888,5.719999999999992 890,5.719999999999992 892,5.719999999999992 894,5.719999999999992 896,5.719999999999992 898,3.440000000000021 900,2.2800000000000153 902,2.2800000000000153 904,2.2800000000000153 906,2.2800000000000153 908,2.2800000000000153 910,2.2800000000000153 912,2.2800000000000153 914,2.2800000000000153 916,2.2800000000000153 918,2.2800000000000153 920,2.2800000000000153 922,2.2800000000000153 924,2.2800000000000153 926,2.2800000000000153 928,2.2800000000000153 930,2.2800000000000153 932,2.2800000000000153 934,2.2800000000000153 934,0.0" /><line class="progress_target_line" x1="274" x2="274" y1="0" y2="272.0" /><line class="progress_completion_line" x1="0" x2="274" y1="272.0" y2="272.0" /><text x="274" y="-5">02:17</text><line class="progress_target_line" x1="548" x2="548" y1="0" y2="136.0" /><line class="progress_completion_line" x1="274" x2="548" y1="136.0" y2="136.0" /><text x="548" y="-5">04:34</text><line class="progress_target_line" x1="934" x2="934" y1="0" y2="0.0" /><line class="progress_completion_line" x1="548" x2="934" y1="0.0" y2="0.0" /><text x="934" y="-5">07:47</text><polyline class="player_advantage" points="0,200.0 0,200.0 2,200.0 4,200.0 6,200.0 8,200.0 10,200.0 12,200.0 14,200.0 16,200.0 18,200.0 20,200.0 22,200.0 24,200.0 26,200.0 28,200.0 30,200.0 32,200.0 34,200.0 36,200.0 38,200.0 40,200.0 42,200.0 44,200.0 46,166.66666666666666 48,166.66666666666666 50,166.66666666666666 52,166.66666666666666 54,166.66666666666666 56,166.66666666666666 58,166.66666666666666 60,200.0 62,166.66666666666666 64,200.0 66,200.0 68,200.0 70,200.0 72,200.0 74,200.0 76,200.0 78,200.0 80,200.0 82,200.0 84,200.0 86,200.0 88,200.0 90,200.0 92,200.0 94,200.0 96,200.0 98,200.0 100,200.0 102,200.0 104,200.0 106,200.0 108,200.0 110,200.0 112,200.0 114,200.0 116,200.0 118,200.0 120,200.0 122,200.0 124,200.0 126,200.0 128,200.0 130,200.0 132,200.0 134,233.33333333333331 136,200.0 138,200.0 140,200.0 142,200.0 144,200.0 146,233.33333333333331 148,233.33333333333331 150,266.66666666666663 152,233.33333333333331 154,233.33333333333331 156,233.33333333333331 158,266.66666666666663 160,266.66666666666663 162,266.66666666666663 164,233.33333333333331 166,200.0 168,266.66666666666663 170,266.66666666666663 172,300.0 174,300.0 176,266.66666666666663 178,266.66666666666663 180,266.66666666666663 182,266.66666666666663 184,233.33333333333331 186,233.33333333333331 188,200.0 190,200.0 192,200.0 194,200.0 196,200.0 198,200.0 200,200.0 202,200.0 204,200.0 206,200.0 208,200.0 210,200.0 212,200.0 214,200.0 216,200.0 218,200.0 220,200.0 222,200.0 224,200.0 226,200.0 228,200.0 230,200.0 232,200.0 234,200.0 236,200.0 238,200.0 240,200.0 242,200.0 244,200.0 246,200.0 248,200.0 250,200.0 252,200.0 254,200.0 256,200.0 258,200.0 260,200.0 262,200.0 264,133.33333333333331 266,133.33333333333331 268,100.0 270,166.66666666666666 272,166.66666666666666 274,133.33333333333331 276,133.33333333333331 278,100.0 280,100.0 282,166.66666666666666 284,166.66666666666666 286,166.66666666666666 288,166.66666666666666 290,166.66666666666666 292,200.0 294,133.33333333333331 296,200.0 298,133.33333333333331 300,133.33333333333331 302,200.0 304,166.66666666666666 306,166.66666666666666 308,133.33333333333331 310,166.66666666666666 312,166.66666666666666 314,166.66666666666666 316,200.0 318,200.0 320,200.0 322,200.0 324,200.0 326,200.0 328,200.0 330,200.0 332,200.0 334,200.0 336,200.0 338,200.0 340,200.0 342,200.0 344,200.0 346,200.0 348,200.0 350,200.0 352,200.0 354,200.0 356,200.0 358,200.0 360,200.0 362,200.0 364,200.0 366,200.0 368,200.0 370,200.0 372,200.0 374,233.33333333333331 376,233.33333333333331 378,233.33333333333331 380,233.33333333333331 382,233.33333333333331 384,233.33333333333331 386,233.33333333333331 388,233.33333333333331 390,233.33333333333331 392,200.0 394,200.0 396,200.0 398,233.33333333333331 400,266.66666666666663 402,200.0 404,166.66666666666666 406,200.0 408,200.0 410,233.33333333333331 412,233.33333333333331 414,233.33333333333331 416,200.0 418,166.66666666666666 420,266.66666666666663 422,266.66666666666663 424,266.66666666666663 426,233.33333333333331 428,200.0 430,200.0 432,200.0 434,200.0 436,200.0 438,133.33333333333331 440,166.66666666666666 442,133.33333333333331 444,200.0 446,200.0 448,200.0 450,200.0 452,200.0 454,200.0 456,200.0 458,200.0 460,200.0 462,200.0 464,200.0 466,200.0 468,200.0 470,200.0 472,200.0 474,200.0 476,200.0 478,200.0 480,200.0 482,200.0 484,200.0 486,166.66666666666666 488,166.66666666666666 490,166.66666666666666 492,166.66666666666666 494,166.66666666666666 496,166.66666666666666 498,166.66666666666666 500,166.66666666666666 502,200.0 504,200.0 506,233.33333333333331 508,233.33333333333331 510,166.66666666666666 512,200.0 514,166.66666666666666 516,166.66666666666666 518,166.66666666666666 520,166.66666666666666 522,166.66666666666666 524,166.66666666666666 526,200.0 528,200.0 530,200.0 532,166.66666666666666 534,166.66666666666666 536,166.66666666666666 538,166.66666666666666 540,166.66666666666666 542,166.66666666666666 544,166.66666666666666 546,166.66666666666666 548,200.0 550,200.0 552,200.0 554,200.0 556,200.0 558,200.0 560,166.66666666666666 562,166.66666666666666 564,166.66666666666666 566,166.66666666666666 568,166.66666666666666 570,166.66666666666666 572,133.33333333333331 574,133.33333333333331 576,133.33333333333331 578,166.66666666666666 580,200.0 582,200.0 584,200.0 586,200.0 588,200.0 590,200.0 592,200.0 594,200.0 596,200.0 598,200.0 600,133.33333333333331 602,133.33333333333331 604,100.0 606,100.0 608,100.0 610,133.33333333333331 612,200.0 614,133.33333333333331 616,100.0 618,200.0 620,200.0 622,200.0 624,200.0 626,200.0 628,200.0 630,200.0 632,200.0 634,166.66666666666666 636,200.0 638,233.33333333333331 640,233.33333333333331 642,200.0 644,200.0 646,200.0 648,166.66666666666666 650,200.0 652,200.0 654,200.0 656,200.0 658,200.0 660,200.0 662,200.0 664,200.0 666,200.0 668,233.33333333333331 670,200.0 672,200.0 674,200.0 676,200.0 678,200.0 680,233.33333333333331 682,233.33333333333331 684,266.66666666666663 686,200.0 688,266.66666666666663 690,200.0 692,233.33333333333331 694,233.33333333333331 696,300.0 698,266.66666666666663 700,166.66666666666666 702,200.0 704,233.33333333333331 706,233.33333333333331 708,233.33333333333331 710,233.33333333333331 712,200.0 714,200.0 716,200.0 718,233.33333333333331 720,233.33333333333331 722,166.66666666666666 724,166.66666666666666 726,166.66666666666666 728,166.66666666666666 730,166.66666666666666 732,200.0 734,200.0 736,200.0 738,200.0 740,200.0 742,200.0 744,200.0 746,200.0 748,200.0 750,233.33333333333331 752,233.33333333333331 754,200.0 756,233.33333333333331 758,200.0 760,200.0 762,200.0 764,200.0 766,200.0 768,200.0 770,200.0 772,200.0 774,200.0 776,200.0 778,200.0 780,200.0 782,200.0 784,166.66666666666666 786,200.0 788,200.0 790,166.66666666666666 792,166.66666666666666 794,166.66666666666666 796,133.33333333333331 798,133.33333333333331 800,133.33333333333331 802,166.66666666666666 804,200.0 806,200.0 808,200.0 810,200.0 812,200.0 814,200.0 816,200.0 818,166.66666666666666 820,166.66666666666666 822,166.66666666666666 824,166.66666666666666 826,166.66666666666666 828,166.66666666666666 830,166.66666666666666 832,166.66666666666666 834,200.0 836,200.0 838,200.0 840,200.0 842,200.0 844,200.0 846,200.0 848,200.0 850,166.66666666666666 852,166.66666666666666 854,166.66666666666666 856,200.0 858,166.66666666666666 860,166.66666666666666 862,166.66666666666666 864,133.33333333333331 866,133.33333333333331 868,200.0 870,233.33333333333331 872,233.33333333333331 874,200.0 876,166.66666666666666 878,166.66666666666666 880,166.66666666666666 882,200.0 884,166.66666666666666 886,200.0 888,166.66666666666666 890,166.66666666666666 892,200.0 894,233.33333333333331 896,200.0 898,166.66666666666666 900,166.66666666666666 902,200.0 904,200.0 906,200.0 908,200.0 910,200.0 912,166.66666666666666 914,166.66666666666666 916,166.66666666666666 918,133.33333333333331 920,133.33333333333331 922,166.66666666666666 924,200.0 926,133.33333333333331 928,133.33333333333331 930,166.66666666666666 932,133.33333333333331 934,133.33333333333331 934,200.0" /></g></svg>