<?xml version="1.0" encoding="utf-8" ?>
<svg baseProfile="full" height="100%" version="1.1" width="100%" xmlns="http://www.w3.org/2000/svg" xmlns:ev="http://www.w3.org/2001/xml-events" xmlns:xlink="http://www.w3.org/1999/xlink"><defs><style type="text/css"><![CDATA[
.payload_progress {
  fill:none;
  stroke: blue;
  stroke-width: 2
}

.player_advantage {
  fill:none;
  stroke: red;
  stroke-width: 1

}

.player_lifeline {
  fill:none;
  stroke: green;
  stroke-width: 1
}

.graph_border {
  fill: none;
  stroke: black;
}

.minute_ref_line {
  stroke: gray;
  stroke-width: 1;
  stroke-dasharray: 1,4
}

.progress_target_line {
  stroke: gray;
  stroke_width: 1;
  stroke-dasharray: 3,1
}

.progress_completion_line {
  stroke: gray;
  stroke_width: 1
}


]]></style></defs><text x="10" y="20">Boston Uprising at Los Angeles Gladiators on Route 66 round 2</text><g style="graph" transform="translate(10, 45)"><rect class="graph_border" height="400" width="806" x="0" y="0" /><line class="minute_ref_line" x1="120" x2="120" y1="0" y2="400" /><text x="120" y="420">1:00</text><line class="minute_ref_line" x1="240" x2="240" y1="0" y2="400" /><text x="240" y="420">2:00</text><line class="minute_ref_line" x1="360" x2="360" y1="0" y2="400" /><text x="360" y="420">3:00</text><line class="minute_ref_line" x1="480" x2="480" y1="0" y2="400" /><text x="480" y="420">4:00</text><line class="minute_ref_line" x1="600" x2="600" y1="0" y2="400" /><text x="600" y="420">5:00</text><line class="minute_ref_line" x1="720" x2="720" y1="0" y2="400" /><text x="720" y="420">6:00</text><polyline class="payload_progress" points="0,400 0,387.44 2,400.0 4,400.0 6,400.0 8,400.0 10,400.0 12,400.0 14,400.0 16,400.0 18,400.0 20,400.0 22,400.0 24,400.0 26,400.0 28,400.0 30,400.0 32,400.0 34,400.0 36,400.0 38,400.0 40,400.0 42,400.0 44,400.0 46,400.0 48,400.0 50,400.0 52,400.0 54,400.0 56,400.0 58,400.0 60,400.0 62,400.0 64,400.0 66,400.0 68,400.0 70,400.0 72,400.0 74,400.0 76,400.0 78,400.0 80,400.0 82,400.0 84,400.0 86,400.0 88,400.0 90,400.0 92,400.0 94,400.0 96,400.0 98,400.0 100,400.0 102,400.0 104,400.0 106,400.0 108,400.0 110,400.0 112,400.0 114,400.0 116,400.0 118,400.0 120,400.0 122,400.0 124,400.0 126,400.0 128,400.0 130,400.0 132,400.0 134,400.0 136,400.0 138,400.0 140,400.0 142,400.0 144,400.0 146,400.0 148,400.0 150,400.0 152,400.0 154,400.0 156,400.0 158,400.0 160,400.0 162,400.0 164,400.0 166,400.0 168,400.0 170,400.0 172,400.0 174,400.0 176,400.0 178,400.0 180,400.0 182,400.0 184,400.0 186,400.0 188,400.0 190,400.0 192,400.0 194,400.0 196,400.0 198,400.0 200,400.0 202,400.0 204,400.0 206,400.0 208,400.0 210,400.0 212,400.0 214,400.0 216,400.0 218,400.0 220,400.0 222,400.0 224,400.0 226,400.0 228,400.0 230,400.0 232,400.0 234,400.0 236,400.0 238,400.0 240,400.0 242,400.0 244,400.0 246,400.0 248,400.0 250,400.0 252,400.0 254,400.0 256,400.0 258,400.0 260,400.0 262,400.0 264,400.0 266,400.0 268,400.0 270,400.0 272,400.0 274,400.0 276,400.0 278,400.0 280,400.0 282,400.0 284,400.0 286,400.0 288,400.0 290,400.0 292,400.0 294,400.0 296,400.0 298,400.0 300,400.0 302,400.0 304,400.0 306,400.0 308,400.0 310,400.0 312,400.0 314,400.0 316,400.0 318,400.0 320,400.0 322,400.0 324,400.0 326,400.0 328,400.0 330,400.0 332,400.0 334,400.0 336,400.0 338,400.0 340,400.0 342,400.0 344,400.0 346,400.0 348,400.0 350,400.0 352,400.0 354,400.0 356,400.0 358,400.0 360,400.0 362,400.0 364,400.0 366,400.0 368,400.0 370,400.0 372,400.0 374,400.0 376,400.0 378,400.0 380,400.0 382,400.0 384,400.0 386,400.0 388,400.0 390,400.0 392,400.0 394,400.0 396,400.0 398,400.0 400,400.0 402,400.0 404,400.0 406,400.0 408,400.0 410,400.0 412,400.0 414,400.0 416,400.0 418,400.0 420,400.0 422,400.0 424,400.0 426,400.0 428,400.0 430,400.0 432,400.0 434,400.0 436,400.0 438,400.0 440,400.0 442,400.0 444,400.0 446,400.0 448,400.0 450,400.0 452,400.0 454,400.0 456,400.0 458,400.0 460,400.0 462,400.0 464,400.0 466,400.0 468,400.0 470,400.0 472,400.0 474,400.0 476,400.0 478,400.0 480,400.0 482,400.0 484,400.0 486,400.0 488,400.0 490,400.0 492,400.0 494,400.0 496,400.0 498,400.0 500,400.0 502,400.0 504,400.0 506,400.0 508,400.0 510,400.0 512,400.0 514,400.0 516,400.0 518,400.0 520,400.0 522,400.0 524,400.0 526,400.0 528,400.0 530,400.0 532,400.0 534,400.0 536,400.0 538,400.0 540,400.0 542,400.0 544,400.0 546,400.0 548,400.0 550,400.0 552,400.0 554,400.0 556,400.0 558,400.0 560,400.0 562,400.0 564,400.0 566,400.0 568,400.0 570,400.0 572,400.0 574,400.0 576,400.0 578,400.0 580,400.0 582,400.0 584,400.0 586,400.0 588,400.0 590,400.0 592,400.0 594,400.0 596,400.0 598,400.0 600,400.0 602,400.0 604,400.0 606,400.0 608,400.0 610,400.0 612,400.0 614,400.0 616,400.0 618,400.0 620,400.0 622,400.0 624,400.0 626,400.0 628,400.0 630,400.0 632,400.0 634,400.0 636,400.0 638,400.0 640,400.0 642,400.0 644,400.0 646,400.0 648,400.0 650,400.0 652,400.0 654,400.0 656,400.0 658,400.0 660,400.0 662,400.0 664,400.0 666,400.0 668,400.0 670,400.0 672,400.0 674,400.0 676,400.0 678,400.0 680,400.0 682,400.0 684,400.0 686,400.0 688,400.0 690,400.0 692,400.0 694,400.0 696,400.0 698,400.0 700,400.0 702,400.0 704,400.0 706,400.0 708,400.0 710,400.0 712,400.0 714,400.0 716,400.0 718,400.0 720,400.0 722,400.0 724,400.0 726,400.0 728,400.0 730,400.0 732,400.0 734,400.0 736,400.0 738,400.0 740,400.0 742,400.0 744,400.0 746,400.0 748,400.0 750,400.0 752,400.0 754,400.0 756,400.0 758,400.0 760,400.0 762,400.0 764,400.0 766,400.0 768,400.0 770,400.0 772,400.0 774,400.0 776,400.0 778,400.0 780,400.0 782,400.0 784,400.0 786,400.0 788,400.0 790,400.0 792,400.0 794,400.0 796,400.0 798,400.0 800,400.0 802,400.0 804,400.0 806,400.0 806,400.0" /><polyline class="player_advantage" points="0,200.0 0,200.0 2,200.0 4,200.0 6,200.0 8,200.0 10,200.0 12,200.0 14,200.0 16,200.0 18,200.0 20,200.0 22,200.0 24,200.0 26,200.0 28,200.0 30,200.0 32,200.0 34,200.0 36,200.0 38,200.0 40,200.0 42,200.0 44,200.0 46,200.0 48,200.0 50,200.0 52,200.0 54,200.0 56,200.0 58,200.0 60,200.0 62,200.0 64,233.33333333333331 66,233.33333333333331 68,233.33333333333331 70,233.33333333333331 72,233.33333333333331 74,266.66666666666663 76,266.66666666666663 78,300.0 80,300.0 82,300.0 84,266.66666666666663 86,266.66666666666663 88,266.66666666666663 90,266.66666666666663 92,266.66666666666663 94,300.0 96,266.66666666666663 98,266.66666666666663 100,233.33333333333331 102,266.66666666666663 104,266.66666666666663 106,266.66666666666663 108,266.66666666666663 110,233.33333333333331 112,233.33333333333331 114,200.0 116,200.0 118,200.0 120,200.0 122,200.0 124,200.0 126,200.0 128,200.0 130,200.0 132,200.0 134,200.0 136,200.0 138,200.0 140,233.33333333333331 142,266.66666666666663 144,266.66666666666663 146,266.66666666666663 148,266.66666666666663 150,266.66666666666663 152,266.66666666666663 154,300.0 156,300.0 158,300.0 160,300.0 162,333.3333333333333 164,266.66666666666663 166,333.3333333333333 168,333.3333333333333 170,333.3333333333333 172,300.0 174,300.0 176,266.66666666666663 178,266.66666666666663 180,233.33333333333331 182,233.33333333333331 184,233.33333333333331 186,233.33333333333331 188,233.33333333333331 190,233.33333333333331 192,233.33333333333331 194,233.33333333333331 196,233.33333333333331 198,200.0 200,200.0 202,200.0 204,200.0 206,200.0 208,200.0 210,200.0 212,200.0 214,200.0 216,166.66666666666666 218,200.0 220,200.0 222,200.0 224,200.0 226,200.0 228,200.0 230,200.0 232,200.0 234,200.0 236,200.0 238,200.0 240,200.0 242,233.33333333333331 244,233.33333333333331 246,266.66666666666663 248,266.66666666666663 250,233.33333333333331 252,233.33333333333331 254,233.33333333333331 256,233.33333333333331 258,233.33333333333331 260,200.0 262,200.0 264,166.66666666666666 266,166.66666666666666 268,233.33333333333331 270,233.33333333333331 272,266.66666666666663 274,266.66666666666663 276,266.66666666666663 278,233.33333333333331 280,266.66666666666663 282,266.66666666666663 284,300.0 286,266.66666666666663 288,266.66666666666663 290,233.33333333333331 292,266.66666666666663 294,233.33333333333331 296,266.66666666666663 298,233.33333333333331 300,233.33333333333331 302,200.0 304,200.0 306,200.0 308,200.0 310,200.0 312,200.0 314,200.0 316,200.0 318,200.0 320,200.0 322,200.0 324,200.0 326,200.0 328,200.0 330,200.0 332,200.0 334,200.0 336,200.0 338,200.0 340,200.0 342,233.33333333333331 344,233.33333333333331 346,233.33333333333331 348,233.33333333333331 350,266.66666666666663 352,266.66666666666663 354,266.66666666666663 356,233.33333333333331 358,233.33333333333331 360,233.33333333333331 362,233.33333333333331 364,233.33333333333331 366,233.33333333333331 368,200.0 370,166.66666666666666 372,166.66666666666666 374,200.0 376,233.33333333333331 378,166.66666666666666 380,166.66666666666666 382,166.66666666666666 384,166.66666666666666 386,166.66666666666666 388,233.33333333333331 390,233.33333333333331 392,233.33333333333331 394,233.33333333333331 396,233.33333333333331 398,233.33333333333331 400,233.33333333333331 402,233.33333333333331 404,266.66666666666663 406,233.33333333333331 408,233.33333333333331 410,233.33333333333331 412,233.33333333333331 414,266.66666666666663 416,300.0 418,300.0 420,300.0 422,300.0 424,300.0 426,333.3333333333333 428,333.3333333333333 430,300.0 432,300.0 434,266.66666666666663 436,266.66666666666663 438,266.66666666666663 440,233.33333333333331 442,233.33333333333331 444,200.0 446,200.0 448,200.0 450,200.0 452,200.0 454,166.66666666666666 456,200.0 458,200.0 460,233.33333333333331 462,200.0 464,200.0 466,200.0 468,200.0 470,200.0 472,200.0 474,200.0 476,166.66666666666666 478,200.0 480,200.0 482,200.0 484,200.0 486,200.0 488,200.0 490,200.0 492,200.0 494,200.0 496,200.0 498,200.0 500,200.0 502,233.33333333333331 504,233.33333333333331 506,233.33333333333331 508,233.33333333333331 510,233.33333333333331 512,233.33333333333331 514,233.33333333333331 516,266.66666666666663 518,266.66666666666663 520,233.33333333333331 522,233.33333333333331 524,233.33333333333331 526,266.66666666666663 528,266.66666666666663 530,233.33333333333331 532,266.66666666666663 534,233.33333333333331 536,233.33333333333331 538,233.33333333333331 540,233.33333333333331 542,233.33333333333331 544,233.33333333333331 546,233.33333333333331 548,233.33333333333331 550,200.0 552,200.0 554,200.0 556,200.0 558,200.0 560,200.0 562,200.0 564,200.0 566,200.0 568,200.0 570,200.0 572,200.0 574,200.0 576,200.0 578,200.0 580,233.33333333333331 582,233.33333333333331 584,200.0 586,200.0 588,200.0 590,233.33333333333331 592,233.33333333333331 594,200.0 596,200.0 598,200.0 600,166.66666666666666 602,200.0 604,200.0 606,233.33333333333331 608,233.33333333333331 610,200.0 612,233.33333333333331 614,233.33333333333331 616,233.33333333333331 618,233.33333333333331 620,266.66666666666663 622,266.66666666666663 624,233.33333333333331 626,233.33333333333331 628,233.33333333333331 630,233.33333333333331 632,233.33333333333331 634,200.0 636,200.0 638,166.66666666666666 640,166.66666666666666 642,166.66666666666666 644,166.66666666666666 646,166.66666666666666 648,166.66666666666666 650,166.66666666666666 652,200.0 654,200.0 656,200.0 658,200.0 660,200.0 662,166.66666666666666 664,166.66666666666666 666,166.66666666666666 668,200.0 670,200.0 672,200.0 674,200.0 676,166.66666666666666 678,166.66666666666666 680,200.0 682,166.66666666666666 684,166.66666666666666 686,200.0 688,200.0 690,200.0 692,166.66666666666666 694,200.0 696,200.0 698,200.0 700,200.0 702,200.0 704,200.0 706,200.0 708,200.0 710,200.0 712,200.0 714,200.0 716,200.0 718,200.0 720,233.33333333333331 722,200.0 724,200.0 726,200.0 728,200.0 730,233.33333333333331 732,233.33333333333331 734,266.66666666666663 736,233.33333333333331 738,233.33333333333331 740,233.33333333333331 742,233.33333333333331 744,266.66666666666663 746,266.66666666666663 748,233.33333333333331 750,266.66666666666663 752,233.33333333333331 754,266.66666666666663 756,266.66666666666663 758,266.66666666666663 760,300.0 762,266.66666666666663 764,300.0 766,300.0 768,266.66666666666663 770,266.66666666666663 772,266.66666666666663 774,233.33333333333331 776,233.33333333333331 778,200.0 780,200.0 782,200.0 784,233.33333333333331 786,233.33333333333331 788,233.33333333333331 790,233.33333333333331 792,266.66666666666663 794,233.33333333333331 796,266.66666666666663 798,266.66666666666663 800,300.0 802,266.66666666666663 804,233.33333333333331 806,266.66666666666663 806,266.66666666666663" /></g></svg>