<?xml version="1.0" encoding="utf-8" ?>
<svg baseProfile="full" height="100%" version="1.1" width="100%" xmlns="http://www.w3.org/2000/svg" xmlns:ev="http://www.w3.org/2001/xml-events" xmlns:xlink="http://www.w3.org/1999/xlink"><defs><style type="text/css"><![CDATA[
.payload_progress {
  fill:none;
  stroke: blue;
  stroke-width: 2
}

.player_advantage {
  fill:none;
  stroke: red;
  stroke-width: 1

}

.player_lifeline {
  fill:none;
  stroke: green;
  stroke-width: 1
}

.graph_border {
  fill: none;
  stroke: black;
}

.minute_ref_line {
  stroke: gray;
  stroke-width: 1;
  stroke-dasharray: 1,4
}

.progress_target_line {
  stroke: gray;
  stroke_width: 1;
  stroke-dasharray: 3,1
}

.progress_completion_line {
  stroke: gray;
  stroke_width: 1
}


]]></style></defs><text x="10" y="20">Boston Uprising at Los Angeles Gladiators on Route 66 round 3</text><g style="graph" transform="translate(10, 45)"><rect class="graph_border" height="400" width="630" x="0" y="0" /><line class="minute_ref_line" x1="120" x2="120" y1="0" y2="400" /><text x="120" y="420">1:00</text><line class="minute_ref_line" x1="240" x2="240" y1="0" y2="400" /><text x="240" y="420">2:00</text><line class="minute_ref_line" x1="360" x2="360" y1="0" y2="400" /><text x="360" y="420">3:00</text><line class="minute_ref_line" x1="480" x2="480" y1="0" y2="400" /><text x="480" y="420">4:00</text><line class="minute_ref_line" x1="600" x2="600" y1="0" y2="400" /><text x="600" y="420">5:00</text><polyline class="payload_progress" points="0,400 0,400.0 2,400.0 4,400.0 6,397.71999999999997 8,395.44 10,393.16 12,390.84 14,388.56 16,387.44 18,384.0 20,382.84 22,379.44 24,377.15999999999997 26,373.72 28,371.44 30,369.16 32,365.72 34,364.56 36,362.28 38,358.84000000000003 40,356.56 42,354.28000000000003 44,354.28000000000003 46,354.28000000000003 48,354.28000000000003 50,353.16 52,353.16 54,352.0 56,352.0 58,352.0 60,352.0 62,352.0 64,350.84 66,350.84 68,349.71999999999997 70,349.71999999999997 72,349.71999999999997 74,347.44 76,346.28000000000003 78,342.84 80,340.55999999999995 82,338.28000000000003 84,337.15999999999997 86,337.15999999999997 88,337.15999999999997 90,337.15999999999997 92,337.15999999999997 94,337.15999999999997 96,337.15999999999997 98,337.15999999999997 100,337.15999999999997 102,337.15999999999997 104,337.15999999999997 106,337.15999999999997 108,336.0 110,334.84 112,334.84 114,334.84 116,334.84 118,334.84 120,334.84 122,332.56 124,330.28 126,326.84 128,323.44 130,321.15999999999997 132,318.84000000000003 134,316.56 136,314.28000000000003 138,312.0 140,308.56 142,306.28000000000003 144,304.0 146,301.71999999999997 148,299.44 150,296.0 152,293.71999999999997 154,290.28000000000003 156,288.0 158,285.71999999999997 160,283.44 162,281.16 164,278.84000000000003 166,277.71999999999997 168,277.71999999999997 170,276.56 172,274.28 174,274.28 176,274.28 178,274.28 180,274.28 182,274.28 184,274.28 186,274.28 188,274.28 190,274.28 192,274.28 194,274.28 196,274.28 198,274.28 200,312.0 202,312.0 204,312.0 206,312.0 208,312.0 210,312.0 212,312.0 214,312.0 216,312.0 218,310.84000000000003 220,310.84000000000003 222,310.84000000000003 224,310.84000000000003 226,310.84000000000003 228,310.84000000000003 230,310.84000000000003 232,310.84000000000003 234,310.84000000000003 236,310.84000000000003 238,310.84000000000003 240,310.84000000000003 242,310.84000000000003 244,310.84000000000003 246,310.84000000000003 248,310.84000000000003 250,310.84000000000003 252,312.0 254,312.0 256,312.0 258,312.0 260,312.0 262,312.0 264,312.0 266,312.0 268,312.0 270,312.0 272,312.0 274,312.0 276,312.0 278,312.0 280,312.0 282,312.0 284,312.0 286,312.0 288,312.0 290,312.0 292,312.0 294,312.0 296,312.0 298,312.0 300,312.0 302,312.0 304,312.0 306,312.0 308,312.0 310,312.0 312,312.0 314,312.0 316,312.0 318,312.0 320,312.0 322,312.0 324,312.0 326,312.0 328,312.0 330,312.0 332,312.0 334,312.0 336,312.0 338,312.0 340,312.0 342,312.0 344,312.0 346,312.0 348,312.0 350,312.0 352,312.0 354,312.0 356,312.0 358,312.0 360,312.0 362,312.0 364,312.0 366,312.0 368,312.0 370,312.0 372,312.0 374,312.0 376,312.0 378,312.0 380,312.0 382,312.0 384,312.0 386,312.0 388,312.0 390,312.0 392,312.0 394,312.0 396,312.0 398,312.0 400,312.0 402,312.0 404,312.0 406,312.0 408,312.0 410,312.0 412,312.0 414,312.0 416,312.0 418,312.0 420,312.0 422,312.0 424,312.0 426,310.84000000000003 428,310.84000000000003 430,310.84000000000003 432,310.84000000000003 434,310.84000000000003 436,310.84000000000003 438,310.84000000000003 440,310.84000000000003 442,312.0 444,312.0 446,312.0 448,312.0 450,312.0 452,312.0 454,312.0 456,312.0 458,312.0 460,312.0 462,312.0 464,312.0 466,312.0 468,312.0 470,312.0 472,312.0 474,312.0 476,312.0 478,312.0 480,312.0 482,312.0 484,312.0 486,312.0 488,265.16 490,263.99999999999994 492,263.99999999999994 494,263.99999999999994 496,263.99999999999994 498,263.99999999999994 500,263.99999999999994 502,263.99999999999994 504,263.99999999999994 506,263.99999999999994 508,263.99999999999994 510,263.99999999999994 512,263.99999999999994 514,263.99999999999994 516,263.99999999999994 518,263.99999999999994 520,262.84000000000003 522,259.44000000000005 524,257.16 526,254.84 528,252.55999999999997 530,249.16 532,245.72000000000003 534,243.44 536,240.0 538,237.72000000000003 540,235.44 542,232.00000000000003 544,229.72000000000003 546,226.28 548,224.00000000000003 550,221.72 552,218.28000000000003 554,217.15999999999997 556,213.72 558,211.44 560,208.0 562,205.72 564,202.28000000000003 566,200.0 568,197.71999999999997 570,195.44000000000003 572,195.44000000000003 574,195.44000000000003 576,195.44000000000003 578,195.44000000000003 580,195.44000000000003 582,195.44000000000003 584,195.44000000000003 586,195.44000000000003 588,195.44000000000003 590,195.44000000000003 592,195.44000000000003 594,195.44000000000003 596,195.44000000000003 598,195.44000000000003 600,195.44000000000003 602,195.44000000000003 604,194.28 606,194.28 608,194.28 610,194.28 612,194.28 614,194.28 616,194.28 618,194.28 620,194.28 622,194.28 624,194.28 626,194.28 628,194.28 630,194.28 630,235.44" /><line class="progress_target_line" x1="488" x2="488" y1="0" y2="265.16" /><line class="progress_completion_line" x1="0" x2="488" y1="265.16" y2="265.16" /><text x="488" y="-5">04:04</text><polyline class="player_advantage" points="0,200.0 0,200.0 2,200.0 4,200.0 6,200.0 8,200.0 10,200.0 12,200.0 14,200.0 16,200.0 18,200.0 20,200.0 22,200.0 24,200.0 26,200.0 28,200.0 30,200.0 32,200.0 34,200.0 36,200.0 38,200.0 40,200.0 42,200.0 44,200.0 46,200.0 48,200.0 50,200.0 52,200.0 54,200.0 56,200.0 58,200.0 60,200.0 62,200.0 64,200.0 66,200.0 68,200.0 70,200.0 72,200.0 74,166.66666666666666 76,166.66666666666666 78,166.66666666666666 80,200.0 82,200.0 84,200.0 86,200.0 88,200.0 90,200.0 92,200.0 94,200.0 96,200.0 98,200.0 100,200.0 102,200.0 104,200.0 106,200.0 108,200.0 110,166.66666666666666 112,166.66666666666666 114,166.66666666666666 116,166.66666666666666 118,166.66666666666666 120,166.66666666666666 122,166.66666666666666 124,166.66666666666666 126,166.66666666666666 128,166.66666666666666 130,200.0 132,200.0 134,200.0 136,200.0 138,200.0 140,200.0 142,200.0 144,200.0 146,200.0 148,200.0 150,200.0 152,200.0 154,200.0 156,200.0 158,200.0 160,200.0 162,233.33333333333331 164,233.33333333333331 166,200.0 168,200.0 170,200.0 172,200.0 174,200.0 176,166.66666666666666 178,166.66666666666666 180,166.66666666666666 182,233.33333333333331 184,166.66666666666666 186,133.33333333333331 188,100.0 190,100.0 192,66.66666666666663 194,166.66666666666666 196,133.33333333333331 198,233.33333333333331 200,200.0 202,200.0 204,200.0 206,200.0 208,200.0 210,200.0 212,200.0 214,200.0 216,200.0 218,200.0 220,200.0 222,200.0 224,200.0 226,200.0 228,200.0 230,200.0 232,200.0 234,200.0 236,200.0 238,200.0 240,200.0 242,200.0 244,200.0 246,200.0 248,200.0 250,200.0 252,200.0 254,200.0 256,200.0 258,200.0 260,200.0 262,200.0 264,200.0 266,200.0 268,200.0 270,200.0 272,200.0 274,200.0 276,200.0 278,200.0 280,200.0 282,200.0 284,200.0 286,200.0 288,200.0 290,200.0 292,200.0 294,200.0 296,200.0 298,200.0 300,200.0 302,200.0 304,200.0 306,200.0 308,200.0 310,200.0 312,200.0 314,200.0 316,200.0 318,200.0 320,200.0 322,200.0 324,200.0 326,200.0 328,200.0 330,200.0 332,200.0 334,200.0 336,200.0 338,200.0 340,200.0 342,200.0 344,200.0 346,200.0 348,200.0 350,200.0 352,200.0 354,200.0 356,200.0 358,200.0 360,200.0 362,200.0 364,200.0 366,200.0 368,200.0 370,200.0 372,200.0 374,200.0 376,200.0 378,200.0 380,200.0 382,200.0 384,200.0 386,200.0 388,200.0 390,200.0 392,200.0 394,200.0 396,200.0 398,200.0 400,200.0 402,200.0 404,200.0 406,200.0 408,200.0 410,200.0 412,200.0 414,200.0 416,200.0 418,200.0 420,200.0 422,200.0 424,200.0 426,200.0 428,200.0 430,200.0 432,200.0 434,200.0 436,200.0 438,200.0 440,200.0 442,200.0 444,200.0 446,200.0 448,200.0 450,200.0 452,200.0 454,200.0 456,200.0 458,200.0 460,200.0 462,200.0 464,200.0 466,200.0 468,200.0 470,200.0 472,200.0 474,200.0 476,200.0 478,200.0 480,200.0 482,200.0 484,200.0 486,200.0 488,166.66666666666666 490,166.66666666666666 492,166.66666666666666 494,200.0 496,200.0 498,200.0 500,200.0 502,233.33333333333331 504,166.66666666666666 506,166.66666666666666 508,166.66666666666666 510,166.66666666666666 512,200.0 514,166.66666666666666 516,166.66666666666666 518,166.66666666666666 520,166.66666666666666 522,166.66666666666666 524,200.0 526,200.0 528,200.0 530,200.0 532,200.0 534,200.0 536,200.0 538,200.0 540,200.0 542,200.0 544,200.0 546,200.0 548,200.0 550,200.0 552,200.0 554,200.0 556,200.0 558,200.0 560,200.0 562,200.0 564,200.0 566,200.0 568,200.0 570,200.0 572,200.0 574,200.0 576,200.0 578,200.0 580,200.0 582,200.0 584,200.0 586,200.0 588,200.0 590,200.0 592,200.0 594,200.0 596,200.0 598,200.0 600,200.0 602,200.0 604,233.33333333333331 606,266.66666666666663 608,266.66666666666663 610,233.33333333333331 612,233.33333333333331 614,166.66666666666666 616,300.0 618,266.66666666666663 620,300.0 622,266.66666666666663 624,300.0 626,333.3333333333333 628,300.0 630,300.0 630,200.0" /></g></svg>