<?xml version="1.0" encoding="utf-8" ?>
<svg baseProfile="full" height="100%" version="1.1" width="100%" xmlns="http://www.w3.org/2000/svg" xmlns:ev="http://www.w3.org/2001/xml-events" xmlns:xlink="http://www.w3.org/1999/xlink"><defs><style type="text/css"><![CDATA[
.player_lifelines {
  display: none
}

.player_lifeline {
  fill:none;
  stroke: green;
  stroke-width: 1;
  display: inline
}

.graph_border {
  fill: none;
  stroke: black;
}

.minute_ref_line {
  stroke: gray;
  stroke-width: 1;
  stroke-dasharray: 1,4
}


        .fight_area {
        fill: lightyellow;
        stroke: gold;
        stroke-width: 1
        }
        
        .replay_area {
        fill:lightgray;
        stroke: lightgray;
        stroke-width: 0
        }
        
        .progress_target_line {
        stroke: gray;
        stroke_width: 1;
        stroke-dasharray: 3,1
        }

        .progress_completion_line {
        stroke: gray;
        stroke_width: 1
        }
        
        .payload_progress {
        fill:none;
        stroke: blue;
        stroke-width: 2
        }
        
        .player_advantage {
        fill:none;
        stroke: red;
        stroke-width: 1
        }
        ]]></style></defs><text x="10" y="20">Los Angeles Gladiators(A) at Dallas Fuel on route-66 round 1</text><g class="graph" transform="translate(10, 45)"><rect class="graph_border" height="400" width="922" x="0" y="0" /><g class="fights"><rect class="fight_area" height="33.120000000000005" width="92" x="48" y="325.72" /><text x="48" y="325.72">#1 -1</text><rect class="fight_area" height="60.56" width="22" x="204" y="265.16" /><text x="204" y="265.16">#2 7</text><rect class="fight_area" height="77.72000000000003" width="112" x="294" y="187.44" /><text x="294" y="187.44">#3 11</text><rect class="fight_area" height="42.28" width="26" x="458" y="145.16" /><text x="458" y="145.16">#4 7</text><rect class="fight_area" height="12.599999999999994" width="20" x="516" y="132.56" /><text x="516" y="132.56">#5 1</text><rect class="fight_area" height="107.40000000000002" width="132" x="544" y="25.159999999999982" /><text x="544" y="25.159999999999982">#6 13</text><rect class="fight_area" height="0.0" width="52" x="728" y="25.159999999999982" /><text x="728" y="25.159999999999982">#7 -3</text><rect class="fight_area" height="11.439999999999984" width="42" x="818" y="13.719999999999999" /><text x="818" y="13.719999999999999">#8 2</text><rect class="fight_area" height="13.719999999999999" width="30" x="892" y="0.0" /><text x="892" y="0.0">#9 6</text></g><g class="completion"><line class="progress_target_line" x1="270" x2="270" y1="0.0" y2="265.16" /><line class="progress_completion_line" x1="0" x2="270" y1="265.16" y2="265.16" /><text x="270" y="-5">02:15</text><line class="progress_target_line" x1="584" x2="584" y1="0.0" y2="120.00000000000001" /><line class="progress_completion_line" x1="270" x2="584" y1="120.00000000000001" y2="120.00000000000001" /><text x="584" y="-5">04:52</text><line class="progress_target_line" x1="922" x2="922" y1="0.0" y2="0.0" /><line class="progress_completion_line" x1="584" x2="922" y1="0.0" y2="0.0" /><text x="922" y="-5">07:41</text></g><g class="progress"><polyline class="payload_progress" points="0,400 0,394.28000000000003 2,394.28000000000003 4,394.28000000000003 6,394.28000000000003 8,394.28000000000003 10,394.28000000000003 12,393.16 14,390.84 16,387.44 18,385.15999999999997 20,382.84 22,380.56 24,377.15999999999997 26,374.84000000000003 28,371.44 30,369.16 32,365.72 34,364.56 36,363.44 38,363.44 40,362.28 42,360.0 44,360.0 46,360.0 48,358.84000000000003 50,355.44 52,353.16 54,353.16 56,353.16 58,353.16 60,353.16 62,352.0 64,352.0 66,352.0 68,352.0 70,352.0 72,352.0 74,352.0 76,352.0 78,352.0 80,352.0 82,352.0 84,352.0 86,352.0 88,352.0 90,352.0 92,352.0 94,352.0 96,352.0 98,352.0 100,352.0 102,352.0 104,352.0 106,352.0 108,352.0 110,350.84 112,348.56 114,346.28000000000003 116,344.0 118,341.72 120,339.44 122,336.0 124,333.72 126,331.44 128,328.0 130,325.72 132,323.44 134,321.15999999999997 136,321.15999999999997 138,318.84000000000003 140,318.84000000000003 142,318.84000000000003 144,318.84000000000003 146,318.84000000000003 148,318.84000000000003 150,318.84000000000003 152,318.84000000000003 154,318.84000000000003 156,318.84000000000003 158,318.84000000000003 160,318.84000000000003 162,318.84000000000003 164,320.0 166,320.0 168,321.15999999999997 170,321.15999999999997 172,322.28 174,322.28 176,322.28 178,323.44 180,323.44 182,324.56 184,324.56 186,324.56 188,325.72 190,325.72 192,325.72 194,325.72 196,325.72 198,325.72 200,325.72 202,325.72 204,325.72 206,325.72 208,325.72 210,325.72 212,325.72 214,325.72 216,325.72 218,325.72 220,323.44 222,321.15999999999997 224,318.84000000000003 226,316.56 228,313.16 230,310.84000000000003 232,307.44 234,305.16 236,302.84 238,300.56 240,298.28000000000003 242,294.84 244,292.56 246,290.28000000000003 248,288.0 250,285.71999999999997 252,283.44 254,281.16 256,278.84000000000003 258,276.56 260,274.28 262,273.16 264,270.84000000000003 266,268.56 268,267.44000000000005 270,265.16 272,265.16 274,265.16 276,265.16 278,265.16 280,265.16 282,265.16 284,265.16 286,265.16 288,265.16 290,265.16 292,265.16 294,265.16 296,265.16 298,265.16 300,265.16 302,265.16 304,265.16 306,265.16 308,265.16 310,265.16 312,265.16 314,265.16 316,265.16 318,265.16 320,265.16 322,265.16 324,265.16 326,265.16 328,265.16 330,265.16 332,265.16 334,265.16 336,265.16 338,265.16 340,265.16 342,265.16 344,265.16 346,265.16 348,265.16 350,265.16 352,263.99999999999994 354,263.99999999999994 356,263.99999999999994 358,263.99999999999994 360,263.99999999999994 362,263.99999999999994 364,263.99999999999994 366,263.99999999999994 368,263.99999999999994 370,263.99999999999994 372,263.99999999999994 374,263.99999999999994 376,263.99999999999994 378,263.99999999999994 380,263.99999999999994 382,263.99999999999994 384,260.56 386,259.44000000000005 388,257.16 390,254.84 392,251.44000000000003 394,250.27999999999997 396,248.0 398,245.72000000000003 400,243.44 402,241.16 404,238.83999999999997 406,236.55999999999997 408,234.28 410,232.00000000000003 412,228.56 414,226.28 416,224.00000000000003 418,224.00000000000003 420,224.00000000000003 422,224.00000000000003 424,224.00000000000003 426,224.00000000000003 428,224.00000000000003 430,224.00000000000003 432,227.44 434,227.44 436,227.44 438,227.44 440,227.44 442,227.44 444,227.44 446,227.44 448,187.44 450,187.44 452,187.44 454,187.44 456,187.44 458,187.44 460,187.44 462,187.44 464,187.44 466,187.44 468,187.44 470,187.44 472,187.44 474,187.44 476,187.44 478,187.44 480,187.44 482,187.44 484,186.28 486,184.0 488,181.72000000000003 490,178.28 492,175.99999999999997 494,173.72 496,170.27999999999997 498,168.00000000000003 500,164.56 502,162.27999999999997 504,160.0 506,157.72 508,155.43999999999997 510,153.16 512,149.72 514,147.44000000000003 516,145.16 518,142.83999999999997 520,140.56000000000003 522,138.28 524,137.16 526,134.83999999999997 528,132.56 530,132.56 532,132.56 534,132.56 536,132.56 538,132.56 540,132.56 542,132.56 544,132.56 546,132.56 548,132.56 550,132.56 552,132.56 554,131.44 556,131.44 558,131.44 560,131.44 562,131.44 564,131.44 566,131.44 568,131.44 570,131.44 572,131.44 574,131.44 576,131.44 578,127.99999999999999 580,125.72000000000001 582,123.44 584,120.00000000000001 586,118.84000000000002 588,118.84000000000002 590,118.84000000000002 592,118.84000000000002 594,118.84000000000002 596,118.84000000000002 598,118.84000000000002 600,118.84000000000002 602,118.84000000000002 604,118.84000000000002 606,118.84000000000002 608,118.84000000000002 610,118.84000000000002 612,118.84000000000002 614,118.84000000000002 616,117.72 618,115.43999999999998 620,113.16000000000001 622,112.00000000000001 624,109.72 626,107.43999999999998 628,105.16000000000001 630,105.16000000000001 632,102.84 634,100.55999999999999 636,98.28000000000002 638,94.83999999999999 640,91.44000000000001 642,89.16 644,86.83999999999999 646,84.56000000000002 648,81.15999999999998 650,78.84000000000002 652,76.56 654,74.27999999999999 656,73.15999999999998 658,70.84000000000002 660,70.84000000000002 662,69.72 664,69.72 666,69.72 668,69.72 670,69.72 672,69.72 674,67.43999999999998 676,65.16000000000003 678,61.72 680,59.43999999999998 682,57.16000000000001 684,53.71999999999999 686,51.44000000000002 688,50.280000000000015 690,46.83999999999999 692,44.560000000000024 694,41.16 696,38.83999999999999 698,36.56000000000002 700,34.28 702,31.999999999999986 704,29.720000000000013 706,28.56000000000001 708,26.279999999999994 710,25.159999999999982 712,25.159999999999982 714,25.159999999999982 716,25.159999999999982 718,25.159999999999982 720,25.159999999999982 722,25.159999999999982 724,25.159999999999982 726,25.159999999999982 728,25.159999999999982 730,22.840000000000018 732,20.560000000000002 734,18.279999999999987 736,16.000000000000014 738,14.840000000000009 740,14.840000000000009 742,14.840000000000009 744,14.840000000000009 746,14.840000000000009 748,14.840000000000009 750,14.840000000000009 752,14.840000000000009 754,14.840000000000009 756,14.840000000000009 758,14.840000000000009 760,16.000000000000014 762,16.000000000000014 764,16.000000000000014 766,17.160000000000018 768,17.160000000000018 770,18.279999999999987 772,18.279999999999987 774,19.43999999999999 776,19.43999999999999 778,19.43999999999999 780,20.560000000000002 782,20.560000000000002 784,21.720000000000006 786,21.720000000000006 788,22.840000000000018 790,22.840000000000018 792,22.840000000000018 794,24.00000000000002 796,24.00000000000002 798,25.159999999999982 800,25.159999999999982 802,26.279999999999994 804,26.279999999999994 806,26.279999999999994 808,26.279999999999994 810,26.279999999999994 812,26.279999999999994 814,26.279999999999994 816,26.279999999999994 818,25.159999999999982 820,21.720000000000006 822,20.560000000000002 824,18.279999999999987 826,18.279999999999987 828,18.279999999999987 830,18.279999999999987 832,18.279999999999987 834,18.279999999999987 836,18.279999999999987 838,18.279999999999987 840,18.279999999999987 842,18.279999999999987 844,18.279999999999987 846,18.279999999999987 848,18.279999999999987 850,18.279999999999987 852,18.279999999999987 854,18.279999999999987 856,17.160000000000018 858,17.160000000000018 860,17.160000000000018 862,17.160000000000018 864,17.160000000000018 866,17.160000000000018 868,17.160000000000018 870,17.160000000000018 872,17.160000000000018 874,17.160000000000018 876,17.160000000000018 878,17.160000000000018 880,17.160000000000018 882,17.160000000000018 884,17.160000000000018 886,17.160000000000018 888,17.160000000000018 890,16.000000000000014 892,13.719999999999999 894,13.719999999999999 896,13.719999999999999 898,13.719999999999999 900,13.719999999999999 902,13.719999999999999 904,13.719999999999999 906,13.719999999999999 908,13.719999999999999 910,13.719999999999999 912,13.719999999999999 914,10.279999999999978 916,8.000000000000007 918,5.719999999999992 920,2.2800000000000153 922,0.0" /></g><g class="player_lifelines"><polyline class="player_lifeline" points="0,30.76923076923077 88,30.76923076923077" /><polyline class="player_lifeline" points="94,30.76923076923077 96,30.76923076923077" /><polyline class="player_lifeline" points="102,30.76923076923077 138,30.76923076923077" /><polyline class="player_lifeline" points="158,30.76923076923077 306,30.76923076923077" /><polyline class="player_lifeline" points="326,30.76923076923077 742,30.76923076923077" /><polyline class="player_lifeline" points="762,30.76923076923077 840,30.76923076923077" /><polyline class="player_lifeline" points="862,30.76923076923077 922,30.76923076923077" /><polyline class="player_lifeline" points="0,61.53846153846154 310,61.53846153846154" /><polyline class="player_lifeline" points="330,61.53846153846154 648,61.53846153846154" /><polyline class="player_lifeline" points="654,61.53846153846154 922,61.53846153846154" /><polyline class="player_lifeline" points="0,92.3076923076923 82,92.3076923076923" /><polyline class="player_lifeline" points="100,92.3076923076923 328,92.3076923076923" /><polyline class="player_lifeline" points="340,92.3076923076923 340,92.3076923076923" /><polyline class="player_lifeline" points="348,92.3076923076923 748,92.3076923076923" /><polyline class="player_lifeline" points="768,92.3076923076923 922,92.3076923076923" /><polyline class="player_lifeline" points="0,123.07692307692308 128,123.07692307692308" /><polyline class="player_lifeline" points="148,123.07692307692308 738,123.07692307692308" /><polyline class="player_lifeline" points="758,123.07692307692308 922,123.07692307692308" /><polyline class="player_lifeline" points="0,153.84615384615384 62,153.84615384615384" /><polyline class="player_lifeline" points="84,153.84615384615384 734,153.84615384615384" /><polyline class="player_lifeline" points="756,153.84615384615384 816,153.84615384615384" /><polyline class="player_lifeline" points="834,153.84615384615384 922,153.84615384615384" /><polyline class="player_lifeline" points="0,184.6153846153846 56,184.6153846153846" /><polyline class="player_lifeline" points="76,184.6153846153846 726,184.6153846153846" /><polyline class="player_lifeline" points="748,184.6153846153846 750,184.6153846153846" /><polyline class="player_lifeline" points="754,184.6153846153846 778,184.6153846153846" /><polyline class="player_lifeline" points="786,184.6153846153846 824,184.6153846153846" /><polyline class="player_lifeline" points="838,184.6153846153846 838,184.6153846153846" /><polyline class="player_lifeline" points="844,184.6153846153846 922,184.6153846153846" /><polyline class="player_lifeline" points="0,215.3846153846154 100,215.3846153846154" /><polyline class="player_lifeline" points="104,215.3846153846154 104,215.3846153846154" /><polyline class="player_lifeline" points="112,215.3846153846154 114,215.3846153846154" /><polyline class="player_lifeline" points="120,215.3846153846154 346,215.3846153846154" /><polyline class="player_lifeline" points="358,215.3846153846154 358,215.3846153846154" /><polyline class="player_lifeline" points="366,215.3846153846154 514,215.3846153846154" /><polyline class="player_lifeline" points="534,215.3846153846154 746,215.3846153846154" /><polyline class="player_lifeline" points="766,215.3846153846154 842,215.3846153846154" /><polyline class="player_lifeline" points="864,215.3846153846154 890,215.3846153846154" /><polyline class="player_lifeline" points="910,215.3846153846154 922,215.3846153846154" /><polyline class="player_lifeline" points="0,246.15384615384616 46,246.15384615384616" /><polyline class="player_lifeline" points="68,246.15384615384616 214,246.15384615384616" /><polyline class="player_lifeline" points="224,246.15384615384616 224,246.15384615384616" /><polyline class="player_lifeline" points="230,246.15384615384616 326,246.15384615384616" /><polyline class="player_lifeline" points="344,246.15384615384616 382,246.15384615384616" /><polyline class="player_lifeline" points="392,246.15384615384616 392,246.15384615384616" /><polyline class="player_lifeline" points="402,246.15384615384616 464,246.15384615384616" /><polyline class="player_lifeline" points="476,246.15384615384616 476,246.15384615384616" /><polyline class="player_lifeline" points="482,246.15384615384616 570,246.15384615384616" /><polyline class="player_lifeline" points="590,246.15384615384616 674,246.15384615384616" /><polyline class="player_lifeline" points="694,246.15384615384616 824,246.15384615384616" /><polyline class="player_lifeline" points="838,246.15384615384616 838,246.15384615384616" /><polyline class="player_lifeline" points="844,246.15384615384616 910,246.15384615384616" /><polyline class="player_lifeline" points="0,276.9230769230769 224,276.9230769230769" /><polyline class="player_lifeline" points="244,276.9230769230769 342,276.9230769230769" /><polyline class="player_lifeline" points="348,276.9230769230769 350,276.9230769230769" /><polyline class="player_lifeline" points="362,276.9230769230769 482,276.9230769230769" /><polyline class="player_lifeline" points="502,276.9230769230769 570,276.9230769230769" /><polyline class="player_lifeline" points="586,276.9230769230769 586,276.9230769230769" /><polyline class="player_lifeline" points="592,276.9230769230769 650,276.9230769230769" /><polyline class="player_lifeline" points="670,276.9230769230769 858,276.9230769230769" /><polyline class="player_lifeline" points="878,276.9230769230769 902,276.9230769230769" /><polyline class="player_lifeline" points="922,276.9230769230769 922,276.9230769230769" /><polyline class="player_lifeline" points="0,307.6923076923077 84,307.6923076923077" /><polyline class="player_lifeline" points="104,307.6923076923077 202,307.6923076923077" /><polyline class="player_lifeline" points="208,307.6923076923077 216,307.6923076923077" /><polyline class="player_lifeline" points="222,307.6923076923077 306,307.6923076923077" /><polyline class="player_lifeline" points="328,307.6923076923077 478,307.6923076923077" /><polyline class="player_lifeline" points="482,307.6923076923077 482,307.6923076923077" /><polyline class="player_lifeline" points="498,307.6923076923077 542,307.6923076923077" /><polyline class="player_lifeline" points="550,307.6923076923077 552,307.6923076923077" /><polyline class="player_lifeline" points="562,307.6923076923077 628,307.6923076923077" /><polyline class="player_lifeline" points="642,307.6923076923077 642,307.6923076923077" /><polyline class="player_lifeline" points="650,307.6923076923077 904,307.6923076923077" /><polyline class="player_lifeline" points="0,338.46153846153845 300,338.46153846153845" /><polyline class="player_lifeline" points="304,338.46153846153845 306,338.46153846153845" /><polyline class="player_lifeline" points="320,338.46153846153845 396,338.46153846153845" /><polyline class="player_lifeline" points="414,338.46153846153845 570,338.46153846153845" /><polyline class="player_lifeline" points="590,338.46153846153845 590,338.46153846153845" /><polyline class="player_lifeline" points="594,338.46153846153845 614,338.46153846153845" /><polyline class="player_lifeline" points="618,338.46153846153845 632,338.46153846153845" /><polyline class="player_lifeline" points="638,338.46153846153845 746,338.46153846153845" /><polyline class="player_lifeline" points="754,338.46153846153845 758,338.46153846153845" /><polyline class="player_lifeline" points="764,338.46153846153845 778,338.46153846153845" /><polyline class="player_lifeline" points="786,338.46153846153845 838,338.46153846153845" /><polyline class="player_lifeline" points="858,338.46153846153845 890,338.46153846153845" /><polyline class="player_lifeline" points="912,338.46153846153845 922,338.46153846153845" /><polyline class="player_lifeline" points="0,369.2307692307692 68,369.2307692307692" /><polyline class="player_lifeline" points="88,369.2307692307692 202,369.2307692307692" /><polyline class="player_lifeline" points="208,369.2307692307692 212,369.2307692307692" /><polyline class="player_lifeline" points="222,369.2307692307692 292,369.2307692307692" /><polyline class="player_lifeline" points="298,369.2307692307692 298,369.2307692307692" /><polyline class="player_lifeline" points="312,369.2307692307692 398,369.2307692307692" /><polyline class="player_lifeline" points="402,369.2307692307692 404,369.2307692307692" /><polyline class="player_lifeline" points="418,369.2307692307692 456,369.2307692307692" /><polyline class="player_lifeline" points="460,369.2307692307692 460,369.2307692307692" /><polyline class="player_lifeline" points="476,369.2307692307692 574,369.2307692307692" /><polyline class="player_lifeline" points="594,369.2307692307692 824,369.2307692307692" /><polyline class="player_lifeline" points="844,369.2307692307692 898,369.2307692307692" /><polyline class="player_lifeline" points="918,369.2307692307692 922,369.2307692307692" /></g><g class="advantages"><polyline class="player_advantage" points="0,200.0 2,200.0 4,200.0 6,200.0 8,200.0 10,200.0 12,200.0 14,200.0 16,200.0 18,200.0 20,200.0 22,200.0 24,200.0 26,200.0 28,200.0 30,200.0 32,200.0 34,200.0 36,200.0 38,200.0 40,200.0 42,200.0 44,200.0 46,200.0 48,166.66666666666666 50,166.66666666666666 52,166.66666666666666 54,166.66666666666666 56,166.66666666666666 58,200.0 60,200.0 62,200.0 64,233.33333333333331 66,233.33333333333331 68,266.66666666666663 70,233.33333333333331 72,233.33333333333331 74,233.33333333333331 76,200.0 78,200.0 80,200.0 82,200.0 84,200.0 86,166.66666666666666 88,200.0 90,233.33333333333331 92,233.33333333333331 94,200.0 96,200.0 98,233.33333333333331 100,200.0 102,133.33333333333331 104,200.0 106,166.66666666666666 108,166.66666666666666 110,166.66666666666666 112,200.0 114,200.0 116,166.66666666666666 118,166.66666666666666 120,200.0 122,200.0 124,200.0 126,200.0 128,200.0 130,233.33333333333331 132,233.33333333333331 134,233.33333333333331 136,233.33333333333331 138,233.33333333333331 140,266.66666666666663 142,266.66666666666663 144,266.66666666666663 146,266.66666666666663 148,233.33333333333331 150,233.33333333333331 152,233.33333333333331 154,233.33333333333331 156,233.33333333333331 158,200.0 160,200.0 162,200.0 164,200.0 166,200.0 168,200.0 170,200.0 172,200.0 174,200.0 176,200.0 178,200.0 180,200.0 182,200.0 184,200.0 186,200.0 188,200.0 190,200.0 192,200.0 194,200.0 196,200.0 198,200.0 200,200.0 202,200.0 204,133.33333333333331 206,133.33333333333331 208,200.0 210,200.0 212,200.0 214,166.66666666666666 216,133.33333333333331 218,100.0 220,100.0 222,166.66666666666666 224,200.0 226,133.33333333333331 228,133.33333333333331 230,166.66666666666666 232,166.66666666666666 234,166.66666666666666 236,166.66666666666666 238,166.66666666666666 240,166.66666666666666 242,166.66666666666666 244,200.0 246,200.0 248,200.0 250,200.0 252,200.0 254,200.0 256,200.0 258,200.0 260,200.0 262,200.0 264,200.0 266,200.0 268,200.0 270,200.0 272,200.0 274,200.0 276,200.0 278,200.0 280,200.0 282,200.0 284,200.0 286,200.0 288,200.0 290,200.0 292,200.0 294,166.66666666666666 296,166.66666666666666 298,200.0 300,166.66666666666666 302,133.33333333333331 304,166.66666666666666 306,166.66666666666666 308,133.33333333333331 310,133.33333333333331 312,200.0 314,200.0 316,200.0 318,200.0 320,233.33333333333331 322,233.33333333333331 324,233.33333333333331 326,200.0 328,200.0 330,200.0 332,200.0 334,200.0 336,200.0 338,200.0 340,166.66666666666666 342,200.0 344,200.0 346,200.0 348,166.66666666666666 350,166.66666666666666 352,133.33333333333331 354,133.33333333333331 356,133.33333333333331 358,166.66666666666666 360,133.33333333333331 362,166.66666666666666 364,166.66666666666666 366,200.0 368,200.0 370,200.0 372,200.0 374,200.0 376,200.0 378,200.0 380,200.0 382,200.0 384,166.66666666666666 386,166.66666666666666 388,166.66666666666666 390,166.66666666666666 392,200.0 394,166.66666666666666 396,166.66666666666666 398,133.33333333333331 400,100.0 402,166.66666666666666 404,166.66666666666666 406,133.33333333333331 408,133.33333333333331 410,133.33333333333331 412,133.33333333333331 414,166.66666666666666 416,166.66666666666666 418,200.0 420,200.0 422,200.0 424,200.0 426,200.0 428,200.0 430,200.0 432,200.0 434,200.0 436,200.0 438,200.0 440,200.0 442,200.0 444,200.0 446,200.0 448,200.0 450,200.0 452,200.0 454,200.0 456,200.0 458,166.66666666666666 460,200.0 462,166.66666666666666 464,166.66666666666666 466,133.33333333333331 468,133.33333333333331 470,133.33333333333331 472,133.33333333333331 474,133.33333333333331 476,200.0 478,166.66666666666666 480,133.33333333333331 482,200.0 484,133.33333333333331 486,133.33333333333331 488,133.33333333333331 490,133.33333333333331 492,133.33333333333331 494,133.33333333333331 496,133.33333333333331 498,166.66666666666666 500,166.66666666666666 502,200.0 504,200.0 506,200.0 508,200.0 510,200.0 512,200.0 514,200.0 516,166.66666666666666 518,166.66666666666666 520,166.66666666666666 522,166.66666666666666 524,166.66666666666666 526,166.66666666666666 528,166.66666666666666 530,166.66666666666666 532,166.66666666666666 534,200.0 536,200.0 538,200.0 540,200.0 542,200.0 544,166.66666666666666 546,166.66666666666666 548,166.66666666666666 550,200.0 552,200.0 554,166.66666666666666 556,166.66666666666666 558,166.66666666666666 560,166.66666666666666 562,200.0 564,200.0 566,200.0 568,200.0 570,200.0 572,100.0 574,100.0 576,66.66666666666663 578,66.66666666666663 580,66.66666666666663 582,66.66666666666663 584,66.66666666666663 586,100.0 588,66.66666666666663 590,133.33333333333331 592,133.33333333333331 594,200.0 596,200.0 598,200.0 600,200.0 602,200.0 604,200.0 606,200.0 608,200.0 610,200.0 612,200.0 614,200.0 616,166.66666666666666 618,200.0 620,200.0 622,200.0 624,200.0 626,200.0 628,200.0 630,166.66666666666666 632,166.66666666666666 634,133.33333333333331 636,133.33333333333331 638,166.66666666666666 640,166.66666666666666 642,200.0 644,166.66666666666666 646,166.66666666666666 648,166.66666666666666 650,233.33333333333331 652,200.0 654,166.66666666666666 656,166.66666666666666 658,166.66666666666666 660,166.66666666666666 662,166.66666666666666 664,166.66666666666666 666,166.66666666666666 668,166.66666666666666 670,200.0 672,200.0 674,200.0 676,166.66666666666666 678,166.66666666666666 680,166.66666666666666 682,166.66666666666666 684,166.66666666666666 686,166.66666666666666 688,166.66666666666666 690,166.66666666666666 692,166.66666666666666 694,200.0 696,200.0 698,200.0 700,200.0 702,200.0 704,200.0 706,200.0 708,200.0 710,200.0 712,200.0 714,200.0 716,200.0 718,200.0 720,200.0 722,200.0 724,200.0 726,200.0 728,233.33333333333331 730,233.33333333333331 732,233.33333333333331 734,233.33333333333331 736,266.66666666666663 738,266.66666666666663 740,300.0 742,300.0 744,333.3333333333333 746,333.3333333333333 748,233.33333333333331 750,266.66666666666663 752,300.0 754,300.0 756,266.66666666666663 758,233.33333333333331 760,200.0 762,166.66666666666666 764,200.0 766,233.33333333333331 768,200.0 770,200.0 772,200.0 774,200.0 776,200.0 778,200.0 780,200.0 782,200.0 784,200.0 786,200.0 788,200.0 790,200.0 792,200.0 794,200.0 796,200.0 798,200.0 800,200.0 802,200.0 804,200.0 806,200.0 808,200.0 810,200.0 812,200.0 814,200.0 816,200.0 818,233.33333333333331 820,233.33333333333331 822,233.33333333333331 824,233.33333333333331 826,200.0 828,200.0 830,200.0 832,200.0 834,166.66666666666666 836,166.66666666666666 838,166.66666666666666 840,133.33333333333331 842,166.66666666666666 844,166.66666666666666 846,166.66666666666666 848,166.66666666666666 850,166.66666666666666 852,166.66666666666666 854,166.66666666666666 856,166.66666666666666 858,200.0 860,166.66666666666666 862,133.33333333333331 864,166.66666666666666 866,166.66666666666666 868,166.66666666666666 870,166.66666666666666 872,166.66666666666666 874,166.66666666666666 876,166.66666666666666 878,200.0 880,200.0 882,200.0 884,200.0 886,200.0 888,200.0 890,200.0 892,133.33333333333331 894,133.33333333333331 896,133.33333333333331 898,133.33333333333331 900,100.0 902,100.0 904,66.66666666666663 906,33.333333333333314 908,33.333333333333314 910,66.66666666666663 912,66.66666666666663 914,66.66666666666663 916,66.66666666666663 918,100.0 920,100.0 922,133.33333333333331" /></g><g class="minute_ref"><line class="minute_ref_line" x1="120" x2="120" y1="0" y2="400" /><text x="120" y="420">1:00</text><line class="minute_ref_line" x1="240" x2="240" y1="0" y2="400" /><text x="240" y="420">2:00</text><line class="minute_ref_line" x1="360" x2="360" y1="0" y2="400" /><text x="360" y="420">3:00</text><line class="minute_ref_line" x1="480" x2="480" y1="0" y2="400" /><text x="480" y="420">4:00</text><line class="minute_ref_line" x1="600" x2="600" y1="0" y2="400" /><text x="600" y="420">5:00</text><line class="minute_ref_line" x1="720" x2="720" y1="0" y2="400" /><text x="720" y="420">6:00</text><line class="minute_ref_line" x1="840" x2="840" y1="0" y2="400" /><text x="840" y="420">7:00</text></g></g></svg>