<?xml version="1.0" encoding="utf-8" ?>
<svg baseProfile="full" height="100%" version="1.1" width="100%" xmlns="http://www.w3.org/2000/svg" xmlns:ev="http://www.w3.org/2001/xml-events" xmlns:xlink="http://www.w3.org/1999/xlink"><defs><style type="text/css"><![CDATA[
.player_lifelines {
  display: none
}

.player_lifeline {
  fill:none;
  stroke: green;
  stroke-width: 1;
  display: inline
}

.graph_border {
  fill: none;
  stroke: black;
}

.minute_ref_line {
  stroke: gray;
  stroke-width: 1;
  stroke-dasharray: 1,4
}


        .fight_area {
        fill: lightyellow;
        stroke: gold;
        stroke-width: 1
        }
        
        .replay_area {
        fill:lightgray;
        stroke: lightgray;
        stroke-width: 0
        }
        
        .progress_target_line {
        stroke: gray;
        stroke_width: 1;
        stroke-dasharray: 3,1
        }

        .progress_completion_line {
        stroke: gray;
        stroke_width: 1
        }
        
        .payload_progress {
        fill:none;
        stroke: blue;
        stroke-width: 2
        }
        
        .player_advantage {
        fill:none;
        stroke: red;
        stroke-width: 1
        }
        ]]></style></defs><text x="10" y="20">Los Angeles Gladiators at Dallas Fuel(A) on route-66 round 2</text><g class="graph" transform="translate(10, 45)"><rect class="graph_border" height="400" width="1024" x="0" y="0" /><g class="fights"><rect class="fight_area" height="0.0" width="20" x="52" y="400.0" /><text x="52" y="400.0">#1 1</text><rect class="fight_area" height="0.0" width="46" x="90" y="400.0" /><text x="90" y="400.0">#2 8</text><rect class="fight_area" height="0.0" width="20" x="182" y="400.0" /><text x="182" y="400.0">#3 -1</text><rect class="fight_area" height="0.0" width="120" x="208" y="400.0" /><text x="208" y="400.0">#4 -10</text><rect class="fight_area" height="0.0" width="16" x="360" y="400.0" /><text x="360" y="400.0">#5 -2</text><rect class="fight_area" height="0.0" width="20" x="404" y="400.0" /><text x="404" y="400.0">#6 -1</text><rect class="fight_area" height="0.0" width="74" x="452" y="400.0" /><text x="452" y="400.0">#7 4</text><rect class="fight_area" height="0.0" width="64" x="570" y="400.0" /><text x="570" y="400.0">#8 6</text><rect class="fight_area" height="0.0" width="20" x="662" y="400.0" /><text x="662" y="400.0">#9 -1</text><rect class="fight_area" height="0.0" width="54" x="720" y="400.0" /><text x="720" y="400.0">#10 3</text><rect class="fight_area" height="0.0" width="74" x="804" y="400.0" /><text x="804" y="400.0">#11 -7</text><rect class="fight_area" height="0.0" width="22" x="908" y="400.0" /><text x="908" y="400.0">#12 -1</text><rect class="fight_area" height="0.0" width="32" x="992" y="400.0" /><text x="992" y="400.0">#13 2</text></g><g class="progress"><polyline class="payload_progress" points="0,400 0,397.71999999999997 2,397.71999999999997 4,397.71999999999997 6,397.71999999999997 8,400.0 10,400.0 12,400.0 14,400.0 16,400.0 18,400.0 20,400.0 22,400.0 24,400.0 26,400.0 28,400.0 30,400.0 32,400.0 34,400.0 36,400.0 38,400.0 40,400.0 42,400.0 44,400.0 46,400.0 48,400.0 50,400.0 52,400.0 54,400.0 56,400.0 58,400.0 60,400.0 62,400.0 64,400.0 66,400.0 68,400.0 70,400.0 72,400.0 74,400.0 76,400.0 78,400.0 80,400.0 82,400.0 84,400.0 86,400.0 88,400.0 90,400.0 92,400.0 94,400.0 96,400.0 98,400.0 100,400.0 102,400.0 104,400.0 106,400.0 108,400.0 110,400.0 112,400.0 114,400.0 116,400.0 118,400.0 120,400.0 122,400.0 124,400.0 126,400.0 128,400.0 130,400.0 132,400.0 134,400.0 136,400.0 138,400.0 140,400.0 142,400.0 144,400.0 146,400.0 148,400.0 150,400.0 152,400.0 154,400.0 156,400.0 158,400.0 160,400.0 162,400.0 164,400.0 166,400.0 168,400.0 170,400.0 172,400.0 174,400.0 176,400.0 178,400.0 180,400.0 182,400.0 184,400.0 186,400.0 188,400.0 190,400.0 192,400.0 194,400.0 196,400.0 198,400.0 200,400.0 202,400.0 204,400.0 206,400.0 208,400.0 210,400.0 212,400.0 214,400.0 216,400.0 218,400.0 220,400.0 222,400.0 224,400.0 226,400.0 228,400.0 230,400.0 232,400.0 234,400.0 236,400.0 238,400.0 240,400.0 242,400.0 244,400.0 246,400.0 248,400.0 250,400.0 252,400.0 254,400.0 256,400.0 258,400.0 260,400.0 262,400.0 264,400.0 266,400.0 268,400.0 270,400.0 272,400.0 274,400.0 276,400.0 278,400.0 280,400.0 282,400.0 284,400.0 286,400.0 288,400.0 290,400.0 292,400.0 294,400.0 296,400.0 298,400.0 300,400.0 302,400.0 304,400.0 306,400.0 308,400.0 310,400.0 312,400.0 314,400.0 316,400.0 318,400.0 320,400.0 322,400.0 324,400.0 326,400.0 328,400.0 330,400.0 332,400.0 334,400.0 336,400.0 338,400.0 340,400.0 342,400.0 344,400.0 346,400.0 348,400.0 350,400.0 352,400.0 354,400.0 356,400.0 358,400.0 360,400.0 362,400.0 364,400.0 366,400.0 368,400.0 370,400.0 372,400.0 374,400.0 376,400.0 378,400.0 380,400.0 382,400.0 384,400.0 386,400.0 388,400.0 390,400.0 392,400.0 394,400.0 396,400.0 398,400.0 400,400.0 402,400.0 404,400.0 406,400.0 408,400.0 410,400.0 412,400.0 414,400.0 416,400.0 418,400.0 420,400.0 422,400.0 424,400.0 426,400.0 428,400.0 430,400.0 432,400.0 434,400.0 436,400.0 438,400.0 440,400.0 442,400.0 444,400.0 446,400.0 448,400.0 450,400.0 452,400.0 454,400.0 456,400.0 458,400.0 460,400.0 462,400.0 464,400.0 466,400.0 468,400.0 470,400.0 472,400.0 474,400.0 476,400.0 478,400.0 480,400.0 482,400.0 484,400.0 486,400.0 488,400.0 490,400.0 492,400.0 494,400.0 496,400.0 498,400.0 500,400.0 502,400.0 504,400.0 506,400.0 508,400.0 510,400.0 512,400.0 514,400.0 516,400.0 518,400.0 520,400.0 522,400.0 524,400.0 526,400.0 528,400.0 530,400.0 532,400.0 534,400.0 536,400.0 538,400.0 540,400.0 542,400.0 544,400.0 546,400.0 548,400.0 550,400.0 552,400.0 554,400.0 556,400.0 558,400.0 560,400.0 562,400.0 564,400.0 566,400.0 568,400.0 570,400.0 572,400.0 574,400.0 576,400.0 578,400.0 580,400.0 582,400.0 584,400.0 586,400.0 588,400.0 590,400.0 592,400.0 594,400.0 596,400.0 598,400.0 600,400.0 602,400.0 604,400.0 606,400.0 608,400.0 610,400.0 612,400.0 614,400.0 616,400.0 618,400.0 620,400.0 622,400.0 624,400.0 626,400.0 628,400.0 630,400.0 632,400.0 634,400.0 636,400.0 638,400.0 640,400.0 642,400.0 644,400.0 646,400.0 648,400.0 650,400.0 652,400.0 654,400.0 656,400.0 658,400.0 660,400.0 662,400.0 664,400.0 666,400.0 668,400.0 670,400.0 672,400.0 674,400.0 676,400.0 678,400.0 680,400.0 682,400.0 684,400.0 686,400.0 688,400.0 690,400.0 692,400.0 694,400.0 696,400.0 698,400.0 700,400.0 702,400.0 704,400.0 706,400.0 708,400.0 710,400.0 712,400.0 714,400.0 716,400.0 718,400.0 720,400.0 722,400.0 724,400.0 726,400.0 728,400.0 730,400.0 732,400.0 734,400.0 736,400.0 738,400.0 740,400.0 742,400.0 744,400.0 746,400.0 748,400.0 750,400.0 752,400.0 754,400.0 756,400.0 758,400.0 760,400.0 762,400.0 764,400.0 766,400.0 768,400.0 770,400.0 772,400.0 774,400.0 776,400.0 778,400.0 780,400.0 782,400.0 784,400.0 786,400.0 788,400.0 790,400.0 792,400.0 794,400.0 796,400.0 798,400.0 800,400.0 802,400.0 804,400.0 806,400.0 808,400.0 810,400.0 812,400.0 814,400.0 816,400.0 818,400.0 820,400.0 822,400.0 824,400.0 826,400.0 828,400.0 830,400.0 832,400.0 834,400.0 836,400.0 838,400.0 840,400.0 842,400.0 844,400.0 846,400.0 848,400.0 850,400.0 852,400.0 854,400.0 856,400.0 858,400.0 860,400.0 862,400.0 864,400.0 866,400.0 868,400.0 870,400.0 872,400.0 874,400.0 876,400.0 878,400.0 880,400.0 882,400.0 884,400.0 886,400.0 888,400.0 890,400.0 892,400.0 894,400.0 896,400.0 898,400.0 900,400.0 902,400.0 904,400.0 906,400.0 908,400.0 910,400.0 912,400.0 914,400.0 916,400.0 918,400.0 920,400.0 922,400.0 924,400.0 926,400.0 928,400.0 930,400.0 932,400.0 934,400.0 936,400.0 938,400.0 940,400.0 942,400.0 944,400.0 946,400.0 948,400.0 950,400.0 952,400.0 954,400.0 956,400.0 958,400.0 960,400.0 962,400.0 964,400.0 966,400.0 968,400.0 970,400.0 972,400.0 974,400.0 976,400.0 978,400.0 980,400.0 982,400.0 984,400.0 986,400.0 988,400.0 990,400.0 992,400.0 994,400.0 996,400.0 998,400.0 1000,400.0 1002,400.0 1004,400.0 1006,400.0 1008,400.0 1010,400.0 1012,400.0 1014,400.0 1016,400.0 1018,400.0 1020,400.0 1022,400.0 1024,400.0 1024,400.0" /></g><g class="player_lifelines"><polyline class="player_lifeline" points="0,30.76923076923077 124,30.76923076923077" /><polyline class="player_lifeline" points="134,30.76923076923077 134,30.76923076923077" /><polyline class="player_lifeline" points="144,30.76923076923077 222,30.76923076923077" /><polyline class="player_lifeline" points="242,30.76923076923077 274,30.76923076923077" /><polyline class="player_lifeline" points="294,30.76923076923077 524,30.76923076923077" /><polyline class="player_lifeline" points="542,30.76923076923077 614,30.76923076923077" /><polyline class="player_lifeline" points="634,30.76923076923077 746,30.76923076923077" /><polyline class="player_lifeline" points="764,30.76923076923077 1002,30.76923076923077" /><polyline class="player_lifeline" points="0,61.53846153846154 96,61.53846153846154" /><polyline class="player_lifeline" points="110,61.53846153846154 110,61.53846153846154" /><polyline class="player_lifeline" points="116,61.53846153846154 590,61.53846153846154" /><polyline class="player_lifeline" points="610,61.53846153846154 990,61.53846153846154" /><polyline class="player_lifeline" points="1018,61.53846153846154 1024,61.53846153846154" /><polyline class="player_lifeline" points="0,92.3076923076923 104,92.3076923076923" /><polyline class="player_lifeline" points="118,92.3076923076923 118,92.3076923076923" /><polyline class="player_lifeline" points="124,92.3076923076923 508,92.3076923076923" /><polyline class="player_lifeline" points="528,92.3076923076923 632,92.3076923076923" /><polyline class="player_lifeline" points="650,92.3076923076923 746,92.3076923076923" /><polyline class="player_lifeline" points="766,92.3076923076923 1012,92.3076923076923" /><polyline class="player_lifeline" points="0,123.07692307692308 50,123.07692307692308" /><polyline class="player_lifeline" points="68,123.07692307692308 120,123.07692307692308" /><polyline class="player_lifeline" points="134,123.07692307692308 134,123.07692307692308" /><polyline class="player_lifeline" points="140,123.07692307692308 482,123.07692307692308" /><polyline class="player_lifeline" points="502,123.07692307692308 630,123.07692307692308" /><polyline class="player_lifeline" points="650,123.07692307692308 726,123.07692307692308" /><polyline class="player_lifeline" points="746,123.07692307692308 1024,123.07692307692308" /><polyline class="player_lifeline" points="0,153.84615384615384 108,153.84615384615384" /><polyline class="player_lifeline" points="128,153.84615384615384 244,153.84615384615384" /><polyline class="player_lifeline" points="264,153.84615384615384 458,153.84615384615384" /><polyline class="player_lifeline" points="476,153.84615384615384 594,153.84615384615384" /><polyline class="player_lifeline" points="616,153.84615384615384 718,153.84615384615384" /><polyline class="player_lifeline" points="738,153.84615384615384 1018,153.84615384615384" /><polyline class="player_lifeline" points="0,184.6153846153846 88,184.6153846153846" /><polyline class="player_lifeline" points="108,184.6153846153846 450,184.6153846153846" /><polyline class="player_lifeline" points="456,184.6153846153846 492,184.6153846153846" /><polyline class="player_lifeline" points="512,184.6153846153846 568,184.6153846153846" /><polyline class="player_lifeline" points="572,184.6153846153846 622,184.6153846153846" /><polyline class="player_lifeline" points="632,184.6153846153846 632,184.6153846153846" /><polyline class="player_lifeline" points="642,184.6153846153846 736,184.6153846153846" /><polyline class="player_lifeline" points="756,184.6153846153846 864,184.6153846153846" /><polyline class="player_lifeline" points="868,184.6153846153846 922,184.6153846153846" /><polyline class="player_lifeline" points="928,184.6153846153846 928,184.6153846153846" /><polyline class="player_lifeline" points="934,184.6153846153846 1016,184.6153846153846" /><polyline class="player_lifeline" points="0,215.3846153846154 226,215.3846153846154" /><polyline class="player_lifeline" points="234,215.3846153846154 234,215.3846153846154" /><polyline class="player_lifeline" points="246,215.3846153846154 402,215.3846153846154" /><polyline class="player_lifeline" points="422,215.3846153846154 764,215.3846153846154" /><polyline class="player_lifeline" points="772,215.3846153846154 772,215.3846153846154" /><polyline class="player_lifeline" points="784,215.3846153846154 804,215.3846153846154" /><polyline class="player_lifeline" points="824,215.3846153846154 1024,215.3846153846154" /><polyline class="player_lifeline" points="0,246.15384615384616 614,246.15384615384616" /><polyline class="player_lifeline" points="620,246.15384615384616 808,246.15384615384616" /><polyline class="player_lifeline" points="830,246.15384615384616 906,246.15384615384616" /><polyline class="player_lifeline" points="926,246.15384615384616 1024,246.15384615384616" /><polyline class="player_lifeline" points="0,276.9230769230769 320,276.9230769230769" /><polyline class="player_lifeline" points="326,276.9230769230769 326,276.9230769230769" /><polyline class="player_lifeline" points="342,276.9230769230769 1024,276.9230769230769" /><polyline class="player_lifeline" points="0,307.6923076923077 206,307.6923076923077" /><polyline class="player_lifeline" points="212,307.6923076923077 248,307.6923076923077" /><polyline class="player_lifeline" points="256,307.6923076923077 256,307.6923076923077" /><polyline class="player_lifeline" points="268,307.6923076923077 358,307.6923076923077" /><polyline class="player_lifeline" points="362,307.6923076923077 374,307.6923076923077" /><polyline class="player_lifeline" points="394,307.6923076923077 466,307.6923076923077" /><polyline class="player_lifeline" points="474,307.6923076923077 594,307.6923076923077" /><polyline class="player_lifeline" points="614,307.6923076923077 846,307.6923076923077" /><polyline class="player_lifeline" points="850,307.6923076923077 876,307.6923076923077" /><polyline class="player_lifeline" points="896,307.6923076923077 1004,307.6923076923077" /><polyline class="player_lifeline" points="0,338.46153846153845 94,338.46153846153845" /><polyline class="player_lifeline" points="116,338.46153846153845 180,338.46153846153845" /><polyline class="player_lifeline" points="184,338.46153846153845 246,338.46153846153845" /><polyline class="player_lifeline" points="250,338.46153846153845 292,338.46153846153845" /><polyline class="player_lifeline" points="298,338.46153846153845 298,338.46153846153845" /><polyline class="player_lifeline" points="302,338.46153846153845 302,338.46153846153845" /><polyline class="player_lifeline" points="308,338.46153846153845 308,338.46153846153845" /><polyline class="player_lifeline" points="312,338.46153846153845 482,338.46153846153845" /><polyline class="player_lifeline" points="502,338.46153846153845 660,338.46153846153845" /><polyline class="player_lifeline" points="664,338.46153846153845 802,338.46153846153845" /><polyline class="player_lifeline" points="832,338.46153846153845 832,338.46153846153845" /><polyline class="player_lifeline" points="836,338.46153846153845 872,338.46153846153845" /><polyline class="player_lifeline" points="892,338.46153846153845 922,338.46153846153845" /><polyline class="player_lifeline" points="928,338.46153846153845 928,338.46153846153845" /><polyline class="player_lifeline" points="934,338.46153846153845 1000,338.46153846153845" /><polyline class="player_lifeline" points="1004,338.46153846153845 1016,338.46153846153845" /><polyline class="player_lifeline" points="1022,338.46153846153845 1022,338.46153846153845" /><polyline class="player_lifeline" points="0,369.2307692307692 104,369.2307692307692" /><polyline class="player_lifeline" points="124,369.2307692307692 300,369.2307692307692" /><polyline class="player_lifeline" points="320,369.2307692307692 870,369.2307692307692" /><polyline class="player_lifeline" points="890,369.2307692307692 1024,369.2307692307692" /></g><g class="advantages"><polyline class="player_advantage" points="0,200.0 2,200.0 4,200.0 6,200.0 8,200.0 10,200.0 12,200.0 14,200.0 16,200.0 18,200.0 20,200.0 22,200.0 24,200.0 26,200.0 28,200.0 30,200.0 32,200.0 34,200.0 36,200.0 38,200.0 40,200.0 42,200.0 44,200.0 46,200.0 48,200.0 50,200.0 52,166.66666666666666 54,166.66666666666666 56,166.66666666666666 58,166.66666666666666 60,166.66666666666666 62,166.66666666666666 64,166.66666666666666 66,166.66666666666666 68,200.0 70,200.0 72,200.0 74,200.0 76,200.0 78,200.0 80,200.0 82,200.0 84,200.0 86,200.0 88,200.0 90,166.66666666666666 92,166.66666666666666 94,166.66666666666666 96,200.0 98,166.66666666666666 100,166.66666666666666 102,166.66666666666666 104,166.66666666666666 106,166.66666666666666 108,200.0 110,200.0 112,166.66666666666666 114,166.66666666666666 116,166.66666666666666 118,200.0 120,166.66666666666666 122,133.33333333333331 124,133.33333333333331 126,100.0 128,133.33333333333331 130,133.33333333333331 132,133.33333333333331 134,200.0 136,133.33333333333331 138,133.33333333333331 140,166.66666666666666 142,166.66666666666666 144,200.0 146,200.0 148,200.0 150,200.0 152,200.0 154,200.0 156,200.0 158,200.0 160,200.0 162,200.0 164,200.0 166,200.0 168,200.0 170,200.0 172,200.0 174,200.0 176,200.0 178,200.0 180,200.0 182,233.33333333333331 184,200.0 186,200.0 188,200.0 190,200.0 192,200.0 194,200.0 196,200.0 198,200.0 200,200.0 202,200.0 204,200.0 206,200.0 208,233.33333333333331 210,233.33333333333331 212,200.0 214,200.0 216,200.0 218,200.0 220,200.0 222,200.0 224,166.66666666666666 226,166.66666666666666 228,200.0 230,200.0 232,200.0 234,166.66666666666666 236,200.0 238,200.0 240,200.0 242,233.33333333333331 244,233.33333333333331 246,166.66666666666666 248,200.0 250,200.0 252,200.0 254,200.0 256,166.66666666666666 258,200.0 260,200.0 262,200.0 264,233.33333333333331 266,233.33333333333331 268,200.0 270,200.0 272,200.0 274,200.0 276,166.66666666666666 278,166.66666666666666 280,166.66666666666666 282,166.66666666666666 284,166.66666666666666 286,166.66666666666666 288,166.66666666666666 290,166.66666666666666 292,166.66666666666666 294,233.33333333333331 296,233.33333333333331 298,200.0 300,233.33333333333331 302,233.33333333333331 304,266.66666666666663 306,266.66666666666663 308,233.33333333333331 310,266.66666666666663 312,233.33333333333331 314,233.33333333333331 316,233.33333333333331 318,233.33333333333331 320,200.0 322,233.33333333333331 324,233.33333333333331 326,200.0 328,233.33333333333331 330,233.33333333333331 332,233.33333333333331 334,233.33333333333331 336,233.33333333333331 338,233.33333333333331 340,233.33333333333331 342,200.0 344,200.0 346,200.0 348,200.0 350,200.0 352,200.0 354,200.0 356,200.0 358,200.0 360,233.33333333333331 362,200.0 364,200.0 366,200.0 368,200.0 370,200.0 372,200.0 374,200.0 376,233.33333333333331 378,233.33333333333331 380,233.33333333333331 382,233.33333333333331 384,233.33333333333331 386,233.33333333333331 388,233.33333333333331 390,233.33333333333331 392,233.33333333333331 394,200.0 396,200.0 398,200.0 400,200.0 402,200.0 404,233.33333333333331 406,233.33333333333331 408,233.33333333333331 410,233.33333333333331 412,233.33333333333331 414,233.33333333333331 416,233.33333333333331 418,233.33333333333331 420,233.33333333333331 422,200.0 424,200.0 426,200.0 428,200.0 430,200.0 432,200.0 434,200.0 436,200.0 438,200.0 440,200.0 442,200.0 444,200.0 446,200.0 448,200.0 450,200.0 452,166.66666666666666 454,166.66666666666666 456,200.0 458,200.0 460,166.66666666666666 462,166.66666666666666 464,166.66666666666666 466,166.66666666666666 468,200.0 470,200.0 472,200.0 474,166.66666666666666 476,200.0 478,200.0 480,200.0 482,200.0 484,200.0 486,200.0 488,200.0 490,200.0 492,200.0 494,166.66666666666666 496,166.66666666666666 498,166.66666666666666 500,166.66666666666666 502,166.66666666666666 504,166.66666666666666 506,166.66666666666666 508,166.66666666666666 510,133.33333333333331 512,166.66666666666666 514,166.66666666666666 516,166.66666666666666 518,166.66666666666666 520,166.66666666666666 522,166.66666666666666 524,166.66666666666666 526,133.33333333333331 528,166.66666666666666 530,166.66666666666666 532,166.66666666666666 534,166.66666666666666 536,166.66666666666666 538,166.66666666666666 540,166.66666666666666 542,200.0 544,200.0 546,200.0 548,200.0 550,200.0 552,200.0 554,200.0 556,200.0 558,200.0 560,200.0 562,200.0 564,200.0 566,200.0 568,200.0 570,166.66666666666666 572,200.0 574,200.0 576,200.0 578,200.0 580,200.0 582,200.0 584,200.0 586,200.0 588,200.0 590,200.0 592,166.66666666666666 594,166.66666666666666 596,166.66666666666666 598,166.66666666666666 600,166.66666666666666 602,166.66666666666666 604,166.66666666666666 606,166.66666666666666 608,166.66666666666666 610,200.0 612,200.0 614,166.66666666666666 616,200.0 618,200.0 620,166.66666666666666 622,166.66666666666666 624,133.33333333333331 626,133.33333333333331 628,133.33333333333331 630,133.33333333333331 632,133.33333333333331 634,100.0 636,100.0 638,100.0 640,100.0 642,133.33333333333331 644,133.33333333333331 646,133.33333333333331 648,133.33333333333331 650,200.0 652,200.0 654,200.0 656,200.0 658,200.0 660,200.0 662,233.33333333333331 664,200.0 666,200.0 668,200.0 670,200.0 672,200.0 674,200.0 676,200.0 678,200.0 680,200.0 682,200.0 684,200.0 686,200.0 688,200.0 690,200.0 692,200.0 694,200.0 696,200.0 698,200.0 700,200.0 702,200.0 704,200.0 706,200.0 708,200.0 710,200.0 712,200.0 714,200.0 716,200.0 718,200.0 720,166.66666666666666 722,166.66666666666666 724,166.66666666666666 726,166.66666666666666 728,133.33333333333331 730,133.33333333333331 732,133.33333333333331 734,133.33333333333331 736,133.33333333333331 738,133.33333333333331 740,133.33333333333331 742,133.33333333333331 744,133.33333333333331 746,166.66666666666666 748,100.0 750,100.0 752,100.0 754,100.0 756,133.33333333333331 758,133.33333333333331 760,133.33333333333331 762,133.33333333333331 764,166.66666666666666 766,233.33333333333331 768,233.33333333333331 770,233.33333333333331 772,200.0 774,233.33333333333331 776,233.33333333333331 778,233.33333333333331 780,233.33333333333331 782,233.33333333333331 784,200.0 786,200.0 788,200.0 790,200.0 792,200.0 794,200.0 796,200.0 798,200.0 800,200.0 802,200.0 804,233.33333333333331 806,266.66666666666663 808,266.66666666666663 810,300.0 812,300.0 814,300.0 816,300.0 818,300.0 820,300.0 822,300.0 824,266.66666666666663 826,266.66666666666663 828,266.66666666666663 830,233.33333333333331 832,200.0 834,233.33333333333331 836,200.0 838,200.0 840,200.0 842,200.0 844,200.0 846,200.0 848,233.33333333333331 850,200.0 852,200.0 854,200.0 856,200.0 858,200.0 860,200.0 862,200.0 864,200.0 866,166.66666666666666 868,200.0 870,200.0 872,233.33333333333331 874,266.66666666666663 876,266.66666666666663 878,300.0 880,300.0 882,300.0 884,300.0 886,300.0 888,300.0 890,266.66666666666663 892,233.33333333333331 894,233.33333333333331 896,200.0 898,200.0 900,200.0 902,200.0 904,200.0 906,200.0 908,233.33333333333331 910,233.33333333333331 912,233.33333333333331 914,233.33333333333331 916,233.33333333333331 918,233.33333333333331 920,233.33333333333331 922,233.33333333333331 924,233.33333333333331 926,200.0 928,200.0 930,200.0 932,200.0 934,200.0 936,200.0 938,200.0 940,200.0 942,200.0 944,200.0 946,200.0 948,200.0 950,200.0 952,200.0 954,200.0 956,200.0 958,200.0 960,200.0 962,200.0 964,200.0 966,200.0 968,200.0 970,200.0 972,200.0 974,200.0 976,200.0 978,200.0 980,200.0 982,200.0 984,200.0 986,200.0 988,200.0 990,200.0 992,166.66666666666666 994,166.66666666666666 996,166.66666666666666 998,166.66666666666666 1000,166.66666666666666 1002,200.0 1004,133.33333333333331 1006,166.66666666666666 1008,166.66666666666666 1010,166.66666666666666 1012,166.66666666666666 1014,133.33333333333331 1016,133.33333333333331 1018,166.66666666666666 1020,133.33333333333331 1022,100.0 1024,133.33333333333331 1024,100.0" /></g><g class="minute_ref"><line class="minute_ref_line" x1="120" x2="120" y1="0" y2="400" /><text x="120" y="420">1:00</text><line class="minute_ref_line" x1="240" x2="240" y1="0" y2="400" /><text x="240" y="420">2:00</text><line class="minute_ref_line" x1="360" x2="360" y1="0" y2="400" /><text x="360" y="420">3:00</text><line class="minute_ref_line" x1="480" x2="480" y1="0" y2="400" /><text x="480" y="420">4:00</text><line class="minute_ref_line" x1="600" x2="600" y1="0" y2="400" /><text x="600" y="420">5:00</text><line class="minute_ref_line" x1="720" x2="720" y1="0" y2="400" /><text x="720" y="420">6:00</text><line class="minute_ref_line" x1="840" x2="840" y1="0" y2="400" /><text x="840" y="420">7:00</text><line class="minute_ref_line" x1="960" x2="960" y1="0" y2="400" /><text x="960" y="420">8:00</text></g></g></svg>