<?xml version="1.0" encoding="utf-8" ?>
<svg baseProfile="full" height="100%" version="1.1" width="100%" xmlns="http://www.w3.org/2000/svg" xmlns:ev="http://www.w3.org/2001/xml-events" xmlns:xlink="http://www.w3.org/1999/xlink"><defs><style type="text/css"><![CDATA[
.payload_progress {
  fill:none;
  stroke: blue;
  stroke-width: 2
}

.player_advantage {
  fill:none;
  stroke: red;
  stroke-width: 1

}

.player_lifeline {
  fill:none;
  stroke: green;
  stroke-width: 1
}

.graph_border {
  fill: none;
  stroke: black;
}

.minute_ref_line {
  stroke: gray;
  stroke-width: 1;
  stroke-dasharray: 1,4
}

.progress_target_line {
  stroke: gray;
  stroke_width: 1;
  stroke-dasharray: 3,1
}

.progress_completion_line {
  stroke: gray;
  stroke_width: 1
}


]]></style></defs><text x="10" y="20">Los Angeles Gladiators at Dallas Fuel on route-66 round 2</text><g style="graph" transform="translate(10, 45)"><rect class="graph_border" height="400" width="1024" x="0" y="0" /><line class="minute_ref_line" x1="120" x2="120" y1="0" y2="400" /><text x="120" y="420">1:00</text><line class="minute_ref_line" x1="240" x2="240" y1="0" y2="400" /><text x="240" y="420">2:00</text><line class="minute_ref_line" x1="360" x2="360" y1="0" y2="400" /><text x="360" y="420">3:00</text><line class="minute_ref_line" x1="480" x2="480" y1="0" y2="400" /><text x="480" y="420">4:00</text><line class="minute_ref_line" x1="600" x2="600" y1="0" y2="400" /><text x="600" y="420">5:00</text><line class="minute_ref_line" x1="720" x2="720" y1="0" y2="400" /><text x="720" y="420">6:00</text><line class="minute_ref_line" x1="840" x2="840" y1="0" y2="400" /><text x="840" y="420">7:00</text><line class="minute_ref_line" x1="960" x2="960" y1="0" y2="400" /><text x="960" y="420">8:00</text><polyline class="payload_progress" points="0,400 0,397.71999999999997 2,397.71999999999997 4,397.71999999999997 6,397.71999999999997 8,400.0 10,400.0 12,400.0 14,400.0 16,400.0 18,400.0 20,400.0 22,400.0 24,400.0 26,400.0 28,400.0 30,400.0 32,400.0 34,400.0 36,400.0 38,400.0 40,400.0 42,400.0 44,400.0 46,400.0 48,400.0 50,400.0 52,400.0 54,400.0 56,400.0 58,400.0 60,400.0 62,400.0 64,400.0 66,400.0 68,400.0 70,400.0 72,400.0 74,400.0 76,400.0 78,400.0 80,400.0 82,400.0 84,400.0 86,400.0 88,400.0 90,400.0 92,400.0 94,400.0 96,400.0 98,400.0 100,400.0 102,400.0 104,400.0 106,400.0 108,400.0 110,400.0 112,400.0 114,400.0 116,400.0 118,400.0 120,400.0 122,400.0 124,400.0 126,400.0 128,400.0 130,400.0 132,400.0 134,400.0 136,400.0 138,400.0 140,400.0 142,400.0 144,400.0 146,400.0 148,400.0 150,400.0 152,400.0 154,400.0 156,400.0 158,400.0 160,400.0 162,400.0 164,400.0 166,400.0 168,400.0 170,400.0 172,400.0 174,400.0 176,400.0 178,400.0 180,400.0 182,400.0 184,400.0 186,400.0 188,400.0 190,400.0 192,400.0 194,400.0 196,400.0 198,400.0 200,400.0 202,400.0 204,400.0 206,400.0 208,400.0 210,400.0 212,400.0 214,400.0 216,400.0 218,400.0 220,400.0 222,400.0 224,400.0 226,400.0 228,400.0 230,400.0 232,400.0 234,400.0 236,400.0 238,400.0 240,400.0 242,400.0 244,400.0 246,400.0 248,400.0 250,400.0 252,400.0 254,400.0 256,400.0 258,400.0 260,400.0 262,400.0 264,400.0 266,400.0 268,400.0 270,400.0 272,400.0 274,400.0 276,400.0 278,400.0 280,400.0 282,400.0 284,400.0 286,400.0 288,400.0 290,400.0 292,400.0 294,400.0 296,400.0 298,400.0 300,400.0 302,400.0 304,400.0 306,400.0 308,400.0 310,400.0 312,400.0 314,400.0 316,400.0 318,400.0 320,400.0 322,400.0 324,400.0 326,400.0 328,400.0 330,400.0 332,400.0 334,400.0 336,400.0 338,400.0 340,400.0 342,400.0 344,400.0 346,400.0 348,400.0 350,400.0 352,400.0 354,400.0 356,400.0 358,400.0 360,400.0 362,400.0 364,400.0 366,400.0 368,400.0 370,400.0 372,400.0 374,400.0 376,400.0 378,400.0 380,400.0 382,400.0 384,400.0 386,400.0 388,400.0 390,400.0 392,400.0 394,400.0 396,400.0 398,400.0 400,400.0 402,400.0 404,400.0 406,400.0 408,400.0 410,400.0 412,400.0 414,400.0 416,400.0 418,400.0 420,400.0 422,400.0 424,400.0 426,400.0 428,400.0 430,400.0 432,400.0 434,400.0 436,400.0 438,400.0 440,400.0 442,400.0 444,400.0 446,400.0 448,400.0 450,400.0 452,400.0 454,400.0 456,400.0 458,400.0 460,400.0 462,400.0 464,400.0 466,400.0 468,400.0 470,400.0 472,400.0 474,400.0 476,400.0 478,400.0 480,400.0 482,400.0 484,400.0 486,400.0 488,400.0 490,400.0 492,400.0 494,400.0 496,400.0 498,400.0 500,400.0 502,400.0 504,400.0 506,400.0 508,400.0 510,400.0 512,400.0 514,400.0 516,400.0 518,400.0 520,400.0 522,400.0 524,400.0 526,400.0 528,400.0 530,400.0 532,400.0 534,400.0 536,400.0 538,400.0 540,400.0 542,400.0 544,400.0 546,400.0 548,400.0 550,400.0 552,400.0 554,400.0 556,400.0 558,400.0 560,400.0 562,400.0 564,400.0 566,400.0 568,400.0 570,400.0 572,400.0 574,400.0 576,400.0 578,400.0 580,400.0 582,400.0 584,400.0 586,400.0 588,400.0 590,400.0 592,400.0 594,400.0 596,400.0 598,400.0 600,400.0 602,400.0 604,400.0 606,400.0 608,400.0 610,400.0 612,400.0 614,400.0 616,400.0 618,400.0 620,400.0 622,400.0 624,400.0 626,400.0 628,400.0 630,400.0 632,400.0 634,400.0 636,400.0 638,400.0 640,400.0 642,400.0 644,400.0 646,400.0 648,400.0 650,400.0 652,400.0 654,400.0 656,400.0 658,400.0 660,400.0 662,400.0 664,400.0 666,400.0 668,400.0 670,400.0 672,400.0 674,400.0 676,400.0 678,400.0 680,400.0 682,400.0 684,400.0 686,400.0 688,400.0 690,400.0 692,400.0 694,400.0 696,400.0 698,400.0 700,400.0 702,400.0 704,400.0 706,400.0 708,400.0 710,400.0 712,400.0 714,400.0 716,400.0 718,400.0 720,400.0 722,400.0 724,400.0 726,400.0 728,400.0 730,400.0 732,400.0 734,400.0 736,400.0 738,400.0 740,400.0 742,400.0 744,400.0 746,400.0 748,400.0 750,400.0 752,400.0 754,400.0 756,400.0 758,400.0 760,400.0 762,400.0 764,400.0 766,400.0 768,400.0 770,400.0 772,400.0 774,400.0 776,400.0 778,400.0 780,400.0 782,400.0 784,400.0 786,400.0 788,400.0 790,400.0 792,400.0 794,400.0 796,400.0 798,400.0 800,400.0 802,400.0 804,400.0 806,400.0 808,400.0 810,400.0 812,400.0 814,400.0 816,400.0 818,400.0 820,400.0 822,400.0 824,400.0 826,400.0 828,400.0 830,400.0 832,400.0 834,400.0 836,400.0 838,400.0 840,400.0 842,400.0 844,400.0 846,400.0 848,400.0 850,400.0 852,400.0 854,400.0 856,400.0 858,400.0 860,400.0 862,400.0 864,400.0 866,400.0 868,400.0 870,400.0 872,400.0 874,400.0 876,400.0 878,400.0 880,400.0 882,400.0 884,400.0 886,400.0 888,400.0 890,400.0 892,400.0 894,400.0 896,400.0 898,400.0 900,400.0 902,400.0 904,400.0 906,400.0 908,400.0 910,400.0 912,400.0 914,400.0 916,400.0 918,400.0 920,400.0 922,400.0 924,400.0 926,400.0 928,400.0 930,400.0 932,400.0 934,400.0 936,400.0 938,400.0 940,400.0 942,400.0 944,400.0 946,400.0 948,400.0 950,400.0 952,400.0 954,400.0 956,400.0 958,400.0 960,400.0 962,400.0 964,400.0 966,400.0 968,400.0 970,400.0 972,400.0 974,400.0 976,400.0 978,400.0 980,400.0 982,400.0 984,400.0 986,400.0 988,400.0 990,400.0 992,400.0 994,400.0 996,400.0 998,400.0 1000,400.0 1002,400.0 1004,400.0 1006,400.0 1008,400.0 1010,400.0 1012,400.0 1014,400.0 1016,400.0 1018,400.0 1020,400.0 1022,400.0 1024,400.0 1024,400.0" /><polyline class="player_advantage" points="0,200.0 0,200.0 2,200.0 4,200.0 6,200.0 8,200.0 10,200.0 12,200.0 14,200.0 16,200.0 18,200.0 20,200.0 22,200.0 24,200.0 26,200.0 28,200.0 30,200.0 32,200.0 34,200.0 36,200.0 38,200.0 40,200.0 42,200.0 44,200.0 46,200.0 48,200.0 50,200.0 52,233.33333333333331 54,233.33333333333331 56,233.33333333333331 58,233.33333333333331 60,233.33333333333331 62,233.33333333333331 64,233.33333333333331 66,233.33333333333331 68,200.0 70,200.0 72,200.0 74,200.0 76,200.0 78,200.0 80,200.0 82,200.0 84,200.0 86,200.0 88,200.0 90,233.33333333333331 92,233.33333333333331 94,233.33333333333331 96,200.0 98,233.33333333333331 100,233.33333333333331 102,233.33333333333331 104,233.33333333333331 106,233.33333333333331 108,200.0 110,200.0 112,233.33333333333331 114,233.33333333333331 116,233.33333333333331 118,200.0 120,233.33333333333331 122,266.66666666666663 124,266.66666666666663 126,300.0 128,266.66666666666663 130,266.66666666666663 132,266.66666666666663 134,200.0 136,266.66666666666663 138,266.66666666666663 140,233.33333333333331 142,233.33333333333331 144,200.0 146,200.0 148,200.0 150,200.0 152,200.0 154,200.0 156,200.0 158,200.0 160,200.0 162,200.0 164,200.0 166,200.0 168,200.0 170,200.0 172,200.0 174,200.0 176,200.0 178,200.0 180,200.0 182,166.66666666666666 184,200.0 186,200.0 188,200.0 190,200.0 192,200.0 194,200.0 196,200.0 198,200.0 200,200.0 202,200.0 204,200.0 206,200.0 208,166.66666666666666 210,166.66666666666666 212,200.0 214,200.0 216,200.0 218,200.0 220,200.0 222,200.0 224,233.33333333333331 226,233.33333333333331 228,200.0 230,200.0 232,200.0 234,233.33333333333331 236,200.0 238,200.0 240,200.0 242,166.66666666666666 244,166.66666666666666 246,233.33333333333331 248,200.0 250,200.0 252,200.0 254,200.0 256,233.33333333333331 258,200.0 260,200.0 262,200.0 264,166.66666666666666 266,166.66666666666666 268,200.0 270,200.0 272,200.0 274,200.0 276,233.33333333333331 278,233.33333333333331 280,233.33333333333331 282,233.33333333333331 284,233.33333333333331 286,233.33333333333331 288,233.33333333333331 290,233.33333333333331 292,233.33333333333331 294,166.66666666666666 296,166.66666666666666 298,200.0 300,166.66666666666666 302,166.66666666666666 304,133.33333333333331 306,133.33333333333331 308,166.66666666666666 310,133.33333333333331 312,166.66666666666666 314,166.66666666666666 316,166.66666666666666 318,166.66666666666666 320,200.0 322,166.66666666666666 324,166.66666666666666 326,200.0 328,166.66666666666666 330,166.66666666666666 332,166.66666666666666 334,166.66666666666666 336,166.66666666666666 338,166.66666666666666 340,166.66666666666666 342,200.0 344,200.0 346,200.0 348,200.0 350,200.0 352,200.0 354,200.0 356,200.0 358,200.0 360,166.66666666666666 362,200.0 364,200.0 366,200.0 368,200.0 370,200.0 372,200.0 374,200.0 376,166.66666666666666 378,166.66666666666666 380,166.66666666666666 382,166.66666666666666 384,166.66666666666666 386,166.66666666666666 388,166.66666666666666 390,166.66666666666666 392,166.66666666666666 394,200.0 396,200.0 398,200.0 400,200.0 402,200.0 404,166.66666666666666 406,166.66666666666666 408,166.66666666666666 410,166.66666666666666 412,166.66666666666666 414,166.66666666666666 416,166.66666666666666 418,166.66666666666666 420,166.66666666666666 422,200.0 424,200.0 426,200.0 428,200.0 430,200.0 432,200.0 434,200.0 436,200.0 438,200.0 440,200.0 442,200.0 444,200.0 446,200.0 448,200.0 450,200.0 452,233.33333333333331 454,233.33333333333331 456,200.0 458,200.0 460,233.33333333333331 462,233.33333333333331 464,233.33333333333331 466,233.33333333333331 468,200.0 470,200.0 472,200.0 474,233.33333333333331 476,200.0 478,200.0 480,200.0 482,200.0 484,200.0 486,200.0 488,200.0 490,200.0 492,200.0 494,233.33333333333331 496,233.33333333333331 498,233.33333333333331 500,233.33333333333331 502,233.33333333333331 504,233.33333333333331 506,233.33333333333331 508,233.33333333333331 510,266.66666666666663 512,233.33333333333331 514,233.33333333333331 516,233.33333333333331 518,233.33333333333331 520,233.33333333333331 522,233.33333333333331 524,233.33333333333331 526,266.66666666666663 528,233.33333333333331 530,233.33333333333331 532,233.33333333333331 534,233.33333333333331 536,233.33333333333331 538,233.33333333333331 540,233.33333333333331 542,200.0 544,200.0 546,200.0 548,200.0 550,200.0 552,200.0 554,200.0 556,200.0 558,200.0 560,200.0 562,200.0 564,200.0 566,200.0 568,200.0 570,233.33333333333331 572,200.0 574,200.0 576,200.0 578,200.0 580,200.0 582,200.0 584,200.0 586,200.0 588,200.0 590,200.0 592,233.33333333333331 594,233.33333333333331 596,233.33333333333331 598,233.33333333333331 600,233.33333333333331 602,233.33333333333331 604,233.33333333333331 606,233.33333333333331 608,233.33333333333331 610,200.0 612,200.0 614,233.33333333333331 616,200.0 618,200.0 620,233.33333333333331 622,233.33333333333331 624,266.66666666666663 626,266.66666666666663 628,266.66666666666663 630,266.66666666666663 632,266.66666666666663 634,300.0 636,300.0 638,300.0 640,300.0 642,266.66666666666663 644,266.66666666666663 646,266.66666666666663 648,266.66666666666663 650,200.0 652,200.0 654,200.0 656,200.0 658,200.0 660,200.0 662,166.66666666666666 664,200.0 666,200.0 668,200.0 670,200.0 672,200.0 674,200.0 676,200.0 678,200.0 680,200.0 682,200.0 684,200.0 686,200.0 688,200.0 690,200.0 692,200.0 694,200.0 696,200.0 698,200.0 700,200.0 702,200.0 704,200.0 706,200.0 708,200.0 710,200.0 712,200.0 714,200.0 716,200.0 718,200.0 720,233.33333333333331 722,233.33333333333331 724,233.33333333333331 726,233.33333333333331 728,266.66666666666663 730,266.66666666666663 732,266.66666666666663 734,266.66666666666663 736,266.66666666666663 738,266.66666666666663 740,266.66666666666663 742,266.66666666666663 744,266.66666666666663 746,233.33333333333331 748,300.0 750,300.0 752,300.0 754,300.0 756,266.66666666666663 758,266.66666666666663 760,266.66666666666663 762,266.66666666666663 764,233.33333333333331 766,166.66666666666666 768,166.66666666666666 770,166.66666666666666 772,200.0 774,166.66666666666666 776,166.66666666666666 778,166.66666666666666 780,166.66666666666666 782,166.66666666666666 784,200.0 786,200.0 788,200.0 790,200.0 792,200.0 794,200.0 796,200.0 798,200.0 800,200.0 802,200.0 804,166.66666666666666 806,133.33333333333331 808,133.33333333333331 810,100.0 812,100.0 814,100.0 816,100.0 818,100.0 820,100.0 822,100.0 824,133.33333333333331 826,133.33333333333331 828,133.33333333333331 830,166.66666666666666 832,200.0 834,166.66666666666666 836,200.0 838,200.0 840,200.0 842,200.0 844,200.0 846,200.0 848,166.66666666666666 850,200.0 852,200.0 854,200.0 856,200.0 858,200.0 860,200.0 862,200.0 864,200.0 866,233.33333333333331 868,200.0 870,200.0 872,166.66666666666666 874,133.33333333333331 876,133.33333333333331 878,100.0 880,100.0 882,100.0 884,100.0 886,100.0 888,100.0 890,133.33333333333331 892,166.66666666666666 894,166.66666666666666 896,200.0 898,200.0 900,200.0 902,200.0 904,200.0 906,200.0 908,166.66666666666666 910,166.66666666666666 912,166.66666666666666 914,166.66666666666666 916,166.66666666666666 918,166.66666666666666 920,166.66666666666666 922,166.66666666666666 924,166.66666666666666 926,200.0 928,200.0 930,200.0 932,200.0 934,200.0 936,200.0 938,200.0 940,200.0 942,200.0 944,200.0 946,200.0 948,200.0 950,200.0 952,200.0 954,200.0 956,200.0 958,200.0 960,200.0 962,200.0 964,200.0 966,200.0 968,200.0 970,200.0 972,200.0 974,200.0 976,200.0 978,200.0 980,200.0 982,200.0 984,200.0 986,200.0 988,200.0 990,200.0 992,233.33333333333331 994,233.33333333333331 996,233.33333333333331 998,233.33333333333331 1000,233.33333333333331 1002,200.0 1004,266.66666666666663 1006,233.33333333333331 1008,233.33333333333331 1010,233.33333333333331 1012,233.33333333333331 1014,266.66666666666663 1016,266.66666666666663 1018,233.33333333333331 1020,266.66666666666663 1022,300.0 1024,266.66666666666663 1024,300.0" /></g></svg>