<?xml version="1.0" encoding="utf-8" ?>
<svg baseProfile="full" height="100%" version="1.1" width="100%" xmlns="http://www.w3.org/2000/svg" xmlns:ev="http://www.w3.org/2001/xml-events" xmlns:xlink="http://www.w3.org/1999/xlink"><defs><style type="text/css"><![CDATA[
.player_lifelines {
  display: none
}

.player_lifeline {
  fill:none;
  stroke: green;
  stroke-width: 1;
  display: inline
}

.graph_border {
  fill: none;
  stroke: black;
}

.minute_ref_line {
  stroke: gray;
  stroke-width: 1;
  stroke-dasharray: 1,4
}


        .fight_area {
        fill: lightyellow;
        stroke: gold;
        stroke-width: 1
        }
        
        .replay_area {
        fill:lightgray;
        stroke: lightgray;
        stroke-width: 0
        }
        
        .progress_target_line {
        stroke: gray;
        stroke_width: 1;
        stroke-dasharray: 3,1
        }

        .progress_completion_line {
        stroke: gray;
        stroke_width: 1
        }
        
        .payload_progress {
        fill:none;
        stroke: blue;
        stroke-width: 2
        }
        
        .player_advantage {
        fill:none;
        stroke: red;
        stroke-width: 1
        }
        ]]></style></defs><text x="10" y="20">Los Angeles Gladiators at Dallas Fuel(A) on route-66 round 3</text><g class="graph" transform="translate(10, 45)"><rect class="graph_border" height="400" width="138" x="0" y="0" /><g class="fights"><rect class="fight_area" height="0.0" width="52" x="86" y="400.0" /><text x="86" y="400.0">#1 -11</text></g><g class="progress"><polyline class="payload_progress" points="0,400 0,400.0 2,400.0 4,400.0 6,400.0 8,400.0 10,400.0 12,400.0 14,400.0 16,400.0 18,400.0 20,400.0 22,400.0 24,400.0 26,400.0 28,400.0 30,400.0 32,400.0 34,400.0 36,400.0 38,400.0 40,400.0 42,400.0 44,400.0 46,400.0 48,400.0 50,400.0 52,400.0 54,400.0 56,400.0 58,400.0 60,400.0 62,400.0 64,400.0 66,400.0 68,400.0 70,400.0 72,400.0 74,400.0 76,400.0 78,400.0 80,400.0 82,400.0 84,400.0 86,400.0 88,400.0 90,400.0 92,400.0 94,400.0 96,400.0 98,400.0 100,400.0 102,400.0 104,400.0 106,400.0 108,400.0 110,400.0 112,400.0 114,400.0 116,400.0 118,400.0 120,400.0 122,400.0 124,400.0 126,400.0 128,400.0 130,400.0 132,400.0 134,400.0 136,400.0 138,400.0 138,400.0" /></g><g class="player_lifelines"><polyline class="player_lifeline" points="0,30.76923076923077 138,30.76923076923077" /><polyline class="player_lifeline" points="0,61.53846153846154 138,61.53846153846154" /><polyline class="player_lifeline" points="0,92.3076923076923 138,92.3076923076923" /><polyline class="player_lifeline" points="0,123.07692307692308 138,123.07692307692308" /><polyline class="player_lifeline" points="0,153.84615384615384 138,153.84615384615384" /><polyline class="player_lifeline" points="0,184.6153846153846 138,184.6153846153846" /><polyline class="player_lifeline" points="0,215.3846153846154 86,215.3846153846154" /><polyline class="player_lifeline" points="106,215.3846153846154 130,215.3846153846154" /><polyline class="player_lifeline" points="0,246.15384615384616 94,246.15384615384616" /><polyline class="player_lifeline" points="114,246.15384615384616 138,246.15384615384616" /><polyline class="player_lifeline" points="0,276.9230769230769 114,276.9230769230769" /><polyline class="player_lifeline" points="122,276.9230769230769 124,276.9230769230769" /><polyline class="player_lifeline" points="128,276.9230769230769 128,276.9230769230769" /><polyline class="player_lifeline" points="132,276.9230769230769 138,276.9230769230769" /><polyline class="player_lifeline" points="0,307.6923076923077 122,307.6923076923077" /><polyline class="player_lifeline" points="132,307.6923076923077 134,307.6923076923077" /><polyline class="player_lifeline" points="138,307.6923076923077 138,307.6923076923077" /><polyline class="player_lifeline" points="0,338.46153846153845 84,338.46153846153845" /><polyline class="player_lifeline" points="106,338.46153846153845 126,338.46153846153845" /><polyline class="player_lifeline" points="0,369.2307692307692 118,369.2307692307692" /><polyline class="player_lifeline" points="138,369.2307692307692 138,369.2307692307692" /></g><g class="advantages"><polyline class="player_advantage" points="0,200.0 2,200.0 4,200.0 6,200.0 8,200.0 10,200.0 12,200.0 14,200.0 16,200.0 18,200.0 20,200.0 22,200.0 24,200.0 26,200.0 28,200.0 30,200.0 32,200.0 34,200.0 36,200.0 38,200.0 40,200.0 42,200.0 44,200.0 46,200.0 48,200.0 50,200.0 52,200.0 54,200.0 56,200.0 58,200.0 60,200.0 62,200.0 64,200.0 66,200.0 68,200.0 70,200.0 72,200.0 74,200.0 76,200.0 78,200.0 80,200.0 82,200.0 84,200.0 86,233.33333333333331 88,266.66666666666663 90,266.66666666666663 92,266.66666666666663 94,266.66666666666663 96,300.0 98,300.0 100,300.0 102,300.0 104,300.0 106,233.33333333333331 108,233.33333333333331 110,233.33333333333331 112,233.33333333333331 114,200.0 116,233.33333333333331 118,233.33333333333331 120,266.66666666666663 122,233.33333333333331 124,266.66666666666663 126,300.0 128,300.0 130,333.3333333333333 132,300.0 134,300.0 136,333.3333333333333 138,300.0 138,266.66666666666663" /></g><g class="minute_ref"><line class="minute_ref_line" x1="120" x2="120" y1="0" y2="400" /><text x="120" y="420">1:00</text></g></g></svg>