<?xml version="1.0" encoding="utf-8" ?>
<svg baseProfile="full" height="100%" version="1.1" width="100%" xmlns="http://www.w3.org/2000/svg" xmlns:ev="http://www.w3.org/2001/xml-events" xmlns:xlink="http://www.w3.org/1999/xlink"><defs><style type="text/css"><![CDATA[
.payload_progress {
  fill:none;
  stroke: blue;
  stroke-width: 2
}

.player_advantage {
  fill:none;
  stroke: red;
  stroke-width: 1

}

.player_lifeline {
  fill:none;
  stroke: green;
  stroke-width: 1
}

.graph_border {
  fill: none;
  stroke: black;
}

.minute_ref_line {
  stroke: gray;
  stroke-width: 1;
  stroke-dasharray: 1,4
}

.progress_target_line {
  stroke: gray;
  stroke_width: 1;
  stroke-dasharray: 3,1
}

.progress_completion_line {
  stroke: gray;
  stroke_width: 1
}


]]></style></defs><text x="10" y="20">Los Angeles Gladiators at Dallas Fuel on route-66 round 4</text><g style="graph" transform="translate(10, 45)"><rect class="graph_border" height="400" width="204" x="0" y="0" /><line class="minute_ref_line" x1="120" x2="120" y1="0" y2="400" /><text x="120" y="420">1:00</text><polyline class="payload_progress" points="0,400 0,400.0 2,400.0 4,400.0 6,400.0 8,398.84 10,396.56 12,394.28000000000003 14,390.84 16,389.71999999999997 18,387.44 20,385.15999999999997 22,382.84 24,380.56 26,377.15999999999997 28,374.84000000000003 30,372.56 32,370.28 34,368.0 36,365.72 38,363.44 40,363.44 42,363.44 44,363.44 46,363.44 48,363.44 50,363.44 52,363.44 54,363.44 56,363.44 58,363.44 60,363.44 62,363.44 64,363.44 66,363.44 68,362.28 70,361.16 72,361.16 74,361.16 76,361.16 78,361.16 80,361.16 82,361.16 84,361.16 86,361.16 88,361.16 90,361.16 92,361.16 94,361.16 96,361.16 98,361.16 100,361.16 102,360.0 104,358.84000000000003 106,356.56 108,353.16 110,350.84 112,347.44 114,345.16 116,345.16 118,345.16 120,345.16 122,345.16 124,345.16 126,345.16 128,345.16 130,345.16 132,345.16 134,344.0 136,344.0 138,344.0 140,344.0 142,344.0 144,344.0 146,344.0 148,344.0 150,344.0 152,344.0 154,344.0 156,344.0 158,344.0 160,344.0 162,344.0 164,344.0 166,344.0 168,344.0 170,344.0 172,344.0 174,344.0 176,344.0 178,344.0 180,344.0 182,344.0 184,344.0 186,344.0 188,344.0 190,344.0 192,344.0 194,344.0 196,344.0 198,344.0 200,345.16 202,344.0 204,345.16 204,345.16" /><polyline class="player_advantage" points="0,200.0 0,200.0 2,200.0 4,200.0 6,200.0 8,200.0 10,200.0 12,200.0 14,200.0 16,200.0 18,200.0 20,200.0 22,200.0 24,200.0 26,200.0 28,200.0 30,200.0 32,200.0 34,200.0 36,200.0 38,200.0 40,200.0 42,200.0 44,200.0 46,200.0 48,200.0 50,200.0 52,200.0 54,200.0 56,200.0 58,200.0 60,200.0 62,200.0 64,200.0 66,200.0 68,200.0 70,233.33333333333331 72,233.33333333333331 74,233.33333333333331 76,233.33333333333331 78,233.33333333333331 80,233.33333333333331 82,233.33333333333331 84,200.0 86,233.33333333333331 88,200.0 90,166.66666666666666 92,166.66666666666666 94,166.66666666666666 96,166.66666666666666 98,166.66666666666666 100,133.33333333333331 102,166.66666666666666 104,166.66666666666666 106,166.66666666666666 108,200.0 110,166.66666666666666 112,200.0 114,200.0 116,200.0 118,233.33333333333331 120,233.33333333333331 122,233.33333333333331 124,233.33333333333331 126,233.33333333333331 128,233.33333333333331 130,200.0 132,200.0 134,233.33333333333331 136,200.0 138,233.33333333333331 140,233.33333333333331 142,233.33333333333331 144,233.33333333333331 146,200.0 148,266.66666666666663 150,233.33333333333331 152,200.0 154,266.66666666666663 156,266.66666666666663 158,233.33333333333331 160,266.66666666666663 162,266.66666666666663 164,266.66666666666663 166,266.66666666666663 168,266.66666666666663 170,300.0 172,300.0 174,266.66666666666663 176,266.66666666666663 178,266.66666666666663 180,300.0 182,300.0 184,266.66666666666663 186,266.66666666666663 188,266.66666666666663 190,266.66666666666663 192,266.66666666666663 194,333.3333333333333 196,300.0 198,300.0 200,300.0 202,266.66666666666663 204,333.3333333333333 204,233.33333333333331" /></g></svg>