<?xml version="1.0" encoding="utf-8" ?>
<svg baseProfile="full" height="100%" version="1.1" width="100%" xmlns="http://www.w3.org/2000/svg" xmlns:ev="http://www.w3.org/2001/xml-events" xmlns:xlink="http://www.w3.org/1999/xlink"><defs><style type="text/css"><![CDATA[
.player_lifelines {
  display: none
}

.player_lifeline {
  fill:none;
  stroke: green;
  stroke-width: 1;
  display: inline
}

.graph_border {
  fill: none;
  stroke: black;
}

.minute_ref_line {
  stroke: gray;
  stroke-width: 1;
  stroke-dasharray: 1,4
}


        .fight_area {
        fill: lightyellow;
        stroke: gold;
        stroke-width: 1
        }
        
        .replay_area {
        fill:lightgray;
        stroke: lightgray;
        stroke-width: 0
        }
        
        .progress_target_line {
        stroke: gray;
        stroke_width: 1;
        stroke-dasharray: 3,1
        }

        .progress_completion_line {
        stroke: gray;
        stroke_width: 1
        }
        
        .payload_progress {
        fill:none;
        stroke: blue;
        stroke-width: 2
        }
        
        .player_advantage {
        fill:none;
        stroke: red;
        stroke-width: 1
        }
        ]]></style></defs><text x="10" y="20">Philadelphia Fusion(A) at Boston Uprising on route-66 round 1</text><g class="graph" transform="translate(10, 45)"><rect class="graph_border" height="400" width="816" x="0" y="0" /><g class="fights"><rect class="fight_area" height="38.839999999999975" width="20" x="82" y="281.16" /><text x="82" y="281.16">#1 1</text><rect class="fight_area" height="22.880000000000052" width="50" x="130" y="258.28" /><text x="130" y="258.28">#2 5</text><rect class="fight_area" height="69.71999999999997" width="20" x="214" y="188.56" /><text x="214" y="188.56">#3 1</text><rect class="fight_area" height="73.12000000000002" width="82" x="286" y="115.43999999999998" /><text x="286" y="115.43999999999998">#4 4</text><rect class="fight_area" height="81.15999999999998" width="40" x="420" y="34.28" /><text x="420" y="34.28">#5 1</text><rect class="fight_area" height="5.719999999999992" width="22" x="496" y="28.56000000000001" /><text x="496" y="28.56000000000001">#6 0</text><rect class="fight_area" height="0.0" width="20" x="558" y="28.56000000000001" /><text x="558" y="28.56000000000001">#7 1</text><rect class="fight_area" height="2.2800000000000153" width="28" x="598" y="26.279999999999994" /><text x="598" y="26.279999999999994">#8 -2</text><rect class="fight_area" height="9.119999999999976" width="20" x="706" y="17.160000000000018" /><text x="706" y="17.160000000000018">#9 0</text><rect class="fight_area" height="378.28" width="62" x="754" y="17.160000000000018" /><text x="754" y="17.160000000000018">#10 9</text></g><g class="replays"><rect class="replay_area" height="398" width="4" x="248" y="1" /></g><g class="completion"><line class="progress_target_line" x1="178" x2="178" y1="0.0" y2="265.16" /><line class="progress_completion_line" x1="0" x2="178" y1="265.16" y2="265.16" /><text x="178" y="-5">01:29</text><line class="progress_target_line" x1="386" x2="386" y1="0.0" y2="120.00000000000001" /><line class="progress_completion_line" x1="178" x2="386" y1="120.00000000000001" y2="120.00000000000001" /><text x="386" y="-5">03:13</text></g><g class="progress"><polyline class="payload_progress" points="0,400 0,400.0 2,400.0 4,400.0 6,400.0 8,397.71999999999997 10,395.44 12,393.16 14,392.0 16,388.56 18,386.28 20,382.84 22,381.72 24,377.15999999999997 26,374.84000000000003 28,372.56 30,369.16 32,365.72 34,363.44 36,360.0 38,357.71999999999997 40,355.44 42,352.0 44,350.84 46,348.56 48,345.16 50,342.84 52,341.72 54,341.72 56,341.72 58,341.72 60,341.72 62,341.72 64,341.72 66,340.55999999999995 68,338.28000000000003 70,336.0 72,333.72 74,330.28 76,328.0 78,325.72 80,323.44 82,320.0 84,317.72 86,315.44 88,313.16 90,310.84000000000003 92,308.56 94,306.28000000000003 96,304.0 98,301.71999999999997 100,299.44 102,297.16 104,294.84 106,292.56 108,290.28000000000003 110,288.0 112,285.71999999999997 114,285.71999999999997 116,285.71999999999997 118,285.71999999999997 120,283.44 122,283.44 124,283.44 126,283.44 128,283.44 130,281.16 132,278.84000000000003 134,276.56 136,273.16 138,272.0 140,270.84000000000003 142,270.84000000000003 144,270.84000000000003 146,269.72 148,269.72 150,269.72 152,267.44000000000005 154,266.28 156,266.28 158,266.28 160,266.28 162,266.28 164,266.28 166,266.28 168,266.28 170,266.28 172,266.28 174,266.28 176,266.28 178,265.16 180,263.99999999999994 182,263.99999999999994 184,263.99999999999994 186,263.99999999999994 188,263.99999999999994 190,263.99999999999994 192,263.99999999999994 194,263.99999999999994 196,263.99999999999994 198,263.99999999999994 200,263.99999999999994 202,263.99999999999994 204,263.99999999999994 206,263.99999999999994 208,263.99999999999994 210,262.84000000000003 212,260.56 214,258.28 216,256.0 218,253.72 220,251.44000000000003 222,250.27999999999997 224,246.84 226,244.55999999999997 228,242.28 230,240.0 232,237.72000000000003 234,235.44 236,233.16 238,230.83999999999997 240,228.56" /><polyline class="payload_progress" points="252,212.56 254,210.28000000000003 256,206.84 258,204.56000000000003 260,202.28000000000003 262,200.0 264,198.84 266,195.44000000000003 268,193.16 270,193.16 272,190.83999999999997 274,190.83999999999997 276,190.83999999999997 278,189.72000000000003 280,189.72000000000003 282,189.72000000000003 284,189.72000000000003 286,188.56 288,188.56 290,188.56 292,186.28 294,184.0 296,182.83999999999997 298,180.56 300,178.28 302,178.28 304,178.28 306,178.28 308,178.28 310,178.28 312,178.28 314,178.28 316,177.16 318,177.16 320,177.16 322,177.16 324,177.16 326,177.16 328,177.16 330,175.99999999999997 332,173.72 334,173.72 336,173.72 338,173.72 340,173.72 342,173.72 344,173.72 346,172.56 348,170.27999999999997 350,166.84 352,164.56 354,161.16000000000003 356,158.84 358,156.56 360,153.16 362,149.72 364,147.44000000000003 366,145.16 368,142.83999999999997 370,139.44 372,137.16 374,133.72000000000003 376,131.44 378,129.16 380,126.84000000000002 382,124.56 384,122.27999999999999 386,120.00000000000001 388,118.84000000000002 390,118.84000000000002 392,118.84000000000002 394,118.84000000000002 396,118.84000000000002 398,118.84000000000002 400,118.84000000000002 402,118.84000000000002 404,118.84000000000002 406,118.84000000000002 408,118.84000000000002 410,118.84000000000002 412,118.84000000000002 414,118.84000000000002 416,118.84000000000002 418,116.56 420,115.43999999999998 422,113.16000000000001 424,109.72 426,107.43999999999998 428,105.16000000000001 430,102.84 432,100.55999999999999 434,98.28000000000002 436,96.0 438,96.0 440,93.71999999999998 442,91.44000000000001 444,90.28 446,89.16 448,87.99999999999999 450,85.72000000000001 452,84.56000000000002 454,81.15999999999998 456,78.84000000000002 458,76.56 460,73.15999999999998 462,70.84000000000002 464,68.56 466,65.16000000000003 468,62.84 470,59.43999999999998 472,57.16000000000001 474,53.71999999999999 476,51.44000000000002 478,49.160000000000004 480,46.83999999999999 482,43.44000000000001 484,42.28000000000001 486,38.83999999999999 488,36.56000000000002 490,35.440000000000005 492,34.28 494,34.28 496,34.28 498,34.28 500,34.28 502,34.28 504,34.28 506,34.28 508,34.28 510,34.28 512,34.28 514,35.440000000000005 516,35.440000000000005 518,36.56000000000002 520,36.56000000000002 522,36.56000000000002 524,36.56000000000002 526,36.56000000000002 528,36.56000000000002 530,36.56000000000002 532,36.56000000000002 534,36.56000000000002 536,34.28 538,30.83999999999998 540,30.83999999999998 542,30.83999999999998 544,30.83999999999998 546,30.83999999999998 548,30.83999999999998 550,30.83999999999998 552,30.83999999999998 554,30.83999999999998 556,30.83999999999998 558,28.56000000000001 560,28.56000000000001 562,28.56000000000001 564,28.56000000000001 566,28.56000000000001 568,28.56000000000001 570,28.56000000000001 572,28.56000000000001 574,28.56000000000001 576,28.56000000000001 578,28.56000000000001 580,28.56000000000001 582,28.56000000000001 584,28.56000000000001 586,28.56000000000001 588,28.56000000000001 590,28.56000000000001 592,28.56000000000001 594,28.56000000000001 596,28.56000000000001 598,28.56000000000001 600,28.56000000000001 602,28.56000000000001 604,28.56000000000001 606,28.56000000000001 608,28.56000000000001 610,28.56000000000001 612,28.56000000000001 614,28.56000000000001 616,28.56000000000001 618,28.56000000000001 620,28.56000000000001 622,29.720000000000013 624,29.720000000000013 626,30.83999999999998 628,30.83999999999998 630,30.83999999999998 632,31.999999999999986 634,31.999999999999986 636,33.15999999999999 638,33.15999999999999 640,33.15999999999999 642,34.28 644,34.28 646,35.440000000000005 648,35.440000000000005 650,36.56000000000002 652,36.56000000000002 654,36.56000000000002 656,36.56000000000002 658,36.56000000000002 660,36.56000000000002 662,36.56000000000002 664,36.56000000000002 666,36.56000000000002 668,36.56000000000002 670,36.56000000000002 672,36.56000000000002 674,36.56000000000002 676,36.56000000000002 678,36.56000000000002 680,36.56000000000002 682,36.56000000000002 684,34.28 686,33.15999999999999 688,33.15999999999999 690,33.15999999999999 692,31.999999999999986 694,29.720000000000013 696,28.56000000000001 698,28.56000000000001 700,27.439999999999998 702,27.439999999999998 704,26.279999999999994 706,26.279999999999994 708,26.279999999999994 710,26.279999999999994 712,26.279999999999994 714,26.279999999999994 716,26.279999999999994 718,25.159999999999982 720,25.159999999999982 722,25.159999999999982 724,25.159999999999982 726,25.159999999999982 728,25.159999999999982 730,25.159999999999982 732,25.159999999999982 734,22.840000000000018 736,20.560000000000002 738,18.279999999999987 740,17.160000000000018 742,17.160000000000018 744,17.160000000000018 746,17.160000000000018 748,17.160000000000018 750,17.160000000000018 752,17.160000000000018 754,17.160000000000018 756,16.000000000000014 758,13.719999999999999 760,13.719999999999999 762,13.719999999999999 764,13.719999999999999 766,13.719999999999999 768,13.719999999999999 770,13.719999999999999 772,13.719999999999999 774,13.719999999999999 776,13.719999999999999 778,13.719999999999999 780,13.719999999999999 782,13.719999999999999 784,13.719999999999999 786,13.719999999999999 788,13.719999999999999 790,13.719999999999999 792,13.719999999999999 794,13.719999999999999 796,11.439999999999984 798,9.160000000000013 800,6.840000000000002 802,3.440000000000021 804,3.440000000000021 806,3.440000000000021 808,3.440000000000021 810,3.440000000000021 812,3.440000000000021 814,3.440000000000021 816,1.1600000000000055 816,395.44" /></g><g class="player_lifelines"><polyline class="player_lifeline" points="0,30.76923076923077 284,30.76923076923077" /><polyline class="player_lifeline" points="306,30.76923076923077 434,30.76923076923077" /><polyline class="player_lifeline" points="448,30.76923076923077 494,30.76923076923077" /><polyline class="player_lifeline" points="514,30.76923076923077 596,30.76923076923077" /><polyline class="player_lifeline" points="612,30.76923076923077 816,30.76923076923077" /><polyline class="player_lifeline" points="0,61.53846153846154 704,61.53846153846154" /><polyline class="player_lifeline" points="720,61.53846153846154 808,61.53846153846154" /><polyline class="player_lifeline" points="816,61.53846153846154 816,61.53846153846154" /><polyline class="player_lifeline" points="0,92.3076923076923 128,92.3076923076923" /><polyline class="player_lifeline" points="148,92.3076923076923 316,92.3076923076923" /><polyline class="player_lifeline" points="332,92.3076923076923 816,92.3076923076923" /><polyline class="player_lifeline" points="0,123.07692307692308 624,123.07692307692308" /><polyline class="player_lifeline" points="642,123.07692307692308 816,123.07692307692308" /><polyline class="player_lifeline" points="0,153.84615384615384 290,153.84615384615384" /><polyline class="player_lifeline" points="306,153.84615384615384 816,153.84615384615384" /><polyline class="player_lifeline" points="0,184.6153846153846 610,184.6153846153846" /><polyline class="player_lifeline" points="630,184.6153846153846 816,184.6153846153846" /><polyline class="player_lifeline" points="0,215.3846153846154 80,215.3846153846154" /><polyline class="player_lifeline" points="88,215.3846153846154 174,215.3846153846154" /><polyline class="player_lifeline" points="190,215.3846153846154 292,215.3846153846154" /><polyline class="player_lifeline" points="326,215.3846153846154 366,215.3846153846154" /><polyline class="player_lifeline" points="380,215.3846153846154 418,215.3846153846154" /><polyline class="player_lifeline" points="438,215.3846153846154 610,215.3846153846154" /><polyline class="player_lifeline" points="630,215.3846153846154 752,215.3846153846154" /><polyline class="player_lifeline" points="770,215.3846153846154 792,215.3846153846154" /><polyline class="player_lifeline" points="812,215.3846153846154 816,215.3846153846154" /><polyline class="player_lifeline" points="0,246.15384615384616 144,246.15384615384616" /><polyline class="player_lifeline" points="164,246.15384615384616 342,246.15384615384616" /><polyline class="player_lifeline" points="354,246.15384615384616 458,246.15384615384616" /><polyline class="player_lifeline" points="468,246.15384615384616 724,246.15384615384616" /><polyline class="player_lifeline" points="742,246.15384615384616 768,246.15384615384616" /><polyline class="player_lifeline" points="788,246.15384615384616 806,246.15384615384616" /><polyline class="player_lifeline" points="816,246.15384615384616 816,246.15384615384616" /><polyline class="player_lifeline" points="0,276.9230769230769 178,276.9230769230769" /><polyline class="player_lifeline" points="196,276.9230769230769 334,276.9230769230769" /><polyline class="player_lifeline" points="352,276.9230769230769 754,276.9230769230769" /><polyline class="player_lifeline" points="760,276.9230769230769 780,276.9230769230769" /><polyline class="player_lifeline" points="796,276.9230769230769 816,276.9230769230769" /><polyline class="player_lifeline" points="0,307.6923076923077 148,307.6923076923077" /><polyline class="player_lifeline" points="166,307.6923076923077 340,307.6923076923077" /><polyline class="player_lifeline" points="352,307.6923076923077 786,307.6923076923077" /><polyline class="player_lifeline" points="802,307.6923076923077 816,307.6923076923077" /><polyline class="player_lifeline" points="0,338.46153846153845 158,338.46153846153845" /><polyline class="player_lifeline" points="180,338.46153846153845 212,338.46153846153845" /><polyline class="player_lifeline" points="224,338.46153846153845 292,338.46153846153845" /><polyline class="player_lifeline" points="304,338.46153846153845 516,338.46153846153845" /><polyline class="player_lifeline" points="536,338.46153846153845 810,338.46153846153845" /><polyline class="player_lifeline" points="816,338.46153846153845 816,338.46153846153845" /><polyline class="player_lifeline" points="0,369.2307692307692 162,369.2307692307692" /><polyline class="player_lifeline" points="182,369.2307692307692 302,369.2307692307692" /><polyline class="player_lifeline" points="318,369.2307692307692 556,369.2307692307692" /><polyline class="player_lifeline" points="570,369.2307692307692 764,369.2307692307692" /><polyline class="player_lifeline" points="778,369.2307692307692 794,369.2307692307692" /><polyline class="player_lifeline" points="814,369.2307692307692 816,369.2307692307692" /></g><g class="advantages"><polyline class="player_advantage" points="0,200.0 2,200.0 4,200.0 6,200.0 8,200.0 10,200.0 12,200.0 14,200.0 16,200.0 18,200.0 20,200.0 22,200.0 24,200.0 26,200.0 28,200.0 30,200.0 32,200.0 34,200.0 36,200.0 38,200.0 40,200.0 42,200.0 44,200.0 46,200.0 48,200.0 50,200.0 52,200.0 54,200.0 56,200.0 58,200.0 60,200.0 62,200.0 64,200.0 66,200.0 68,200.0 70,200.0 72,200.0 74,200.0 76,200.0 78,200.0 80,200.0 82,166.66666666666666 84,166.66666666666666 86,166.66666666666666 88,200.0 90,200.0 92,200.0 94,200.0 96,200.0 98,200.0 100,200.0 102,200.0 104,200.0 106,200.0 108,200.0 110,200.0 112,200.0 114,200.0 116,200.0 118,200.0 120,200.0 122,200.0 124,200.0 126,200.0 128,200.0 130,233.33333333333331 132,233.33333333333331 134,233.33333333333331 136,233.33333333333331 138,233.33333333333331 140,233.33333333333331 142,233.33333333333331 144,233.33333333333331 146,200.0 148,166.66666666666666 150,133.33333333333331 152,133.33333333333331 154,133.33333333333331 156,133.33333333333331 158,133.33333333333331 160,100.0 162,100.0 164,100.0 166,133.33333333333331 168,133.33333333333331 170,133.33333333333331 172,133.33333333333331 174,133.33333333333331 176,100.0 178,100.0 180,100.0 182,133.33333333333331 184,133.33333333333331 186,133.33333333333331 188,133.33333333333331 190,166.66666666666666 192,166.66666666666666 194,166.66666666666666 196,200.0 198,200.0 200,200.0 202,200.0 204,200.0 206,200.0 208,200.0 210,200.0 212,200.0 214,166.66666666666666 216,166.66666666666666 218,166.66666666666666 220,166.66666666666666 222,166.66666666666666 224,200.0 226,200.0 228,200.0 230,200.0 232,200.0 234,200.0 236,200.0 238,200.0 240,200.0" /><polyline class="player_advantage" points="252,200.0 254,200.0 256,200.0 258,200.0 260,200.0 262,200.0 264,200.0 266,200.0 268,200.0 270,200.0 272,200.0 274,200.0 276,200.0 278,200.0 280,200.0 282,200.0 284,200.0 286,233.33333333333331 288,233.33333333333331 290,233.33333333333331 292,266.66666666666663 294,200.0 296,200.0 298,200.0 300,200.0 302,200.0 304,200.0 306,133.33333333333331 308,133.33333333333331 310,133.33333333333331 312,133.33333333333331 314,133.33333333333331 316,133.33333333333331 318,200.0 320,200.0 322,200.0 324,200.0 326,233.33333333333331 328,233.33333333333331 330,233.33333333333331 332,200.0 334,200.0 336,166.66666666666666 338,166.66666666666666 340,166.66666666666666 342,133.33333333333331 344,100.0 346,100.0 348,100.0 350,100.0 352,166.66666666666666 354,200.0 356,200.0 358,200.0 360,200.0 362,200.0 364,200.0 366,200.0 368,166.66666666666666 370,166.66666666666666 372,166.66666666666666 374,166.66666666666666 376,166.66666666666666 378,166.66666666666666 380,200.0 382,200.0 384,200.0 386,200.0 388,200.0 390,200.0 392,200.0 394,200.0 396,200.0 398,200.0 400,200.0 402,200.0 404,200.0 406,200.0 408,200.0 410,200.0 412,200.0 414,200.0 416,200.0 418,200.0 420,166.66666666666666 422,166.66666666666666 424,166.66666666666666 426,166.66666666666666 428,166.66666666666666 430,166.66666666666666 432,166.66666666666666 434,166.66666666666666 436,200.0 438,233.33333333333331 440,233.33333333333331 442,233.33333333333331 444,233.33333333333331 446,233.33333333333331 448,200.0 450,200.0 452,200.0 454,200.0 456,200.0 458,200.0 460,166.66666666666666 462,166.66666666666666 464,166.66666666666666 466,166.66666666666666 468,200.0 470,200.0 472,200.0 474,200.0 476,200.0 478,200.0 480,200.0 482,200.0 484,200.0 486,200.0 488,200.0 490,200.0 492,200.0 494,200.0 496,233.33333333333331 498,233.33333333333331 500,233.33333333333331 502,233.33333333333331 504,233.33333333333331 506,233.33333333333331 508,233.33333333333331 510,233.33333333333331 512,233.33333333333331 514,200.0 516,200.0 518,166.66666666666666 520,166.66666666666666 522,166.66666666666666 524,166.66666666666666 526,166.66666666666666 528,166.66666666666666 530,166.66666666666666 532,166.66666666666666 534,166.66666666666666 536,200.0 538,200.0 540,200.0 542,200.0 544,200.0 546,200.0 548,200.0 550,200.0 552,200.0 554,200.0 556,200.0 558,166.66666666666666 560,166.66666666666666 562,166.66666666666666 564,166.66666666666666 566,166.66666666666666 568,166.66666666666666 570,200.0 572,200.0 574,200.0 576,200.0 578,200.0 580,200.0 582,200.0 584,200.0 586,200.0 588,200.0 590,200.0 592,200.0 594,200.0 596,200.0 598,233.33333333333331 600,233.33333333333331 602,233.33333333333331 604,233.33333333333331 606,233.33333333333331 608,233.33333333333331 610,233.33333333333331 612,200.0 614,200.0 616,200.0 618,200.0 620,200.0 622,200.0 624,200.0 626,233.33333333333331 628,233.33333333333331 630,233.33333333333331 632,233.33333333333331 634,233.33333333333331 636,233.33333333333331 638,233.33333333333331 640,233.33333333333331 642,200.0 644,200.0 646,200.0 648,200.0 650,200.0 652,200.0 654,200.0 656,200.0 658,200.0 660,200.0 662,200.0 664,200.0 666,200.0 668,200.0 670,200.0 672,200.0 674,200.0 676,200.0 678,200.0 680,200.0 682,200.0 684,200.0 686,200.0 688,200.0 690,200.0 692,200.0 694,200.0 696,200.0 698,200.0 700,200.0 702,200.0 704,200.0 706,233.33333333333331 708,233.33333333333331 710,233.33333333333331 712,233.33333333333331 714,233.33333333333331 716,233.33333333333331 718,233.33333333333331 720,200.0 722,200.0 724,200.0 726,166.66666666666666 728,166.66666666666666 730,166.66666666666666 732,166.66666666666666 734,166.66666666666666 736,166.66666666666666 738,166.66666666666666 740,166.66666666666666 742,200.0 744,200.0 746,200.0 748,200.0 750,200.0 752,200.0 754,166.66666666666666 756,133.33333333333331 758,133.33333333333331 760,166.66666666666666 762,166.66666666666666 764,166.66666666666666 766,133.33333333333331 768,133.33333333333331 770,133.33333333333331 772,133.33333333333331 774,133.33333333333331 776,133.33333333333331 778,166.66666666666666 780,166.66666666666666 782,133.33333333333331 784,133.33333333333331 786,133.33333333333331 788,133.33333333333331 790,133.33333333333331 792,133.33333333333331 794,100.0 796,100.0 798,100.0 800,100.0 802,133.33333333333331 804,133.33333333333331 806,133.33333333333331 808,100.0 810,133.33333333333331 812,133.33333333333331 814,166.66666666666666 816,166.66666666666666 816,200.0" /></g><g class="minute_ref"><line class="minute_ref_line" x1="120" x2="120" y1="0" y2="400" /><text x="120" y="420">1:00</text><line class="minute_ref_line" x1="240" x2="240" y1="0" y2="400" /><text x="240" y="420">2:00</text><line class="minute_ref_line" x1="360" x2="360" y1="0" y2="400" /><text x="360" y="420">3:00</text><line class="minute_ref_line" x1="480" x2="480" y1="0" y2="400" /><text x="480" y="420">4:00</text><line class="minute_ref_line" x1="600" x2="600" y1="0" y2="400" /><text x="600" y="420">5:00</text><line class="minute_ref_line" x1="720" x2="720" y1="0" y2="400" /><text x="720" y="420">6:00</text></g></g></svg>