<?xml version="1.0" encoding="utf-8" ?>
<svg baseProfile="full" height="100%" version="1.1" width="100%" xmlns="http://www.w3.org/2000/svg" xmlns:ev="http://www.w3.org/2001/xml-events" xmlns:xlink="http://www.w3.org/1999/xlink"><defs><style type="text/css"><![CDATA[
.player_lifelines {
  display: none
}

.player_lifeline {
  fill:none;
  stroke: green;
  stroke-width: 1;
  display: inline
}

.graph_border {
  fill: none;
  stroke: black;
}

.minute_ref_line {
  stroke: gray;
  stroke-width: 1;
  stroke-dasharray: 1,4
}

.progress_target_line {
  stroke: gray;
  stroke_width: 1;
  stroke-dasharray: 3,1
}

.progress_completion_line {
  stroke: gray;
  stroke_width: 1
}



        .replay_area {
        fill:lightgray;
        stroke: lightgray;
        stroke-width: 0
        }
        
        .payload_progress {
        fill:none;
        stroke: blue;
        stroke-width: 2
        }
        
        .player_advantage {
        fill:none;
        stroke: red;
        stroke-width: 1
        }
        ]]></style></defs><text x="10" y="20">Philadelphia Fusion at Boston Uprising on route-66 round 2</text><g class="graph" transform="translate(10, 45)"><rect class="graph_border" height="400" width="1012" x="0" y="0" /><g class="replays"><rect class="replay_area" height="400" width="18" x="224" y="0" /><rect class="replay_area" height="400" width="18" x="550" y="0" /></g><g class="minute_ref"><line class="minute_ref_line" x1="120" x2="120" y1="0" y2="400" /><text x="120" y="420">1:00</text><line class="minute_ref_line" x1="240" x2="240" y1="0" y2="400" /><text x="240" y="420">2:00</text><line class="minute_ref_line" x1="360" x2="360" y1="0" y2="400" /><text x="360" y="420">3:00</text><line class="minute_ref_line" x1="480" x2="480" y1="0" y2="400" /><text x="480" y="420">4:00</text><line class="minute_ref_line" x1="600" x2="600" y1="0" y2="400" /><text x="600" y="420">5:00</text><line class="minute_ref_line" x1="720" x2="720" y1="0" y2="400" /><text x="720" y="420">6:00</text><line class="minute_ref_line" x1="840" x2="840" y1="0" y2="400" /><text x="840" y="420">7:00</text><line class="minute_ref_line" x1="960" x2="960" y1="0" y2="400" /><text x="960" y="420">8:00</text></g><g class="player_lifelines"><polyline class="player_lifeline" points="0,30.76923076923077 206,30.76923076923077" /><polyline class="player_lifeline" points="242,30.76923076923077 502,30.76923076923077" /><polyline class="player_lifeline" points="522,30.76923076923077 1012,30.76923076923077" /><polyline class="player_lifeline" points="0,61.53846153846154 186,61.53846153846154" /><polyline class="player_lifeline" points="190,61.53846153846154 362,61.53846153846154" /><polyline class="player_lifeline" points="382,61.53846153846154 428,61.53846153846154" /><polyline class="player_lifeline" points="448,61.53846153846154 506,61.53846153846154" /><polyline class="player_lifeline" points="520,61.53846153846154 688,61.53846153846154" /><polyline class="player_lifeline" points="702,61.53846153846154 750,61.53846153846154" /><polyline class="player_lifeline" points="764,61.53846153846154 960,61.53846153846154" /><polyline class="player_lifeline" points="980,61.53846153846154 1012,61.53846153846154" /><polyline class="player_lifeline" points="0,92.3076923076923 84,92.3076923076923" /><polyline class="player_lifeline" points="106,92.3076923076923 184,92.3076923076923" /><polyline class="player_lifeline" points="190,92.3076923076923 362,92.3076923076923" /><polyline class="player_lifeline" points="372,92.3076923076923 450,92.3076923076923" /><polyline class="player_lifeline" points="458,92.3076923076923 512,92.3076923076923" /><polyline class="player_lifeline" points="522,92.3076923076923 664,92.3076923076923" /><polyline class="player_lifeline" points="684,92.3076923076923 1012,92.3076923076923" /><polyline class="player_lifeline" points="0,123.07692307692308 178,123.07692307692308" /><polyline class="player_lifeline" points="190,123.07692307692308 338,123.07692307692308" /><polyline class="player_lifeline" points="356,123.07692307692308 462,123.07692307692308" /><polyline class="player_lifeline" points="482,123.07692307692308 526,123.07692307692308" /><polyline class="player_lifeline" points="568,123.07692307692308 696,123.07692307692308" /><polyline class="player_lifeline" points="714,123.07692307692308 1012,123.07692307692308" /><polyline class="player_lifeline" points="0,153.84615384615384 174,153.84615384615384" /><polyline class="player_lifeline" points="190,153.84615384615384 314,153.84615384615384" /><polyline class="player_lifeline" points="330,153.84615384615384 474,153.84615384615384" /><polyline class="player_lifeline" points="494,153.84615384615384 1012,153.84615384615384" /><polyline class="player_lifeline" points="0,184.6153846153846 174,184.6153846153846" /><polyline class="player_lifeline" points="188,184.6153846153846 344,184.6153846153846" /><polyline class="player_lifeline" points="356,184.6153846153846 502,184.6153846153846" /><polyline class="player_lifeline" points="522,184.6153846153846 680,184.6153846153846" /><polyline class="player_lifeline" points="696,184.6153846153846 1012,184.6153846153846" /><polyline class="player_lifeline" points="0,215.3846153846154 460,215.3846153846154" /><polyline class="player_lifeline" points="480,215.3846153846154 762,215.3846153846154" /><polyline class="player_lifeline" points="780,215.3846153846154 880,215.3846153846154" /><polyline class="player_lifeline" points="892,215.3846153846154 982,215.3846153846154" /><polyline class="player_lifeline" points="1008,215.3846153846154 1012,215.3846153846154" /><polyline class="player_lifeline" points="0,246.15384615384616 158,246.15384615384616" /><polyline class="player_lifeline" points="170,246.15384615384616 340,246.15384615384616" /><polyline class="player_lifeline" points="356,246.15384615384616 740,246.15384615384616" /><polyline class="player_lifeline" points="756,246.15384615384616 960,246.15384615384616" /><polyline class="player_lifeline" points="970,246.15384615384616 1000,246.15384615384616" /><polyline class="player_lifeline" points="1012,246.15384615384616 1012,246.15384615384616" /><polyline class="player_lifeline" points="0,276.9230769230769 276,276.9230769230769" /><polyline class="player_lifeline" points="296,276.9230769230769 508,276.9230769230769" /><polyline class="player_lifeline" points="528,276.9230769230769 576,276.9230769230769" /><polyline class="player_lifeline" points="594,276.9230769230769 878,276.9230769230769" /><polyline class="player_lifeline" points="898,276.9230769230769 1010,276.9230769230769" /><polyline class="player_lifeline" points="1012,276.9230769230769 1012,276.9230769230769" /><polyline class="player_lifeline" points="0,307.6923076923077 294,307.6923076923077" /><polyline class="player_lifeline" points="314,307.6923076923077 776,307.6923076923077" /><polyline class="player_lifeline" points="788,307.6923076923077 906,307.6923076923077" /><polyline class="player_lifeline" points="926,307.6923076923077 1006,307.6923076923077" /><polyline class="player_lifeline" points="1012,307.6923076923077 1012,307.6923076923077" /><polyline class="player_lifeline" points="0,338.46153846153845 272,338.46153846153845" /><polyline class="player_lifeline" points="292,338.46153846153845 608,338.46153846153845" /><polyline class="player_lifeline" points="628,338.46153846153845 772,338.46153846153845" /><polyline class="player_lifeline" points="784,338.46153846153845 1002,338.46153846153845" /><polyline class="player_lifeline" points="1012,338.46153846153845 1012,338.46153846153845" /><polyline class="player_lifeline" points="0,369.2307692307692 274,369.2307692307692" /><polyline class="player_lifeline" points="294,369.2307692307692 490,369.2307692307692" /><polyline class="player_lifeline" points="510,369.2307692307692 758,369.2307692307692" /><polyline class="player_lifeline" points="778,369.2307692307692 870,369.2307692307692" /><polyline class="player_lifeline" points="890,369.2307692307692 990,369.2307692307692" /><polyline class="player_lifeline" points="1012,369.2307692307692 1012,369.2307692307692" /></g><g class="progress"><polyline class="payload_progress" points="0,400 0,400.0 2,400.0 4,400.0 6,400.0 8,400.0 10,397.71999999999997 12,393.16 14,388.56 16,388.56 18,386.28 20,385.15999999999997 22,384.0 24,377.15999999999997 26,377.15999999999997 28,372.56 30,370.28 32,365.72 34,365.72 36,361.16 38,361.16 40,361.16 42,360.0 44,358.84000000000003 46,356.56 48,353.16 50,349.71999999999997 52,347.44 54,345.16 56,345.16 58,338.28000000000003 60,338.28000000000003 62,337.15999999999997 64,331.44 66,329.15999999999997 68,329.15999999999997 70,324.56 72,322.28 74,320.0 76,320.0 78,320.0 80,320.0 82,320.0 84,320.0 86,320.0 88,315.44 90,313.16 92,313.16 94,313.16 96,310.84000000000003 98,310.84000000000003 100,306.28000000000003 102,304.0 104,304.0 106,301.71999999999997 108,301.71999999999997 110,297.16 112,294.84 114,293.71999999999997 116,290.28000000000003 118,288.0 120,283.44 122,281.16 124,278.84000000000003 126,276.56 128,274.28 130,274.28 132,274.28 134,274.28 136,274.28 138,274.28 140,274.28 142,274.28 144,274.28 146,274.28 148,274.28 150,272.0 152,272.0 154,272.0 156,272.0 158,272.0 160,272.0 162,272.0 164,272.0 166,272.0 168,272.0 170,272.0 172,272.0 174,272.0 176,272.0 178,270.84000000000003 180,269.72 182,267.44000000000005 184,267.44000000000005 186,267.44000000000005 188,267.44000000000005 190,267.44000000000005 192,267.44000000000005 194,267.44000000000005 196,265.16 198,265.16 200,265.16 202,265.16 204,265.16 206,265.16 208,265.16 210,265.16 212,265.16 214,265.16 216,267.44000000000005" /><polyline class="payload_progress" points="242,237.72000000000003 244,233.16 246,230.83999999999997 248,228.56 250,224.00000000000003 252,219.44 254,219.44 256,219.44 258,217.15999999999997 260,214.84 262,212.56 264,211.44 266,210.28000000000003 268,210.28000000000003 270,210.28000000000003 272,210.28000000000003 274,210.28000000000003 276,210.28000000000003 278,210.28000000000003 280,210.28000000000003 282,210.28000000000003 284,210.28000000000003 286,210.28000000000003 288,210.28000000000003 290,210.28000000000003 292,210.28000000000003 294,210.28000000000003 296,210.28000000000003 298,210.28000000000003 300,210.28000000000003 302,211.44 304,214.84 306,214.84 308,214.84 310,214.84 312,214.84 314,214.84 316,214.84 318,214.84 320,214.84 322,214.84 324,214.84 326,214.84 328,214.84 330,214.84 332,214.84 334,212.56 336,212.56 338,212.56 340,212.56 342,212.56 344,210.28000000000003 346,210.28000000000003 348,208.0 350,205.72 352,203.43999999999997 354,201.16 356,201.16 358,201.16 360,201.16 362,201.16 364,201.16 366,197.71999999999997 368,196.55999999999997 370,192.0 372,189.72000000000003 374,187.44 376,184.0 378,182.83999999999997 380,180.56 382,178.28 384,173.72 386,173.72 388,169.16000000000003 390,169.16000000000003 392,164.56 394,162.27999999999997 396,162.27999999999997 398,157.72 400,156.56 402,153.16 404,150.84 406,148.55999999999997 408,146.28 410,144.0 412,141.71999999999997 414,139.44 416,137.16 418,137.16 420,137.16 422,134.83999999999997 424,134.83999999999997 426,134.83999999999997 428,132.56 430,130.28 432,127.99999999999999 434,127.99999999999999 436,127.99999999999999 438,127.99999999999999 440,127.99999999999999 442,127.99999999999999 444,127.99999999999999 446,127.99999999999999 448,127.99999999999999 450,127.99999999999999 452,127.99999999999999 454,127.99999999999999 456,127.99999999999999 458,127.99999999999999 460,127.99999999999999 462,127.99999999999999 464,127.99999999999999 466,127.99999999999999 468,127.99999999999999 470,127.99999999999999 472,127.99999999999999 474,127.99999999999999 476,127.99999999999999 478,127.99999999999999 480,127.99999999999999 482,127.99999999999999 484,127.99999999999999 486,127.99999999999999 488,127.99999999999999 490,127.99999999999999 492,127.99999999999999 494,125.72000000000001 496,125.72000000000001 498,125.72000000000001 500,125.72000000000001 502,125.72000000000001 504,125.72000000000001 506,125.72000000000001 508,125.72000000000001 510,125.72000000000001 512,125.72000000000001 514,125.72000000000001 516,125.72000000000001 518,125.72000000000001 520,125.72000000000001 522,125.72000000000001 524,123.44 526,122.27999999999999 528,121.15999999999998 530,121.15999999999998 532,121.15999999999998 534,121.15999999999998 536,121.15999999999998 538,121.15999999999998 540,121.15999999999998 542,121.15999999999998" /><polyline class="payload_progress" points="568,105.16000000000001 570,102.84 572,100.55999999999999 574,97.16 576,93.71999999999998 578,91.44000000000001 580,91.44000000000001 582,91.44000000000001 584,91.44000000000001 586,91.44000000000001 588,91.44000000000001 590,91.44000000000001 592,86.83999999999999 594,85.72000000000001 596,85.72000000000001 598,85.72000000000001 600,84.56000000000002 602,85.72000000000001 604,84.56000000000002 606,84.56000000000002 608,84.56000000000002 610,84.56000000000002 612,84.56000000000002 614,84.56000000000002 616,84.56000000000002 618,84.56000000000002 620,84.56000000000002 622,84.56000000000002 624,84.56000000000002 626,84.56000000000002 628,84.56000000000002 630,84.56000000000002 632,84.56000000000002 634,84.56000000000002 636,84.56000000000002 638,82.28 640,79.99999999999999 642,77.72000000000001 644,77.72000000000001 646,77.72000000000001 648,77.72000000000001 650,77.72000000000001 652,77.72000000000001 654,77.72000000000001 656,77.72000000000001 658,77.72000000000001 660,77.72000000000001 662,77.72000000000001 664,77.72000000000001 666,77.72000000000001 668,77.72000000000001 670,77.72000000000001 672,77.72000000000001 674,75.44 676,75.44 678,75.44 680,75.44 682,75.44 684,75.44 686,75.44 688,75.44 690,75.44 692,75.44 694,75.44 696,75.44 698,70.84000000000002 700,70.84000000000002 702,68.56 704,66.27999999999999 706,64.00000000000001 708,57.16000000000001 710,54.84 712,54.84 714,52.55999999999999 716,48.0 718,45.719999999999985 720,43.44000000000001 722,38.83999999999999 724,38.83999999999999 726,36.56000000000002 728,31.999999999999986 730,29.720000000000013 732,27.439999999999998 734,27.439999999999998 736,25.159999999999982 738,25.159999999999982 740,25.159999999999982 742,25.159999999999982 744,25.159999999999982 746,25.159999999999982 748,25.159999999999982 750,25.159999999999982 752,25.159999999999982 754,25.159999999999982 756,25.159999999999982 758,25.159999999999982 760,25.159999999999982 762,25.159999999999982 764,25.159999999999982 766,25.159999999999982 768,25.159999999999982 770,25.159999999999982 772,25.159999999999982 774,25.159999999999982 776,25.159999999999982 778,25.159999999999982 780,27.439999999999998 782,27.439999999999998 784,27.439999999999998 786,29.720000000000013 788,31.999999999999986 790,31.999999999999986 792,33.15999999999999 794,33.15999999999999 796,34.28 798,34.28 800,34.28 802,34.28 804,34.28 806,34.28 808,36.56000000000002 810,36.56000000000002 812,36.56000000000002 814,36.56000000000002 816,36.56000000000002 818,36.56000000000002 820,36.56000000000002 822,36.56000000000002 824,36.56000000000002 826,36.56000000000002 828,36.56000000000002 830,36.56000000000002 832,31.999999999999986 834,31.999999999999986 836,31.999999999999986 838,31.999999999999986 840,27.439999999999998 842,22.840000000000018 844,22.840000000000018 846,18.279999999999987 848,18.279999999999987 850,16.000000000000014 852,16.000000000000014 854,16.000000000000014 856,16.000000000000014 858,13.719999999999999 860,13.719999999999999 862,13.719999999999999 864,13.719999999999999 866,13.719999999999999 868,13.719999999999999 870,13.719999999999999 872,13.719999999999999 874,13.719999999999999 876,13.719999999999999 878,13.719999999999999 880,13.719999999999999 882,13.719999999999999 884,13.719999999999999 886,13.719999999999999 888,13.719999999999999 890,13.719999999999999 892,13.719999999999999 894,13.719999999999999 896,13.719999999999999 898,13.719999999999999 900,13.719999999999999 902,13.719999999999999 904,16.000000000000014 906,16.000000000000014 908,16.000000000000014 910,18.279999999999987 912,18.279999999999987 914,18.279999999999987 916,18.279999999999987 918,18.279999999999987 920,18.279999999999987 922,18.279999999999987 924,20.560000000000002 926,20.560000000000002 928,20.560000000000002 930,20.560000000000002 932,20.560000000000002 934,22.840000000000018 936,22.840000000000018 938,22.840000000000018 940,22.840000000000018 942,22.840000000000018 944,22.840000000000018 946,25.159999999999982 948,25.159999999999982 950,27.439999999999998 952,27.439999999999998 954,27.439999999999998 956,27.439999999999998 958,27.439999999999998 960,27.439999999999998 962,27.439999999999998 964,27.439999999999998 966,27.439999999999998 968,27.439999999999998 970,27.439999999999998 972,25.159999999999982 974,22.840000000000018 976,22.840000000000018 978,22.840000000000018 980,22.840000000000018 982,22.840000000000018 984,22.840000000000018 986,20.560000000000002 988,20.560000000000002 990,20.560000000000002 992,20.560000000000002 994,18.279999999999987 996,18.279999999999987 998,18.279999999999987 1000,18.279999999999987 1002,18.279999999999987 1004,18.279999999999987 1006,18.279999999999987 1008,18.279999999999987 1010,18.279999999999987 1012,400.0 1012,400.0" /></g><g class="completion"><line class="progress_target_line" x1="150" x2="150" y1="0" y2="272.0" /><line class="progress_completion_line" x1="0" x2="150" y1="272.0" y2="272.0" /><text x="150" y="-5">01:15</text><line class="progress_target_line" x1="422" x2="422" y1="0" y2="134.83999999999997" /><line class="progress_completion_line" x1="150" x2="422" y1="134.83999999999997" y2="134.83999999999997" /><text x="422" y="-5">03:31</text></g><g class="advantages"><polyline class="player_advantage" points="0,200.0 2,200.0 4,200.0 6,200.0 8,200.0 10,200.0 12,200.0 14,200.0 16,200.0 18,200.0 20,200.0 22,200.0 24,200.0 26,200.0 28,200.0 30,200.0 32,200.0 34,200.0 36,200.0 38,200.0 40,200.0 42,200.0 44,200.0 46,200.0 48,200.0 50,200.0 52,200.0 54,200.0 56,200.0 58,200.0 60,200.0 62,200.0 64,200.0 66,200.0 68,200.0 70,200.0 72,200.0 74,200.0 76,200.0 78,200.0 80,200.0 82,200.0 84,200.0 86,233.33333333333331 88,233.33333333333331 90,233.33333333333331 92,233.33333333333331 94,233.33333333333331 96,233.33333333333331 98,233.33333333333331 100,233.33333333333331 102,233.33333333333331 104,233.33333333333331 106,200.0 108,200.0 110,200.0 112,200.0 114,200.0 116,200.0 118,200.0 120,200.0 122,200.0 124,200.0 126,200.0 128,200.0 130,200.0 132,200.0 134,200.0 136,200.0 138,200.0 140,200.0 142,200.0 144,200.0 146,200.0 148,200.0 150,200.0 152,200.0 154,200.0 156,200.0 158,200.0 160,166.66666666666666 162,166.66666666666666 164,166.66666666666666 166,166.66666666666666 168,166.66666666666666 170,200.0 172,200.0 174,200.0 176,266.66666666666663 178,266.66666666666663 180,300.0 182,300.0 184,300.0 186,333.3333333333333 188,333.3333333333333 190,200.0 192,200.0 194,200.0 196,200.0 198,200.0 200,200.0 202,200.0 204,200.0 206,200.0 208,233.33333333333331 210,233.33333333333331 212,233.33333333333331 214,233.33333333333331 216,233.33333333333331" /><polyline class="player_advantage" points="242,200.0 244,200.0 246,200.0 248,200.0 250,200.0 252,200.0 254,200.0 256,200.0 258,200.0 260,200.0 262,200.0 264,200.0 266,200.0 268,200.0 270,200.0 272,200.0 274,166.66666666666666 276,133.33333333333331 278,100.0 280,100.0 282,100.0 284,100.0 286,100.0 288,100.0 290,100.0 292,133.33333333333331 294,166.66666666666666 296,166.66666666666666 298,166.66666666666666 300,166.66666666666666 302,166.66666666666666 304,166.66666666666666 306,166.66666666666666 308,166.66666666666666 310,166.66666666666666 312,166.66666666666666 314,200.0 316,233.33333333333331 318,233.33333333333331 320,233.33333333333331 322,233.33333333333331 324,233.33333333333331 326,233.33333333333331 328,233.33333333333331 330,200.0 332,200.0 334,200.0 336,200.0 338,200.0 340,233.33333333333331 342,200.0 344,200.0 346,233.33333333333331 348,233.33333333333331 350,233.33333333333331 352,233.33333333333331 354,233.33333333333331 356,200.0 358,200.0 360,200.0 362,200.0 364,266.66666666666663 366,266.66666666666663 368,266.66666666666663 370,266.66666666666663 372,233.33333333333331 374,233.33333333333331 376,233.33333333333331 378,233.33333333333331 380,233.33333333333331 382,200.0 384,200.0 386,200.0 388,200.0 390,200.0 392,200.0 394,200.0 396,200.0 398,200.0 400,200.0 402,200.0 404,200.0 406,200.0 408,200.0 410,200.0 412,200.0 414,200.0 416,200.0 418,200.0 420,200.0 422,200.0 424,200.0 426,200.0 428,200.0 430,233.33333333333331 432,233.33333333333331 434,233.33333333333331 436,233.33333333333331 438,233.33333333333331 440,233.33333333333331 442,233.33333333333331 444,233.33333333333331 446,233.33333333333331 448,200.0 450,200.0 452,233.33333333333331 454,233.33333333333331 456,233.33333333333331 458,200.0 460,200.0 462,166.66666666666666 464,200.0 466,200.0 468,200.0 470,200.0 472,200.0 474,200.0 476,233.33333333333331 478,233.33333333333331 480,266.66666666666663 482,233.33333333333331 484,233.33333333333331 486,233.33333333333331 488,233.33333333333331 490,233.33333333333331 492,200.0 494,166.66666666666666 496,166.66666666666666 498,166.66666666666666 500,166.66666666666666 502,166.66666666666666 504,233.33333333333331 506,233.33333333333331 508,266.66666666666663 510,266.66666666666663 512,266.66666666666663 514,300.0 516,300.0 518,300.0 520,266.66666666666663 522,166.66666666666666 524,166.66666666666666 526,166.66666666666666 528,233.33333333333331 530,233.33333333333331 532,233.33333333333331 534,233.33333333333331 536,233.33333333333331 538,233.33333333333331 540,233.33333333333331 542,233.33333333333331" /><polyline class="player_advantage" points="568,200.0 570,200.0 572,200.0 574,200.0 576,200.0 578,166.66666666666666 580,166.66666666666666 582,166.66666666666666 584,166.66666666666666 586,166.66666666666666 588,166.66666666666666 590,166.66666666666666 592,166.66666666666666 594,200.0 596,200.0 598,200.0 600,200.0 602,200.0 604,200.0 606,200.0 608,200.0 610,166.66666666666666 612,166.66666666666666 614,166.66666666666666 616,166.66666666666666 618,166.66666666666666 620,166.66666666666666 622,166.66666666666666 624,166.66666666666666 626,166.66666666666666 628,200.0 630,200.0 632,200.0 634,200.0 636,200.0 638,200.0 640,200.0 642,200.0 644,200.0 646,200.0 648,200.0 650,200.0 652,200.0 654,200.0 656,200.0 658,200.0 660,200.0 662,200.0 664,200.0 666,233.33333333333331 668,233.33333333333331 670,233.33333333333331 672,233.33333333333331 674,233.33333333333331 676,233.33333333333331 678,233.33333333333331 680,233.33333333333331 682,266.66666666666663 684,233.33333333333331 686,233.33333333333331 688,233.33333333333331 690,266.66666666666663 692,266.66666666666663 694,266.66666666666663 696,233.33333333333331 698,266.66666666666663 700,266.66666666666663 702,233.33333333333331 704,233.33333333333331 706,233.33333333333331 708,233.33333333333331 710,233.33333333333331 712,233.33333333333331 714,200.0 716,200.0 718,200.0 720,200.0 722,200.0 724,200.0 726,200.0 728,200.0 730,200.0 732,200.0 734,200.0 736,200.0 738,200.0 740,200.0 742,166.66666666666666 744,166.66666666666666 746,166.66666666666666 748,166.66666666666666 750,166.66666666666666 752,200.0 754,200.0 756,233.33333333333331 758,233.33333333333331 760,200.0 762,200.0 764,133.33333333333331 766,133.33333333333331 768,133.33333333333331 770,133.33333333333331 772,133.33333333333331 774,100.0 776,100.0 778,100.0 780,133.33333333333331 782,133.33333333333331 784,166.66666666666666 786,166.66666666666666 788,200.0 790,200.0 792,200.0 794,200.0 796,200.0 798,200.0 800,200.0 802,200.0 804,200.0 806,200.0 808,200.0 810,200.0 812,200.0 814,200.0 816,200.0 818,200.0 820,200.0 822,200.0 824,200.0 826,200.0 828,200.0 830,200.0 832,200.0 834,200.0 836,200.0 838,200.0 840,200.0 842,200.0 844,200.0 846,200.0 848,200.0 850,200.0 852,200.0 854,200.0 856,200.0 858,200.0 860,200.0 862,200.0 864,200.0 866,200.0 868,200.0 870,200.0 872,166.66666666666666 874,166.66666666666666 876,166.66666666666666 878,166.66666666666666 880,133.33333333333331 882,100.0 884,100.0 886,100.0 888,100.0 890,133.33333333333331 892,166.66666666666666 894,166.66666666666666 896,166.66666666666666 898,200.0 900,200.0 902,200.0 904,200.0 906,200.0 908,166.66666666666666 910,166.66666666666666 912,166.66666666666666 914,166.66666666666666 916,166.66666666666666 918,166.66666666666666 920,166.66666666666666 922,166.66666666666666 924,166.66666666666666 926,200.0 928,200.0 930,200.0 932,200.0 934,200.0 936,200.0 938,200.0 940,200.0 942,200.0 944,200.0 946,200.0 948,200.0 950,200.0 952,200.0 954,200.0 956,200.0 958,200.0 960,200.0 962,200.0 964,200.0 966,200.0 968,200.0 970,233.33333333333331 972,233.33333333333331 974,233.33333333333331 976,233.33333333333331 978,233.33333333333331 980,200.0 982,200.0 984,166.66666666666666 986,166.66666666666666 988,166.66666666666666 990,166.66666666666666 992,133.33333333333331 994,133.33333333333331 996,133.33333333333331 998,133.33333333333331 1000,133.33333333333331 1002,100.0 1004,66.66666666666663 1006,66.66666666666663 1008,66.66666666666663 1010,66.66666666666663 1012,33.333333333333314 1012,200.0" /></g></g></svg>