<?xml version="1.0" encoding="utf-8" ?>
<svg baseProfile="full" height="100%" version="1.1" width="100%" xmlns="http://www.w3.org/2000/svg" xmlns:ev="http://www.w3.org/2001/xml-events" xmlns:xlink="http://www.w3.org/1999/xlink"><defs><style type="text/css"><![CDATA[
.player_lifelines {
  display: none
}

.player_lifeline {
  fill:none;
  stroke: green;
  stroke-width: 1;
  display: inline
}

.graph_border {
  fill: none;
  stroke: black;
}

.minute_ref_line {
  stroke: gray;
  stroke-width: 1;
  stroke-dasharray: 1,4
}


        .fight_area {
        fill: lightyellow;
        stroke: gold;
        stroke-width: 1
        }
        
        .replay_area {
        fill:lightgray;
        stroke: lightgray;
        stroke-width: 0
        }
        
        .progress_target_line {
        stroke: gray;
        stroke_width: 1;
        stroke-dasharray: 3,1
        }

        .progress_completion_line {
        stroke: gray;
        stroke_width: 1
        }
        
        .payload_progress {
        fill:none;
        stroke: blue;
        stroke-width: 2
        }
        
        .player_advantage {
        fill:none;
        stroke: red;
        stroke-width: 1
        }
        ]]></style></defs><text x="10" y="20">Los Angeles Gladiators(A) at San Francisco Shock on gibraltar round 1</text><g class="graph" transform="translate(10, 45)"><rect class="graph_border" height="400" width="844" x="0" y="0" /><g class="fights"><rect class="fight_area" height="28.559999999999945" width="24" x="60" y="312.0" /><text x="60" y="312.0">#1 -3</text><rect class="fight_area" height="16.0" width="8" x="162" y="296.0" /><text x="162" y="296.0">#2 0</text><rect class="fight_area" height="74.28" width="12" x="204" y="221.72" /><text x="204" y="221.72">#3 4</text><rect class="fight_area" height="66.28000000000003" width="16" x="274" y="155.43999999999997" /><text x="274" y="155.43999999999997">#4 2</text><rect class="fight_area" height="9.159999999999968" width="40" x="338" y="150.28" /><text x="338" y="150.28">#5 -2</text><rect class="fight_area" height="13.719999999999999" width="16" x="424" y="154.28000000000003" /><text x="424" y="154.28000000000003">#6 -3</text><rect class="fight_area" height="9.160000000000025" width="2" x="508" y="164.0" /><text x="508" y="164.0">#7 -1</text><rect class="fight_area" height="10.279999999999973" width="40" x="660" y="169.16000000000003" /><text x="660" y="169.16000000000003">#8 -2</text><rect class="fight_area" height="220.56" width="90" x="754" y="179.44" /><text x="754" y="179.44">#9 -9</text></g><g class="replays"><rect class="replay_area" height="398" width="6" x="54" y="1" /><rect class="replay_area" height="398" width="18" x="108" y="1" /><rect class="replay_area" height="398" width="14" x="246" y="1" /><rect class="replay_area" height="398" width="4" x="586" y="1" /><rect class="replay_area" height="398" width="16" x="732" y="1" /></g><g class="completion"><line class="progress_target_line" x1="224" x2="224" y1="0.0" y2="270.84000000000003" /><line class="progress_completion_line" x1="0" x2="224" y1="270.84000000000003" y2="270.84000000000003" /><text x="224" y="-5">01:52</text></g><g class="progress"><polyline class="payload_progress" points="0,400 2,400.0 4,400.0 6,400.0 8,400.0 10,398.84 12,395.44 14,394.28000000000003 16,390.84 18,388.56 20,385.15999999999997 22,381.72 24,379.44 26,376.0 28,374.84000000000003 30,370.28 32,366.84000000000003 34,364.56 36,361.16 38,361.16 40,361.16 42,358.84000000000003 44,356.56 46,353.16" /><polyline class="payload_progress" points="60,340.55999999999995 62,340.55999999999995 64,340.55999999999995 66,340.55999999999995 68,340.55999999999995 70,340.55999999999995 72,338.28000000000003 74,336.0 76,333.72 78,331.44 80,329.15999999999997 82,329.15999999999997 84,329.15999999999997 86,329.15999999999997 88,329.15999999999997 90,329.15999999999997 92,329.15999999999997 94,329.15999999999997 96,329.15999999999997 98,329.15999999999997 100,329.15999999999997" /><polyline class="payload_progress" points="126,336.0 128,336.0 130,336.0 132,336.0 134,336.0 136,336.0 138,336.0 140,336.0 142,336.0 144,336.0 146,332.56 148,330.28 150,326.84 152,324.56 154,321.15999999999997 156,317.72 158,315.44 160,313.16 162,312.0 164,309.71999999999997 166,309.71999999999997 168,309.71999999999997 170,309.71999999999997 172,309.71999999999997 174,309.71999999999997 176,308.56 178,308.56 180,308.56 182,307.44 184,307.44 186,305.16 188,304.0 190,304.0 192,304.0 194,302.84 196,301.71999999999997 198,301.71999999999997 200,301.71999999999997 202,299.44 204,296.0 206,293.71999999999997 208,290.28000000000003 210,288.0 212,284.56 214,282.28 216,282.28 218,280.0 220,276.56 222,274.28 224,270.84000000000003 226,267.44000000000005 228,266.28 230,266.28 232,266.28 234,266.28 236,266.28 238,266.28" /><polyline class="payload_progress" points="260,240.0 262,236.55999999999997 264,234.28 266,232.00000000000003 268,229.72000000000003 270,226.28 272,224.00000000000003 274,221.72 276,220.56 278,219.44 280,217.15999999999997 282,214.84 284,211.44 286,210.28000000000003 288,209.15999999999997 290,209.15999999999997 292,209.15999999999997 294,209.15999999999997 296,206.84 298,203.43999999999997 300,201.16 302,198.84 304,195.44000000000003 306,192.0 308,188.56 310,185.16 312,181.72000000000003 314,178.28 316,174.84000000000003 318,171.44 320,168.00000000000003 322,164.56 324,161.16000000000003 326,158.84 328,157.72 330,157.72 332,156.56 334,155.43999999999997 336,155.43999999999997 338,155.43999999999997 340,155.43999999999997 342,155.43999999999997 344,155.43999999999997 346,155.43999999999997 348,155.43999999999997 350,155.43999999999997 352,155.43999999999997 354,155.43999999999997 356,155.43999999999997 358,155.43999999999997 360,155.43999999999997 362,153.16 364,153.16 366,153.16 368,153.16 370,152.0 372,152.0 374,152.0 376,150.84 378,148.55999999999997 380,148.55999999999997 382,148.55999999999997 384,148.55999999999997 386,148.55999999999997 388,148.55999999999997 390,148.55999999999997 392,148.55999999999997 394,148.55999999999997 396,148.55999999999997 398,148.55999999999997 400,148.55999999999997 402,148.55999999999997 404,149.72 406,149.72 408,150.84 410,150.84 412,150.84 414,152.0 416,152.0 418,153.16 420,153.16 422,154.28000000000003 424,154.28000000000003 426,154.28000000000003 428,155.43999999999997 430,155.43999999999997 432,155.43999999999997 434,156.56 436,156.56 438,157.72 440,157.72 442,157.72 444,158.84 446,158.84 448,160.0 450,160.0 452,160.0 454,161.16000000000003 456,161.16000000000003 458,162.27999999999997 460,162.27999999999997 462,163.44 464,164.56 466,164.56 468,164.56 470,164.56 472,164.56 474,165.72 476,166.84 478,166.84 480,166.84 482,168.00000000000003 484,168.00000000000003 486,168.00000000000003 488,168.00000000000003 490,168.00000000000003 492,168.00000000000003 494,168.00000000000003 496,168.00000000000003 498,168.00000000000003 500,168.00000000000003 502,168.00000000000003 504,168.00000000000003 506,168.00000000000003 508,168.00000000000003 510,168.00000000000003 512,168.00000000000003 514,168.00000000000003 516,168.00000000000003 518,168.00000000000003 520,169.16000000000003 522,169.16000000000003 524,170.27999999999997 526,170.27999999999997 528,170.27999999999997 530,171.44 532,171.44 534,172.56 536,172.56 538,172.56 540,173.72 542,173.72 544,173.72 546,173.72 548,173.72 550,173.72 552,173.72 554,173.72 556,173.72 558,173.72 560,173.72 562,173.72 564,173.72 566,173.72 568,173.72 570,173.72 572,173.72 574,173.72 576,173.72 578,173.72" /><polyline class="payload_progress" points="590,173.72 592,173.72 594,173.72 596,173.72 598,173.72 600,173.72 602,173.72 604,173.72 606,173.72 608,173.72 610,173.72 612,173.72 614,173.72 616,173.72 618,173.72 620,173.72 622,173.72 624,173.72 626,173.72 628,173.72 630,173.72 632,172.56 634,172.56 636,172.56 638,172.56 640,171.44 642,171.44 644,169.16000000000003 646,169.16000000000003 648,169.16000000000003 650,169.16000000000003 652,169.16000000000003 654,169.16000000000003 656,169.16000000000003 658,169.16000000000003 660,169.16000000000003 662,169.16000000000003 664,169.16000000000003 666,169.16000000000003 668,169.16000000000003 670,169.16000000000003 672,169.16000000000003 674,169.16000000000003 676,169.16000000000003 678,169.16000000000003 680,169.16000000000003 682,169.16000000000003 684,169.16000000000003 686,169.16000000000003 688,169.16000000000003 690,169.16000000000003 692,169.16000000000003 694,169.16000000000003 696,169.16000000000003 698,169.16000000000003 700,169.16000000000003 702,169.16000000000003 704,169.16000000000003 706,169.16000000000003 708,169.16000000000003 710,169.16000000000003 712,169.16000000000003 714,170.27999999999997 716,170.27999999999997 718,170.27999999999997 720,170.27999999999997 722,170.27999999999997 724,170.27999999999997" /><polyline class="payload_progress" points="748,177.16 750,178.28 752,178.28 754,179.44 756,180.56 758,180.56 760,180.56 762,180.56 764,180.56 766,180.56 768,180.56 770,180.56 772,180.56 774,180.56 776,180.56 778,180.56 780,180.56 782,180.56 784,180.56 786,180.56 788,180.56 790,180.56 792,180.56 794,180.56 796,180.56 798,179.44 800,179.44 802,179.44 804,179.44 806,179.44 808,179.44 810,179.44 812,179.44 814,179.44 816,179.44 818,179.44 820,179.44 822,179.44 824,179.44 826,179.44 828,179.44 830,179.44 832,179.44 834,179.44 836,179.44 838,179.44 840,179.44 842,179.44 844,179.44 844,400.0" /></g><g class="player_lifelines"><polyline class="player_lifeline" points="0,30.76923076923077 66,30.76923076923077" /><polyline class="player_lifeline" points="86,30.76923076923077 346,30.76923076923077" /><polyline class="player_lifeline" points="368,30.76923076923077 438,30.76923076923077" /><polyline class="player_lifeline" points="458,30.76923076923077 506,30.76923076923077" /><polyline class="player_lifeline" points="526,30.76923076923077 698,30.76923076923077" /><polyline class="player_lifeline" points="718,30.76923076923077 770,30.76923076923077" /><polyline class="player_lifeline" points="790,30.76923076923077 838,30.76923076923077" /><polyline class="player_lifeline" points="844,30.76923076923077 844,30.76923076923077" /><polyline class="player_lifeline" points="0,61.53846153846154 82,61.53846153846154" /><polyline class="player_lifeline" points="126,61.53846153846154 376,61.53846153846154" /><polyline class="player_lifeline" points="394,61.53846153846154 690,61.53846153846154" /><polyline class="player_lifeline" points="710,61.53846153846154 752,61.53846153846154" /><polyline class="player_lifeline" points="756,61.53846153846154 756,61.53846153846154" /><polyline class="player_lifeline" points="772,61.53846153846154 830,61.53846153846154" /><polyline class="player_lifeline" points="844,61.53846153846154 844,61.53846153846154" /><polyline class="player_lifeline" points="0,92.3076923076923 842,92.3076923076923" /><polyline class="player_lifeline" points="844,92.3076923076923 844,92.3076923076923" /><polyline class="player_lifeline" points="0,123.07692307692308 46,123.07692307692308" /><polyline class="player_lifeline" points="80,123.07692307692308 658,123.07692307692308" /><polyline class="player_lifeline" points="678,123.07692307692308 778,123.07692307692308" /><polyline class="player_lifeline" points="798,123.07692307692308 830,123.07692307692308" /><polyline class="player_lifeline" points="844,123.07692307692308 844,123.07692307692308" /><polyline class="player_lifeline" points="0,153.84615384615384 370,153.84615384615384" /><polyline class="player_lifeline" points="390,153.84615384615384 430,153.84615384615384" /><polyline class="player_lifeline" points="448,153.84615384615384 794,153.84615384615384" /><polyline class="player_lifeline" points="820,153.84615384615384 844,153.84615384615384" /><polyline class="player_lifeline" points="0,184.6153846153846 168,184.6153846153846" /><polyline class="player_lifeline" points="182,184.6153846153846 364,184.6153846153846" /><polyline class="player_lifeline" points="384,184.6153846153846 422,184.6153846153846" /><polyline class="player_lifeline" points="444,184.6153846153846 808,184.6153846153846" /><polyline class="player_lifeline" points="834,184.6153846153846 844,184.6153846153846" /><polyline class="player_lifeline" points="0,215.3846153846154 208,215.3846153846154" /><polyline class="player_lifeline" points="230,215.3846153846154 844,215.3846153846154" /><polyline class="player_lifeline" points="0,246.15384615384616 202,246.15384615384616" /><polyline class="player_lifeline" points="220,246.15384615384616 272,246.15384615384616" /><polyline class="player_lifeline" points="292,246.15384615384616 844,246.15384615384616" /><polyline class="player_lifeline" points="0,276.9230769230769 208,276.9230769230769" /><polyline class="player_lifeline" points="214,276.9230769230769 288,276.9230769230769" /><polyline class="player_lifeline" points="308,276.9230769230769 370,276.9230769230769" /><polyline class="player_lifeline" points="388,276.9230769230769 668,276.9230769230769" /><polyline class="player_lifeline" points="688,276.9230769230769 844,276.9230769230769" /><polyline class="player_lifeline" points="0,307.6923076923077 214,307.6923076923077" /><polyline class="player_lifeline" points="234,307.6923076923077 844,307.6923076923077" /><polyline class="player_lifeline" points="0,338.46153846153845 160,338.46153846153845" /><polyline class="player_lifeline" points="178,338.46153846153845 336,338.46153846153845" /><polyline class="player_lifeline" points="354,338.46153846153845 780,338.46153846153845" /><polyline class="player_lifeline" points="794,338.46153846153845 844,338.46153846153845" /><polyline class="player_lifeline" points="0,369.2307692307692 844,369.2307692307692" /></g><g class="advantages"><polyline class="player_advantage" points="2,200.0 4,200.0 6,200.0 8,200.0 10,200.0 12,200.0 14,200.0 16,200.0 18,200.0 20,200.0 22,200.0 24,200.0 26,200.0 28,200.0 30,200.0 32,200.0 34,200.0 36,200.0 38,200.0 40,200.0 42,200.0 44,200.0 46,200.0" /><polyline class="player_advantage" points="60,233.33333333333331 62,233.33333333333331 64,233.33333333333331 66,233.33333333333331 68,266.66666666666663 70,266.66666666666663 72,266.66666666666663 74,266.66666666666663 76,266.66666666666663 78,266.66666666666663 80,233.33333333333331 82,233.33333333333331 84,266.66666666666663 86,233.33333333333331 88,233.33333333333331 90,233.33333333333331 92,233.33333333333331 94,233.33333333333331 96,233.33333333333331 98,233.33333333333331 100,233.33333333333331" /><polyline class="player_advantage" points="126,200.0 128,200.0 130,200.0 132,200.0 134,200.0 136,200.0 138,200.0 140,200.0 142,200.0 144,200.0 146,200.0 148,200.0 150,200.0 152,200.0 154,200.0 156,200.0 158,200.0 160,200.0 162,166.66666666666666 164,166.66666666666666 166,166.66666666666666 168,166.66666666666666 170,200.0 172,200.0 174,200.0 176,200.0 178,233.33333333333331 180,233.33333333333331 182,200.0 184,200.0 186,200.0 188,200.0 190,200.0 192,200.0 194,200.0 196,200.0 198,200.0 200,200.0 202,200.0 204,166.66666666666666 206,166.66666666666666 208,166.66666666666666 210,100.0 212,100.0 214,133.33333333333331 216,100.0 218,100.0 220,133.33333333333331 222,133.33333333333331 224,133.33333333333331 226,133.33333333333331 228,133.33333333333331 230,166.66666666666666 232,166.66666666666666 234,200.0 236,200.0 238,200.0" /><polyline class="player_advantage" points="260,200.0 262,200.0 264,200.0 266,200.0 268,200.0 270,200.0 272,200.0 274,166.66666666666666 276,166.66666666666666 278,166.66666666666666 280,166.66666666666666 282,166.66666666666666 284,166.66666666666666 286,166.66666666666666 288,166.66666666666666 290,133.33333333333331 292,166.66666666666666 294,166.66666666666666 296,166.66666666666666 298,166.66666666666666 300,166.66666666666666 302,166.66666666666666 304,166.66666666666666 306,166.66666666666666 308,200.0 310,200.0 312,200.0 314,200.0 316,200.0 318,200.0 320,200.0 322,200.0 324,200.0 326,200.0 328,200.0 330,200.0 332,200.0 334,200.0 336,200.0 338,166.66666666666666 340,166.66666666666666 342,166.66666666666666 344,166.66666666666666 346,166.66666666666666 348,200.0 350,200.0 352,200.0 354,233.33333333333331 356,233.33333333333331 358,233.33333333333331 360,233.33333333333331 362,233.33333333333331 364,233.33333333333331 366,266.66666666666663 368,233.33333333333331 370,233.33333333333331 372,233.33333333333331 374,233.33333333333331 376,233.33333333333331 378,266.66666666666663 380,266.66666666666663 382,266.66666666666663 384,233.33333333333331 386,233.33333333333331 388,266.66666666666663 390,233.33333333333331 392,233.33333333333331 394,200.0 396,200.0 398,200.0 400,200.0 402,200.0 404,200.0 406,200.0 408,200.0 410,200.0 412,200.0 414,200.0 416,200.0 418,200.0 420,200.0 422,200.0 424,233.33333333333331 426,233.33333333333331 428,233.33333333333331 430,233.33333333333331 432,266.66666666666663 434,266.66666666666663 436,266.66666666666663 438,266.66666666666663 440,300.0 442,300.0 444,266.66666666666663 446,266.66666666666663 448,233.33333333333331 450,233.33333333333331 452,233.33333333333331 454,233.33333333333331 456,233.33333333333331 458,200.0 460,200.0 462,200.0 464,200.0 466,200.0 468,200.0 470,200.0 472,200.0 474,200.0 476,200.0 478,200.0 480,200.0 482,200.0 484,200.0 486,200.0 488,200.0 490,200.0 492,200.0 494,200.0 496,200.0 498,200.0 500,200.0 502,200.0 504,200.0 506,200.0 508,233.33333333333331 510,233.33333333333331 512,233.33333333333331 514,233.33333333333331 516,233.33333333333331 518,233.33333333333331 520,233.33333333333331 522,233.33333333333331 524,233.33333333333331 526,200.0 528,200.0 530,200.0 532,200.0 534,200.0 536,200.0 538,200.0 540,200.0 542,200.0 544,200.0 546,200.0 548,200.0 550,200.0 552,200.0 554,200.0 556,200.0 558,200.0 560,200.0 562,200.0 564,200.0 566,200.0 568,200.0 570,200.0 572,200.0 574,200.0 576,200.0 578,200.0" /><polyline class="player_advantage" points="590,200.0 592,200.0 594,200.0 596,200.0 598,200.0 600,200.0 602,200.0 604,200.0 606,200.0 608,200.0 610,200.0 612,200.0 614,200.0 616,200.0 618,200.0 620,200.0 622,200.0 624,200.0 626,200.0 628,200.0 630,200.0 632,200.0 634,200.0 636,200.0 638,200.0 640,200.0 642,200.0 644,200.0 646,200.0 648,200.0 650,200.0 652,200.0 654,200.0 656,200.0 658,200.0 660,233.33333333333331 662,233.33333333333331 664,233.33333333333331 666,233.33333333333331 668,233.33333333333331 670,200.0 672,200.0 674,200.0 676,200.0 678,166.66666666666666 680,166.66666666666666 682,166.66666666666666 684,166.66666666666666 686,166.66666666666666 688,200.0 690,200.0 692,233.33333333333331 694,233.33333333333331 696,233.33333333333331 698,233.33333333333331 700,266.66666666666663 702,266.66666666666663 704,266.66666666666663 706,266.66666666666663 708,266.66666666666663 710,233.33333333333331 712,233.33333333333331 714,233.33333333333331 716,233.33333333333331 718,200.0 720,200.0 722,200.0 724,200.0" /><polyline class="player_advantage" points="748,200.0 750,200.0 752,200.0 754,233.33333333333331 756,200.0 758,233.33333333333331 760,233.33333333333331 762,233.33333333333331 764,233.33333333333331 766,233.33333333333331 768,233.33333333333331 770,233.33333333333331 772,233.33333333333331 774,233.33333333333331 776,233.33333333333331 778,233.33333333333331 780,266.66666666666663 782,233.33333333333331 784,233.33333333333331 786,233.33333333333331 788,233.33333333333331 790,200.0 792,200.0 794,233.33333333333331 796,266.66666666666663 798,233.33333333333331 800,233.33333333333331 802,233.33333333333331 804,233.33333333333331 806,233.33333333333331 808,233.33333333333331 810,266.66666666666663 812,266.66666666666663 814,266.66666666666663 816,266.66666666666663 818,266.66666666666663 820,233.33333333333331 822,233.33333333333331 824,233.33333333333331 826,233.33333333333331 828,233.33333333333331 830,233.33333333333331 832,300.0 834,266.66666666666663 836,266.66666666666663 838,266.66666666666663 840,300.0 842,300.0 844,333.3333333333333 844,200.0" /></g><g class="minute_ref"><line class="minute_ref_line" x1="120" x2="120" y1="0" y2="400" /><text x="120" y="420">1:00</text><line class="minute_ref_line" x1="240" x2="240" y1="0" y2="400" /><text x="240" y="420">2:00</text><line class="minute_ref_line" x1="360" x2="360" y1="0" y2="400" /><text x="360" y="420">3:00</text><line class="minute_ref_line" x1="480" x2="480" y1="0" y2="400" /><text x="480" y="420">4:00</text><line class="minute_ref_line" x1="600" x2="600" y1="0" y2="400" /><text x="600" y="420">5:00</text><line class="minute_ref_line" x1="720" x2="720" y1="0" y2="400" /><text x="720" y="420">6:00</text><line class="minute_ref_line" x1="840" x2="840" y1="0" y2="400" /><text x="840" y="420">7:00</text></g></g></svg>