<?xml version="1.0" encoding="utf-8" ?>
<svg baseProfile="full" height="100%" version="1.1" width="100%" xmlns="http://www.w3.org/2000/svg" xmlns:ev="http://www.w3.org/2001/xml-events" xmlns:xlink="http://www.w3.org/1999/xlink"><defs><style type="text/css"><![CDATA[
.player_lifelines {
  display: none
}

.player_lifeline {
  fill:none;
  stroke: green;
  stroke-width: 1;
  display: inline
}

.graph_border {
  fill: none;
  stroke: black;
}

.minute_ref_line {
  stroke: gray;
  stroke-width: 1;
  stroke-dasharray: 1,4
}


        .fight_area {
        fill: lightyellow;
        stroke: gold;
        stroke-width: 1
        }
        
        .replay_area {
        fill:lightgray;
        stroke: lightgray;
        stroke-width: 0
        }
        
        .progress_target_line {
        stroke: gray;
        stroke_width: 1;
        stroke-dasharray: 3,1
        }

        .progress_completion_line {
        stroke: gray;
        stroke_width: 1
        }
        
        .payload_progress {
        fill:none;
        stroke: blue;
        stroke-width: 2
        }
        
        .player_advantage {
        fill:none;
        stroke: red;
        stroke-width: 1
        }
        ]]></style></defs><text x="10" y="20">Los Angeles Gladiators at San Francisco Shock(A) on gibraltar round 2</text><g class="graph" transform="translate(10, 45)"><rect class="graph_border" height="400" width="248" x="0" y="0" /><g class="fights"><rect class="fight_area" height="138.27999999999997" width="72" x="94" y="163.44" /><text x="94" y="163.44">#1 8</text><rect class="fight_area" height="236.56" width="32" x="216" y="163.44" /><text x="216" y="163.44">#2 5</text></g><g class="replays"><rect class="replay_area" height="398" width="4" x="42" y="1" /></g><g class="completion"><line class="progress_target_line" x1="118" x2="118" y1="0.0" y2="272.0" /><line class="progress_completion_line" x1="0" x2="118" y1="272.0" y2="272.0" /><text x="118" y="-5">00:59</text></g><g class="progress"><polyline class="payload_progress" points="0,400 2,400.0 4,400.0 6,400.0 8,400.0 10,400.0 12,400.0 14,400.0 16,400.0 18,394.28000000000003 20,393.16 22,388.56 24,384.0 26,384.0 28,379.44 30,374.84000000000003 32,370.28 34,369.16" /><polyline class="payload_progress" points="46,347.44 48,347.44 50,342.84 52,340.55999999999995 54,336.0 56,331.44 58,329.15999999999997 60,326.84 62,320.0 64,320.0 66,314.28000000000003 68,310.84000000000003 70,310.84000000000003 72,306.28000000000003 74,304.0 76,304.0 78,304.0 80,304.0 82,304.0 84,304.0 86,301.71999999999997 88,301.71999999999997 90,301.71999999999997 92,301.71999999999997 94,301.71999999999997 96,301.71999999999997 98,294.84 100,292.56 102,292.56 104,288.0 106,288.0 108,285.71999999999997 110,283.44 112,281.16 114,276.56 116,274.28 118,272.0 120,269.72 122,267.44000000000005 124,265.16 126,265.16 128,265.16 130,265.16 132,265.16 134,265.16 136,265.16 138,265.16 140,262.84000000000003 142,258.28 144,256.0 146,256.0 148,254.84 150,249.16 152,249.16 154,242.28 156,240.0 158,237.72000000000003 160,237.72000000000003 162,233.16 164,230.83999999999997 166,228.56 168,224.00000000000003 170,219.44 172,219.44 174,219.44 176,212.56 178,210.28000000000003 180,205.72 182,203.43999999999997 184,201.16 186,198.84 188,196.55999999999997 190,194.28 192,192.0 194,187.44 196,185.16 198,182.83999999999997 200,180.56 202,178.28 204,173.72 206,171.44 208,171.44 210,171.44 212,164.56 214,164.56 216,163.44 218,161.16000000000003 220,161.16000000000003 222,160.0 224,160.0 226,160.0 228,160.0 230,160.0 232,157.72 234,160.0 236,160.0 238,160.0 240,160.0 242,160.0 244,160.0 246,160.0 248,400.0 248,400.0" /></g><g class="player_lifelines"><polyline class="player_lifeline" points="0,30.76923076923077 118,30.76923076923077" /><polyline class="player_lifeline" points="138,30.76923076923077 214,30.76923076923077" /><polyline class="player_lifeline" points="234,30.76923076923077 248,30.76923076923077" /><polyline class="player_lifeline" points="0,61.53846153846154 160,61.53846153846154" /><polyline class="player_lifeline" points="180,61.53846153846154 240,61.53846153846154" /><polyline class="player_lifeline" points="248,61.53846153846154 248,61.53846153846154" /><polyline class="player_lifeline" points="0,92.3076923076923 92,92.3076923076923" /><polyline class="player_lifeline" points="112,92.3076923076923 164,92.3076923076923" /><polyline class="player_lifeline" points="184,92.3076923076923 248,92.3076923076923" /><polyline class="player_lifeline" points="0,123.07692307692308 104,123.07692307692308" /><polyline class="player_lifeline" points="126,123.07692307692308 240,123.07692307692308" /><polyline class="player_lifeline" points="248,123.07692307692308 248,123.07692307692308" /><polyline class="player_lifeline" points="0,153.84615384615384 106,153.84615384615384" /><polyline class="player_lifeline" points="126,153.84615384615384 218,153.84615384615384" /><polyline class="player_lifeline" points="238,153.84615384615384 248,153.84615384615384" /><polyline class="player_lifeline" points="0,184.6153846153846 102,184.6153846153846" /><polyline class="player_lifeline" points="122,184.6153846153846 140,184.6153846153846" /><polyline class="player_lifeline" points="160,184.6153846153846 224,184.6153846153846" /><polyline class="player_lifeline" points="246,184.6153846153846 248,184.6153846153846" /><polyline class="player_lifeline" points="0,215.3846153846154 248,215.3846153846154" /><polyline class="player_lifeline" points="0,246.15384615384616 248,246.15384615384616" /><polyline class="player_lifeline" points="0,276.9230769230769 248,276.9230769230769" /><polyline class="player_lifeline" points="0,307.6923076923077 248,307.6923076923077" /><polyline class="player_lifeline" points="0,338.46153846153845 248,338.46153846153845" /><polyline class="player_lifeline" points="0,369.2307692307692 248,369.2307692307692" /></g><g class="advantages"><polyline class="player_advantage" points="2,200.0 4,200.0 6,200.0 8,200.0 10,200.0 12,200.0 14,200.0 16,200.0 18,200.0 20,200.0 22,200.0 24,200.0 26,200.0 28,200.0 30,200.0 32,200.0 34,200.0" /><polyline class="player_advantage" points="46,200.0 48,200.0 50,200.0 52,200.0 54,200.0 56,200.0 58,200.0 60,200.0 62,200.0 64,200.0 66,200.0 68,200.0 70,200.0 72,200.0 74,200.0 76,200.0 78,200.0 80,200.0 82,200.0 84,200.0 86,200.0 88,200.0 90,200.0 92,200.0 94,166.66666666666666 96,166.66666666666666 98,166.66666666666666 100,166.66666666666666 102,166.66666666666666 104,133.33333333333331 106,100.0 108,66.66666666666663 110,66.66666666666663 112,100.0 114,100.0 116,100.0 118,100.0 120,66.66666666666663 122,100.0 124,100.0 126,166.66666666666666 128,166.66666666666666 130,166.66666666666666 132,166.66666666666666 134,166.66666666666666 136,166.66666666666666 138,200.0 140,200.0 142,166.66666666666666 144,166.66666666666666 146,166.66666666666666 148,166.66666666666666 150,166.66666666666666 152,166.66666666666666 154,166.66666666666666 156,166.66666666666666 158,166.66666666666666 160,200.0 162,166.66666666666666 164,166.66666666666666 166,133.33333333333331 168,133.33333333333331 170,133.33333333333331 172,133.33333333333331 174,133.33333333333331 176,133.33333333333331 178,133.33333333333331 180,166.66666666666666 182,166.66666666666666 184,200.0 186,200.0 188,200.0 190,200.0 192,200.0 194,200.0 196,200.0 198,200.0 200,200.0 202,200.0 204,200.0 206,200.0 208,200.0 210,200.0 212,200.0 214,200.0 216,166.66666666666666 218,166.66666666666666 220,133.33333333333331 222,133.33333333333331 224,133.33333333333331 226,100.0 228,100.0 230,100.0 232,100.0 234,133.33333333333331 236,133.33333333333331 238,166.66666666666666 240,166.66666666666666 242,100.0 244,100.0 246,133.33333333333331 248,133.33333333333331 248,200.0" /></g><g class="minute_ref"><line class="minute_ref_line" x1="120" x2="120" y1="0" y2="400" /><text x="120" y="420">1:00</text><line class="minute_ref_line" x1="240" x2="240" y1="0" y2="400" /><text x="240" y="420">2:00</text></g></g></svg>