<?xml version="1.0" encoding="utf-8" ?>
<svg baseProfile="full" height="100%" version="1.1" width="100%" xmlns="http://www.w3.org/2000/svg" xmlns:ev="http://www.w3.org/2001/xml-events" xmlns:xlink="http://www.w3.org/1999/xlink"><defs><style type="text/css"><![CDATA[
.payload_progress {
  fill:none;
  stroke: blue;
  stroke-width: 2
}

.player_advantage {
  fill:none;
  stroke: red;
  stroke-width: 1

}

.player_lifeline {
  fill:none;
  stroke: green;
  stroke-width: 1
}

.graph_border {
  fill: none;
  stroke: black;
}

.minute_ref_line {
  stroke: gray;
  stroke-width: 1;
  stroke-dasharray: 1,4
}

.progress_target_line {
  stroke: gray;
  stroke_width: 1;
  stroke-dasharray: 3,1
}

.progress_completion_line {
  stroke: gray;
  stroke_width: 1
}


]]></style></defs><text x="10" y="20">Los Angeles Valiant at Shanghai Dragons on junkertown round 1</text><g style="graph" transform="translate(10, 45)"><rect class="graph_border" height="400" width="904" x="0" y="0" /><line class="minute_ref_line" x1="120" x2="120" y1="0" y2="400" /><text x="120" y="420">1:00</text><line class="minute_ref_line" x1="240" x2="240" y1="0" y2="400" /><text x="240" y="420">2:00</text><line class="minute_ref_line" x1="360" x2="360" y1="0" y2="400" /><text x="360" y="420">3:00</text><line class="minute_ref_line" x1="480" x2="480" y1="0" y2="400" /><text x="480" y="420">4:00</text><line class="minute_ref_line" x1="600" x2="600" y1="0" y2="400" /><text x="600" y="420">5:00</text><line class="minute_ref_line" x1="720" x2="720" y1="0" y2="400" /><text x="720" y="420">6:00</text><line class="minute_ref_line" x1="840" x2="840" y1="0" y2="400" /><text x="840" y="420">7:00</text><polyline class="payload_progress" points="0,400 0,400.0 2,400.0 4,400.0 6,398.84 8,396.56 10,394.28000000000003 12,392.0 14,389.71999999999997 16,387.44 18,385.15999999999997 20,382.84 22,379.44 24,377.15999999999997 26,374.84000000000003 28,372.56 30,370.28 32,366.84000000000003 34,365.72 36,363.44 38,360.0 40,357.71999999999997 42,355.44 44,353.16 46,350.84 48,347.44 50,345.16 52,342.84 54,340.55999999999995 56,337.15999999999997 58,334.84 60,333.72 62,333.72 64,331.44 66,329.15999999999997 68,326.84 70,325.72 72,325.72 74,325.72 76,325.72 78,325.72 80,325.72 82,325.72 84,325.72 86,325.72 88,325.72 90,325.72 92,325.72 94,325.72 96,325.72 98,324.56 100,324.56 102,324.56 104,323.44 106,322.28 108,320.0 110,317.72 112,315.44 114,313.16 116,310.84000000000003 118,308.56 120,307.44 122,304.0 124,301.71999999999997 126,299.44 128,296.0 130,293.71999999999997 132,290.28000000000003 134,288.0 136,285.71999999999997 138,281.16 140,278.84000000000003 142,276.56 144,274.28 146,270.84000000000003 148,269.72 150,269.72 152,269.72 154,269.72 156,269.72 158,269.72 160,269.72 162,269.72 164,269.72 166,269.72 168,269.72 170,269.72 172,268.56 174,266.28 176,263.99999999999994 178,260.56 180,258.28 182,254.84 184,252.55999999999997 186,250.27999999999997 188,246.84 190,243.44 192,241.16 194,238.83999999999997 196,236.55999999999997 198,234.28 200,233.16 202,229.72000000000003 204,228.56 206,227.44 208,227.44 210,227.44 212,227.44 214,227.44 216,227.44 218,227.44 220,227.44 222,227.44 224,227.44 226,225.15999999999997 228,224.00000000000003 230,221.72 232,221.72 234,221.72 236,221.72 238,221.72 240,221.72 242,221.72 244,221.72 246,221.72 248,221.72 250,219.44 252,217.15999999999997 254,214.84 256,211.44 258,208.0 260,205.72 262,202.28000000000003 264,200.0 266,197.71999999999997 268,194.28 270,192.0 272,189.72000000000003 274,186.28 276,184.0 278,181.72000000000003 280,178.28 282,175.99999999999997 284,173.72 286,170.27999999999997 288,168.00000000000003 290,164.56 292,162.27999999999997 294,158.84 296,156.56 298,154.28000000000003 300,150.84 302,148.55999999999997 304,146.28 306,145.16 308,145.16 310,145.16 312,145.16 314,145.16 316,145.16 318,145.16 320,145.16 322,145.16 324,145.16 326,145.16 328,145.16 330,144.0 332,141.71999999999997 334,139.44 336,137.16 338,134.83999999999997 340,132.56 342,130.28 344,127.99999999999999 346,124.56 348,122.27999999999999 350,118.84000000000002 352,116.56 354,113.16000000000001 356,110.84 358,109.72 360,108.55999999999999 362,108.55999999999999 364,108.55999999999999 366,108.55999999999999 368,108.55999999999999 370,108.55999999999999 372,108.55999999999999 374,108.55999999999999 376,108.55999999999999 378,108.55999999999999 380,108.55999999999999 382,108.55999999999999 384,108.55999999999999 386,108.55999999999999 388,108.55999999999999 390,108.55999999999999 392,108.55999999999999 394,108.55999999999999 396,108.55999999999999 398,108.55999999999999 400,108.55999999999999 402,108.55999999999999 404,108.55999999999999 406,108.55999999999999 408,108.55999999999999 410,108.55999999999999 412,108.55999999999999 414,108.55999999999999 416,108.55999999999999 418,108.55999999999999 420,108.55999999999999 422,108.55999999999999 424,108.55999999999999 426,108.55999999999999 428,108.55999999999999 430,108.55999999999999 432,108.55999999999999 434,108.55999999999999 436,108.55999999999999 438,108.55999999999999 440,108.55999999999999 442,109.72 444,109.72 446,109.72 448,110.84 450,110.84 452,112.00000000000001 454,112.00000000000001 456,112.00000000000001 458,113.16000000000001 460,113.16000000000001 462,113.16000000000001 464,114.27999999999999 466,114.27999999999999 468,114.27999999999999 470,114.27999999999999 472,114.27999999999999 474,114.27999999999999 476,114.27999999999999 478,114.27999999999999 480,114.27999999999999 482,114.27999999999999 484,114.27999999999999 486,114.27999999999999 488,114.27999999999999 490,114.27999999999999 492,114.27999999999999 494,114.27999999999999 496,114.27999999999999 498,114.27999999999999 500,113.16000000000001 502,110.84 504,108.55999999999999 506,108.55999999999999 508,108.55999999999999 510,106.28000000000002 512,104.0 514,101.71999999999998 516,98.28000000000002 518,96.0 520,92.56000000000002 522,90.28 524,87.99999999999999 526,84.56000000000002 528,82.28 530,79.99999999999999 532,77.72000000000001 534,75.44 536,73.15999999999998 538,70.84000000000002 540,68.56 542,66.27999999999999 544,64.00000000000001 546,61.72 548,59.43999999999998 550,57.16000000000001 552,54.84 554,52.55999999999999 556,50.280000000000015 558,50.280000000000015 560,49.160000000000004 562,49.160000000000004 564,49.160000000000004 566,49.160000000000004 568,49.160000000000004 570,49.160000000000004 572,49.160000000000004 574,49.160000000000004 576,48.0 578,48.0 580,48.0 582,48.0 584,48.0 586,48.0 588,45.719999999999985 590,45.719999999999985 592,45.719999999999985 594,45.719999999999985 596,45.719999999999985 598,45.719999999999985 600,45.719999999999985 602,45.719999999999985 604,45.719999999999985 606,45.719999999999985 608,45.719999999999985 610,45.719999999999985 612,45.719999999999985 614,46.83999999999999 616,46.83999999999999 618,46.83999999999999 620,48.0 622,48.0 624,49.160000000000004 626,49.160000000000004 628,49.160000000000004 630,50.280000000000015 632,50.280000000000015 634,51.44000000000002 636,51.44000000000002 638,51.44000000000002 640,51.44000000000002 642,52.55999999999999 644,52.55999999999999 646,53.71999999999999 648,53.71999999999999 650,54.84 652,54.84 654,54.84 656,56.00000000000001 658,56.00000000000001 660,56.00000000000001 662,57.16000000000001 664,57.16000000000001 666,57.16000000000001 668,58.28000000000002 670,58.28000000000002 672,58.28000000000002 674,58.28000000000002 676,58.28000000000002 678,58.28000000000002 680,58.28000000000002 682,58.28000000000002 684,58.28000000000002 686,58.28000000000002 688,58.28000000000002 690,58.28000000000002 692,58.28000000000002 694,59.43999999999998 696,59.43999999999998 698,59.43999999999998 700,60.55999999999999 702,60.55999999999999 704,60.55999999999999 706,60.55999999999999 708,60.55999999999999 710,60.55999999999999 712,60.55999999999999 714,60.55999999999999 716,59.43999999999998 718,56.00000000000001 720,53.71999999999999 722,50.280000000000015 724,46.83999999999999 726,44.560000000000024 728,42.28000000000001 730,39.99999999999999 732,37.72000000000002 734,35.440000000000005 736,31.999999999999986 738,29.720000000000013 740,27.439999999999998 742,27.439999999999998 744,26.279999999999994 746,25.159999999999982 748,25.159999999999982 750,25.159999999999982 752,25.159999999999982 754,25.159999999999982 756,25.159999999999982 758,25.159999999999982 760,25.159999999999982 762,25.159999999999982 764,25.159999999999982 766,25.159999999999982 768,25.159999999999982 770,25.159999999999982 772,25.159999999999982 774,25.159999999999982 776,25.159999999999982 778,25.159999999999982 780,25.159999999999982 782,25.159999999999982 784,25.159999999999982 786,25.159999999999982 788,25.159999999999982 790,25.159999999999982 792,25.159999999999982 794,25.159999999999982 796,25.159999999999982 798,25.159999999999982 800,25.159999999999982 802,25.159999999999982 804,26.279999999999994 806,26.279999999999994 808,26.279999999999994 810,27.439999999999998 812,27.439999999999998 814,28.56000000000001 816,28.56000000000001 818,28.56000000000001 820,28.56000000000001 822,29.720000000000013 824,29.720000000000013 826,30.83999999999998 828,30.83999999999998 830,31.999999999999986 832,31.999999999999986 834,31.999999999999986 836,33.15999999999999 838,33.15999999999999 840,33.15999999999999 842,34.28 844,34.28 846,35.440000000000005 848,35.440000000000005 850,35.440000000000005 852,35.440000000000005 854,35.440000000000005 856,35.440000000000005 858,35.440000000000005 860,35.440000000000005 862,35.440000000000005 864,35.440000000000005 866,34.28 868,31.999999999999986 870,29.720000000000013 872,27.439999999999998 874,25.159999999999982 876,25.159999999999982 878,25.159999999999982 880,25.159999999999982 882,22.840000000000018 884,20.560000000000002 886,18.279999999999987 888,16.000000000000014 890,12.559999999999993 892,10.279999999999978 894,8.000000000000007 896,4.559999999999986 898,4.559999999999986 900,4.559999999999986 902,3.440000000000021 904,0.0" /><line class="progress_target_line" x1="146" x2="146" y1="0" y2="270.84000000000003" /><line class="progress_completion_line" x1="0" x2="146" y1="270.84000000000003" y2="270.84000000000003" /><text x="146" y="-5">01:13</text><line class="progress_target_line" x1="338" x2="338" y1="0" y2="134.83999999999997" /><line class="progress_completion_line" x1="146" x2="338" y1="134.83999999999997" y2="134.83999999999997" /><text x="338" y="-5">02:49</text><line class="progress_target_line" x1="904" x2="904" y1="0" y2="0.0" /><line class="progress_completion_line" x1="338" x2="904" y1="0.0" y2="0.0" /><text x="904" y="-5">07:32</text><polyline class="player_advantage" points="0,200.0 0,200.0 2,200.0 4,200.0 6,200.0 8,200.0 10,200.0 12,200.0 14,200.0 16,200.0 18,200.0 20,200.0 22,200.0 24,200.0 26,200.0 28,200.0 30,200.0 32,200.0 34,200.0 36,200.0 38,200.0 40,200.0 42,200.0 44,200.0 46,200.0 48,200.0 50,200.0 52,200.0 54,200.0 56,200.0 58,200.0 60,200.0 62,200.0 64,200.0 66,200.0 68,200.0 70,200.0 72,200.0 74,200.0 76,200.0 78,200.0 80,200.0 82,200.0 84,200.0 86,200.0 88,233.33333333333331 90,233.33333333333331 92,233.33333333333331 94,200.0 96,200.0 98,233.33333333333331 100,200.0 102,200.0 104,166.66666666666666 106,166.66666666666666 108,133.33333333333331 110,133.33333333333331 112,166.66666666666666 114,166.66666666666666 116,166.66666666666666 118,200.0 120,200.0 122,166.66666666666666 124,166.66666666666666 126,200.0 128,200.0 130,200.0 132,166.66666666666666 134,166.66666666666666 136,166.66666666666666 138,166.66666666666666 140,166.66666666666666 142,200.0 144,200.0 146,200.0 148,166.66666666666666 150,200.0 152,200.0 154,200.0 156,200.0 158,200.0 160,200.0 162,200.0 164,200.0 166,200.0 168,200.0 170,200.0 172,200.0 174,200.0 176,200.0 178,200.0 180,200.0 182,200.0 184,200.0 186,200.0 188,200.0 190,200.0 192,200.0 194,200.0 196,200.0 198,200.0 200,200.0 202,200.0 204,200.0 206,200.0 208,200.0 210,200.0 212,200.0 214,200.0 216,200.0 218,200.0 220,200.0 222,200.0 224,200.0 226,200.0 228,200.0 230,166.66666666666666 232,166.66666666666666 234,166.66666666666666 236,166.66666666666666 238,166.66666666666666 240,166.66666666666666 242,200.0 244,200.0 246,233.33333333333331 248,233.33333333333331 250,233.33333333333331 252,166.66666666666666 254,200.0 256,166.66666666666666 258,200.0 260,200.0 262,200.0 264,200.0 266,166.66666666666666 268,200.0 270,200.0 272,200.0 274,166.66666666666666 276,166.66666666666666 278,166.66666666666666 280,166.66666666666666 282,166.66666666666666 284,133.33333333333331 286,133.33333333333331 288,133.33333333333331 290,133.33333333333331 292,166.66666666666666 294,166.66666666666666 296,166.66666666666666 298,166.66666666666666 300,166.66666666666666 302,200.0 304,200.0 306,200.0 308,200.0 310,200.0 312,200.0 314,200.0 316,200.0 318,200.0 320,200.0 322,200.0 324,200.0 326,200.0 328,200.0 330,200.0 332,200.0 334,200.0 336,200.0 338,200.0 340,200.0 342,200.0 344,200.0 346,200.0 348,200.0 350,200.0 352,200.0 354,200.0 356,200.0 358,200.0 360,200.0 362,200.0 364,166.66666666666666 366,200.0 368,200.0 370,200.0 372,233.33333333333331 374,233.33333333333331 376,233.33333333333331 378,233.33333333333331 380,233.33333333333331 382,233.33333333333331 384,200.0 386,200.0 388,200.0 390,200.0 392,200.0 394,200.0 396,200.0 398,200.0 400,200.0 402,200.0 404,200.0 406,233.33333333333331 408,266.66666666666663 410,300.0 412,300.0 414,333.3333333333333 416,333.3333333333333 418,333.3333333333333 420,366.6666666666667 422,333.3333333333333 424,300.0 426,266.66666666666663 428,266.66666666666663 430,233.33333333333331 432,200.0 434,200.0 436,200.0 438,200.0 440,233.33333333333331 442,233.33333333333331 444,200.0 446,200.0 448,200.0 450,200.0 452,200.0 454,200.0 456,200.0 458,200.0 460,200.0 462,200.0 464,200.0 466,200.0 468,200.0 470,200.0 472,200.0 474,200.0 476,166.66666666666666 478,200.0 480,166.66666666666666 482,200.0 484,166.66666666666666 486,200.0 488,200.0 490,166.66666666666666 492,166.66666666666666 494,200.0 496,166.66666666666666 498,166.66666666666666 500,133.33333333333331 502,166.66666666666666 504,133.33333333333331 506,133.33333333333331 508,166.66666666666666 510,166.66666666666666 512,166.66666666666666 514,166.66666666666666 516,166.66666666666666 518,166.66666666666666 520,166.66666666666666 522,166.66666666666666 524,166.66666666666666 526,166.66666666666666 528,166.66666666666666 530,166.66666666666666 532,200.0 534,200.0 536,200.0 538,200.0 540,200.0 542,200.0 544,200.0 546,200.0 548,200.0 550,200.0 552,200.0 554,200.0 556,200.0 558,200.0 560,200.0 562,200.0 564,200.0 566,200.0 568,233.33333333333331 570,233.33333333333331 572,233.33333333333331 574,233.33333333333331 576,233.33333333333331 578,233.33333333333331 580,266.66666666666663 582,266.66666666666663 584,266.66666666666663 586,233.33333333333331 588,233.33333333333331 590,233.33333333333331 592,233.33333333333331 594,233.33333333333331 596,233.33333333333331 598,200.0 600,200.0 602,200.0 604,200.0 606,200.0 608,200.0 610,200.0 612,200.0 614,200.0 616,200.0 618,200.0 620,200.0 622,200.0 624,200.0 626,200.0 628,200.0 630,200.0 632,200.0 634,200.0 636,200.0 638,200.0 640,200.0 642,233.33333333333331 644,233.33333333333331 646,233.33333333333331 648,233.33333333333331 650,233.33333333333331 652,200.0 654,233.33333333333331 656,233.33333333333331 658,233.33333333333331 660,200.0 662,200.0 664,200.0 666,200.0 668,200.0 670,200.0 672,166.66666666666666 674,166.66666666666666 676,200.0 678,200.0 680,200.0 682,200.0 684,200.0 686,200.0 688,233.33333333333331 690,233.33333333333331 692,233.33333333333331 694,200.0 696,200.0 698,166.66666666666666 700,166.66666666666666 702,166.66666666666666 704,166.66666666666666 706,100.0 708,133.33333333333331 710,133.33333333333331 712,133.33333333333331 714,133.33333333333331 716,133.33333333333331 718,166.66666666666666 720,166.66666666666666 722,166.66666666666666 724,200.0 726,200.0 728,200.0 730,200.0 732,200.0 734,200.0 736,200.0 738,200.0 740,200.0 742,200.0 744,200.0 746,200.0 748,200.0 750,200.0 752,200.0 754,200.0 756,200.0 758,200.0 760,200.0 762,200.0 764,266.66666666666663 766,200.0 768,233.33333333333331 770,200.0 772,233.33333333333331 774,200.0 776,200.0 778,233.33333333333331 780,266.66666666666663 782,266.66666666666663 784,233.33333333333331 786,266.66666666666663 788,233.33333333333331 790,233.33333333333331 792,233.33333333333331 794,266.66666666666663 796,266.66666666666663 798,233.33333333333331 800,233.33333333333331 802,233.33333333333331 804,233.33333333333331 806,233.33333333333331 808,233.33333333333331 810,233.33333333333331 812,233.33333333333331 814,233.33333333333331 816,233.33333333333331 818,233.33333333333331 820,233.33333333333331 822,233.33333333333331 824,233.33333333333331 826,233.33333333333331 828,233.33333333333331 830,233.33333333333331 832,200.0 834,200.0 836,200.0 838,200.0 840,200.0 842,200.0 844,200.0 846,200.0 848,200.0 850,200.0 852,200.0 854,200.0 856,200.0 858,166.66666666666666 860,166.66666666666666 862,166.66666666666666 864,200.0 866,233.33333333333331 868,166.66666666666666 870,166.66666666666666 872,133.33333333333331 874,133.33333333333331 876,166.66666666666666 878,166.66666666666666 880,133.33333333333331 882,100.0 884,100.0 886,133.33333333333331 888,166.66666666666666 890,200.0 892,133.33333333333331 894,166.66666666666666 896,133.33333333333331 898,166.66666666666666 900,200.0 902,166.66666666666666 904,133.33333333333331" /></g></svg>