<?xml version="1.0" encoding="utf-8" ?>
<svg baseProfile="full" height="100%" version="1.1" width="100%" xmlns="http://www.w3.org/2000/svg" xmlns:ev="http://www.w3.org/2001/xml-events" xmlns:xlink="http://www.w3.org/1999/xlink"><defs><style type="text/css"><![CDATA[
.payload_progress {
  fill:none;
  stroke: blue;
  stroke-width: 2
}

.player_advantage {
  fill:none;
  stroke: red;
  stroke-width: 1

}

.player_lifeline {
  fill:none;
  stroke: green;
  stroke-width: 1
}

.graph_border {
  fill: none;
  stroke: black;
}

.minute_ref_line {
  stroke: gray;
  stroke-width: 1;
  stroke-dasharray: 1,4
}

.progress_target_line {
  stroke: gray;
  stroke_width: 1;
  stroke-dasharray: 3,1
}

.progress_completion_line {
  stroke: gray;
  stroke_width: 1
}


]]></style></defs><text x="10" y="20">Los Angeles Valiant at Shanghai Dragons on junkertown round 2</text><g style="graph" transform="translate(10, 45)"><rect class="graph_border" height="400" width="788" x="0" y="0" /><line class="minute_ref_line" x1="120" x2="120" y1="0" y2="400" /><text x="120" y="420">1:00</text><line class="minute_ref_line" x1="240" x2="240" y1="0" y2="400" /><text x="240" y="420">2:00</text><line class="minute_ref_line" x1="360" x2="360" y1="0" y2="400" /><text x="360" y="420">3:00</text><line class="minute_ref_line" x1="480" x2="480" y1="0" y2="400" /><text x="480" y="420">4:00</text><line class="minute_ref_line" x1="600" x2="600" y1="0" y2="400" /><text x="600" y="420">5:00</text><line class="minute_ref_line" x1="720" x2="720" y1="0" y2="400" /><text x="720" y="420">6:00</text><polyline class="payload_progress" points="0,400 0,400.0 2,400.0 4,400.0 6,400.0 8,400.0 10,400.0 12,400.0 14,400.0 16,400.0 18,400.0 20,400.0 22,400.0 24,400.0 26,400.0 28,400.0 30,400.0 32,400.0 34,400.0 36,400.0 38,400.0 40,400.0 42,400.0 44,400.0 46,400.0 48,400.0 50,400.0 52,400.0 54,400.0 56,400.0 58,400.0 60,400.0 62,400.0 64,400.0 66,400.0 68,400.0 70,400.0 72,400.0 74,400.0 76,400.0 78,400.0 80,400.0 82,400.0 84,400.0 86,400.0 88,400.0 90,400.0 92,400.0 94,400.0 96,400.0 98,400.0 100,400.0 102,400.0 104,400.0 106,400.0 108,400.0 110,400.0 112,400.0 114,400.0 116,400.0 118,400.0 120,400.0 122,400.0 124,400.0 126,400.0 128,400.0 130,400.0 132,400.0 134,400.0 136,400.0 138,400.0 140,400.0 142,400.0 144,400.0 146,400.0 148,400.0 150,400.0 152,400.0 154,400.0 156,400.0 158,400.0 160,400.0 162,400.0 164,400.0 166,400.0 168,400.0 170,400.0 172,400.0 174,400.0 176,400.0 178,400.0 180,400.0 182,400.0 184,400.0 186,400.0 188,400.0 190,400.0 192,400.0 194,400.0 196,400.0 198,400.0 200,400.0 202,400.0 204,400.0 206,400.0 208,400.0 210,400.0 212,400.0 214,400.0 216,400.0 218,400.0 220,400.0 222,400.0 224,400.0 226,400.0 228,400.0 230,400.0 232,400.0 234,400.0 236,400.0 238,400.0 240,400.0 242,400.0 244,400.0 246,400.0 248,400.0 250,400.0 252,400.0 254,400.0 256,400.0 258,400.0 260,400.0 262,400.0 264,400.0 266,400.0 268,400.0 270,400.0 272,400.0 274,400.0 276,400.0 278,400.0 280,400.0 282,400.0 284,400.0 286,400.0 288,400.0 290,400.0 292,400.0 294,400.0 296,400.0 298,400.0 300,400.0 302,400.0 304,400.0 306,400.0 308,400.0 310,400.0 312,400.0 314,400.0 316,400.0 318,400.0 320,400.0 322,400.0 324,400.0 326,400.0 328,400.0 330,400.0 332,400.0 334,400.0 336,400.0 338,400.0 340,400.0 342,400.0 344,400.0 346,400.0 348,400.0 350,400.0 352,400.0 354,400.0 356,400.0 358,400.0 360,400.0 362,400.0 364,400.0 366,400.0 368,400.0 370,400.0 372,400.0 374,400.0 376,400.0 378,400.0 380,400.0 382,400.0 384,400.0 386,400.0 388,400.0 390,400.0 392,400.0 394,400.0 396,400.0 398,400.0 400,400.0 402,400.0 404,400.0 406,400.0 408,400.0 410,400.0 412,400.0 414,400.0 416,400.0 418,400.0 420,400.0 422,400.0 424,400.0 426,400.0 428,400.0 430,400.0 432,400.0 434,400.0 436,400.0 438,400.0 440,400.0 442,400.0 444,400.0 446,400.0 448,400.0 450,400.0 452,400.0 454,400.0 456,400.0 458,400.0 460,400.0 462,400.0 464,400.0 466,400.0 468,400.0 470,400.0 472,400.0 474,400.0 476,400.0 478,400.0 480,400.0 482,400.0 484,400.0 486,400.0 488,400.0 490,400.0 492,400.0 494,400.0 496,400.0 498,400.0 500,400.0 502,400.0 504,400.0 506,400.0 508,400.0 510,400.0 512,400.0 514,400.0 516,400.0 518,400.0 520,400.0 522,400.0 524,400.0 526,400.0 528,400.0 530,400.0 532,400.0 534,400.0 536,400.0 538,400.0 540,400.0 542,400.0 544,400.0 546,400.0 548,400.0 550,400.0 552,400.0 554,400.0 556,400.0 558,400.0 560,400.0 562,400.0 564,400.0 566,400.0 568,400.0 570,400.0 572,400.0 574,400.0 576,400.0 578,400.0 580,400.0 582,400.0 584,400.0 586,400.0 588,400.0 590,400.0 592,400.0 594,400.0 596,400.0 598,400.0 600,400.0 602,400.0 604,400.0 606,400.0 608,400.0 610,400.0 612,400.0 614,400.0 616,400.0 618,400.0 620,400.0 622,400.0 624,400.0 626,400.0 628,400.0 630,400.0 632,400.0 634,400.0 636,400.0 638,400.0 640,400.0 642,400.0 644,400.0 646,400.0 648,400.0 650,400.0 652,400.0 654,400.0 656,400.0 658,400.0 660,400.0 662,400.0 664,400.0 666,400.0 668,400.0 670,400.0 672,400.0 674,400.0 676,400.0 678,400.0 680,400.0 682,400.0 684,400.0 686,400.0 688,400.0 690,400.0 692,400.0 694,400.0 696,400.0 698,400.0 700,400.0 702,400.0 704,400.0 706,400.0 708,400.0 710,400.0 712,400.0 714,400.0 716,400.0 718,400.0 720,400.0 722,400.0 724,400.0 726,400.0 728,400.0 730,400.0 732,400.0 734,400.0 736,400.0 738,400.0 740,400.0 742,400.0 744,400.0 746,400.0 748,400.0 750,400.0 752,400.0 754,400.0 756,400.0 758,400.0 760,400.0 762,400.0 764,400.0 766,400.0 768,400.0 770,400.0 772,400.0 774,400.0 776,400.0 778,400.0 780,400.0 782,400.0 784,400.0 786,400.0 788,400.0 788,400.0" /><polyline class="player_advantage" points="0,200.0 0,200.0 2,200.0 4,200.0 6,200.0 8,200.0 10,200.0 12,200.0 14,166.66666666666666 16,166.66666666666666 18,166.66666666666666 20,166.66666666666666 22,166.66666666666666 24,166.66666666666666 26,166.66666666666666 28,166.66666666666666 30,166.66666666666666 32,200.0 34,200.0 36,200.0 38,200.0 40,200.0 42,200.0 44,200.0 46,200.0 48,200.0 50,200.0 52,200.0 54,200.0 56,200.0 58,200.0 60,200.0 62,200.0 64,200.0 66,200.0 68,200.0 70,200.0 72,200.0 74,200.0 76,200.0 78,200.0 80,200.0 82,200.0 84,133.33333333333331 86,133.33333333333331 88,133.33333333333331 90,133.33333333333331 92,133.33333333333331 94,133.33333333333331 96,100.0 98,100.0 100,100.0 102,166.66666666666666 104,166.66666666666666 106,166.66666666666666 108,166.66666666666666 110,133.33333333333331 112,166.66666666666666 114,133.33333333333331 116,166.66666666666666 118,166.66666666666666 120,166.66666666666666 122,166.66666666666666 124,166.66666666666666 126,166.66666666666666 128,166.66666666666666 130,200.0 132,200.0 134,200.0 136,200.0 138,200.0 140,200.0 142,200.0 144,200.0 146,200.0 148,200.0 150,200.0 152,200.0 154,200.0 156,200.0 158,200.0 160,200.0 162,200.0 164,200.0 166,200.0 168,200.0 170,200.0 172,200.0 174,200.0 176,200.0 178,200.0 180,200.0 182,200.0 184,200.0 186,200.0 188,166.66666666666666 190,200.0 192,200.0 194,233.33333333333331 196,233.33333333333331 198,200.0 200,233.33333333333331 202,233.33333333333331 204,233.33333333333331 206,266.66666666666663 208,200.0 210,200.0 212,200.0 214,200.0 216,233.33333333333331 218,200.0 220,200.0 222,200.0 224,200.0 226,266.66666666666663 228,266.66666666666663 230,266.66666666666663 232,233.33333333333331 234,233.33333333333331 236,233.33333333333331 238,233.33333333333331 240,233.33333333333331 242,233.33333333333331 244,233.33333333333331 246,200.0 248,200.0 250,200.0 252,200.0 254,200.0 256,200.0 258,200.0 260,200.0 262,200.0 264,200.0 266,200.0 268,200.0 270,200.0 272,200.0 274,200.0 276,233.33333333333331 278,266.66666666666663 280,266.66666666666663 282,266.66666666666663 284,300.0 286,300.0 288,300.0 290,300.0 292,333.3333333333333 294,333.3333333333333 296,300.0 298,300.0 300,300.0 302,266.66666666666663 304,266.66666666666663 306,266.66666666666663 308,266.66666666666663 310,266.66666666666663 312,200.0 314,200.0 316,200.0 318,200.0 320,200.0 322,200.0 324,200.0 326,200.0 328,200.0 330,200.0 332,200.0 334,200.0 336,200.0 338,200.0 340,200.0 342,200.0 344,200.0 346,200.0 348,200.0 350,200.0 352,200.0 354,200.0 356,200.0 358,200.0 360,200.0 362,200.0 364,200.0 366,200.0 368,200.0 370,200.0 372,200.0 374,200.0 376,166.66666666666666 378,166.66666666666666 380,166.66666666666666 382,200.0 384,200.0 386,200.0 388,200.0 390,200.0 392,200.0 394,233.33333333333331 396,233.33333333333331 398,233.33333333333331 400,200.0 402,200.0 404,200.0 406,200.0 408,166.66666666666666 410,166.66666666666666 412,166.66666666666666 414,133.33333333333331 416,133.33333333333331 418,133.33333333333331 420,133.33333333333331 422,100.0 424,133.33333333333331 426,166.66666666666666 428,166.66666666666666 430,166.66666666666666 432,166.66666666666666 434,166.66666666666666 436,166.66666666666666 438,166.66666666666666 440,200.0 442,233.33333333333331 444,200.0 446,200.0 448,300.0 450,233.33333333333331 452,233.33333333333331 454,233.33333333333331 456,233.33333333333331 458,233.33333333333331 460,233.33333333333331 462,233.33333333333331 464,233.33333333333331 466,200.0 468,200.0 470,200.0 472,200.0 474,200.0 476,200.0 478,200.0 480,200.0 482,200.0 484,200.0 486,200.0 488,200.0 490,200.0 492,200.0 494,200.0 496,200.0 498,166.66666666666666 500,166.66666666666666 502,200.0 504,166.66666666666666 506,166.66666666666666 508,166.66666666666666 510,166.66666666666666 512,166.66666666666666 514,166.66666666666666 516,200.0 518,233.33333333333331 520,200.0 522,200.0 524,200.0 526,200.0 528,200.0 530,200.0 532,200.0 534,200.0 536,200.0 538,200.0 540,200.0 542,200.0 544,200.0 546,200.0 548,200.0 550,200.0 552,200.0 554,200.0 556,200.0 558,200.0 560,200.0 562,200.0 564,200.0 566,200.0 568,200.0 570,166.66666666666666 572,166.66666666666666 574,166.66666666666666 576,200.0 578,200.0 580,200.0 582,200.0 584,166.66666666666666 586,166.66666666666666 588,166.66666666666666 590,200.0 592,200.0 594,200.0 596,200.0 598,166.66666666666666 600,166.66666666666666 602,166.66666666666666 604,200.0 606,200.0 608,166.66666666666666 610,166.66666666666666 612,166.66666666666666 614,166.66666666666666 616,133.33333333333331 618,133.33333333333331 620,133.33333333333331 622,133.33333333333331 624,133.33333333333331 626,133.33333333333331 628,166.66666666666666 630,166.66666666666666 632,166.66666666666666 634,200.0 636,200.0 638,200.0 640,200.0 642,200.0 644,200.0 646,200.0 648,200.0 650,200.0 652,200.0 654,200.0 656,200.0 658,200.0 660,200.0 662,200.0 664,200.0 666,200.0 668,200.0 670,200.0 672,200.0 674,200.0 676,200.0 678,200.0 680,200.0 682,200.0 684,133.33333333333331 686,200.0 688,200.0 690,200.0 692,200.0 694,200.0 696,200.0 698,200.0 700,233.33333333333331 702,233.33333333333331 704,233.33333333333331 706,233.33333333333331 708,233.33333333333331 710,200.0 712,200.0 714,200.0 716,200.0 718,200.0 720,200.0 722,166.66666666666666 724,133.33333333333331 726,133.33333333333331 728,100.0 730,100.0 732,100.0 734,100.0 736,100.0 738,100.0 740,166.66666666666666 742,166.66666666666666 744,166.66666666666666 746,166.66666666666666 748,166.66666666666666 750,166.66666666666666 752,166.66666666666666 754,166.66666666666666 756,166.66666666666666 758,133.33333333333331 760,166.66666666666666 762,166.66666666666666 764,200.0 766,200.0 768,200.0 770,200.0 772,200.0 774,200.0 776,200.0 778,200.0 780,200.0 782,133.33333333333331 784,133.33333333333331 786,133.33333333333331 788,133.33333333333331 788,133.33333333333331" /></g></svg>