<?xml version="1.0" encoding="utf-8" ?>
<svg baseProfile="full" height="100%" version="1.1" width="100%" xmlns="http://www.w3.org/2000/svg" xmlns:ev="http://www.w3.org/2001/xml-events" xmlns:xlink="http://www.w3.org/1999/xlink"><defs><style type="text/css"><![CDATA[
.player_lifelines {
  display: none
}

.player_lifeline {
  fill:none;
  stroke: green;
  stroke-width: 1;
  display: inline
}

.graph_border {
  fill: none;
  stroke: black;
}

.minute_ref_line {
  stroke: gray;
  stroke-width: 1;
  stroke-dasharray: 1,4
}


        .fight_area {
        fill: lightyellow;
        stroke: gold;
        stroke-width: 1
        }
        
        .replay_area {
        fill:lightgray;
        stroke: lightgray;
        stroke-width: 0
        }
        
        .progress_target_line {
        stroke: gray;
        stroke_width: 1;
        stroke-dasharray: 3,1
        }

        .progress_completion_line {
        stroke: gray;
        stroke_width: 1
        }
        
        .payload_progress {
        fill:none;
        stroke: blue;
        stroke-width: 2
        }
        
        .player_advantage {
        fill:none;
        stroke: red;
        stroke-width: 1
        }
        ]]></style></defs><text x="10" y="20">San Francisco Shock(A) at New York Excelsior on junkertown round 1</text><g class="graph" transform="translate(10, 45)"><rect class="graph_border" height="400" width="958" x="0" y="0" /><g class="fights"><rect class="fight_area" height="63.99999999999997" width="42" x="94" y="251.44000000000003" /><text x="94" y="251.44000000000003">#1 6</text><rect class="fight_area" height="51.440000000000026" width="18" x="188" y="200.0" /><text x="188" y="200.0">#2 -4</text><rect class="fight_area" height="121.15999999999998" width="16" x="262" y="78.84000000000002" /><text x="262" y="78.84000000000002">#3 3</text><rect class="fight_area" height="75.39999999999999" width="28" x="374" y="3.440000000000021" /><text x="374" y="3.440000000000021">#4 6</text><rect class="fight_area" height="7.999999999999963" width="32" x="452" y="3.440000000000021" /><text x="452" y="3.440000000000021">#5 -5</text><rect class="fight_area" height="12.560000000000038" width="16" x="564" y="11.439999999999984" /><text x="564" y="11.439999999999984">#6 -3</text><rect class="fight_area" height="12.559999999999995" width="34" x="634" y="24.00000000000002" /><text x="634" y="24.00000000000002">#7 -4</text><rect class="fight_area" height="11.400000000000034" width="90" x="744" y="25.159999999999982" /><text x="744" y="25.159999999999982">#8 -2</text><rect class="fight_area" height="10.280000000000022" width="22" x="906" y="25.159999999999982" /><text x="906" y="25.159999999999982">#9 -4</text><rect class="fight_area" height="9.120000000000015" width="2" x="956" y="31.44" /><text x="956" y="31.44">#10 -1</text></g><g class="replays"><rect class="replay_area" height="398" width="4" x="560" y="1" /><rect class="replay_area" height="398" width="4" x="914" y="1" /></g><g class="completion"><line class="progress_target_line" x1="146" x2="146" y1="0.0" y2="272.0" /><line class="progress_completion_line" x1="0" x2="146" y1="272.0" y2="272.0" /><text x="146" y="-5">01:13</text><line class="progress_target_line" x1="332" x2="332" y1="0.0" y2="134.83999999999997" /><line class="progress_completion_line" x1="146" x2="332" y1="134.83999999999997" y2="134.83999999999997" /><text x="332" y="-5">02:46</text></g><g class="progress"><polyline class="payload_progress" points="0,400 2,400.0 4,400.0 6,400.0 8,400.0 10,398.84 12,397.71999999999997 14,395.44 16,394.28000000000003 18,393.16 20,393.16 22,393.16 24,393.16 26,392.0 28,388.56 30,385.15999999999997 32,382.84 34,379.44 36,377.15999999999997 38,373.72 40,371.44 42,368.0 44,365.72 46,363.44 48,360.0 50,357.71999999999997 52,355.44 54,352.0 56,349.71999999999997 58,346.28000000000003 60,344.0 62,341.72 64,339.44 66,336.0 68,333.72 70,331.44 72,329.15999999999997 74,326.84 76,323.44 78,321.15999999999997 80,318.84000000000003 82,318.84000000000003 84,316.56 86,315.44 88,315.44 90,315.44 92,315.44 94,315.44 96,315.44 98,315.44 100,315.44 102,315.44 104,315.44 106,315.44 108,314.28000000000003 110,313.16 112,313.16 114,312.0 116,310.84000000000003 118,310.84000000000003 120,308.56 122,305.16 124,302.84 126,299.44 128,297.16 130,292.56 132,291.44 134,288.0 136,284.56 138,282.28 140,280.0 142,276.56 144,274.28 146,272.0 148,269.72 150,269.72 152,269.72 154,269.72 156,269.72 158,269.72 160,269.72 162,269.72 164,269.72 166,269.72 168,269.72 170,269.72 172,269.72 174,267.44000000000005 176,265.16 178,263.99999999999994 180,260.56 182,258.28 184,256.0 186,253.72 188,251.44000000000003 190,250.27999999999997 192,248.0 194,245.72000000000003 196,243.44 198,241.16 200,238.83999999999997 202,237.72000000000003 204,235.44 206,233.16 208,233.16 210,229.72000000000003 212,229.72000000000003 214,229.72000000000003 216,229.72000000000003 218,229.72000000000003 220,229.72000000000003 222,229.72000000000003 224,229.72000000000003 226,229.72000000000003 228,229.72000000000003 230,229.72000000000003 232,229.72000000000003 234,229.72000000000003 236,227.44 238,225.15999999999997 240,224.00000000000003 242,221.72 244,219.44 246,218.28000000000003 248,217.15999999999997 250,214.84 252,212.56 254,210.28000000000003 256,206.84 258,204.56000000000003 260,201.16 262,200.0 264,196.55999999999997 266,194.28 268,190.83999999999997 270,188.56 272,185.16 274,182.83999999999997 276,180.56 278,177.16 280,174.84000000000003 282,171.44 284,169.16000000000003 286,166.84 288,164.56 290,160.0 292,157.72 294,155.43999999999997 296,152.0 298,148.55999999999997 300,146.28 302,145.16 304,145.16 306,145.16 308,145.16 310,145.16 312,145.16 314,145.16 316,145.16 318,145.16 320,145.16 322,145.16 324,145.16 326,142.83999999999997 328,140.56000000000003 330,138.28 332,134.83999999999997 334,132.56 336,130.28 338,126.84000000000002 340,123.44 342,121.15999999999998 344,118.84000000000002 346,115.43999999999998 348,113.16000000000001 350,109.72 352,107.43999999999998 354,104.0 356,101.71999999999998 358,98.28000000000002 360,96.0 362,93.71999999999998 364,91.44000000000001 366,89.16 368,86.83999999999999 370,83.44 372,81.15999999999998 374,78.84000000000002 376,78.84000000000002 378,77.72000000000001 380,75.44 382,73.15999999999998 384,70.84000000000002 386,68.56 388,66.27999999999999 390,65.16000000000003 392,64.00000000000001 394,64.00000000000001 396,64.00000000000001 398,64.00000000000001 400,64.00000000000001 402,64.00000000000001 404,60.55999999999999 406,58.28000000000002 408,54.84 410,51.44000000000002 412,49.160000000000004 414,46.83999999999999 416,43.44000000000001 418,41.16 420,37.72000000000002 422,34.28 424,31.999999999999986 426,28.56000000000001 428,26.279999999999994 430,22.840000000000018 432,20.560000000000002 434,18.279999999999987 436,16.000000000000014 438,12.559999999999993 440,10.279999999999978 442,8.000000000000007 444,8.000000000000007 446,6.840000000000002 448,5.719999999999992 450,4.559999999999986 452,3.440000000000021 454,3.440000000000021 456,3.440000000000021 458,3.440000000000021 460,3.440000000000021 462,3.440000000000021 464,3.440000000000021 466,3.440000000000021 468,3.440000000000021 470,3.440000000000021 472,3.440000000000021 474,3.440000000000021 476,3.440000000000021 478,3.440000000000021 480,3.440000000000021 482,3.440000000000021 484,3.440000000000021 486,3.440000000000021 488,3.440000000000021 490,3.440000000000021 492,3.440000000000021 494,3.440000000000021 496,3.440000000000021 498,3.440000000000021 500,3.440000000000021 502,3.440000000000021 504,3.440000000000021 506,4.559999999999986 508,4.559999999999986 510,4.559999999999986 512,5.719999999999992 514,5.719999999999992 516,5.719999999999992 518,6.840000000000002 520,6.840000000000002 522,8.000000000000007 524,8.000000000000007 526,8.000000000000007 528,9.160000000000013 530,9.160000000000013 532,9.160000000000013 534,10.279999999999978 536,10.279999999999978 538,11.439999999999984 540,11.439999999999984 542,11.439999999999984 544,11.439999999999984 546,11.439999999999984 548,11.439999999999984 550,11.439999999999984 552,11.439999999999984" /><polyline class="payload_progress" points="564,11.439999999999984 566,11.439999999999984 568,12.559999999999993 570,12.559999999999993 572,12.559999999999993 574,12.559999999999993 576,13.719999999999999 578,13.719999999999999 580,14.840000000000009 582,14.840000000000009 584,14.840000000000009 586,16.000000000000014 588,16.000000000000014 590,17.160000000000018 592,17.160000000000018 594,17.160000000000018 596,17.160000000000018 598,18.279999999999987 600,18.279999999999987 602,19.43999999999999 604,19.43999999999999 606,20.560000000000002 608,20.560000000000002 610,20.560000000000002 612,21.720000000000006 614,21.720000000000006 616,21.720000000000006 618,22.840000000000018 620,22.840000000000018 622,24.00000000000002 624,24.00000000000002 626,24.00000000000002 628,24.00000000000002 630,24.00000000000002 632,24.00000000000002 634,24.00000000000002 636,24.00000000000002 638,22.840000000000018 640,22.840000000000018 642,22.840000000000018 644,22.840000000000018 646,22.840000000000018 648,22.840000000000018 650,22.840000000000018 652,22.840000000000018 654,22.840000000000018 656,22.840000000000018 658,22.840000000000018 660,22.840000000000018 662,22.840000000000018 664,22.840000000000018 666,24.00000000000002 668,24.00000000000002 670,24.00000000000002 672,25.159999999999982 674,25.159999999999982 676,26.279999999999994 678,26.279999999999994 680,26.279999999999994 682,27.439999999999998 684,27.439999999999998 686,27.439999999999998 688,28.56000000000001 690,28.56000000000001 692,29.720000000000013 694,29.720000000000013 696,30.83999999999998 698,30.83999999999998 700,30.83999999999998 702,31.999999999999986 704,31.999999999999986 706,31.999999999999986 708,31.999999999999986 710,33.15999999999999 712,33.15999999999999 714,34.28 716,34.28 718,35.440000000000005 720,35.440000000000005 722,35.440000000000005 724,36.56000000000002 726,36.56000000000002 728,36.56000000000002 730,36.56000000000002 732,36.56000000000002 734,36.56000000000002 736,36.56000000000002 738,36.56000000000002 740,36.56000000000002 742,36.56000000000002 744,36.56000000000002 746,33.15999999999999 748,30.83999999999998 750,27.439999999999998 752,25.159999999999982 754,21.720000000000006 756,19.43999999999999 758,18.279999999999987 760,16.000000000000014 762,16.000000000000014 764,16.000000000000014 766,16.000000000000014 768,16.000000000000014 770,16.000000000000014 772,16.000000000000014 774,16.000000000000014 776,16.000000000000014 778,16.000000000000014 780,16.000000000000014 782,16.000000000000014 784,16.000000000000014 786,16.000000000000014 788,16.000000000000014 790,16.000000000000014 792,16.000000000000014 794,16.000000000000014 796,16.000000000000014 798,16.000000000000014 800,16.000000000000014 802,14.840000000000009 804,13.719999999999999 806,13.719999999999999 808,13.719999999999999 810,13.719999999999999 812,11.439999999999984 814,10.279999999999978 816,10.279999999999978 818,10.279999999999978 820,10.279999999999978 822,10.279999999999978 824,10.279999999999978 826,10.279999999999978 828,10.279999999999978 830,10.279999999999978 832,10.279999999999978 834,10.279999999999978 836,10.279999999999978 838,10.279999999999978 840,11.439999999999984 842,11.439999999999984 844,11.439999999999984 846,12.559999999999993 848,12.559999999999993 850,12.559999999999993 852,13.719999999999999 854,13.719999999999999 856,13.719999999999999 858,14.840000000000009 860,14.840000000000009 862,14.840000000000009 864,16.000000000000014 866,16.000000000000014 868,16.000000000000014 870,17.160000000000018 872,18.279999999999987 874,18.279999999999987 876,18.279999999999987 878,18.279999999999987 880,19.43999999999999 882,19.43999999999999 884,20.560000000000002 886,20.560000000000002 888,21.720000000000006 890,21.720000000000006 892,21.720000000000006 894,22.840000000000018 896,22.840000000000018 898,22.840000000000018 900,24.00000000000002 902,24.00000000000002 904,25.159999999999982 906,25.159999999999982" /><polyline class="payload_progress" points="918,27.439999999999998 920,27.439999999999998 922,28.56000000000001 924,28.56000000000001 926,29.720000000000013 928,29.720000000000013 930,30.83999999999998 932,30.83999999999998 934,30.83999999999998 936,31.999999999999986 938,31.999999999999986 940,31.999999999999986 942,33.15999999999999 944,33.15999999999999 946,33.15999999999999 948,34.28 950,34.28 952,35.440000000000005 954,35.440000000000005 956,35.440000000000005 958,36.56000000000002 958,36.56000000000002" /></g><g class="player_lifelines"><polyline class="player_lifeline" points="0,30.76923076923077 264,30.76923076923077" /><polyline class="player_lifeline" points="274,30.76923076923077 470,30.76923076923077" /><polyline class="player_lifeline" points="490,30.76923076923077 820,30.76923076923077" /><polyline class="player_lifeline" points="840,30.76923076923077 954,30.76923076923077" /><polyline class="player_lifeline" points="0,61.53846153846154 190,61.53846153846154" /><polyline class="player_lifeline" points="210,61.53846153846154 450,61.53846153846154" /><polyline class="player_lifeline" points="492,61.53846153846154 578,61.53846153846154" /><polyline class="player_lifeline" points="598,61.53846153846154 652,61.53846153846154" /><polyline class="player_lifeline" points="670,61.53846153846154 776,61.53846153846154" /><polyline class="player_lifeline" points="798,61.53846153846154 832,61.53846153846154" /><polyline class="player_lifeline" points="854,61.53846153846154 904,61.53846153846154" /><polyline class="player_lifeline" points="924,61.53846153846154 958,61.53846153846154" /><polyline class="player_lifeline" points="0,92.3076923076923 186,92.3076923076923" /><polyline class="player_lifeline" points="202,92.3076923076923 476,92.3076923076923" /><polyline class="player_lifeline" points="496,92.3076923076923 812,92.3076923076923" /><polyline class="player_lifeline" points="830,92.3076923076923 906,92.3076923076923" /><polyline class="player_lifeline" points="924,92.3076923076923 926,92.3076923076923" /><polyline class="player_lifeline" points="932,92.3076923076923 958,92.3076923076923" /><polyline class="player_lifeline" points="0,123.07692307692308 192,123.07692307692308" /><polyline class="player_lifeline" points="212,123.07692307692308 552,123.07692307692308" /><polyline class="player_lifeline" points="576,123.07692307692308 666,123.07692307692308" /><polyline class="player_lifeline" points="688,123.07692307692308 770,123.07692307692308" /><polyline class="player_lifeline" points="790,123.07692307692308 958,123.07692307692308" /><polyline class="player_lifeline" points="0,153.84615384615384 204,153.84615384615384" /><polyline class="player_lifeline" points="220,153.84615384615384 478,153.84615384615384" /><polyline class="player_lifeline" points="500,153.84615384615384 572,153.84615384615384" /><polyline class="player_lifeline" points="592,153.84615384615384 632,153.84615384615384" /><polyline class="player_lifeline" points="638,153.84615384615384 666,153.84615384615384" /><polyline class="player_lifeline" points="686,153.84615384615384 750,153.84615384615384" /><polyline class="player_lifeline" points="772,153.84615384615384 814,153.84615384615384" /><polyline class="player_lifeline" points="834,153.84615384615384 926,153.84615384615384" /><polyline class="player_lifeline" points="946,153.84615384615384 958,153.84615384615384" /><polyline class="player_lifeline" points="0,184.6153846153846 482,184.6153846153846" /><polyline class="player_lifeline" points="504,184.6153846153846 958,184.6153846153846" /><polyline class="player_lifeline" points="0,215.3846153846154 106,215.3846153846154" /><polyline class="player_lifeline" points="124,215.3846153846154 390,215.3846153846154" /><polyline class="player_lifeline" points="404,215.3846153846154 770,215.3846153846154" /><polyline class="player_lifeline" points="790,215.3846153846154 958,215.3846153846154" /><polyline class="player_lifeline" points="0,246.15384615384616 116,246.15384615384616" /><polyline class="player_lifeline" points="136,246.15384615384616 260,246.15384615384616" /><polyline class="player_lifeline" points="280,246.15384615384616 376,246.15384615384616" /><polyline class="player_lifeline" points="396,246.15384615384616 958,246.15384615384616" /><polyline class="player_lifeline" points="0,276.9230769230769 118,276.9230769230769" /><polyline class="player_lifeline" points="138,276.9230769230769 400,276.9230769230769" /><polyline class="player_lifeline" points="420,276.9230769230769 798,276.9230769230769" /><polyline class="player_lifeline" points="820,276.9230769230769 958,276.9230769230769" /><polyline class="player_lifeline" points="0,307.6923076923077 92,307.6923076923077" /><polyline class="player_lifeline" points="112,307.6923076923077 260,307.6923076923077" /><polyline class="player_lifeline" points="280,307.6923076923077 372,307.6923076923077" /><polyline class="player_lifeline" points="394,307.6923076923077 742,307.6923076923077" /><polyline class="player_lifeline" points="760,307.6923076923077 958,307.6923076923077" /><polyline class="player_lifeline" points="0,338.46153846153845 108,338.46153846153845" /><polyline class="player_lifeline" points="130,338.46153846153845 276,338.46153846153845" /><polyline class="player_lifeline" points="294,338.46153846153845 382,338.46153846153845" /><polyline class="player_lifeline" points="400,338.46153846153845 750,338.46153846153845" /><polyline class="player_lifeline" points="770,338.46153846153845 958,338.46153846153845" /><polyline class="player_lifeline" points="0,369.2307692307692 134,369.2307692307692" /><polyline class="player_lifeline" points="154,369.2307692307692 260,369.2307692307692" /><polyline class="player_lifeline" points="280,369.2307692307692 394,369.2307692307692" /><polyline class="player_lifeline" points="414,369.2307692307692 758,369.2307692307692" /><polyline class="player_lifeline" points="780,369.2307692307692 958,369.2307692307692" /></g><g class="advantages"><polyline class="player_advantage" points="2,200.0 4,200.0 6,200.0 8,200.0 10,200.0 12,200.0 14,200.0 16,200.0 18,200.0 20,200.0 22,200.0 24,200.0 26,200.0 28,200.0 30,200.0 32,200.0 34,200.0 36,200.0 38,200.0 40,200.0 42,200.0 44,200.0 46,200.0 48,200.0 50,200.0 52,200.0 54,200.0 56,200.0 58,200.0 60,200.0 62,200.0 64,200.0 66,200.0 68,200.0 70,200.0 72,200.0 74,200.0 76,200.0 78,200.0 80,200.0 82,200.0 84,200.0 86,200.0 88,200.0 90,200.0 92,200.0 94,166.66666666666666 96,166.66666666666666 98,166.66666666666666 100,166.66666666666666 102,166.66666666666666 104,166.66666666666666 106,166.66666666666666 108,133.33333333333331 110,100.0 112,133.33333333333331 114,133.33333333333331 116,133.33333333333331 118,100.0 120,66.66666666666663 122,66.66666666666663 124,100.0 126,100.0 128,100.0 130,133.33333333333331 132,133.33333333333331 134,133.33333333333331 136,133.33333333333331 138,166.66666666666666 140,166.66666666666666 142,166.66666666666666 144,166.66666666666666 146,166.66666666666666 148,166.66666666666666 150,166.66666666666666 152,166.66666666666666 154,200.0 156,200.0 158,200.0 160,200.0 162,200.0 164,200.0 166,200.0 168,200.0 170,200.0 172,200.0 174,200.0 176,200.0 178,200.0 180,200.0 182,200.0 184,200.0 186,200.0 188,233.33333333333331 190,233.33333333333331 192,266.66666666666663 194,300.0 196,300.0 198,300.0 200,300.0 202,266.66666666666663 204,266.66666666666663 206,300.0 208,300.0 210,266.66666666666663 212,233.33333333333331 214,233.33333333333331 216,233.33333333333331 218,233.33333333333331 220,200.0 222,200.0 224,200.0 226,200.0 228,200.0 230,200.0 232,200.0 234,200.0 236,200.0 238,200.0 240,200.0 242,200.0 244,200.0 246,200.0 248,200.0 250,200.0 252,200.0 254,200.0 256,200.0 258,200.0 260,200.0 262,100.0 264,100.0 266,133.33333333333331 268,133.33333333333331 270,133.33333333333331 272,133.33333333333331 274,100.0 276,100.0 278,66.66666666666663 280,166.66666666666666 282,166.66666666666666 284,166.66666666666666 286,166.66666666666666 288,166.66666666666666 290,166.66666666666666 292,166.66666666666666 294,200.0 296,200.0 298,200.0 300,200.0 302,200.0 304,200.0 306,200.0 308,200.0 310,200.0 312,200.0 314,200.0 316,200.0 318,200.0 320,200.0 322,200.0 324,200.0 326,200.0 328,200.0 330,200.0 332,200.0 334,200.0 336,200.0 338,200.0 340,200.0 342,200.0 344,200.0 346,200.0 348,200.0 350,200.0 352,200.0 354,200.0 356,200.0 358,200.0 360,200.0 362,200.0 364,200.0 366,200.0 368,200.0 370,200.0 372,200.0 374,166.66666666666666 376,166.66666666666666 378,133.33333333333331 380,133.33333333333331 382,133.33333333333331 384,100.0 386,100.0 388,100.0 390,100.0 392,66.66666666666663 394,100.0 396,100.0 398,100.0 400,133.33333333333331 402,100.0 404,133.33333333333331 406,133.33333333333331 408,133.33333333333331 410,133.33333333333331 412,133.33333333333331 414,166.66666666666666 416,166.66666666666666 418,166.66666666666666 420,200.0 422,200.0 424,200.0 426,200.0 428,200.0 430,200.0 432,200.0 434,200.0 436,200.0 438,200.0 440,200.0 442,200.0 444,200.0 446,200.0 448,200.0 450,200.0 452,233.33333333333331 454,233.33333333333331 456,233.33333333333331 458,233.33333333333331 460,233.33333333333331 462,233.33333333333331 464,233.33333333333331 466,233.33333333333331 468,233.33333333333331 470,233.33333333333331 472,266.66666666666663 474,266.66666666666663 476,266.66666666666663 478,300.0 480,333.3333333333333 482,333.3333333333333 484,366.6666666666667 486,366.6666666666667 488,366.6666666666667 490,333.3333333333333 492,300.0 494,300.0 496,266.66666666666663 498,266.66666666666663 500,233.33333333333331 502,233.33333333333331 504,200.0 506,200.0 508,200.0 510,200.0 512,200.0 514,200.0 516,200.0 518,200.0 520,200.0 522,200.0 524,200.0 526,200.0 528,200.0 530,200.0 532,200.0 534,200.0 536,200.0 538,200.0 540,200.0 542,200.0 544,200.0 546,200.0 548,200.0 550,200.0 552,200.0" /><polyline class="player_advantage" points="564,233.33333333333331 566,233.33333333333331 568,233.33333333333331 570,233.33333333333331 572,233.33333333333331 574,266.66666666666663 576,233.33333333333331 578,233.33333333333331 580,266.66666666666663 582,266.66666666666663 584,266.66666666666663 586,266.66666666666663 588,266.66666666666663 590,266.66666666666663 592,233.33333333333331 594,233.33333333333331 596,233.33333333333331 598,200.0 600,200.0 602,200.0 604,200.0 606,200.0 608,200.0 610,200.0 612,200.0 614,200.0 616,200.0 618,200.0 620,200.0 622,200.0 624,200.0 626,200.0 628,200.0 630,200.0 632,200.0 634,233.33333333333331 636,233.33333333333331 638,200.0 640,200.0 642,200.0 644,200.0 646,200.0 648,200.0 650,200.0 652,200.0 654,233.33333333333331 656,233.33333333333331 658,233.33333333333331 660,233.33333333333331 662,233.33333333333331 664,233.33333333333331 666,233.33333333333331 668,300.0 670,266.66666666666663 672,266.66666666666663 674,266.66666666666663 676,266.66666666666663 678,266.66666666666663 680,266.66666666666663 682,266.66666666666663 684,266.66666666666663 686,233.33333333333331 688,200.0 690,200.0 692,200.0 694,200.0 696,200.0 698,200.0 700,200.0 702,200.0 704,200.0 706,200.0 708,200.0 710,200.0 712,200.0 714,200.0 716,200.0 718,200.0 720,200.0 722,200.0 724,200.0 726,200.0 728,200.0 730,200.0 732,200.0 734,200.0 736,200.0 738,200.0 740,200.0 742,200.0 744,166.66666666666666 746,166.66666666666666 748,166.66666666666666 750,166.66666666666666 752,166.66666666666666 754,166.66666666666666 756,166.66666666666666 758,166.66666666666666 760,166.66666666666666 762,166.66666666666666 764,166.66666666666666 766,166.66666666666666 768,166.66666666666666 770,200.0 772,166.66666666666666 774,166.66666666666666 776,166.66666666666666 778,200.0 780,233.33333333333331 782,233.33333333333331 784,233.33333333333331 786,233.33333333333331 788,233.33333333333331 790,233.33333333333331 792,233.33333333333331 794,233.33333333333331 796,233.33333333333331 798,200.0 800,166.66666666666666 802,166.66666666666666 804,166.66666666666666 806,166.66666666666666 808,166.66666666666666 810,166.66666666666666 812,166.66666666666666 814,200.0 816,233.33333333333331 818,233.33333333333331 820,266.66666666666663 822,300.0 824,300.0 826,300.0 828,300.0 830,266.66666666666663 832,266.66666666666663 834,266.66666666666663 836,266.66666666666663 838,266.66666666666663 840,233.33333333333331 842,233.33333333333331 844,233.33333333333331 846,233.33333333333331 848,233.33333333333331 850,233.33333333333331 852,233.33333333333331 854,200.0 856,200.0 858,200.0 860,200.0 862,200.0 864,200.0 866,200.0 868,200.0 870,200.0 872,200.0 874,200.0 876,200.0 878,200.0 880,200.0 882,200.0 884,200.0 886,200.0 888,200.0 890,200.0 892,200.0 894,200.0 896,200.0 898,200.0 900,200.0 902,200.0 904,200.0 906,233.33333333333331" /><polyline class="player_advantage" points="918,266.66666666666663 920,266.66666666666663 922,266.66666666666663 924,200.0 926,200.0 928,266.66666666666663 930,266.66666666666663 932,233.33333333333331 934,233.33333333333331 936,233.33333333333331 938,233.33333333333331 940,233.33333333333331 942,233.33333333333331 944,233.33333333333331 946,200.0 948,200.0 950,200.0 952,200.0 954,200.0 956,233.33333333333331 958,233.33333333333331 958,233.33333333333331" /></g><g class="minute_ref"><line class="minute_ref_line" x1="120" x2="120" y1="0" y2="400" /><text x="120" y="420">1:00</text><line class="minute_ref_line" x1="240" x2="240" y1="0" y2="400" /><text x="240" y="420">2:00</text><line class="minute_ref_line" x1="360" x2="360" y1="0" y2="400" /><text x="360" y="420">3:00</text><line class="minute_ref_line" x1="480" x2="480" y1="0" y2="400" /><text x="480" y="420">4:00</text><line class="minute_ref_line" x1="600" x2="600" y1="0" y2="400" /><text x="600" y="420">5:00</text><line class="minute_ref_line" x1="720" x2="720" y1="0" y2="400" /><text x="720" y="420">6:00</text><line class="minute_ref_line" x1="840" x2="840" y1="0" y2="400" /><text x="840" y="420">7:00</text></g></g></svg>