<?xml version="1.0" encoding="utf-8" ?>
<svg baseProfile="full" height="100%" version="1.1" width="100%" xmlns="http://www.w3.org/2000/svg" xmlns:ev="http://www.w3.org/2001/xml-events" xmlns:xlink="http://www.w3.org/1999/xlink"><defs><style type="text/css"><![CDATA[
.player_lifelines {
  display: none
}

.player_lifeline {
  fill:none;
  stroke: green;
  stroke-width: 1;
  display: inline
}

.graph_border {
  fill: none;
  stroke: black;
}

.minute_ref_line {
  stroke: gray;
  stroke-width: 1;
  stroke-dasharray: 1,4
}


        .fight_area {
        fill: lightyellow;
        stroke: gold;
        stroke-width: 1
        }
        
        .replay_area {
        fill:lightgray;
        stroke: lightgray;
        stroke-width: 0
        }
        
        .progress_target_line {
        stroke: gray;
        stroke_width: 1;
        stroke-dasharray: 3,1
        }

        .progress_completion_line {
        stroke: gray;
        stroke_width: 1
        }
        
        .payload_progress {
        fill:none;
        stroke: blue;
        stroke-width: 2
        }
        
        .player_advantage {
        fill:none;
        stroke: red;
        stroke-width: 1
        }
        ]]></style></defs><text x="10" y="20">San Francisco Shock at New York Excelsior(A) on junkertown round 2</text><g class="graph" transform="translate(10, 45)"><rect class="graph_border" height="400" width="646" x="0" y="0" /><g class="fights"><rect class="fight_area" height="27.439999999999998" width="28" x="46" y="322.28" /><text x="46" y="322.28">#1 -2</text><rect class="fight_area" height="6.839999999999975" width="48" x="132" y="315.44" /><text x="132" y="315.44">#2 -5</text><rect class="fight_area" height="18.279999999999973" width="2" x="254" y="297.16" /><text x="254" y="297.16">#3 1</text><rect class="fight_area" height="77.72000000000003" width="40" x="298" y="219.44" /><text x="298" y="219.44">#4 5</text><rect class="fight_area" height="75.44" width="54" x="410" y="144.0" /><text x="410" y="144.0">#5 4</text><rect class="fight_area" height="61.72" width="14" x="508" y="82.28" /><text x="508" y="82.28">#6 2</text><rect class="fight_area" height="50.280000000000015" width="2" x="560" y="31.999999999999986" /><text x="560" y="31.999999999999986">#7 1</text><rect class="fight_area" height="368.0" width="50" x="596" y="31.999999999999986" /><text x="596" y="31.999999999999986">#8 8</text></g><g class="completion"><line class="progress_target_line" x1="342" x2="342" y1="0.0" y2="272.0" /><line class="progress_completion_line" x1="0" x2="342" y1="272.0" y2="272.0" /><text x="342" y="-5">02:51</text><line class="progress_target_line" x1="518" x2="518" y1="0.0" y2="134.83999999999997" /><line class="progress_completion_line" x1="342" x2="518" y1="134.83999999999997" y2="134.83999999999997" /><text x="518" y="-5">04:19</text></g><g class="progress"><polyline class="payload_progress" points="0,400 2,400.0 4,400.0 6,400.0 8,400.0 10,400.0 12,400.0 14,400.0 16,393.16 18,390.84 20,388.56 22,384.0 24,381.72 26,379.44 28,374.84000000000003 30,371.44 32,370.28 34,365.72 36,364.56 38,361.16 40,356.56 42,355.44 44,352.0 46,349.71999999999997 48,347.44 50,342.84 52,340.55999999999995 54,338.28000000000003 56,338.28000000000003 58,338.28000000000003 60,338.28000000000003 62,338.28000000000003 64,338.28000000000003 66,338.28000000000003 68,336.0 70,336.0 72,336.0 74,336.0 76,336.0 78,336.0 80,336.0 82,336.0 84,336.0 86,336.0 88,336.0 90,337.15999999999997 92,337.15999999999997 94,338.28000000000003 96,338.28000000000003 98,338.28000000000003 100,338.28000000000003 102,338.28000000000003 104,338.28000000000003 106,338.28000000000003 108,338.28000000000003 110,338.28000000000003 112,338.28000000000003 114,336.0 116,333.72 118,331.44 120,331.44 122,329.15999999999997 124,326.84 126,326.84 128,324.56 130,324.56 132,322.28 134,322.28 136,316.56 138,316.56 140,313.16 142,308.56 144,305.16 146,304.0 148,304.0 150,304.0 152,301.71999999999997 154,300.56 156,300.56 158,300.56 160,299.44 162,299.44 164,299.44 166,299.44 168,299.44 170,299.44 172,299.44 174,299.44 176,299.44 178,299.44 180,300.56 182,301.71999999999997 184,301.71999999999997 186,301.71999999999997 188,301.71999999999997 190,301.71999999999997 192,301.71999999999997 194,301.71999999999997 196,301.71999999999997 198,304.0 200,304.0 202,304.0 204,304.0 206,306.28000000000003 208,306.28000000000003 210,306.28000000000003 212,306.28000000000003 214,308.56 216,308.56 218,310.84000000000003 220,310.84000000000003 222,310.84000000000003 224,310.84000000000003 226,310.84000000000003 228,310.84000000000003 230,310.84000000000003 232,310.84000000000003 234,310.84000000000003 236,310.84000000000003 238,310.84000000000003 240,310.84000000000003 242,310.84000000000003 244,313.16 246,315.44 248,315.44 250,315.44 252,315.44 254,315.44 256,315.44 258,315.44 260,315.44 262,315.44 264,315.44 266,315.44 268,315.44 270,315.44 272,315.44 274,315.44 276,315.44 278,315.44 280,313.16 282,313.16 284,313.16 286,310.84000000000003 288,310.84000000000003 290,310.84000000000003 292,306.28000000000003 294,301.71999999999997 296,301.71999999999997 298,297.16 300,292.56 302,292.56 304,289.15999999999997 306,288.0 308,288.0 310,288.0 312,285.71999999999997 314,283.44 316,282.28 318,281.16 320,281.16 322,281.16 324,281.16 326,281.16 328,281.16 330,281.16 332,280.0 334,280.0 336,276.56 338,276.56 340,274.28 342,272.0 344,269.72 346,269.72 348,269.72 350,269.72 352,269.72 354,269.72 356,269.72 358,269.72 360,269.72 362,269.72 364,269.72 366,269.72 368,267.44000000000005 370,265.16 372,265.16 374,262.84000000000003 376,258.28 378,256.0 380,251.44000000000003 382,250.27999999999997 384,246.84 386,244.55999999999997 388,240.0 390,240.0 392,237.72000000000003 394,237.72000000000003 396,235.44 398,235.44 400,228.56 402,228.56 404,225.15999999999997 406,224.00000000000003 408,219.44 410,219.44 412,219.44 414,219.44 416,219.44 418,219.44 420,219.44 422,219.44 424,219.44 426,217.15999999999997 428,214.84 430,210.28000000000003 432,210.28000000000003 434,205.72 436,201.16 438,201.16 440,201.16 442,194.28 444,192.0 446,192.0 448,189.72000000000003 450,187.44 452,185.16 454,182.83999999999997 456,180.56 458,175.99999999999997 460,173.72 462,173.72 464,166.84 466,164.56 468,164.56 470,160.0 472,157.72 474,155.43999999999997 476,152.0 478,150.84 480,146.28 482,144.0 484,144.0 486,144.0 488,144.0 490,144.0 492,144.0 494,144.0 496,144.0 498,144.0 500,144.0 502,144.0 504,144.0 506,144.0 508,144.0 510,144.0 512,144.0 514,139.44 516,137.16 518,134.83999999999997 520,134.83999999999997 522,131.44 524,127.99999999999999 526,127.99999999999999 528,123.44 530,118.84000000000002 532,118.84000000000002 534,114.27999999999999 536,109.72 538,109.72 540,107.43999999999998 542,102.84 544,100.55999999999999 546,98.28000000000002 548,96.0 550,91.44000000000001 552,91.44000000000001 554,91.44000000000001 556,86.83999999999999 558,84.56000000000002 560,82.28 562,77.72000000000001 564,77.72000000000001 566,75.44 568,73.15999999999998 570,70.84000000000002 572,68.56 574,65.16000000000003 576,61.72 578,57.16000000000001 580,54.84 582,54.84 584,54.84 586,46.83999999999999 588,43.44000000000001 590,38.83999999999999 592,36.56000000000002 594,36.56000000000002 596,31.999999999999986 598,29.720000000000013 600,26.279999999999994 602,20.560000000000002 604,20.560000000000002 606,18.279999999999987 608,18.279999999999987 610,16.000000000000014 612,13.719999999999999 614,11.439999999999984 616,9.160000000000013 618,9.160000000000013 620,9.160000000000013 622,9.160000000000013 624,9.160000000000013 626,9.160000000000013 628,9.160000000000013 630,4.559999999999986 632,4.559999999999986 634,4.559999999999986 636,4.559999999999986 638,4.559999999999986 640,4.559999999999986 642,4.559999999999986 644,4.559999999999986 646,4.559999999999986 646,400.0" /></g><g class="player_lifelines"><polyline class="player_lifeline" points="0,30.76923076923077 68,30.76923076923077" /><polyline class="player_lifeline" points="82,30.76923076923077 252,30.76923076923077" /><polyline class="player_lifeline" points="272,30.76923076923077 332,30.76923076923077" /><polyline class="player_lifeline" points="352,30.76923076923077 462,30.76923076923077" /><polyline class="player_lifeline" points="482,30.76923076923077 520,30.76923076923077" /><polyline class="player_lifeline" points="540,30.76923076923077 624,30.76923076923077" /><polyline class="player_lifeline" points="644,30.76923076923077 646,30.76923076923077" /><polyline class="player_lifeline" points="0,61.53846153846154 144,61.53846153846154" /><polyline class="player_lifeline" points="154,61.53846153846154 310,61.53846153846154" /><polyline class="player_lifeline" points="330,61.53846153846154 506,61.53846153846154" /><polyline class="player_lifeline" points="526,61.53846153846154 594,61.53846153846154" /><polyline class="player_lifeline" points="616,61.53846153846154 634,61.53846153846154" /><polyline class="player_lifeline" points="0,92.3076923076923 336,92.3076923076923" /><polyline class="player_lifeline" points="356,92.3076923076923 440,92.3076923076923" /><polyline class="player_lifeline" points="460,92.3076923076923 558,92.3076923076923" /><polyline class="player_lifeline" points="578,92.3076923076923 596,92.3076923076923" /><polyline class="player_lifeline" points="616,92.3076923076923 636,92.3076923076923" /><polyline class="player_lifeline" points="0,123.07692307692308 322,123.07692307692308" /><polyline class="player_lifeline" points="342,123.07692307692308 408,123.07692307692308" /><polyline class="player_lifeline" points="428,123.07692307692308 628,123.07692307692308" /><polyline class="player_lifeline" points="0,153.84615384615384 334,153.84615384615384" /><polyline class="player_lifeline" points="354,153.84615384615384 418,153.84615384615384" /><polyline class="player_lifeline" points="440,153.84615384615384 604,153.84615384615384" /><polyline class="player_lifeline" points="624,153.84615384615384 644,153.84615384615384" /><polyline class="player_lifeline" points="0,184.6153846153846 296,184.6153846153846" /><polyline class="player_lifeline" points="314,184.6153846153846 442,184.6153846153846" /><polyline class="player_lifeline" points="462,184.6153846153846 630,184.6153846153846" /><polyline class="player_lifeline" points="0,215.3846153846154 72,215.3846153846154" /><polyline class="player_lifeline" points="92,215.3846153846154 162,215.3846153846154" /><polyline class="player_lifeline" points="178,215.3846153846154 646,215.3846153846154" /><polyline class="player_lifeline" points="0,246.15384615384616 166,246.15384615384616" /><polyline class="player_lifeline" points="186,246.15384615384616 646,246.15384615384616" /><polyline class="player_lifeline" points="0,276.9230769230769 178,276.9230769230769" /><polyline class="player_lifeline" points="198,276.9230769230769 420,276.9230769230769" /><polyline class="player_lifeline" points="442,276.9230769230769 646,276.9230769230769" /><polyline class="player_lifeline" points="0,307.6923076923077 58,307.6923076923077" /><polyline class="player_lifeline" points="78,307.6923076923077 130,307.6923076923077" /><polyline class="player_lifeline" points="150,307.6923076923077 606,307.6923076923077" /><polyline class="player_lifeline" points="620,307.6923076923077 646,307.6923076923077" /><polyline class="player_lifeline" points="0,338.46153846153845 44,338.46153846153845" /><polyline class="player_lifeline" points="64,338.46153846153845 156,338.46153846153845" /><polyline class="player_lifeline" points="176,338.46153846153845 646,338.46153846153845" /><polyline class="player_lifeline" points="0,369.2307692307692 142,369.2307692307692" /><polyline class="player_lifeline" points="160,369.2307692307692 310,369.2307692307692" /><polyline class="player_lifeline" points="330,369.2307692307692 646,369.2307692307692" /></g><g class="advantages"><polyline class="player_advantage" points="2,200.0 4,200.0 6,200.0 8,200.0 10,200.0 12,200.0 14,200.0 16,200.0 18,200.0 20,200.0 22,200.0 24,200.0 26,200.0 28,200.0 30,200.0 32,200.0 34,200.0 36,200.0 38,200.0 40,200.0 42,200.0 44,200.0 46,233.33333333333331 48,233.33333333333331 50,233.33333333333331 52,233.33333333333331 54,233.33333333333331 56,233.33333333333331 58,233.33333333333331 60,266.66666666666663 62,266.66666666666663 64,233.33333333333331 66,233.33333333333331 68,233.33333333333331 70,200.0 72,200.0 74,233.33333333333331 76,233.33333333333331 78,200.0 80,200.0 82,233.33333333333331 84,233.33333333333331 86,233.33333333333331 88,233.33333333333331 90,233.33333333333331 92,200.0 94,200.0 96,200.0 98,200.0 100,200.0 102,200.0 104,200.0 106,200.0 108,200.0 110,200.0 112,200.0 114,200.0 116,200.0 118,200.0 120,200.0 122,200.0 124,200.0 126,200.0 128,200.0 130,200.0 132,233.33333333333331 134,233.33333333333331 136,233.33333333333331 138,233.33333333333331 140,233.33333333333331 142,233.33333333333331 144,266.66666666666663 146,233.33333333333331 148,233.33333333333331 150,200.0 152,200.0 154,233.33333333333331 156,233.33333333333331 158,266.66666666666663 160,233.33333333333331 162,233.33333333333331 164,266.66666666666663 166,266.66666666666663 168,300.0 170,300.0 172,300.0 174,300.0 176,266.66666666666663 178,233.33333333333331 180,266.66666666666663 182,266.66666666666663 184,266.66666666666663 186,233.33333333333331 188,233.33333333333331 190,233.33333333333331 192,233.33333333333331 194,233.33333333333331 196,233.33333333333331 198,200.0 200,200.0 202,200.0 204,200.0 206,200.0 208,200.0 210,200.0 212,200.0 214,200.0 216,200.0 218,200.0 220,200.0 222,200.0 224,200.0 226,200.0 228,200.0 230,200.0 232,200.0 234,200.0 236,200.0 238,200.0 240,200.0 242,200.0 244,200.0 246,200.0 248,200.0 250,200.0 252,200.0 254,166.66666666666666 256,166.66666666666666 258,166.66666666666666 260,166.66666666666666 262,166.66666666666666 264,166.66666666666666 266,166.66666666666666 268,166.66666666666666 270,166.66666666666666 272,200.0 274,200.0 276,200.0 278,200.0 280,200.0 282,200.0 284,200.0 286,200.0 288,200.0 290,200.0 292,200.0 294,200.0 296,200.0 298,166.66666666666666 300,166.66666666666666 302,166.66666666666666 304,166.66666666666666 306,166.66666666666666 308,166.66666666666666 310,166.66666666666666 312,166.66666666666666 314,200.0 316,200.0 318,200.0 320,200.0 322,200.0 324,166.66666666666666 326,166.66666666666666 328,166.66666666666666 330,166.66666666666666 332,166.66666666666666 334,133.33333333333331 336,100.0 338,66.66666666666663 340,66.66666666666663 342,100.0 344,100.0 346,100.0 348,100.0 350,100.0 352,133.33333333333331 354,166.66666666666666 356,200.0 358,200.0 360,200.0 362,200.0 364,200.0 366,200.0 368,200.0 370,200.0 372,200.0 374,200.0 376,200.0 378,200.0 380,200.0 382,200.0 384,200.0 386,200.0 388,200.0 390,200.0 392,200.0 394,200.0 396,200.0 398,200.0 400,200.0 402,200.0 404,200.0 406,200.0 408,200.0 410,166.66666666666666 412,166.66666666666666 414,166.66666666666666 416,166.66666666666666 418,166.66666666666666 420,133.33333333333331 422,166.66666666666666 424,166.66666666666666 426,166.66666666666666 428,200.0 430,200.0 432,200.0 434,200.0 436,200.0 438,200.0 440,233.33333333333331 442,166.66666666666666 444,133.33333333333331 446,133.33333333333331 448,133.33333333333331 450,133.33333333333331 452,133.33333333333331 454,133.33333333333331 456,133.33333333333331 458,133.33333333333331 460,166.66666666666666 462,200.0 464,166.66666666666666 466,166.66666666666666 468,166.66666666666666 470,166.66666666666666 472,166.66666666666666 474,166.66666666666666 476,166.66666666666666 478,166.66666666666666 480,166.66666666666666 482,200.0 484,200.0 486,200.0 488,200.0 490,200.0 492,200.0 494,200.0 496,200.0 498,200.0 500,200.0 502,200.0 504,200.0 506,200.0 508,166.66666666666666 510,166.66666666666666 512,166.66666666666666 514,166.66666666666666 516,166.66666666666666 518,166.66666666666666 520,166.66666666666666 522,133.33333333333331 524,133.33333333333331 526,166.66666666666666 528,166.66666666666666 530,166.66666666666666 532,166.66666666666666 534,166.66666666666666 536,166.66666666666666 538,166.66666666666666 540,200.0 542,200.0 544,200.0 546,200.0 548,200.0 550,200.0 552,200.0 554,200.0 556,200.0 558,200.0 560,166.66666666666666 562,166.66666666666666 564,166.66666666666666 566,166.66666666666666 568,166.66666666666666 570,166.66666666666666 572,166.66666666666666 574,166.66666666666666 576,166.66666666666666 578,200.0 580,200.0 582,200.0 584,200.0 586,200.0 588,200.0 590,200.0 592,200.0 594,200.0 596,166.66666666666666 598,133.33333333333331 600,133.33333333333331 602,133.33333333333331 604,133.33333333333331 606,100.0 608,133.33333333333331 610,133.33333333333331 612,133.33333333333331 614,133.33333333333331 616,200.0 618,200.0 620,166.66666666666666 622,166.66666666666666 624,200.0 626,166.66666666666666 628,166.66666666666666 630,133.33333333333331 632,100.0 634,100.0 636,66.66666666666663 638,33.333333333333314 640,33.333333333333314 642,33.333333333333314 644,66.66666666666663 646,33.333333333333314 646,33.333333333333314" /></g><g class="minute_ref"><line class="minute_ref_line" x1="120" x2="120" y1="0" y2="400" /><text x="120" y="420">1:00</text><line class="minute_ref_line" x1="240" x2="240" y1="0" y2="400" /><text x="240" y="420">2:00</text><line class="minute_ref_line" x1="360" x2="360" y1="0" y2="400" /><text x="360" y="420">3:00</text><line class="minute_ref_line" x1="480" x2="480" y1="0" y2="400" /><text x="480" y="420">4:00</text><line class="minute_ref_line" x1="600" x2="600" y1="0" y2="400" /><text x="600" y="420">5:00</text></g></g></svg>