<?xml version="1.0" encoding="utf-8" ?>
<svg baseProfile="full" height="100%" version="1.1" width="100%" xmlns="http://www.w3.org/2000/svg" xmlns:ev="http://www.w3.org/2001/xml-events" xmlns:xlink="http://www.w3.org/1999/xlink"><defs><style type="text/css"><![CDATA[
.player_lifelines {
  display: none
}

.player_lifeline {
  fill:none;
  stroke: green;
  stroke-width: 1;
  display: inline
}

.graph_border {
  fill: none;
  stroke: black;
}

.minute_ref_line {
  stroke: gray;
  stroke-width: 1;
  stroke-dasharray: 1,4
}


        .fight_area {
        fill: lightyellow;
        stroke: gold;
        stroke-width: 1
        }
        
        .replay_area {
        fill:lightgray;
        stroke: lightgray;
        stroke-width: 0
        }
        
        .progress_target_line {
        stroke: gray;
        stroke_width: 1;
        stroke-dasharray: 3,1
        }

        .progress_completion_line {
        stroke: gray;
        stroke_width: 1
        }
        
        .payload_progress {
        fill:none;
        stroke: blue;
        stroke-width: 2
        }
        
        .player_advantage {
        fill:none;
        stroke: red;
        stroke-width: 1
        }
        ]]></style></defs><text x="10" y="20">Seoul Dynasty(A) at Los Angeles Gladiators on junkertown round 1</text><g class="graph" transform="translate(10, 45)"><rect class="graph_border" height="400" width="1014" x="0" y="0" /><g class="fights"><rect class="fight_area" height="60.599999999999966" width="20" x="22" y="324.56" /><text x="22" y="324.56">#1 -1</text><rect class="fight_area" height="25.120000000000005" width="86" x="82" y="299.44" /><text x="82" y="299.44">#2 0</text><rect class="fight_area" height="44.599999999999994" width="28" x="212" y="254.84" /><text x="212" y="254.84">#3 5</text><rect class="fight_area" height="49.120000000000005" width="20" x="276" y="205.72" /><text x="276" y="205.72">#4 1</text><rect class="fight_area" height="8.0" width="36" x="322" y="201.72" /><text x="322" y="201.72">#5 -4</text><rect class="fight_area" height="11.43999999999997" width="4" x="430" y="205.72" /><text x="430" y="205.72">#6 -3</text><rect class="fight_area" height="25.159999999999968" width="42" x="496" y="192.0" /><text x="496" y="192.0">#7 -4</text><rect class="fight_area" height="29.720000000000027" width="66" x="626" y="162.27999999999997" /><text x="626" y="162.27999999999997">#8 -1</text><rect class="fight_area" height="14.839999999999947" width="10" x="742" y="147.44000000000003" /><text x="742" y="147.44000000000003">#9 0</text><rect class="fight_area" height="43.440000000000026" width="52" x="788" y="104.0" /><text x="788" y="104.0">#10 4</text><rect class="fight_area" height="12.559999999999988" width="26" x="898" y="91.44000000000001" /><text x="898" y="91.44000000000001">#11 -4</text><rect class="fight_area" height="9.120000000000019" width="16" x="998" y="87.44000000000001" /><text x="998" y="87.44000000000001">#12 -3</text></g><g class="replays"><rect class="replay_area" height="398" width="20" x="866" y="1" /></g><g class="completion"><line class="progress_target_line" x1="236" x2="236" y1="0.0" y2="272.0" /><line class="progress_completion_line" x1="0" x2="236" y1="272.0" y2="272.0" /><text x="236" y="-5">01:58</text><line class="progress_target_line" x1="886" x2="886" y1="0.0" y2="110.84" /><line class="progress_completion_line" x1="236" x2="886" y1="110.84" y2="110.84" /><text x="886" y="-5">07:23</text></g><g class="progress"><polyline class="payload_progress" points="0,400 0,400.0 2,400.0 4,400.0 6,400.0 8,400.0 10,400.0 12,397.71999999999997 14,395.44 16,392.0 18,390.84 20,388.56 22,385.15999999999997 24,382.84 26,380.56 28,378.28 30,374.84000000000003 32,373.72 34,370.28 36,366.84000000000003 38,364.56 40,362.28 42,360.0 44,356.56 46,354.28000000000003 48,350.84 50,349.71999999999997 52,347.44 54,345.16 56,342.84 58,339.44 60,337.15999999999997 62,334.84 64,332.56 66,330.28 68,328.0 70,325.72 72,325.72 74,325.72 76,324.56 78,324.56 80,324.56 82,324.56 84,324.56 86,324.56 88,324.56 90,322.28 92,320.0 94,317.72 96,315.44 98,313.16 100,312.0 102,312.0 104,312.0 106,312.0 108,312.0 110,312.0 112,312.0 114,312.0 116,312.0 118,312.0 120,312.0 122,312.0 124,312.0 126,312.0 128,312.0 130,310.84000000000003 132,307.44 134,305.16 136,302.84 138,301.71999999999997 140,301.71999999999997 142,301.71999999999997 144,301.71999999999997 146,301.71999999999997 148,301.71999999999997 150,301.71999999999997 152,301.71999999999997 154,301.71999999999997 156,301.71999999999997 158,301.71999999999997 160,301.71999999999997 162,301.71999999999997 164,301.71999999999997 166,301.71999999999997 168,301.71999999999997 170,301.71999999999997 172,301.71999999999997 174,301.71999999999997 176,301.71999999999997 178,301.71999999999997 180,301.71999999999997 182,301.71999999999997 184,301.71999999999997 186,302.84 188,302.84 190,302.84 192,302.84 194,302.84 196,302.84 198,302.84 200,302.84 202,302.84 204,302.84 206,300.56 208,299.44 210,299.44 212,299.44 214,297.16 216,294.84 218,292.56 220,290.28000000000003 222,286.84000000000003 224,284.56 226,282.28 228,282.28 230,280.0 232,277.71999999999997 234,274.28 236,272.0 238,269.72 240,269.72 242,269.72 244,269.72 246,269.72 248,269.72 250,269.72 252,269.72 254,269.72 256,269.72 258,269.72 260,269.72 262,269.72 264,267.44000000000005 266,265.16 268,262.84000000000003 270,260.56 272,259.44000000000005 274,257.16 276,254.84 278,252.55999999999997 280,250.27999999999997 282,248.0 284,245.72000000000003 286,243.44 288,242.28 290,240.0 292,237.72000000000003 294,235.44 296,233.16 298,232.00000000000003 300,228.56 302,227.44 304,225.15999999999997 306,222.83999999999997 308,220.56 310,218.28000000000003 312,217.15999999999997 314,213.72 316,211.44 318,210.28000000000003 320,208.0 322,205.72 324,205.72 326,205.72 328,205.72 330,204.56000000000003 332,202.28000000000003 334,200.0 336,200.0 338,198.84 340,197.71999999999997 342,196.55999999999997 344,196.55999999999997 346,196.55999999999997 348,196.55999999999997 350,196.55999999999997 352,196.55999999999997 354,196.55999999999997 356,196.55999999999997 358,196.55999999999997 360,196.55999999999997 362,196.55999999999997 364,196.55999999999997 366,196.55999999999997 368,196.55999999999997 370,196.55999999999997 372,197.71999999999997 374,197.71999999999997 376,198.84 378,198.84 380,198.84 382,200.0 384,200.0 386,200.0 388,201.16 390,201.16 392,201.16 394,202.28000000000003 396,202.28000000000003 398,202.28000000000003 400,202.28000000000003 402,202.28000000000003 404,202.28000000000003 406,202.28000000000003 408,202.28000000000003 410,202.28000000000003 412,202.28000000000003 414,202.28000000000003 416,202.28000000000003 418,202.28000000000003 420,203.43999999999997 422,203.43999999999997 424,204.56000000000003 426,204.56000000000003 428,204.56000000000003 430,205.72 432,205.72 434,205.72 436,206.84 438,206.84 440,208.0 442,208.0 444,208.0 446,209.15999999999997 448,209.15999999999997 450,400.0 452,400.0 454,400.0 456,400.0 458,400.0 460,400.0 462,400.0 464,400.0 466,400.0 468,400.0 470,400.0 472,400.0 474,400.0 476,400.0 478,217.15999999999997 480,217.15999999999997 482,217.15999999999997 484,217.15999999999997 486,217.15999999999997 488,217.15999999999997 490,217.15999999999997 492,217.15999999999997 494,217.15999999999997 496,217.15999999999997 498,216.0 500,213.72 502,212.56 504,211.44 506,211.44 508,210.28000000000003 510,210.28000000000003 512,210.28000000000003 514,210.28000000000003 516,210.28000000000003 518,210.28000000000003 520,210.28000000000003 522,210.28000000000003 524,210.28000000000003 526,210.28000000000003 528,210.28000000000003 530,211.44 532,211.44 534,211.44 536,212.56 538,212.56 540,212.56 542,213.72 544,213.72 546,214.84 548,214.84 550,214.84 552,216.0 554,216.0 556,217.15999999999997 558,217.15999999999997 560,217.15999999999997 562,218.28000000000003 564,218.28000000000003 566,218.28000000000003 568,219.44 570,219.44 572,219.44 574,220.56 576,220.56 578,220.56 580,220.56 582,220.56 584,220.56 586,220.56 588,220.56 590,219.44 592,217.15999999999997 594,214.84 596,213.72 598,212.56 600,210.28000000000003 602,208.0 604,205.72 606,202.28000000000003 608,200.0 610,197.71999999999997 612,197.71999999999997 614,197.71999999999997 616,195.44000000000003 618,195.44000000000003 620,195.44000000000003 622,195.44000000000003 624,193.16 626,192.0 628,192.0 630,189.72000000000003 632,187.44 634,187.44 636,185.16 638,182.83999999999997 640,182.83999999999997 642,182.83999999999997 644,182.83999999999997 646,182.83999999999997 648,182.83999999999997 650,182.83999999999997 652,182.83999999999997 654,182.83999999999997 656,182.83999999999997 658,182.83999999999997 660,182.83999999999997 662,182.83999999999997 664,182.83999999999997 666,182.83999999999997 668,182.83999999999997 670,182.83999999999997 672,182.83999999999997 674,182.83999999999997 676,182.83999999999997 678,182.83999999999997 680,181.72000000000003 682,181.72000000000003 684,180.56 686,179.44 688,179.44 690,179.44 692,179.44 694,179.44 696,179.44 698,179.44 700,179.44 702,179.44 704,179.44 706,179.44 708,179.44 710,179.44 712,179.44 714,179.44 716,179.44 718,179.44 720,179.44 722,179.44 724,178.28 726,177.16 728,177.16 730,174.84000000000003 732,172.56 734,169.16000000000003 736,166.84 738,165.72 740,163.44 742,162.27999999999997 744,160.0 746,158.84 748,158.84 750,158.84 752,158.84 754,158.84 756,158.84 758,157.72 760,156.56 762,154.28000000000003 764,152.0 766,152.0 768,152.0 770,149.72 772,149.72 774,148.55999999999997 776,147.44000000000003 778,147.44000000000003 780,147.44000000000003 782,147.44000000000003 784,147.44000000000003 786,147.44000000000003 788,147.44000000000003 790,147.44000000000003 792,147.44000000000003 794,147.44000000000003 796,147.44000000000003 798,147.44000000000003 800,147.44000000000003 802,147.44000000000003 804,147.44000000000003 806,147.44000000000003 808,147.44000000000003 810,147.44000000000003 812,147.44000000000003 814,147.44000000000003 816,147.44000000000003 818,147.44000000000003 820,147.44000000000003 822,147.44000000000003 824,147.44000000000003 826,147.44000000000003 828,147.44000000000003 830,147.44000000000003 832,147.44000000000003 834,147.44000000000003 836,145.16 838,145.16 840,145.16 842,145.16 844,145.16 846,145.16 848,145.16 850,145.16 852,145.16 854,145.16 856,145.16 858,145.16" /><polyline class="payload_progress" points="886,110.84 888,108.55999999999999 890,108.55999999999999 892,107.43999999999998 894,106.28000000000002 896,105.16000000000001 898,104.0 900,101.71999999999998 902,99.44000000000001 904,97.16 906,94.83999999999999 908,92.56000000000002 910,91.44000000000001 912,91.44000000000001 914,91.44000000000001 916,91.44000000000001 918,91.44000000000001 920,91.44000000000001 922,91.44000000000001 924,91.44000000000001 926,91.44000000000001 928,91.44000000000001 930,91.44000000000001 932,92.56000000000002 934,92.56000000000002 936,93.71999999999998 938,93.71999999999998 940,93.71999999999998 942,94.83999999999999 944,94.83999999999999 946,94.83999999999999 948,96.0 950,96.0 952,96.0 954,96.0 956,96.0 958,96.0 960,96.0 962,96.0 964,96.0 966,96.0 968,94.83999999999999 970,92.56000000000002 972,91.44000000000001 974,91.44000000000001 976,91.44000000000001 978,91.44000000000001 980,91.44000000000001 982,91.44000000000001 984,91.44000000000001 986,91.44000000000001 988,91.44000000000001 990,91.44000000000001 992,91.44000000000001 994,91.44000000000001 996,91.44000000000001 998,91.44000000000001 1000,91.44000000000001 1002,91.44000000000001 1004,91.44000000000001 1006,91.44000000000001 1008,91.44000000000001 1010,91.44000000000001 1012,91.44000000000001 1014,91.44000000000001 1014,92.56000000000002" /></g><g class="player_lifelines"><polyline class="player_lifeline" points="0,30.76923076923077 136,30.76923076923077" /><polyline class="player_lifeline" points="156,30.76923076923077 356,30.76923076923077" /><polyline class="player_lifeline" points="376,30.76923076923077 536,30.76923076923077" /><polyline class="player_lifeline" points="554,30.76923076923077 896,30.76923076923077" /><polyline class="player_lifeline" points="916,30.76923076923077 1014,30.76923076923077" /><polyline class="player_lifeline" points="0,61.53846153846154 144,61.53846153846154" /><polyline class="player_lifeline" points="164,61.53846153846154 220,61.53846153846154" /><polyline class="player_lifeline" points="234,61.53846153846154 350,61.53846153846154" /><polyline class="player_lifeline" points="370,61.53846153846154 646,61.53846153846154" /><polyline class="player_lifeline" points="652,61.53846153846154 690,61.53846153846154" /><polyline class="player_lifeline" points="708,61.53846153846154 740,61.53846153846154" /><polyline class="player_lifeline" points="756,61.53846153846154 794,61.53846153846154" /><polyline class="player_lifeline" points="820,61.53846153846154 904,61.53846153846154" /><polyline class="player_lifeline" points="924,61.53846153846154 1014,61.53846153846154" /><polyline class="player_lifeline" points="0,92.3076923076923 142,92.3076923076923" /><polyline class="player_lifeline" points="162,92.3076923076923 338,92.3076923076923" /><polyline class="player_lifeline" points="358,92.3076923076923 432,92.3076923076923" /><polyline class="player_lifeline" points="450,92.3076923076923 518,92.3076923076923" /><polyline class="player_lifeline" points="534,92.3076923076923 660,92.3076923076923" /><polyline class="player_lifeline" points="678,92.3076923076923 812,92.3076923076923" /><polyline class="player_lifeline" points="838,92.3076923076923 900,92.3076923076923" /><polyline class="player_lifeline" points="918,92.3076923076923 998,92.3076923076923" /><polyline class="player_lifeline" points="1014,92.3076923076923 1014,92.3076923076923" /><polyline class="player_lifeline" points="0,123.07692307692308 428,123.07692307692308" /><polyline class="player_lifeline" points="448,123.07692307692308 526,123.07692307692308" /><polyline class="player_lifeline" points="548,123.07692307692308 666,123.07692307692308" /><polyline class="player_lifeline" points="684,123.07692307692308 996,123.07692307692308" /><polyline class="player_lifeline" points="1014,123.07692307692308 1014,123.07692307692308" /><polyline class="player_lifeline" points="0,153.84615384615384 156,153.84615384615384" /><polyline class="player_lifeline" points="178,153.84615384615384 320,153.84615384615384" /><polyline class="player_lifeline" points="340,153.84615384615384 430,153.84615384615384" /><polyline class="player_lifeline" points="450,153.84615384615384 670,153.84615384615384" /><polyline class="player_lifeline" points="688,153.84615384615384 922,153.84615384615384" /><polyline class="player_lifeline" points="938,153.84615384615384 1002,153.84615384615384" /><polyline class="player_lifeline" points="1014,153.84615384615384 1014,153.84615384615384" /><polyline class="player_lifeline" points="0,184.6153846153846 20,184.6153846153846" /><polyline class="player_lifeline" points="24,184.6153846153846 108,184.6153846153846" /><polyline class="player_lifeline" points="128,184.6153846153846 494,184.6153846153846" /><polyline class="player_lifeline" points="510,184.6153846153846 636,184.6153846153846" /><polyline class="player_lifeline" points="654,184.6153846153846 806,184.6153846153846" /><polyline class="player_lifeline" points="832,184.6153846153846 1014,184.6153846153846" /><polyline class="player_lifeline" points="0,215.3846153846154 146,215.3846153846154" /><polyline class="player_lifeline" points="164,215.3846153846154 238,215.3846153846154" /><polyline class="player_lifeline" points="254,215.3846153846154 640,215.3846153846154" /><polyline class="player_lifeline" points="660,215.3846153846154 810,215.3846153846154" /><polyline class="player_lifeline" points="828,215.3846153846154 1014,215.3846153846154" /><polyline class="player_lifeline" points="0,246.15384615384616 128,246.15384615384616" /><polyline class="player_lifeline" points="148,246.15384615384616 232,246.15384615384616" /><polyline class="player_lifeline" points="238,246.15384615384616 838,246.15384615384616" /><polyline class="player_lifeline" points="850,246.15384615384616 1014,246.15384615384616" /><polyline class="player_lifeline" points="0,276.9230769230769 230,276.9230769230769" /><polyline class="player_lifeline" points="250,276.9230769230769 804,276.9230769230769" /><polyline class="player_lifeline" points="826,276.9230769230769 1014,276.9230769230769" /><polyline class="player_lifeline" points="0,307.6923076923077 80,307.6923076923077" /><polyline class="player_lifeline" points="100,307.6923076923077 212,307.6923076923077" /><polyline class="player_lifeline" points="230,307.6923076923077 274,307.6923076923077" /><polyline class="player_lifeline" points="286,307.6923076923077 684,307.6923076923077" /><polyline class="player_lifeline" points="704,307.6923076923077 750,307.6923076923077" /><polyline class="player_lifeline" points="770,307.6923076923077 824,307.6923076923077" /><polyline class="player_lifeline" points="850,307.6923076923077 1014,307.6923076923077" /><polyline class="player_lifeline" points="0,338.46153846153845 166,338.46153846153845" /><polyline class="player_lifeline" points="180,338.46153846153845 228,338.46153846153845" /><polyline class="player_lifeline" points="232,338.46153846153845 690,338.46153846153845" /><polyline class="player_lifeline" points="702,338.46153846153845 830,338.46153846153845" /><polyline class="player_lifeline" points="852,338.46153846153845 1014,338.46153846153845" /><polyline class="player_lifeline" points="0,369.2307692307692 104,369.2307692307692" /><polyline class="player_lifeline" points="124,369.2307692307692 210,369.2307692307692" /><polyline class="player_lifeline" points="220,369.2307692307692 624,369.2307692307692" /><polyline class="player_lifeline" points="632,369.2307692307692 664,369.2307692307692" /><polyline class="player_lifeline" points="682,369.2307692307692 786,369.2307692307692" /><polyline class="player_lifeline" points="806,369.2307692307692 836,369.2307692307692" /><polyline class="player_lifeline" points="886,369.2307692307692 1014,369.2307692307692" /></g><g class="advantages"><polyline class="player_advantage" points="0,200.0 2,200.0 4,200.0 6,200.0 8,200.0 10,200.0 12,200.0 14,200.0 16,200.0 18,200.0 20,200.0 22,233.33333333333331 24,200.0 26,200.0 28,200.0 30,200.0 32,200.0 34,200.0 36,200.0 38,200.0 40,200.0 42,200.0 44,200.0 46,200.0 48,200.0 50,200.0 52,200.0 54,200.0 56,200.0 58,200.0 60,200.0 62,200.0 64,200.0 66,200.0 68,200.0 70,200.0 72,200.0 74,200.0 76,200.0 78,200.0 80,200.0 82,166.66666666666666 84,166.66666666666666 86,166.66666666666666 88,166.66666666666666 90,166.66666666666666 92,166.66666666666666 94,166.66666666666666 96,166.66666666666666 98,166.66666666666666 100,200.0 102,200.0 104,200.0 106,166.66666666666666 108,166.66666666666666 110,200.0 112,200.0 114,200.0 116,200.0 118,200.0 120,200.0 122,200.0 124,233.33333333333331 126,233.33333333333331 128,200.0 130,166.66666666666666 132,166.66666666666666 134,166.66666666666666 136,166.66666666666666 138,200.0 140,200.0 142,200.0 144,233.33333333333331 146,266.66666666666663 148,266.66666666666663 150,266.66666666666663 152,266.66666666666663 154,266.66666666666663 156,233.33333333333331 158,266.66666666666663 160,266.66666666666663 162,233.33333333333331 164,233.33333333333331 166,233.33333333333331 168,200.0 170,200.0 172,200.0 174,200.0 176,200.0 178,166.66666666666666 180,200.0 182,200.0 184,200.0 186,200.0 188,200.0 190,200.0 192,200.0 194,200.0 196,200.0 198,200.0 200,200.0 202,200.0 204,200.0 206,200.0 208,200.0 210,200.0 212,166.66666666666666 214,133.33333333333331 216,133.33333333333331 218,133.33333333333331 220,166.66666666666666 222,200.0 224,200.0 226,200.0 228,200.0 230,200.0 232,200.0 234,133.33333333333331 236,133.33333333333331 238,166.66666666666666 240,133.33333333333331 242,133.33333333333331 244,133.33333333333331 246,133.33333333333331 248,133.33333333333331 250,166.66666666666666 252,166.66666666666666 254,200.0 256,200.0 258,200.0 260,200.0 262,200.0 264,200.0 266,200.0 268,200.0 270,200.0 272,200.0 274,200.0 276,166.66666666666666 278,166.66666666666666 280,166.66666666666666 282,166.66666666666666 284,166.66666666666666 286,200.0 288,200.0 290,200.0 292,200.0 294,200.0 296,200.0 298,200.0 300,200.0 302,200.0 304,200.0 306,200.0 308,200.0 310,200.0 312,200.0 314,200.0 316,200.0 318,200.0 320,200.0 322,233.33333333333331 324,233.33333333333331 326,233.33333333333331 328,233.33333333333331 330,233.33333333333331 332,233.33333333333331 334,233.33333333333331 336,233.33333333333331 338,233.33333333333331 340,233.33333333333331 342,233.33333333333331 344,233.33333333333331 346,233.33333333333331 348,233.33333333333331 350,233.33333333333331 352,266.66666666666663 354,266.66666666666663 356,266.66666666666663 358,266.66666666666663 360,266.66666666666663 362,266.66666666666663 364,266.66666666666663 366,266.66666666666663 368,266.66666666666663 370,233.33333333333331 372,233.33333333333331 374,233.33333333333331 376,200.0 378,200.0 380,200.0 382,200.0 384,200.0 386,200.0 388,200.0 390,200.0 392,200.0 394,200.0 396,200.0 398,200.0 400,200.0 402,200.0 404,200.0 406,200.0 408,200.0 410,200.0 412,200.0 414,200.0 416,200.0 418,200.0 420,200.0 422,200.0 424,200.0 426,200.0 428,200.0 430,233.33333333333331 432,266.66666666666663 434,300.0 436,300.0 438,300.0 440,300.0 442,300.0 444,300.0 446,300.0 448,266.66666666666663 450,200.0 452,200.0 454,200.0 456,200.0 458,200.0 460,200.0 462,200.0 464,200.0 466,200.0 468,200.0 470,200.0 472,200.0 474,200.0 476,200.0 478,200.0 480,200.0 482,200.0 484,200.0 486,200.0 488,200.0 490,200.0 492,200.0 494,200.0 496,233.33333333333331 498,233.33333333333331 500,233.33333333333331 502,233.33333333333331 504,233.33333333333331 506,233.33333333333331 508,233.33333333333331 510,200.0 512,200.0 514,200.0 516,200.0 518,200.0 520,233.33333333333331 522,233.33333333333331 524,233.33333333333331 526,233.33333333333331 528,266.66666666666663 530,266.66666666666663 532,266.66666666666663 534,233.33333333333331 536,233.33333333333331 538,266.66666666666663 540,266.66666666666663 542,266.66666666666663 544,266.66666666666663 546,266.66666666666663 548,233.33333333333331 550,233.33333333333331 552,233.33333333333331 554,200.0 556,200.0 558,200.0 560,200.0 562,200.0 564,200.0 566,200.0 568,200.0 570,200.0 572,200.0 574,200.0 576,200.0 578,200.0 580,200.0 582,200.0 584,200.0 586,200.0 588,200.0 590,200.0 592,200.0 594,200.0 596,200.0 598,200.0 600,200.0 602,200.0 604,200.0 606,200.0 608,200.0 610,200.0 612,200.0 614,200.0 616,200.0 618,200.0 620,200.0 622,200.0 624,200.0 626,166.66666666666666 628,166.66666666666666 630,166.66666666666666 632,200.0 634,200.0 636,200.0 638,233.33333333333331 640,233.33333333333331 642,200.0 644,200.0 646,200.0 648,233.33333333333331 650,233.33333333333331 652,200.0 654,166.66666666666666 656,166.66666666666666 658,166.66666666666666 660,200.0 662,233.33333333333331 664,233.33333333333331 666,200.0 668,233.33333333333331 670,233.33333333333331 672,266.66666666666663 674,266.66666666666663 676,266.66666666666663 678,233.33333333333331 680,233.33333333333331 682,266.66666666666663 684,233.33333333333331 686,200.0 688,166.66666666666666 690,166.66666666666666 692,166.66666666666666 694,166.66666666666666 696,166.66666666666666 698,166.66666666666666 700,166.66666666666666 702,200.0 704,233.33333333333331 706,233.33333333333331 708,200.0 710,200.0 712,200.0 714,200.0 716,200.0 718,200.0 720,200.0 722,200.0 724,200.0 726,200.0 728,200.0 730,200.0 732,200.0 734,200.0 736,200.0 738,200.0 740,200.0 742,233.33333333333331 744,233.33333333333331 746,233.33333333333331 748,233.33333333333331 750,233.33333333333331 752,200.0 754,200.0 756,166.66666666666666 758,166.66666666666666 760,166.66666666666666 762,166.66666666666666 764,166.66666666666666 766,166.66666666666666 768,166.66666666666666 770,200.0 772,200.0 774,200.0 776,200.0 778,200.0 780,200.0 782,200.0 784,200.0 786,200.0 788,166.66666666666666 790,166.66666666666666 792,166.66666666666666 794,166.66666666666666 796,200.0 798,200.0 800,200.0 802,200.0 804,200.0 806,200.0 808,233.33333333333331 810,233.33333333333331 812,200.0 814,233.33333333333331 816,233.33333333333331 818,233.33333333333331 820,200.0 822,200.0 824,200.0 826,200.0 828,233.33333333333331 830,233.33333333333331 832,166.66666666666666 834,166.66666666666666 836,166.66666666666666 838,100.0 840,66.66666666666663 842,66.66666666666663 844,66.66666666666663 846,66.66666666666663 848,66.66666666666663 850,133.33333333333331 852,166.66666666666666 854,166.66666666666666 856,166.66666666666666 858,166.66666666666666" /><polyline class="player_advantage" points="886,200.0 888,200.0 890,200.0 892,200.0 894,200.0 896,200.0 898,233.33333333333331 900,233.33333333333331 902,266.66666666666663 904,266.66666666666663 906,300.0 908,300.0 910,300.0 912,300.0 914,300.0 916,266.66666666666663 918,233.33333333333331 920,233.33333333333331 922,233.33333333333331 924,233.33333333333331 926,233.33333333333331 928,233.33333333333331 930,233.33333333333331 932,233.33333333333331 934,233.33333333333331 936,233.33333333333331 938,200.0 940,200.0 942,200.0 944,200.0 946,200.0 948,200.0 950,200.0 952,200.0 954,200.0 956,200.0 958,200.0 960,200.0 962,200.0 964,200.0 966,200.0 968,200.0 970,200.0 972,200.0 974,200.0 976,200.0 978,200.0 980,200.0 982,200.0 984,200.0 986,200.0 988,200.0 990,200.0 992,200.0 994,200.0 996,200.0 998,233.33333333333331 1000,266.66666666666663 1002,266.66666666666663 1004,300.0 1006,300.0 1008,300.0 1010,300.0 1012,300.0 1014,300.0 1014,200.0" /></g><g class="minute_ref"><line class="minute_ref_line" x1="120" x2="120" y1="0" y2="400" /><text x="120" y="420">1:00</text><line class="minute_ref_line" x1="240" x2="240" y1="0" y2="400" /><text x="240" y="420">2:00</text><line class="minute_ref_line" x1="360" x2="360" y1="0" y2="400" /><text x="360" y="420">3:00</text><line class="minute_ref_line" x1="480" x2="480" y1="0" y2="400" /><text x="480" y="420">4:00</text><line class="minute_ref_line" x1="600" x2="600" y1="0" y2="400" /><text x="600" y="420">5:00</text><line class="minute_ref_line" x1="720" x2="720" y1="0" y2="400" /><text x="720" y="420">6:00</text><line class="minute_ref_line" x1="840" x2="840" y1="0" y2="400" /><text x="840" y="420">7:00</text><line class="minute_ref_line" x1="960" x2="960" y1="0" y2="400" /><text x="960" y="420">8:00</text></g></g></svg>