<?xml version="1.0" encoding="utf-8" ?>
<svg baseProfile="full" height="100%" version="1.1" width="100%" xmlns="http://www.w3.org/2000/svg" xmlns:ev="http://www.w3.org/2001/xml-events" xmlns:xlink="http://www.w3.org/1999/xlink"><defs><style type="text/css"><![CDATA[
.player_lifelines {
  display: none
}

.player_lifeline {
  fill:none;
  stroke: green;
  stroke-width: 1;
  display: inline
}

.graph_border {
  fill: none;
  stroke: black;
}

.minute_ref_line {
  stroke: gray;
  stroke-width: 1;
  stroke-dasharray: 1,4
}


        .fight_area {
        fill: lightyellow;
        stroke: gold;
        stroke-width: 1
        }
        
        .replay_area {
        fill:lightgray;
        stroke: lightgray;
        stroke-width: 0
        }
        
        .progress_target_line {
        stroke: gray;
        stroke_width: 1;
        stroke-dasharray: 3,1
        }

        .progress_completion_line {
        stroke: gray;
        stroke_width: 1
        }
        
        .payload_progress {
        fill:none;
        stroke: blue;
        stroke-width: 2
        }
        
        .player_advantage {
        fill:none;
        stroke: red;
        stroke-width: 1
        }
        ]]></style></defs><text x="10" y="20">Seoul Dynasty at Los Angeles Gladiators(A) on junkertown round 2</text><g class="graph" transform="translate(10, 45)"><rect class="graph_border" height="400" width="818" x="0" y="0" /><g class="fights"><rect class="fight_area" height="79.99999999999997" width="62" x="54" y="251.44000000000003" /><text x="54" y="251.44000000000003">#1 4</text><rect class="fight_area" height="41.16" width="30" x="148" y="210.28000000000003" /><text x="148" y="210.28000000000003">#2 -1</text><rect class="fight_area" height="9.120000000000033" width="22" x="206" y="201.16" /><text x="206" y="201.16">#3 -4</text><rect class="fight_area" height="8.0" width="26" x="322" y="197.16" /><text x="322" y="197.16">#4 -5</text><rect class="fight_area" height="9.120000000000033" width="20" x="444" y="197.16" /><text x="444" y="197.16">#5 -1</text><rect class="fight_area" height="12.559999999999974" width="42" x="508" y="202.28000000000003" /><text x="508" y="202.28000000000003">#6 -5</text><rect class="fight_area" height="48.0" width="24" x="638" y="166.84" /><text x="638" y="166.84">#7 1</text><rect class="fight_area" height="9.120000000000005" width="20" x="692" y="157.72" /><text x="692" y="157.72">#8 -1</text><rect class="fight_area" height="10.28000000000003" width="12" x="744" y="151.43999999999997" /><text x="744" y="151.43999999999997">#9 -3</text><rect class="fight_area" height="9.159999999999968" width="32" x="786" y="150.28" /><text x="786" y="150.28">#10 -6</text></g><g class="completion"><line class="progress_target_line" x1="108" x2="108" y1="0.0" y2="269.72" /><line class="progress_completion_line" x1="0" x2="108" y1="269.72" y2="269.72" /><text x="108" y="-5">00:54</text></g><g class="progress"><polyline class="payload_progress" points="0,400 2,400.0 4,400.0 6,400.0 8,400.0 10,400.0 12,393.16 14,390.84 16,388.56 18,384.0 20,384.0 22,381.72 24,377.15999999999997 26,373.72 28,370.28 30,366.84000000000003 32,365.72 34,364.56 36,358.84000000000003 38,356.56 40,352.0 42,349.71999999999997 44,347.44 46,346.28000000000003 48,341.72 50,338.28000000000003 52,336.0 54,331.44 56,329.15999999999997 58,326.84 60,326.84 62,324.56 64,324.56 66,323.44 68,320.0 70,315.44 72,312.0 74,310.84000000000003 76,310.84000000000003 78,306.28000000000003 80,302.84 82,299.44 84,298.28000000000003 86,293.71999999999997 88,292.56 90,292.56 92,288.0 94,285.71999999999997 96,283.44 98,283.44 100,283.44 102,276.56 104,274.28 106,274.28 108,269.72 110,269.72 112,269.72 114,269.72 116,269.72 118,269.72 120,269.72 122,269.72 124,269.72 126,269.72 128,269.72 130,269.72 132,268.56 134,266.28 136,265.16 138,262.84000000000003 140,260.56 142,257.16 144,256.0 146,253.72 148,251.44000000000003 150,249.16 152,246.84 154,245.72000000000003 156,242.28 158,240.0 160,237.72000000000003 162,237.72000000000003 164,235.44 166,233.16 168,228.56 170,228.56 172,226.28 174,224.00000000000003 176,221.72 178,221.72 180,220.56 182,220.56 184,220.56 186,220.56 188,220.56 190,220.56 192,219.44 194,219.44 196,219.44 198,217.15999999999997 200,214.84 202,212.56 204,212.56 206,210.28000000000003 208,210.28000000000003 210,208.0 212,208.0 214,205.72 216,203.43999999999997 218,202.28000000000003 220,201.16 222,201.16 224,201.16 226,201.16 228,201.16 230,201.16 232,201.16 234,201.16 236,201.16 238,201.16 240,201.16 242,201.16 244,201.16 246,201.16 248,201.16 250,202.28000000000003 252,203.43999999999997 254,203.43999999999997 256,203.43999999999997 258,203.43999999999997 260,204.56000000000003 262,205.72 264,205.72 266,205.72 268,205.72 270,205.72 272,205.72 274,206.84 276,208.0 278,208.0 280,208.0 282,210.28000000000003 284,210.28000000000003 286,210.28000000000003 288,210.28000000000003 290,210.28000000000003 292,210.28000000000003 294,210.28000000000003 296,210.28000000000003 298,210.28000000000003 300,210.28000000000003 302,210.28000000000003 304,210.28000000000003 306,210.28000000000003 308,206.84 310,205.72 312,201.16 314,201.16 316,201.16 318,201.16 320,201.16 322,201.16 324,200.0 326,198.84 328,196.55999999999997 330,194.28 332,194.28 334,194.28 336,194.28 338,194.28 340,194.28 342,194.28 344,194.28 346,194.28 348,194.28 350,194.28 352,194.28 354,194.28 356,194.28 358,194.28 360,194.28 362,400.0 364,400.0 366,400.0 368,400.0 370,400.0 372,400.0 374,400.0 376,400.0 378,400.0 380,400.0 382,400.0 384,400.0 386,400.0 388,400.0 390,400.0 392,400.0 394,400.0 396,400.0 398,400.0 400,400.0 402,400.0 404,203.43999999999997 406,201.16 408,201.16 410,201.16 412,201.16 414,201.16 416,201.16 418,201.16 420,201.16 422,201.16 424,201.16 426,201.16 428,201.16 430,201.16 432,201.16 434,201.16 436,201.16 438,201.16 440,201.16 442,201.16 444,201.16 446,201.16 448,201.16 450,200.0 452,200.0 454,198.84 456,198.84 458,198.84 460,198.84 462,198.84 464,198.84 466,198.84 468,198.84 470,198.84 472,198.84 474,200.0 476,200.0 478,200.0 480,200.0 482,201.16 484,201.16 486,201.16 488,202.28000000000003 490,202.28000000000003 492,202.28000000000003 494,202.28000000000003 496,202.28000000000003 498,202.28000000000003 500,202.28000000000003 502,202.28000000000003 504,202.28000000000003 506,202.28000000000003 508,202.28000000000003 510,202.28000000000003 512,202.28000000000003 514,201.16 516,201.16 518,201.16 520,201.16 522,201.16 524,201.16 526,201.16 528,201.16 530,201.16 532,201.16 534,201.16 536,201.16 538,201.16 540,201.16 542,201.16 544,201.16 546,201.16 548,201.16 550,201.16 552,201.16 554,201.16 556,202.28000000000003 558,203.43999999999997 560,203.43999999999997 562,203.43999999999997 564,203.43999999999997 566,204.56000000000003 568,205.72 570,205.72 572,205.72 574,205.72 576,208.0 578,208.0 580,208.0 582,209.15999999999997 584,209.15999999999997 586,209.15999999999997 588,210.28000000000003 590,210.28000000000003 592,210.28000000000003 594,210.28000000000003 596,210.28000000000003 598,210.28000000000003 600,210.28000000000003 602,212.56 604,212.56 606,212.56 608,212.56 610,213.72 612,214.84 614,214.84 616,214.84 618,214.84 620,214.84 622,214.84 624,214.84 626,214.84 628,214.84 630,214.84 632,214.84 634,214.84 636,214.84 638,214.84 640,214.84 642,214.84 644,214.84 646,214.84 648,210.28000000000003 650,210.28000000000003 652,210.28000000000003 654,210.28000000000003 656,210.28000000000003 658,210.28000000000003 660,210.28000000000003 662,208.0 664,205.72 666,202.28000000000003 668,201.16 670,197.71999999999997 672,195.44000000000003 674,192.0 676,189.72000000000003 678,187.44 680,182.83999999999997 682,182.83999999999997 684,178.28 686,175.99999999999997 688,173.72 690,169.16000000000003 692,166.84 694,164.56 696,163.44 698,161.16000000000003 700,157.72 702,157.72 704,157.72 706,157.72 708,157.72 710,157.72 712,157.72 714,157.72 716,157.72 718,157.72 720,157.72 722,157.72 724,157.72 726,157.72 728,157.72 730,157.72 732,157.72 734,157.72 736,157.72 738,157.72 740,157.72 742,157.72 744,157.72 746,157.72 748,156.56 750,156.56 752,156.56 754,156.56 756,156.56 758,156.56 760,156.56 762,155.43999999999997 764,155.43999999999997 766,155.43999999999997 768,155.43999999999997 770,155.43999999999997 772,155.43999999999997 774,155.43999999999997 776,155.43999999999997 778,155.43999999999997 780,155.43999999999997 782,155.43999999999997 784,155.43999999999997 786,155.43999999999997 788,155.43999999999997 790,155.43999999999997 792,155.43999999999997 794,155.43999999999997 796,155.43999999999997 798,155.43999999999997 800,155.43999999999997 802,155.43999999999997 804,155.43999999999997 806,155.43999999999997 808,155.43999999999997 810,155.43999999999997 812,155.43999999999997 814,155.43999999999997 816,155.43999999999997 818,155.43999999999997 818,154.28000000000003" /></g><g class="player_lifelines"><polyline class="player_lifeline" points="0,30.76923076923077 146,30.76923076923077" /><polyline class="player_lifeline" points="166,30.76923076923077 818,30.76923076923077" /><polyline class="player_lifeline" points="0,61.53846153846154 74,61.53846153846154" /><polyline class="player_lifeline" points="92,61.53846153846154 818,61.53846153846154" /><polyline class="player_lifeline" points="0,92.3076923076923 84,92.3076923076923" /><polyline class="player_lifeline" points="104,92.3076923076923 636,92.3076923076923" /><polyline class="player_lifeline" points="656,92.3076923076923 818,92.3076923076923" /><polyline class="player_lifeline" points="0,123.07692307692308 80,123.07692307692308" /><polyline class="player_lifeline" points="100,123.07692307692308 338,123.07692307692308" /><polyline class="player_lifeline" points="346,123.07692307692308 660,123.07692307692308" /><polyline class="player_lifeline" points="680,123.07692307692308 818,123.07692307692308" /><polyline class="player_lifeline" points="0,153.84615384615384 76,153.84615384615384" /><polyline class="player_lifeline" points="82,153.84615384615384 114,153.84615384615384" /><polyline class="player_lifeline" points="134,153.84615384615384 818,153.84615384615384" /><polyline class="player_lifeline" points="0,184.6153846153846 104,184.6153846153846" /><polyline class="player_lifeline" points="126,184.6153846153846 818,184.6153846153846" /><polyline class="player_lifeline" points="0,215.3846153846154 112,215.3846153846154" /><polyline class="player_lifeline" points="120,215.3846153846154 226,215.3846153846154" /><polyline class="player_lifeline" points="242,215.3846153846154 340,215.3846153846154" /><polyline class="player_lifeline" points="360,215.3846153846154 536,215.3846153846154" /><polyline class="player_lifeline" points="556,215.3846153846154 754,215.3846153846154" /><polyline class="player_lifeline" points="774,215.3846153846154 814,215.3846153846154" /><polyline class="player_lifeline" points="818,215.3846153846154 818,215.3846153846154" /><polyline class="player_lifeline" points="0,246.15384615384616 216,246.15384615384616" /><polyline class="player_lifeline" points="236,246.15384615384616 320,246.15384615384616" /><polyline class="player_lifeline" points="336,246.15384615384616 548,246.15384615384616" /><polyline class="player_lifeline" points="566,246.15384615384616 690,246.15384615384616" /><polyline class="player_lifeline" points="704,246.15384615384616 746,246.15384615384616" /><polyline class="player_lifeline" points="768,246.15384615384616 800,246.15384615384616" /><polyline class="player_lifeline" points="818,246.15384615384616 818,246.15384615384616" /><polyline class="player_lifeline" points="0,276.9230769230769 210,276.9230769230769" /><polyline class="player_lifeline" points="230,276.9230769230769 346,276.9230769230769" /><polyline class="player_lifeline" points="360,276.9230769230769 506,276.9230769230769" /><polyline class="player_lifeline" points="526,276.9230769230769 786,276.9230769230769" /><polyline class="player_lifeline" points="814,276.9230769230769 818,276.9230769230769" /><polyline class="player_lifeline" points="0,307.6923076923077 158,307.6923076923077" /><polyline class="player_lifeline" points="178,307.6923076923077 326,307.6923076923077" /><polyline class="player_lifeline" points="346,307.6923076923077 442,307.6923076923077" /><polyline class="player_lifeline" points="460,307.6923076923077 640,307.6923076923077" /><polyline class="player_lifeline" points="660,307.6923076923077 742,307.6923076923077" /><polyline class="player_lifeline" points="760,307.6923076923077 798,307.6923076923077" /><polyline class="player_lifeline" points="818,307.6923076923077 818,307.6923076923077" /><polyline class="player_lifeline" points="0,338.46153846153845 52,338.46153846153845" /><polyline class="player_lifeline" points="68,338.46153846153845 334,338.46153846153845" /><polyline class="player_lifeline" points="354,338.46153846153845 536,338.46153846153845" /><polyline class="player_lifeline" points="556,338.46153846153845 784,338.46153846153845" /><polyline class="player_lifeline" points="810,338.46153846153845 818,338.46153846153845" /><polyline class="player_lifeline" points="0,369.2307692307692 176,369.2307692307692" /><polyline class="player_lifeline" points="184,369.2307692307692 204,369.2307692307692" /><polyline class="player_lifeline" points="224,369.2307692307692 330,369.2307692307692" /><polyline class="player_lifeline" points="352,369.2307692307692 522,369.2307692307692" /><polyline class="player_lifeline" points="540,369.2307692307692 786,369.2307692307692" /><polyline class="player_lifeline" points="814,369.2307692307692 818,369.2307692307692" /></g><g class="advantages"><polyline class="player_advantage" points="2,200.0 4,200.0 6,200.0 8,200.0 10,200.0 12,200.0 14,200.0 16,200.0 18,200.0 20,200.0 22,200.0 24,200.0 26,200.0 28,200.0 30,200.0 32,200.0 34,200.0 36,200.0 38,200.0 40,200.0 42,200.0 44,200.0 46,200.0 48,200.0 50,200.0 52,200.0 54,233.33333333333331 56,233.33333333333331 58,233.33333333333331 60,233.33333333333331 62,233.33333333333331 64,233.33333333333331 66,233.33333333333331 68,200.0 70,200.0 72,200.0 74,200.0 76,166.66666666666666 78,133.33333333333331 80,133.33333333333331 82,133.33333333333331 84,133.33333333333331 86,100.0 88,100.0 90,100.0 92,133.33333333333331 94,133.33333333333331 96,133.33333333333331 98,133.33333333333331 100,166.66666666666666 102,166.66666666666666 104,200.0 106,166.66666666666666 108,166.66666666666666 110,166.66666666666666 112,166.66666666666666 114,200.0 116,166.66666666666666 118,166.66666666666666 120,133.33333333333331 122,133.33333333333331 124,133.33333333333331 126,166.66666666666666 128,166.66666666666666 130,166.66666666666666 132,166.66666666666666 134,200.0 136,200.0 138,200.0 140,200.0 142,200.0 144,200.0 146,200.0 148,166.66666666666666 150,166.66666666666666 152,166.66666666666666 154,166.66666666666666 156,166.66666666666666 158,166.66666666666666 160,200.0 162,200.0 164,200.0 166,233.33333333333331 168,233.33333333333331 170,233.33333333333331 172,233.33333333333331 174,233.33333333333331 176,233.33333333333331 178,233.33333333333331 180,233.33333333333331 182,233.33333333333331 184,200.0 186,200.0 188,200.0 190,200.0 192,200.0 194,200.0 196,200.0 198,200.0 200,200.0 202,200.0 204,200.0 206,233.33333333333331 208,233.33333333333331 210,233.33333333333331 212,266.66666666666663 214,266.66666666666663 216,266.66666666666663 218,300.0 220,300.0 222,300.0 224,266.66666666666663 226,266.66666666666663 228,300.0 230,266.66666666666663 232,266.66666666666663 234,266.66666666666663 236,233.33333333333331 238,233.33333333333331 240,233.33333333333331 242,200.0 244,200.0 246,200.0 248,200.0 250,200.0 252,200.0 254,200.0 256,200.0 258,200.0 260,200.0 262,200.0 264,200.0 266,200.0 268,200.0 270,200.0 272,200.0 274,200.0 276,200.0 278,200.0 280,200.0 282,200.0 284,200.0 286,200.0 288,200.0 290,200.0 292,200.0 294,200.0 296,200.0 298,200.0 300,200.0 302,200.0 304,200.0 306,200.0 308,200.0 310,200.0 312,200.0 314,200.0 316,200.0 318,200.0 320,200.0 322,233.33333333333331 324,233.33333333333331 326,233.33333333333331 328,266.66666666666663 330,266.66666666666663 332,300.0 334,300.0 336,300.0 338,300.0 340,266.66666666666663 342,300.0 344,300.0 346,300.0 348,333.3333333333333 350,333.3333333333333 352,300.0 354,266.66666666666663 356,266.66666666666663 358,266.66666666666663 360,200.0 362,200.0 364,200.0 366,200.0 368,200.0 370,200.0 372,200.0 374,200.0 376,200.0 378,200.0 380,200.0 382,200.0 384,200.0 386,200.0 388,200.0 390,200.0 392,200.0 394,200.0 396,200.0 398,200.0 400,200.0 402,200.0 404,200.0 406,200.0 408,200.0 410,200.0 412,200.0 414,200.0 416,200.0 418,200.0 420,200.0 422,200.0 424,200.0 426,200.0 428,200.0 430,200.0 432,200.0 434,200.0 436,200.0 438,200.0 440,200.0 442,200.0 444,233.33333333333331 446,233.33333333333331 448,233.33333333333331 450,233.33333333333331 452,233.33333333333331 454,233.33333333333331 456,233.33333333333331 458,233.33333333333331 460,200.0 462,200.0 464,200.0 466,200.0 468,200.0 470,200.0 472,200.0 474,200.0 476,200.0 478,200.0 480,200.0 482,200.0 484,200.0 486,200.0 488,200.0 490,200.0 492,200.0 494,200.0 496,200.0 498,200.0 500,200.0 502,200.0 504,200.0 506,200.0 508,233.33333333333331 510,233.33333333333331 512,233.33333333333331 514,233.33333333333331 516,233.33333333333331 518,233.33333333333331 520,233.33333333333331 522,233.33333333333331 524,266.66666666666663 526,233.33333333333331 528,233.33333333333331 530,233.33333333333331 532,233.33333333333331 534,233.33333333333331 536,233.33333333333331 538,300.0 540,266.66666666666663 542,266.66666666666663 544,266.66666666666663 546,266.66666666666663 548,266.66666666666663 550,300.0 552,300.0 554,300.0 556,233.33333333333331 558,233.33333333333331 560,233.33333333333331 562,233.33333333333331 564,233.33333333333331 566,200.0 568,200.0 570,200.0 572,200.0 574,200.0 576,200.0 578,200.0 580,200.0 582,200.0 584,200.0 586,200.0 588,200.0 590,200.0 592,200.0 594,200.0 596,200.0 598,200.0 600,200.0 602,200.0 604,200.0 606,200.0 608,200.0 610,200.0 612,200.0 614,200.0 616,200.0 618,200.0 620,200.0 622,200.0 624,200.0 626,200.0 628,200.0 630,200.0 632,200.0 634,200.0 636,200.0 638,166.66666666666666 640,166.66666666666666 642,200.0 644,200.0 646,200.0 648,200.0 650,200.0 652,200.0 654,200.0 656,233.33333333333331 658,233.33333333333331 660,200.0 662,166.66666666666666 664,166.66666666666666 666,166.66666666666666 668,166.66666666666666 670,166.66666666666666 672,166.66666666666666 674,166.66666666666666 676,166.66666666666666 678,166.66666666666666 680,200.0 682,200.0 684,200.0 686,200.0 688,200.0 690,200.0 692,233.33333333333331 694,233.33333333333331 696,233.33333333333331 698,233.33333333333331 700,233.33333333333331 702,233.33333333333331 704,200.0 706,200.0 708,200.0 710,200.0 712,200.0 714,200.0 716,200.0 718,200.0 720,200.0 722,200.0 724,200.0 726,200.0 728,200.0 730,200.0 732,200.0 734,200.0 736,200.0 738,200.0 740,200.0 742,200.0 744,233.33333333333331 746,233.33333333333331 748,266.66666666666663 750,266.66666666666663 752,266.66666666666663 754,266.66666666666663 756,300.0 758,300.0 760,266.66666666666663 762,266.66666666666663 764,266.66666666666663 766,266.66666666666663 768,233.33333333333331 770,233.33333333333331 772,233.33333333333331 774,200.0 776,200.0 778,200.0 780,200.0 782,200.0 784,200.0 786,233.33333333333331 788,300.0 790,300.0 792,300.0 794,300.0 796,300.0 798,300.0 800,333.3333333333333 802,366.6666666666667 804,366.6666666666667 806,366.6666666666667 808,366.6666666666667 810,333.3333333333333 812,333.3333333333333 814,266.66666666666663 816,300.0 818,300.0 818,200.0" /></g><g class="minute_ref"><line class="minute_ref_line" x1="120" x2="120" y1="0" y2="400" /><text x="120" y="420">1:00</text><line class="minute_ref_line" x1="240" x2="240" y1="0" y2="400" /><text x="240" y="420">2:00</text><line class="minute_ref_line" x1="360" x2="360" y1="0" y2="400" /><text x="360" y="420">3:00</text><line class="minute_ref_line" x1="480" x2="480" y1="0" y2="400" /><text x="480" y="420">4:00</text><line class="minute_ref_line" x1="600" x2="600" y1="0" y2="400" /><text x="600" y="420">5:00</text><line class="minute_ref_line" x1="720" x2="720" y1="0" y2="400" /><text x="720" y="420">6:00</text></g></g></svg>