<?xml version="1.0" encoding="utf-8" ?>
<svg baseProfile="full" height="100%" version="1.1" width="100%" xmlns="http://www.w3.org/2000/svg" xmlns:ev="http://www.w3.org/2001/xml-events" xmlns:xlink="http://www.w3.org/1999/xlink"><defs><style type="text/css"><![CDATA[
.player_lifelines {
  display: none
}

.player_lifeline {
  fill:none;
  stroke: green;
  stroke-width: 1;
  display: inline
}

.graph_border {
  fill: none;
  stroke: black;
}

.minute_ref_line {
  stroke: gray;
  stroke-width: 1;
  stroke-dasharray: 1,4
}


        .fight_area {
        fill: lightyellow;
        stroke: gold;
        stroke-width: 1
        }
        
        .replay_area {
        fill:lightgray;
        stroke: lightgray;
        stroke-width: 0
        }
        
        .progress_target_line {
        stroke: gray;
        stroke_width: 1;
        stroke-dasharray: 3,1
        }

        .progress_completion_line {
        stroke: gray;
        stroke_width: 1
        }
        
        .payload_progress {
        fill:none;
        stroke: blue;
        stroke-width: 2
        }
        
        .player_advantage {
        fill:none;
        stroke: red;
        stroke-width: 1
        }
        ]]></style></defs><text x="10" y="20">Seoul Dynasty(A) at Los Angeles Valiant on gibraltar round 1</text><g class="graph" transform="translate(10, 45)"><rect class="graph_border" height="400" width="552" x="0" y="0" /><g class="fights"><rect class="fight_area" height="107.44000000000005" width="2" x="20" y="274.28" /><text x="20" y="274.28">#1 -1</text><rect class="fight_area" height="5.720000000000027" width="4" x="122" y="274.28" /><text x="122" y="274.28">#2 0</text><rect class="fight_area" height="12.559999999999945" width="20" x="156" y="267.44000000000005" /><text x="156" y="267.44000000000005">#3 0</text><rect class="fight_area" height="74.28000000000006" width="24" x="248" y="193.16" /><text x="248" y="193.16">#4 6</text><rect class="fight_area" height="110.88" width="50" x="346" y="82.28" /><text x="346" y="82.28">#5 7</text><rect class="fight_area" height="38.83999999999999" width="2" x="442" y="43.44000000000001" /><text x="442" y="43.44000000000001">#6 -1</text><rect class="fight_area" height="346.28" width="42" x="510" y="43.44000000000001" /><text x="510" y="43.44000000000001">#7 6</text></g><g class="replays"><rect class="replay_area" height="398" width="14" x="290" y="1" /></g><g class="completion"><line class="progress_target_line" x1="194" x2="194" y1="0.0" y2="269.72" /><line class="progress_completion_line" x1="0" x2="194" y1="269.72" y2="269.72" /><text x="194" y="-5">01:37</text><line class="progress_target_line" x1="406" x2="406" y1="0.0" y2="134.83999999999997" /><line class="progress_completion_line" x1="194" x2="406" y1="134.83999999999997" y2="134.83999999999997" /><text x="406" y="-5">03:23</text></g><g class="progress"><polyline class="payload_progress" points="0,400 2,400.0 4,400.0 6,400.0 8,400.0 10,396.56 12,394.28000000000003 14,392.0 16,387.44 18,384.0 20,381.72 22,379.44 24,377.15999999999997 26,373.72 28,371.44 30,366.84000000000003 32,364.56 34,361.16 36,357.71999999999997 38,355.44 40,352.0 42,348.56 44,345.16 46,341.72 48,338.28000000000003 50,334.84 52,331.44 54,328.0 56,324.56 58,321.15999999999997 60,318.84000000000003 62,315.44 64,312.0 66,310.84000000000003 68,309.71999999999997 70,309.71999999999997 72,308.56 74,306.28000000000003 76,304.0 78,301.71999999999997 80,300.56 82,300.56 84,300.56 86,297.16 88,293.71999999999997 90,291.44 92,288.0 94,285.71999999999997 96,284.56 98,283.44 100,283.44 102,283.44 104,283.44 106,280.0 108,277.71999999999997 110,275.44 112,274.28 114,274.28 116,274.28 118,274.28 120,274.28 122,274.28 124,274.28 126,274.28 128,274.28 130,274.28 132,274.28 134,274.28 136,275.44 138,275.44 140,276.56 142,276.56 144,277.71999999999997 146,277.71999999999997 148,277.71999999999997 150,278.84000000000003 152,278.84000000000003 154,280.0 156,280.0 158,281.16 160,281.16 162,281.16 164,281.16 166,282.28 168,282.28 170,282.28 172,282.28 174,282.28 176,282.28 178,282.28 180,282.28 182,280.0 184,278.84000000000003 186,278.84000000000003 188,277.71999999999997 190,275.44 192,274.28 194,269.72 196,268.56 198,268.56 200,268.56 202,268.56 204,268.56 206,268.56 208,268.56 210,268.56 212,268.56 214,267.44000000000005 216,267.44000000000005 218,267.44000000000005 220,267.44000000000005 222,267.44000000000005 224,267.44000000000005 226,267.44000000000005 228,267.44000000000005 230,267.44000000000005 232,267.44000000000005 234,267.44000000000005 236,267.44000000000005 238,267.44000000000005 240,267.44000000000005 242,267.44000000000005 244,267.44000000000005 246,267.44000000000005 248,267.44000000000005 250,267.44000000000005 252,267.44000000000005 254,267.44000000000005 256,267.44000000000005 258,267.44000000000005 260,267.44000000000005 262,267.44000000000005 264,267.44000000000005 266,267.44000000000005 268,266.28 270,266.28 272,266.28 274,266.28 276,266.28 278,266.28 280,266.28 282,266.28" /><polyline class="payload_progress" points="304,235.44 306,233.16 308,230.83999999999997 310,227.44 312,225.15999999999997 314,222.83999999999997 316,219.44 318,216.0 320,213.72 322,210.28000000000003 324,208.0 326,205.72 328,203.43999999999997 330,200.0 332,197.71999999999997 334,195.44000000000003 336,194.28 338,194.28 340,194.28 342,193.16 344,193.16 346,193.16 348,190.83999999999997 350,187.44 352,184.0 354,182.83999999999997 356,182.83999999999997 358,180.56 360,177.16 362,173.72 364,172.56 366,169.16000000000003 368,166.84 370,163.44 372,160.0 374,157.72 376,155.43999999999997 378,152.0 380,149.72 382,147.44000000000003 384,145.16 386,141.71999999999997 388,138.28 390,137.16 392,137.16 394,137.16 396,137.16 398,137.16 400,137.16 402,137.16 404,137.16 406,134.83999999999997 408,132.56 410,129.16 412,125.72000000000001 414,123.44 416,120.00000000000001 418,116.56 420,114.27999999999999 422,112.00000000000001 424,109.72 426,106.28000000000002 428,102.84 430,100.55999999999999 432,97.16 434,93.71999999999998 436,91.44000000000001 438,89.16 440,85.72000000000001 442,82.28 444,78.84000000000002 446,76.56 448,76.56 450,76.56 452,76.56 454,76.56 456,76.56 458,76.56 460,76.56 462,76.56 464,76.56 466,76.56 468,76.56 470,76.56 472,75.44 474,73.15999999999998 476,70.84000000000002 478,67.43999999999998 480,65.16000000000003 482,64.00000000000001 484,64.00000000000001 486,62.84 488,61.72 490,60.55999999999999 492,59.43999999999998 494,59.43999999999998 496,57.16000000000001 498,54.84 500,52.55999999999999 502,50.280000000000015 504,48.0 506,45.719999999999985 508,43.44000000000001 510,43.44000000000001 512,43.44000000000001 514,41.16 516,41.16 518,38.83999999999999 520,36.56000000000002 522,31.999999999999986 524,29.720000000000013 526,26.279999999999994 528,22.840000000000018 530,20.560000000000002 532,18.279999999999987 534,16.000000000000014 536,14.840000000000009 538,14.840000000000009 540,14.840000000000009 542,14.840000000000009 544,14.840000000000009 546,14.840000000000009 548,14.840000000000009 550,14.840000000000009 552,384.0 552,389.71999999999997" /></g><g class="player_lifelines"><polyline class="player_lifeline" points="0,30.76923076923077 120,30.76923076923077" /><polyline class="player_lifeline" points="140,30.76923076923077 246,30.76923076923077" /><polyline class="player_lifeline" points="266,30.76923076923077 440,30.76923076923077" /><polyline class="player_lifeline" points="460,30.76923076923077 552,30.76923076923077" /><polyline class="player_lifeline" points="0,61.53846153846154 18,61.53846153846154" /><polyline class="player_lifeline" points="28,61.53846153846154 552,61.53846153846154" /><polyline class="player_lifeline" points="0,92.3076923076923 552,92.3076923076923" /><polyline class="player_lifeline" points="0,123.07692307692308 552,123.07692307692308" /><polyline class="player_lifeline" points="0,153.84615384615384 552,153.84615384615384" /><polyline class="player_lifeline" points="0,184.6153846153846 154,184.6153846153846" /><polyline class="player_lifeline" points="162,184.6153846153846 552,184.6153846153846" /><polyline class="player_lifeline" points="0,215.3846153846154 174,215.3846153846154" /><polyline class="player_lifeline" points="194,215.3846153846154 262,215.3846153846154" /><polyline class="player_lifeline" points="282,215.3846153846154 364,215.3846153846154" /><polyline class="player_lifeline" points="418,215.3846153846154 528,215.3846153846154" /><polyline class="player_lifeline" points="548,215.3846153846154 552,215.3846153846154" /><polyline class="player_lifeline" points="0,246.15384615384616 248,246.15384615384616" /><polyline class="player_lifeline" points="256,246.15384615384616 270,246.15384615384616" /><polyline class="player_lifeline" points="304,246.15384615384616 380,246.15384615384616" /><polyline class="player_lifeline" points="400,246.15384615384616 552,246.15384615384616" /><polyline class="player_lifeline" points="0,276.9230769230769 268,276.9230769230769" /><polyline class="player_lifeline" points="304,276.9230769230769 376,276.9230769230769" /><polyline class="player_lifeline" points="396,276.9230769230769 530,276.9230769230769" /><polyline class="player_lifeline" points="550,276.9230769230769 552,276.9230769230769" /><polyline class="player_lifeline" points="0,307.6923076923077 124,307.6923076923077" /><polyline class="player_lifeline" points="138,307.6923076923077 256,307.6923076923077" /><polyline class="player_lifeline" points="276,307.6923076923077 394,307.6923076923077" /><polyline class="player_lifeline" points="416,307.6923076923077 508,307.6923076923077" /><polyline class="player_lifeline" points="520,307.6923076923077 540,307.6923076923077" /><polyline class="player_lifeline" points="552,307.6923076923077 552,307.6923076923077" /><polyline class="player_lifeline" points="0,338.46153846153845 264,338.46153846153845" /><polyline class="player_lifeline" points="304,338.46153846153845 382,338.46153846153845" /><polyline class="player_lifeline" points="402,338.46153846153845 516,338.46153846153845" /><polyline class="player_lifeline" points="536,338.46153846153845 552,338.46153846153845" /><polyline class="player_lifeline" points="0,369.2307692307692 246,369.2307692307692" /><polyline class="player_lifeline" points="262,369.2307692307692 344,369.2307692307692" /><polyline class="player_lifeline" points="364,369.2307692307692 388,369.2307692307692" /><polyline class="player_lifeline" points="408,369.2307692307692 518,369.2307692307692" /><polyline class="player_lifeline" points="538,369.2307692307692 552,369.2307692307692" /></g><g class="advantages"><polyline class="player_advantage" points="2,200.0 4,200.0 6,200.0 8,200.0 10,200.0 12,200.0 14,200.0 16,200.0 18,200.0 20,233.33333333333331 22,233.33333333333331 24,233.33333333333331 26,233.33333333333331 28,200.0 30,200.0 32,200.0 34,200.0 36,200.0 38,200.0 40,200.0 42,200.0 44,200.0 46,200.0 48,200.0 50,200.0 52,200.0 54,200.0 56,200.0 58,200.0 60,200.0 62,200.0 64,200.0 66,200.0 68,200.0 70,200.0 72,200.0 74,200.0 76,200.0 78,200.0 80,200.0 82,200.0 84,200.0 86,200.0 88,200.0 90,200.0 92,200.0 94,200.0 96,200.0 98,200.0 100,200.0 102,200.0 104,200.0 106,200.0 108,200.0 110,200.0 112,200.0 114,200.0 116,200.0 118,200.0 120,200.0 122,233.33333333333331 124,233.33333333333331 126,200.0 128,200.0 130,200.0 132,200.0 134,200.0 136,200.0 138,233.33333333333331 140,200.0 142,200.0 144,200.0 146,200.0 148,200.0 150,200.0 152,200.0 154,200.0 156,233.33333333333331 158,233.33333333333331 160,233.33333333333331 162,200.0 164,200.0 166,200.0 168,200.0 170,200.0 172,200.0 174,200.0 176,166.66666666666666 178,166.66666666666666 180,166.66666666666666 182,166.66666666666666 184,166.66666666666666 186,166.66666666666666 188,166.66666666666666 190,166.66666666666666 192,166.66666666666666 194,200.0 196,200.0 198,200.0 200,200.0 202,200.0 204,200.0 206,200.0 208,200.0 210,200.0 212,200.0 214,200.0 216,200.0 218,200.0 220,200.0 222,200.0 224,200.0 226,200.0 228,200.0 230,200.0 232,200.0 234,200.0 236,200.0 238,200.0 240,200.0 242,200.0 244,200.0 246,200.0 248,200.0 250,166.66666666666666 252,166.66666666666666 254,166.66666666666666 256,200.0 258,166.66666666666666 260,166.66666666666666 262,200.0 264,166.66666666666666 266,100.0 268,100.0 270,66.66666666666663 272,33.333333333333314 274,33.333333333333314 276,66.66666666666663 278,66.66666666666663 280,66.66666666666663 282,100.0" /><polyline class="player_advantage" points="304,200.0 306,200.0 308,200.0 310,200.0 312,200.0 314,200.0 316,200.0 318,200.0 320,200.0 322,200.0 324,200.0 326,200.0 328,200.0 330,200.0 332,200.0 334,200.0 336,200.0 338,200.0 340,200.0 342,200.0 344,200.0 346,166.66666666666666 348,166.66666666666666 350,166.66666666666666 352,166.66666666666666 354,166.66666666666666 356,166.66666666666666 358,166.66666666666666 360,166.66666666666666 362,166.66666666666666 364,200.0 366,166.66666666666666 368,166.66666666666666 370,166.66666666666666 372,166.66666666666666 374,166.66666666666666 376,166.66666666666666 378,133.33333333333331 380,133.33333333333331 382,100.0 384,66.66666666666663 386,66.66666666666663 388,66.66666666666663 390,33.333333333333314 392,33.333333333333314 394,33.333333333333314 396,33.333333333333314 398,33.333333333333314 400,66.66666666666663 402,100.0 404,100.0 406,100.0 408,133.33333333333331 410,133.33333333333331 412,133.33333333333331 414,133.33333333333331 416,166.66666666666666 418,200.0 420,200.0 422,200.0 424,200.0 426,200.0 428,200.0 430,200.0 432,200.0 434,200.0 436,200.0 438,200.0 440,200.0 442,233.33333333333331 444,233.33333333333331 446,233.33333333333331 448,233.33333333333331 450,233.33333333333331 452,233.33333333333331 454,233.33333333333331 456,233.33333333333331 458,233.33333333333331 460,200.0 462,200.0 464,200.0 466,200.0 468,200.0 470,200.0 472,200.0 474,200.0 476,200.0 478,200.0 480,200.0 482,200.0 484,200.0 486,200.0 488,200.0 490,200.0 492,200.0 494,200.0 496,200.0 498,200.0 500,200.0 502,200.0 504,200.0 506,200.0 508,200.0 510,166.66666666666666 512,166.66666666666666 514,166.66666666666666 516,166.66666666666666 518,133.33333333333331 520,133.33333333333331 522,133.33333333333331 524,133.33333333333331 526,133.33333333333331 528,133.33333333333331 530,100.0 532,66.66666666666663 534,66.66666666666663 536,100.0 538,133.33333333333331 540,133.33333333333331 542,100.0 544,100.0 546,100.0 548,133.33333333333331 550,166.66666666666666 552,166.66666666666666 552,200.0" /></g><g class="minute_ref"><line class="minute_ref_line" x1="120" x2="120" y1="0" y2="400" /><text x="120" y="420">1:00</text><line class="minute_ref_line" x1="240" x2="240" y1="0" y2="400" /><text x="240" y="420">2:00</text><line class="minute_ref_line" x1="360" x2="360" y1="0" y2="400" /><text x="360" y="420">3:00</text><line class="minute_ref_line" x1="480" x2="480" y1="0" y2="400" /><text x="480" y="420">4:00</text></g></g></svg>