<?xml version="1.0" encoding="utf-8" ?>
<svg baseProfile="full" height="100%" version="1.1" width="100%" xmlns="http://www.w3.org/2000/svg" xmlns:ev="http://www.w3.org/2001/xml-events" xmlns:xlink="http://www.w3.org/1999/xlink"><defs><style type="text/css"><![CDATA[
.player_lifelines {
  display: none
}

.player_lifeline {
  fill:none;
  stroke: green;
  stroke-width: 1;
  display: inline
}

.graph_border {
  fill: none;
  stroke: black;
}

.minute_ref_line {
  stroke: gray;
  stroke-width: 1;
  stroke-dasharray: 1,4
}


        .fight_area {
        fill: lightyellow;
        stroke: gold;
        stroke-width: 1
        }
        
        .replay_area {
        fill:lightgray;
        stroke: lightgray;
        stroke-width: 0
        }
        
        .progress_target_line {
        stroke: gray;
        stroke_width: 1;
        stroke-dasharray: 3,1
        }

        .progress_completion_line {
        stroke: gray;
        stroke_width: 1
        }
        
        .payload_progress {
        fill:none;
        stroke: blue;
        stroke-width: 2
        }
        
        .player_advantage {
        fill:none;
        stroke: red;
        stroke-width: 1
        }
        ]]></style></defs><text x="10" y="20">Seoul Dynasty at Los Angeles Valiant(A) on gibraltar round 2</text><g class="graph" transform="translate(10, 45)"><rect class="graph_border" height="400" width="682" x="0" y="0" /><g class="fights"><rect class="fight_area" height="82.28000000000003" width="22" x="42" y="274.28" /><text x="42" y="274.28">#1 2</text><rect class="fight_area" height="8.0" width="32" x="128" y="270.28" /><text x="128" y="270.28">#2 -2</text><rect class="fight_area" height="6.839999999999918" width="2" x="218" y="267.44000000000005" /><text x="218" y="267.44000000000005">#3 1</text><rect class="fight_area" height="59.440000000000055" width="2" x="246" y="208.0" /><text x="246" y="208.0">#4 1</text><rect class="fight_area" height="61.72" width="2" x="320" y="146.28" /><text x="320" y="146.28">#5 1</text><rect class="fight_area" height="89.11999999999999" width="48" x="410" y="57.16000000000001" /><text x="410" y="57.16000000000001">#6 8</text><rect class="fight_area" height="20.599999999999994" width="40" x="518" y="36.56000000000002" /><text x="518" y="36.56000000000002">#7 -6</text><rect class="fight_area" height="36.56000000000002" width="48" x="634" y="0.0" /><text x="634" y="0.0">#8 6</text></g><g class="replays"><rect class="replay_area" height="398" width="14" x="280" y="1" /><rect class="replay_area" height="398" width="6" x="452" y="1" /></g><g class="completion"><line class="progress_target_line" x1="222" x2="222" y1="0.0" y2="267.44000000000005" /><line class="progress_completion_line" x1="0" x2="222" y1="267.44000000000005" y2="267.44000000000005" /><text x="222" y="-5">01:51</text><line class="progress_target_line" x1="458" x2="458" y1="0.0" y2="127.99999999999999" /><line class="progress_completion_line" x1="222" x2="458" y1="127.99999999999999" y2="127.99999999999999" /><text x="458" y="-5">03:49</text><line class="progress_target_line" x1="682" x2="682" y1="0.0" y2="0.0" /><line class="progress_completion_line" x1="458" x2="682" y1="0.0" y2="0.0" /><text x="682" y="-5">05:41</text></g><g class="progress"><polyline class="payload_progress" points="0,400 2,400.0 4,400.0 6,400.0 8,400.0 10,400.0 12,388.56 14,388.56 16,388.56 18,388.56 20,388.56 22,380.56 24,379.44 26,377.15999999999997 28,374.84000000000003 30,370.28 32,370.28 34,365.72 36,365.72 38,365.72 40,356.56 42,356.56 44,347.44 46,345.16 48,345.16 50,342.84 52,340.55999999999995 54,340.55999999999995 56,338.28000000000003 58,329.15999999999997 60,329.15999999999997 62,329.15999999999997 64,322.28 66,320.0 68,320.0 70,317.72 72,315.44 74,315.44 76,310.84000000000003 78,310.84000000000003 80,310.84000000000003 82,306.28000000000003 84,306.28000000000003 86,304.0 88,294.84 90,292.56 92,288.0 94,288.0 96,288.0 98,283.44 100,283.44 102,283.44 104,283.44 106,283.44 108,274.28 110,274.28 112,274.28 114,274.28 116,274.28 118,274.28 120,274.28 122,274.28 124,274.28 126,274.28 128,274.28 130,274.28 132,274.28 134,274.28 136,274.28 138,274.28 140,274.28 142,274.28 144,274.28 146,274.28 148,274.28 150,274.28 152,274.28 154,274.28 156,281.16 158,281.16 160,281.16 162,281.16 164,281.16 166,281.16 168,281.16 170,281.16 172,281.16 174,281.16 176,281.16 178,281.16 180,281.16 182,281.16 184,283.44 186,285.71999999999997 188,285.71999999999997 190,285.71999999999997 192,285.71999999999997 194,285.71999999999997 196,285.71999999999997 198,285.71999999999997 200,285.71999999999997 202,285.71999999999997 204,285.71999999999997 206,285.71999999999997 208,285.71999999999997 210,285.71999999999997 212,283.44 214,283.44 216,283.44 218,274.28 220,274.28 222,267.44000000000005 224,267.44000000000005 226,267.44000000000005 228,267.44000000000005 230,267.44000000000005 232,267.44000000000005 234,267.44000000000005 236,267.44000000000005 238,267.44000000000005 240,267.44000000000005 242,267.44000000000005 244,267.44000000000005 246,267.44000000000005 248,267.44000000000005 250,267.44000000000005 252,265.16 254,265.16 256,262.84000000000003 258,262.84000000000003 260,262.84000000000003 262,262.84000000000003 264,262.84000000000003 266,262.84000000000003 268,262.84000000000003 270,262.84000000000003 272,262.84000000000003" /><polyline class="payload_progress" points="294,242.28 296,237.72000000000003 298,235.44 300,230.83999999999997 302,224.00000000000003 304,224.00000000000003 306,219.44 308,219.44 310,219.44 312,214.84 314,210.28000000000003 316,210.28000000000003 318,208.0 320,208.0 322,208.0 324,201.16 326,200.0 328,200.0 330,196.55999999999997 332,192.0 334,186.28 336,185.16 338,185.16 340,182.83999999999997 342,178.28 344,175.99999999999997 346,173.72 348,169.16000000000003 350,164.56 352,164.56 354,164.56 356,162.27999999999997 358,157.72 360,155.43999999999997 362,146.28 364,146.28 366,146.28 368,146.28 370,146.28 372,146.28 374,146.28 376,146.28 378,146.28 380,146.28 382,146.28 384,146.28 386,146.28 388,146.28 390,146.28 392,146.28 394,146.28 396,146.28 398,146.28 400,146.28 402,146.28 404,146.28 406,146.28 408,146.28 410,146.28 412,146.28 414,144.0 416,144.0 418,144.0 420,144.0 422,144.0 424,144.0 426,144.0 428,144.0 430,141.71999999999997 432,141.71999999999997 434,141.71999999999997 436,141.71999999999997 438,141.71999999999997 440,141.71999999999997 442,141.71999999999997 444,141.71999999999997" /><polyline class="payload_progress" points="458,127.99999999999999 460,127.99999999999999 462,123.44 464,107.43999999999998 466,105.16000000000001 468,105.16000000000001 470,102.84 472,102.84 474,102.84 476,91.44000000000001 478,91.44000000000001 480,91.44000000000001 482,86.83999999999999 484,84.56000000000002 486,82.28 488,73.15999999999998 490,73.15999999999998 492,73.15999999999998 494,69.72 496,62.84 498,62.84 500,62.84 502,62.84 504,62.84 506,62.84 508,60.55999999999999 510,60.55999999999999 512,60.55999999999999 514,60.55999999999999 516,60.55999999999999 518,57.16000000000001 520,56.00000000000001 522,56.00000000000001 524,56.00000000000001 526,54.84 528,54.84 530,54.84 532,54.84 534,54.84 536,54.84 538,54.84 540,54.84 542,54.84 544,54.84 546,54.84 548,54.84 550,54.84 552,54.84 554,54.84 556,54.84 558,54.84 560,54.84 562,54.84 564,54.84 566,54.84 568,54.84 570,54.84 572,54.84 574,54.84 576,54.84 578,54.84 580,54.84 582,61.72 584,64.00000000000001 586,64.00000000000001 588,64.00000000000001 590,64.00000000000001 592,64.00000000000001 594,64.00000000000001 596,64.00000000000001 598,64.00000000000001 600,61.72 602,59.43999999999998 604,59.43999999999998 606,54.84 608,54.84 610,54.84 612,54.84 614,54.84 616,54.84 618,54.84 620,54.84 622,52.55999999999999 624,52.55999999999999 626,50.280000000000015 628,48.0 630,45.719999999999985 632,36.56000000000002 634,36.56000000000002 636,36.56000000000002 638,36.56000000000002 640,31.999999999999986 642,31.999999999999986 644,31.999999999999986 646,31.999999999999986 648,31.999999999999986 650,31.999999999999986 652,31.999999999999986 654,31.999999999999986 656,31.999999999999986 658,31.999999999999986 660,31.999999999999986 662,31.999999999999986 664,27.439999999999998 666,27.439999999999998 668,18.279999999999987 670,18.279999999999987 672,18.279999999999987 674,16.000000000000014 676,13.719999999999999 678,11.439999999999984 680,6.840000000000002 682,0.0" /></g><g class="player_lifelines"><polyline class="player_lifeline" points="0,30.76923076923077 62,30.76923076923077" /><polyline class="player_lifeline" points="84,30.76923076923077 136,30.76923076923077" /><polyline class="player_lifeline" points="156,30.76923076923077 430,30.76923076923077" /><polyline class="player_lifeline" points="458,30.76923076923077 668,30.76923076923077" /><polyline class="player_lifeline" points="0,61.53846153846154 40,61.53846153846154" /><polyline class="player_lifeline" points="60,61.53846153846154 244,61.53846153846154" /><polyline class="player_lifeline" points="266,61.53846153846154 318,61.53846153846154" /><polyline class="player_lifeline" points="338,61.53846153846154 430,61.53846153846154" /><polyline class="player_lifeline" points="458,61.53846153846154 632,61.53846153846154" /><polyline class="player_lifeline" points="652,61.53846153846154 682,61.53846153846154" /><polyline class="player_lifeline" points="0,92.3076923076923 410,92.3076923076923" /><polyline class="player_lifeline" points="430,92.3076923076923 444,92.3076923076923" /><polyline class="player_lifeline" points="466,92.3076923076923 642,92.3076923076923" /><polyline class="player_lifeline" points="662,92.3076923076923 682,92.3076923076923" /><polyline class="player_lifeline" points="0,123.07692307692308 410,123.07692307692308" /><polyline class="player_lifeline" points="430,123.07692307692308 444,123.07692307692308" /><polyline class="player_lifeline" points="474,123.07692307692308 678,123.07692307692308" /><polyline class="player_lifeline" points="0,153.84615384615384 426,153.84615384615384" /><polyline class="player_lifeline" points="458,153.84615384615384 672,153.84615384615384" /><polyline class="player_lifeline" points="0,184.6153846153846 216,184.6153846153846" /><polyline class="player_lifeline" points="262,184.6153846153846 408,184.6153846153846" /><polyline class="player_lifeline" points="460,184.6153846153846 648,184.6153846153846" /><polyline class="player_lifeline" points="662,184.6153846153846 682,184.6153846153846" /><polyline class="player_lifeline" points="0,215.3846153846154 136,215.3846153846154" /><polyline class="player_lifeline" points="158,215.3846153846154 542,215.3846153846154" /><polyline class="player_lifeline" points="562,215.3846153846154 682,215.3846153846154" /><polyline class="player_lifeline" points="0,246.15384615384616 556,246.15384615384616" /><polyline class="player_lifeline" points="578,246.15384615384616 682,246.15384615384616" /><polyline class="player_lifeline" points="0,276.9230769230769 538,276.9230769230769" /><polyline class="player_lifeline" points="554,276.9230769230769 682,276.9230769230769" /><polyline class="player_lifeline" points="0,307.6923076923077 158,307.6923076923077" /><polyline class="player_lifeline" points="176,307.6923076923077 682,307.6923076923077" /><polyline class="player_lifeline" points="0,338.46153846153845 516,338.46153846153845" /><polyline class="player_lifeline" points="522,338.46153846153845 550,338.46153846153845" /><polyline class="player_lifeline" points="566,338.46153846153845 682,338.46153846153845" /><polyline class="player_lifeline" points="0,369.2307692307692 126,369.2307692307692" /><polyline class="player_lifeline" points="146,369.2307692307692 534,369.2307692307692" /><polyline class="player_lifeline" points="554,369.2307692307692 682,369.2307692307692" /></g><g class="advantages"><polyline class="player_advantage" points="2,200.0 4,200.0 6,200.0 8,200.0 10,200.0 12,200.0 14,200.0 16,200.0 18,200.0 20,200.0 22,200.0 24,200.0 26,200.0 28,200.0 30,200.0 32,200.0 34,200.0 36,200.0 38,200.0 40,200.0 42,166.66666666666666 44,166.66666666666666 46,166.66666666666666 48,166.66666666666666 50,166.66666666666666 52,166.66666666666666 54,166.66666666666666 56,166.66666666666666 58,166.66666666666666 60,200.0 62,200.0 64,166.66666666666666 66,166.66666666666666 68,166.66666666666666 70,166.66666666666666 72,166.66666666666666 74,166.66666666666666 76,166.66666666666666 78,166.66666666666666 80,166.66666666666666 82,166.66666666666666 84,200.0 86,200.0 88,200.0 90,200.0 92,200.0 94,200.0 96,200.0 98,200.0 100,200.0 102,200.0 104,200.0 106,200.0 108,200.0 110,200.0 112,200.0 114,200.0 116,200.0 118,200.0 120,200.0 122,200.0 124,200.0 126,200.0 128,233.33333333333331 130,233.33333333333331 132,233.33333333333331 134,233.33333333333331 136,233.33333333333331 138,233.33333333333331 140,233.33333333333331 142,233.33333333333331 144,233.33333333333331 146,200.0 148,200.0 150,200.0 152,200.0 154,200.0 156,233.33333333333331 158,200.0 160,233.33333333333331 162,233.33333333333331 164,233.33333333333331 166,233.33333333333331 168,233.33333333333331 170,233.33333333333331 172,233.33333333333331 174,233.33333333333331 176,200.0 178,200.0 180,200.0 182,200.0 184,200.0 186,200.0 188,200.0 190,200.0 192,200.0 194,200.0 196,200.0 198,200.0 200,200.0 202,200.0 204,200.0 206,200.0 208,200.0 210,200.0 212,200.0 214,200.0 216,200.0 218,166.66666666666666 220,166.66666666666666 222,166.66666666666666 224,166.66666666666666 226,166.66666666666666 228,166.66666666666666 230,166.66666666666666 232,166.66666666666666 234,166.66666666666666 236,166.66666666666666 238,166.66666666666666 240,166.66666666666666 242,166.66666666666666 244,166.66666666666666 246,133.33333333333331 248,133.33333333333331 250,133.33333333333331 252,133.33333333333331 254,133.33333333333331 256,133.33333333333331 258,133.33333333333331 260,133.33333333333331 262,166.66666666666666 264,166.66666666666666 266,200.0 268,200.0 270,200.0 272,200.0" /><polyline class="player_advantage" points="294,200.0 296,200.0 298,200.0 300,200.0 302,200.0 304,200.0 306,200.0 308,200.0 310,200.0 312,200.0 314,200.0 316,200.0 318,200.0 320,166.66666666666666 322,166.66666666666666 324,166.66666666666666 326,166.66666666666666 328,166.66666666666666 330,166.66666666666666 332,166.66666666666666 334,166.66666666666666 336,166.66666666666666 338,200.0 340,200.0 342,200.0 344,200.0 346,200.0 348,200.0 350,200.0 352,200.0 354,200.0 356,200.0 358,200.0 360,200.0 362,200.0 364,200.0 366,200.0 368,200.0 370,200.0 372,200.0 374,200.0 376,200.0 378,200.0 380,200.0 382,200.0 384,200.0 386,200.0 388,200.0 390,200.0 392,200.0 394,200.0 396,200.0 398,200.0 400,200.0 402,200.0 404,200.0 406,200.0 408,200.0 410,166.66666666666666 412,100.0 414,100.0 416,100.0 418,100.0 420,100.0 422,100.0 424,100.0 426,100.0 428,66.66666666666663 430,133.33333333333331 432,66.66666666666663 434,66.66666666666663 436,66.66666666666663 438,66.66666666666663 440,66.66666666666663 442,66.66666666666663 444,66.66666666666663" /><polyline class="player_advantage" points="458,100.0 460,133.33333333333331 462,133.33333333333331 464,133.33333333333331 466,166.66666666666666 468,166.66666666666666 470,166.66666666666666 472,166.66666666666666 474,200.0 476,200.0 478,200.0 480,200.0 482,200.0 484,200.0 486,200.0 488,200.0 490,200.0 492,200.0 494,200.0 496,200.0 498,200.0 500,200.0 502,200.0 504,200.0 506,200.0 508,200.0 510,200.0 512,200.0 514,200.0 516,200.0 518,233.33333333333331 520,233.33333333333331 522,200.0 524,200.0 526,200.0 528,200.0 530,200.0 532,200.0 534,200.0 536,233.33333333333331 538,233.33333333333331 540,266.66666666666663 542,266.66666666666663 544,300.0 546,300.0 548,300.0 550,300.0 552,333.3333333333333 554,266.66666666666663 556,266.66666666666663 558,300.0 560,300.0 562,266.66666666666663 564,266.66666666666663 566,233.33333333333331 568,233.33333333333331 570,233.33333333333331 572,233.33333333333331 574,233.33333333333331 576,233.33333333333331 578,200.0 580,200.0 582,200.0 584,200.0 586,200.0 588,200.0 590,200.0 592,200.0 594,200.0 596,200.0 598,200.0 600,200.0 602,200.0 604,200.0 606,200.0 608,200.0 610,200.0 612,200.0 614,200.0 616,200.0 618,200.0 620,200.0 622,200.0 624,200.0 626,200.0 628,200.0 630,200.0 632,200.0 634,166.66666666666666 636,166.66666666666666 638,166.66666666666666 640,166.66666666666666 642,166.66666666666666 644,133.33333333333331 646,133.33333333333331 648,133.33333333333331 650,100.0 652,133.33333333333331 654,133.33333333333331 656,133.33333333333331 658,133.33333333333331 660,133.33333333333331 662,200.0 664,200.0 666,200.0 668,200.0 670,166.66666666666666 672,166.66666666666666 674,133.33333333333331 676,133.33333333333331 678,133.33333333333331 680,100.0 682,100.0" /></g><g class="minute_ref"><line class="minute_ref_line" x1="120" x2="120" y1="0" y2="400" /><text x="120" y="420">1:00</text><line class="minute_ref_line" x1="240" x2="240" y1="0" y2="400" /><text x="240" y="420">2:00</text><line class="minute_ref_line" x1="360" x2="360" y1="0" y2="400" /><text x="360" y="420">3:00</text><line class="minute_ref_line" x1="480" x2="480" y1="0" y2="400" /><text x="480" y="420">4:00</text><line class="minute_ref_line" x1="600" x2="600" y1="0" y2="400" /><text x="600" y="420">5:00</text></g></g></svg>