<?xml version="1.0" encoding="utf-8" ?>
<svg baseProfile="full" height="100%" version="1.1" width="100%" xmlns="http://www.w3.org/2000/svg" xmlns:ev="http://www.w3.org/2001/xml-events" xmlns:xlink="http://www.w3.org/1999/xlink"><defs><style type="text/css"><![CDATA[
.player_lifelines {
  display: none
}

.player_lifeline {
  fill:none;
  stroke: green;
  stroke-width: 1;
  display: inline
}

.graph_border {
  fill: none;
  stroke: black;
}

.minute_ref_line {
  stroke: gray;
  stroke-width: 1;
  stroke-dasharray: 1,4
}


        .fight_area {
        fill: lightyellow;
        stroke: gold;
        stroke-width: 1
        }
        
        .replay_area {
        fill:lightgray;
        stroke: lightgray;
        stroke-width: 0
        }
        
        .progress_target_line {
        stroke: gray;
        stroke_width: 1;
        stroke-dasharray: 3,1
        }

        .progress_completion_line {
        stroke: gray;
        stroke_width: 1
        }
        
        .payload_progress {
        fill:none;
        stroke: blue;
        stroke-width: 2
        }
        
        .player_advantage {
        fill:none;
        stroke: red;
        stroke-width: 1
        }
        ]]></style></defs><text x="10" y="20">Seoul Dynasty at Los Angeles Valiant(A) on gibraltar round 3</text><g class="graph" transform="translate(10, 45)"><rect class="graph_border" height="400" width="304" x="0" y="0" /><g class="fights"><rect class="fight_area" height="52.56" width="2" x="78" y="274.28" /><text x="78" y="274.28">#1 -1</text><rect class="fight_area" height="89.11999999999998" width="38" x="158" y="185.16" /><text x="158" y="185.16">#2 2</text><rect class="fight_area" height="4.599999999999994" width="28" x="276" y="180.56" /><text x="276" y="180.56">#3 -4</text></g><g class="completion"><line class="progress_target_line" x1="188" x2="188" y1="0.0" y2="269.72" /><line class="progress_completion_line" x1="0" x2="188" y1="269.72" y2="269.72" /><text x="188" y="-5">01:34</text></g><g class="progress"><polyline class="payload_progress" points="0,400 2,400.0 4,400.0 6,400.0 8,400.0 10,400.0 12,400.0 14,400.0 16,393.16 18,388.56 20,388.56 22,388.56 24,379.44 26,379.44 28,374.84000000000003 30,370.28 32,365.72 34,365.72 36,363.44 38,363.44 40,354.28000000000003 42,349.71999999999997 44,347.44 46,347.44 48,347.44 50,347.44 52,347.44 54,345.16 56,338.28000000000003 58,329.15999999999997 60,329.15999999999997 62,329.15999999999997 64,329.15999999999997 66,329.15999999999997 68,329.15999999999997 70,329.15999999999997 72,329.15999999999997 74,329.15999999999997 76,329.15999999999997 78,326.84 80,326.84 82,326.84 84,326.84 86,326.84 88,326.84 90,326.84 92,324.56 94,324.56 96,320.0 98,320.0 100,320.0 102,317.72 104,308.56 106,308.56 108,306.28000000000003 110,301.71999999999997 112,301.71999999999997 114,301.71999999999997 116,301.71999999999997 118,301.71999999999997 120,293.71999999999997 122,292.56 124,292.56 126,292.56 128,292.56 130,292.56 132,292.56 134,292.56 136,292.56 138,292.56 140,288.0 142,288.0 144,288.0 146,288.0 148,288.0 150,288.0 152,274.28 154,274.28 156,274.28 158,274.28 160,274.28 162,274.28 164,274.28 166,274.28 168,274.28 170,274.28 172,274.28 174,274.28 176,274.28 178,274.28 180,274.28 182,274.28 184,274.28 186,274.28 188,269.72 190,267.44000000000005 192,267.44000000000005 194,267.44000000000005 196,265.16 198,262.84000000000003 200,262.84000000000003 202,262.84000000000003 204,262.84000000000003 206,262.84000000000003 208,262.84000000000003 210,260.56 212,256.0 214,256.0 216,256.0 218,251.44000000000003 220,249.16 222,246.84 224,233.16 226,228.56 228,228.56 230,228.56 232,228.56 234,226.28 236,219.44 238,214.84 240,214.84 242,208.0 244,205.72 246,201.16 248,201.16 250,201.16 252,198.84 254,197.71999999999997 256,192.0 258,192.0 260,189.72000000000003 262,189.72000000000003 264,187.44 266,187.44 268,187.44 270,187.44 272,187.44 274,187.44 276,185.16 278,185.16 280,185.16 282,185.16 284,185.16 286,185.16 288,185.16 290,185.16 292,185.16 294,185.16 296,185.16 298,185.16 300,185.16 302,185.16 304,187.44 304,180.56" /></g><g class="player_lifelines"><polyline class="player_lifeline" points="0,30.76923076923077 194,30.76923076923077" /><polyline class="player_lifeline" points="214,30.76923076923077 304,30.76923076923077" /><polyline class="player_lifeline" points="0,61.53846153846154 304,61.53846153846154" /><polyline class="player_lifeline" points="0,92.3076923076923 186,92.3076923076923" /><polyline class="player_lifeline" points="206,92.3076923076923 304,92.3076923076923" /><polyline class="player_lifeline" points="0,123.07692307692308 172,123.07692307692308" /><polyline class="player_lifeline" points="192,123.07692307692308 304,123.07692307692308" /><polyline class="player_lifeline" points="0,153.84615384615384 176,153.84615384615384" /><polyline class="player_lifeline" points="196,153.84615384615384 304,153.84615384615384" /><polyline class="player_lifeline" points="0,184.6153846153846 156,184.6153846153846" /><polyline class="player_lifeline" points="176,184.6153846153846 304,184.6153846153846" /><polyline class="player_lifeline" points="0,215.3846153846154 282,215.3846153846154" /><polyline class="player_lifeline" points="304,215.3846153846154 304,215.3846153846154" /><polyline class="player_lifeline" points="0,246.15384615384616 304,246.15384615384616" /><polyline class="player_lifeline" points="0,276.9230769230769 172,276.9230769230769" /><polyline class="player_lifeline" points="190,276.9230769230769 296,276.9230769230769" /><polyline class="player_lifeline" points="304,276.9230769230769 304,276.9230769230769" /><polyline class="player_lifeline" points="0,307.6923076923077 304,307.6923076923077" /><polyline class="player_lifeline" points="0,338.46153846153845 76,338.46153846153845" /><polyline class="player_lifeline" points="92,338.46153846153845 180,338.46153846153845" /><polyline class="player_lifeline" points="202,338.46153846153845 296,338.46153846153845" /><polyline class="player_lifeline" points="304,338.46153846153845 304,338.46153846153845" /><polyline class="player_lifeline" points="0,369.2307692307692 192,369.2307692307692" /><polyline class="player_lifeline" points="212,369.2307692307692 274,369.2307692307692" /><polyline class="player_lifeline" points="300,369.2307692307692 304,369.2307692307692" /></g><g class="advantages"><polyline class="player_advantage" points="2,200.0 4,200.0 6,200.0 8,200.0 10,200.0 12,200.0 14,200.0 16,200.0 18,200.0 20,200.0 22,200.0 24,200.0 26,200.0 28,200.0 30,200.0 32,200.0 34,200.0 36,200.0 38,200.0 40,200.0 42,200.0 44,200.0 46,200.0 48,200.0 50,200.0 52,200.0 54,200.0 56,200.0 58,200.0 60,200.0 62,200.0 64,200.0 66,200.0 68,200.0 70,200.0 72,200.0 74,200.0 76,200.0 78,233.33333333333331 80,233.33333333333331 82,233.33333333333331 84,233.33333333333331 86,233.33333333333331 88,233.33333333333331 90,233.33333333333331 92,200.0 94,200.0 96,200.0 98,200.0 100,200.0 102,200.0 104,200.0 106,200.0 108,200.0 110,200.0 112,200.0 114,200.0 116,200.0 118,200.0 120,200.0 122,200.0 124,200.0 126,200.0 128,200.0 130,200.0 132,200.0 134,200.0 136,200.0 138,200.0 140,200.0 142,200.0 144,200.0 146,200.0 148,200.0 150,200.0 152,200.0 154,200.0 156,200.0 158,166.66666666666666 160,166.66666666666666 162,166.66666666666666 164,166.66666666666666 166,166.66666666666666 168,166.66666666666666 170,166.66666666666666 172,166.66666666666666 174,166.66666666666666 176,200.0 178,166.66666666666666 180,166.66666666666666 182,200.0 184,200.0 186,200.0 188,166.66666666666666 190,133.33333333333331 192,166.66666666666666 194,200.0 196,200.0 198,200.0 200,200.0 202,166.66666666666666 204,166.66666666666666 206,200.0 208,200.0 210,200.0 212,166.66666666666666 214,200.0 216,200.0 218,200.0 220,200.0 222,200.0 224,200.0 226,200.0 228,200.0 230,200.0 232,200.0 234,200.0 236,200.0 238,200.0 240,200.0 242,200.0 244,200.0 246,200.0 248,200.0 250,200.0 252,200.0 254,200.0 256,200.0 258,200.0 260,200.0 262,200.0 264,200.0 266,200.0 268,200.0 270,200.0 272,200.0 274,200.0 276,233.33333333333331 278,233.33333333333331 280,233.33333333333331 282,233.33333333333331 284,266.66666666666663 286,266.66666666666663 288,266.66666666666663 290,266.66666666666663 292,266.66666666666663 294,266.66666666666663 296,266.66666666666663 298,333.3333333333333 300,300.0 302,300.0 304,300.0 304,200.0" /></g><g class="minute_ref"><line class="minute_ref_line" x1="120" x2="120" y1="0" y2="400" /><text x="120" y="420">1:00</text><line class="minute_ref_line" x1="240" x2="240" y1="0" y2="400" /><text x="240" y="420">2:00</text></g></g></svg>