<?xml version="1.0" encoding="utf-8" ?>
<svg baseProfile="full" height="100%" version="1.1" width="100%" xmlns="http://www.w3.org/2000/svg" xmlns:ev="http://www.w3.org/2001/xml-events" xmlns:xlink="http://www.w3.org/1999/xlink"><defs><style type="text/css"><![CDATA[
.payload_progress {
  fill:none;
  stroke: blue;
  stroke-width: 2
}

.player_advantage {
  fill:none;
  stroke: red;
  stroke-width: 1

}

.player_lifeline {
  fill:none;
  stroke: green;
  stroke-width: 1
}

.graph_border {
  fill: none;
  stroke: black;
}

.minute_ref_line {
  stroke: gray;
  stroke-width: 1;
  stroke-dasharray: 1,4
}

.progress_target_line {
  stroke: gray;
  stroke_width: 1;
  stroke-dasharray: 3,1
}

.progress_completion_line {
  stroke: gray;
  stroke_width: 1
}


]]></style></defs><text x="10" y="20">Florida Mayhem at New York Excelsior on route-66 round 1</text><g style="graph" transform="translate(10, 45)"><rect class="graph_border" height="400" width="1066" x="0" y="0" /><line class="minute_ref_line" x1="120" x2="120" y1="0" y2="400" /><text x="120" y="420">1:00</text><line class="minute_ref_line" x1="240" x2="240" y1="0" y2="400" /><text x="240" y="420">2:00</text><line class="minute_ref_line" x1="360" x2="360" y1="0" y2="400" /><text x="360" y="420">3:00</text><line class="minute_ref_line" x1="480" x2="480" y1="0" y2="400" /><text x="480" y="420">4:00</text><line class="minute_ref_line" x1="600" x2="600" y1="0" y2="400" /><text x="600" y="420">5:00</text><line class="minute_ref_line" x1="720" x2="720" y1="0" y2="400" /><text x="720" y="420">6:00</text><line class="minute_ref_line" x1="840" x2="840" y1="0" y2="400" /><text x="840" y="420">7:00</text><line class="minute_ref_line" x1="960" x2="960" y1="0" y2="400" /><text x="960" y="420">8:00</text><polyline class="payload_progress" points="0,400 0,400.0 2,400.0 4,400.0 6,400.0 8,400.0 10,400.0 12,400.0 14,400.0 16,397.71999999999997 18,395.44 20,392.0 22,389.71999999999997 24,387.44 26,385.15999999999997 28,382.84 30,379.44 32,377.15999999999997 34,373.72 36,370.28 38,368.0 40,365.72 42,362.28 44,358.84000000000003 46,356.56 48,353.16 50,350.84 52,347.44 54,345.16 56,342.84 58,340.55999999999995 60,338.28000000000003 62,334.84 64,332.56 66,330.28 68,328.0 70,325.72 72,323.44 74,321.15999999999997 76,318.84000000000003 78,317.72 80,317.72 82,316.56 84,314.28000000000003 86,312.0 88,309.71999999999997 90,307.44 92,306.28000000000003 94,306.28000000000003 96,306.28000000000003 98,306.28000000000003 100,306.28000000000003 102,306.28000000000003 104,306.28000000000003 106,306.28000000000003 108,306.28000000000003 110,306.28000000000003 112,306.28000000000003 114,305.16 116,302.84 118,300.56 120,297.16 122,297.16 124,297.16 126,297.16 128,297.16 130,297.16 132,296.0 134,294.84 136,292.56 138,289.15999999999997 140,288.0 142,285.71999999999997 144,283.44 146,281.16 148,277.71999999999997 150,275.44 152,272.0 154,269.72 156,266.28 158,263.99999999999994 160,263.99999999999994 162,263.99999999999994 164,263.99999999999994 166,263.99999999999994 168,263.99999999999994 170,263.99999999999994 172,263.99999999999994 174,263.99999999999994 176,263.99999999999994 178,263.99999999999994 180,263.99999999999994 182,263.99999999999994 184,263.99999999999994 186,263.99999999999994 188,263.99999999999994 190,261.71999999999997 192,259.44000000000005 194,256.0 196,253.72 198,251.44000000000003 200,249.16 202,246.84 204,244.55999999999997 206,242.28 208,238.83999999999997 210,236.55999999999997 212,234.28 214,232.00000000000003 216,228.56 218,226.28 220,224.00000000000003 222,221.72 224,219.44 226,216.0 228,213.72 230,210.28000000000003 232,208.0 234,205.72 236,205.72 238,205.72 240,203.43999999999997 242,201.16 244,198.84 246,196.55999999999997 248,193.16 250,190.83999999999997 252,189.72000000000003 254,189.72000000000003 256,189.72000000000003 258,189.72000000000003 260,189.72000000000003 262,189.72000000000003 264,189.72000000000003 266,189.72000000000003 268,188.56 270,187.44 272,186.28 274,186.28 276,186.28 278,186.28 280,186.28 282,186.28 284,186.28 286,186.28 288,184.0 290,182.83999999999997 292,179.44 294,178.28 296,177.16 298,177.16 300,177.16 302,177.16 304,177.16 306,177.16 308,177.16 310,177.16 312,177.16 314,177.16 316,177.16 318,177.16 320,177.16 322,177.16 324,177.16 326,177.16 328,177.16 330,177.16 332,177.16 334,177.16 336,177.16 338,177.16 340,177.16 342,177.16 344,177.16 346,177.16 348,177.16 350,177.16 352,177.16 354,177.16 356,177.16 358,177.16 360,177.16 362,178.28 364,178.28 366,178.28 368,179.44 370,179.44 372,180.56 374,180.56 376,180.56 378,181.72000000000003 380,181.72000000000003 382,182.83999999999997 384,182.83999999999997 386,184.0 388,184.0 390,184.0 392,185.16 394,185.16 396,186.28 398,186.28 400,186.28 402,187.44 404,187.44 406,188.56 408,188.56 410,189.72000000000003 412,189.72000000000003 414,189.72000000000003 416,190.83999999999997 418,190.83999999999997 420,192.0 422,192.0 424,192.0 426,192.0 428,192.0 430,192.0 432,192.0 434,192.0 436,192.0 438,189.72000000000003 440,187.44 442,186.28 444,186.28 446,186.28 448,185.16 450,184.0 452,184.0 454,184.0 456,184.0 458,184.0 460,184.0 462,184.0 464,184.0 466,184.0 468,184.0 470,184.0 472,184.0 474,184.0 476,185.16 478,185.16 480,186.28 482,186.28 484,187.44 486,187.44 488,187.44 490,188.56 492,188.56 494,189.72000000000003 496,379.44 498,379.44 500,380.56 502,380.56 504,380.56 506,380.56 508,380.56 510,381.72 512,380.56 514,380.56 516,380.56 518,380.56 520,380.56 522,380.56 524,380.56 526,200.0 528,200.0 530,200.0 532,200.0 534,200.0 536,200.0 538,200.0 540,200.0 542,200.0 544,197.71999999999997 546,195.44000000000003 548,194.28 550,194.28 552,194.28 554,194.28 556,194.28 558,194.28 560,194.28 562,194.28 564,194.28 566,194.28 568,194.28 570,194.28 572,194.28 574,194.28 576,192.0 578,189.72000000000003 580,187.44 582,185.16 584,184.0 586,181.72000000000003 588,179.44 590,179.44 592,178.28 594,175.99999999999997 596,173.72 598,170.27999999999997 600,169.16000000000003 602,165.72 604,164.56 606,162.27999999999997 608,160.0 610,156.56 612,154.28000000000003 614,150.84 616,148.55999999999997 618,146.28 620,144.0 622,141.71999999999997 624,138.28 626,136.0 628,133.72000000000003 630,131.44 632,129.16 634,125.72000000000001 636,124.56 638,124.56 640,124.56 642,124.56 644,124.56 646,124.56 648,124.56 650,124.56 652,124.56 654,124.56 656,124.56 658,124.56 660,124.56 662,124.56 664,124.56 666,124.56 668,124.56 670,124.56 672,124.56 674,124.56 676,124.56 678,124.56 680,123.44 682,120.00000000000001 684,118.84000000000002 686,118.84000000000002 688,118.84000000000002 690,118.84000000000002 692,118.84000000000002 694,118.84000000000002 696,118.84000000000002 698,118.84000000000002 700,118.84000000000002 702,118.84000000000002 704,118.84000000000002 706,118.84000000000002 708,118.84000000000002 710,118.84000000000002 712,118.84000000000002 714,117.72 716,115.43999999999998 718,112.00000000000001 720,109.72 722,107.43999999999998 724,104.0 726,101.71999999999998 728,99.44000000000001 730,97.16 732,93.71999999999998 734,92.56000000000002 736,91.44000000000001 738,90.28 740,87.99999999999999 742,85.72000000000001 744,83.44 746,81.15999999999998 748,78.84000000000002 750,76.56 752,74.27999999999999 754,73.15999999999998 756,70.84000000000002 758,69.72 760,68.56 762,68.56 764,68.56 766,67.43999999999998 768,64.00000000000001 770,62.84 772,60.55999999999999 774,59.43999999999998 776,59.43999999999998 778,59.43999999999998 780,57.16000000000001 782,54.84 784,52.55999999999999 786,49.160000000000004 788,46.83999999999999 790,43.44000000000001 792,41.16 794,37.72000000000002 796,35.440000000000005 798,31.999999999999986 800,28.56000000000001 802,26.279999999999994 804,24.00000000000002 806,20.560000000000002 808,18.279999999999987 810,16.000000000000014 812,13.719999999999999 814,11.439999999999984 816,9.160000000000013 818,8.000000000000007 820,5.719999999999992 822,5.719999999999992 824,5.719999999999992 826,5.719999999999992 828,5.719999999999992 830,5.719999999999992 832,5.719999999999992 834,5.719999999999992 836,5.719999999999992 838,5.719999999999992 840,5.719999999999992 842,5.719999999999992 844,5.719999999999992 846,5.719999999999992 848,5.719999999999992 850,5.719999999999992 852,5.719999999999992 854,5.719999999999992 856,5.719999999999992 858,5.719999999999992 860,5.719999999999992 862,5.719999999999992 864,5.719999999999992 866,5.719999999999992 868,5.719999999999992 870,5.719999999999992 872,5.719999999999992 874,5.719999999999992 876,5.719999999999992 878,5.719999999999992 880,5.719999999999992 882,5.719999999999992 884,5.719999999999992 886,5.719999999999992 888,5.719999999999992 890,5.719999999999992 892,6.840000000000002 894,6.840000000000002 896,6.840000000000002 898,8.000000000000007 900,8.000000000000007 902,9.160000000000013 904,9.160000000000013 906,10.279999999999978 908,10.279999999999978 910,11.439999999999984 912,11.439999999999984 914,11.439999999999984 916,12.559999999999993 918,12.559999999999993 920,13.719999999999999 922,13.719999999999999 924,13.719999999999999 926,14.840000000000009 928,14.840000000000009 930,16.000000000000014 932,16.000000000000014 934,16.000000000000014 936,17.160000000000018 938,17.160000000000018 940,17.160000000000018 942,17.160000000000018 944,17.160000000000018 946,17.160000000000018 948,17.160000000000018 950,17.160000000000018 952,14.840000000000009 954,12.559999999999993 956,10.279999999999978 958,9.160000000000013 960,9.160000000000013 962,9.160000000000013 964,9.160000000000013 966,9.160000000000013 968,9.160000000000013 970,9.160000000000013 972,9.160000000000013 974,9.160000000000013 976,9.160000000000013 978,9.160000000000013 980,9.160000000000013 982,9.160000000000013 984,9.160000000000013 986,9.160000000000013 988,9.160000000000013 990,9.160000000000013 992,8.000000000000007 994,8.000000000000007 996,8.000000000000007 998,8.000000000000007 1000,8.000000000000007 1002,8.000000000000007 1004,8.000000000000007 1006,8.000000000000007 1008,8.000000000000007 1010,8.000000000000007 1012,8.000000000000007 1014,8.000000000000007 1016,8.000000000000007 1018,8.000000000000007 1020,8.000000000000007 1022,8.000000000000007 1024,8.000000000000007 1026,8.000000000000007 1028,5.719999999999992 1030,3.440000000000021 1032,2.2800000000000153 1034,2.2800000000000153 1036,2.2800000000000153 1038,2.2800000000000153 1040,2.2800000000000153 1042,2.2800000000000153 1044,2.2800000000000153 1046,2.2800000000000153 1048,2.2800000000000153 1050,2.2800000000000153 1052,2.2800000000000153 1054,2.2800000000000153 1056,2.2800000000000153 1058,2.2800000000000153 1060,2.2800000000000153 1062,2.2800000000000153 1064,2.2800000000000153 1066,2.2800000000000153 1066,400.0" /><line class="progress_target_line" x1="152" x2="152" y1="0" y2="272.0" /><line class="progress_completion_line" x1="0" x2="152" y1="272.0" y2="272.0" /><text x="152" y="-5">01:16</text><line class="progress_target_line" x1="626" x2="626" y1="0" y2="136.0" /><line class="progress_completion_line" x1="152" x2="626" y1="136.0" y2="136.0" /><text x="626" y="-5">05:13</text><polyline class="player_advantage" points="0,200.0 0,200.0 2,200.0 4,200.0 6,200.0 8,200.0 10,200.0 12,200.0 14,200.0 16,200.0 18,200.0 20,200.0 22,200.0 24,200.0 26,200.0 28,200.0 30,200.0 32,200.0 34,200.0 36,200.0 38,200.0 40,200.0 42,200.0 44,200.0 46,200.0 48,200.0 50,200.0 52,200.0 54,200.0 56,200.0 58,200.0 60,200.0 62,200.0 64,200.0 66,200.0 68,200.0 70,200.0 72,200.0 74,200.0 76,200.0 78,200.0 80,200.0 82,200.0 84,200.0 86,200.0 88,200.0 90,200.0 92,200.0 94,200.0 96,200.0 98,200.0 100,200.0 102,200.0 104,200.0 106,200.0 108,200.0 110,200.0 112,200.0 114,166.66666666666666 116,166.66666666666666 118,166.66666666666666 120,166.66666666666666 122,166.66666666666666 124,100.0 126,100.0 128,100.0 130,100.0 132,100.0 134,133.33333333333331 136,133.33333333333331 138,100.0 140,100.0 142,166.66666666666666 144,166.66666666666666 146,133.33333333333331 148,166.66666666666666 150,166.66666666666666 152,166.66666666666666 154,166.66666666666666 156,166.66666666666666 158,166.66666666666666 160,166.66666666666666 162,200.0 164,200.0 166,200.0 168,200.0 170,200.0 172,200.0 174,200.0 176,200.0 178,200.0 180,200.0 182,200.0 184,200.0 186,200.0 188,200.0 190,200.0 192,200.0 194,200.0 196,200.0 198,200.0 200,200.0 202,200.0 204,200.0 206,200.0 208,200.0 210,200.0 212,200.0 214,200.0 216,200.0 218,233.33333333333331 220,200.0 222,200.0 224,233.33333333333331 226,200.0 228,200.0 230,200.0 232,200.0 234,200.0 236,200.0 238,200.0 240,200.0 242,200.0 244,200.0 246,200.0 248,200.0 250,200.0 252,200.0 254,200.0 256,200.0 258,200.0 260,200.0 262,200.0 264,200.0 266,200.0 268,200.0 270,200.0 272,200.0 274,200.0 276,200.0 278,200.0 280,200.0 282,200.0 284,200.0 286,200.0 288,200.0 290,200.0 292,200.0 294,200.0 296,200.0 298,200.0 300,200.0 302,200.0 304,200.0 306,200.0 308,200.0 310,200.0 312,200.0 314,200.0 316,200.0 318,200.0 320,200.0 322,200.0 324,200.0 326,200.0 328,233.33333333333331 330,233.33333333333331 332,233.33333333333331 334,200.0 336,233.33333333333331 338,200.0 340,200.0 342,200.0 344,200.0 346,200.0 348,200.0 350,200.0 352,200.0 354,200.0 356,200.0 358,233.33333333333331 360,233.33333333333331 362,233.33333333333331 364,300.0 366,300.0 368,333.3333333333333 370,333.3333333333333 372,333.3333333333333 374,366.6666666666667 376,333.3333333333333 378,333.3333333333333 380,300.0 382,266.66666666666663 384,266.66666666666663 386,233.33333333333331 388,233.33333333333331 390,233.33333333333331 392,200.0 394,200.0 396,200.0 398,200.0 400,200.0 402,200.0 404,200.0 406,200.0 408,200.0 410,200.0 412,200.0 414,200.0 416,200.0 418,200.0 420,200.0 422,200.0 424,200.0 426,200.0 428,200.0 430,200.0 432,200.0 434,200.0 436,200.0 438,200.0 440,200.0 442,200.0 444,200.0 446,200.0 448,200.0 450,200.0 452,200.0 454,200.0 456,200.0 458,200.0 460,200.0 462,200.0 464,233.33333333333331 466,233.33333333333331 468,233.33333333333331 470,233.33333333333331 472,266.66666666666663 474,266.66666666666663 476,233.33333333333331 478,233.33333333333331 480,233.33333333333331 482,233.33333333333331 484,233.33333333333331 486,233.33333333333331 488,233.33333333333331 490,200.0 492,233.33333333333331 494,233.33333333333331 496,200.0 498,200.0 500,200.0 502,200.0 504,200.0 506,200.0 508,200.0 510,200.0 512,200.0 514,200.0 516,200.0 518,200.0 520,200.0 522,200.0 524,200.0 526,200.0 528,200.0 530,200.0 532,200.0 534,200.0 536,200.0 538,200.0 540,200.0 542,200.0 544,200.0 546,200.0 548,200.0 550,200.0 552,200.0 554,200.0 556,200.0 558,200.0 560,200.0 562,200.0 564,200.0 566,166.66666666666666 568,166.66666666666666 570,166.66666666666666 572,166.66666666666666 574,166.66666666666666 576,166.66666666666666 578,166.66666666666666 580,166.66666666666666 582,166.66666666666666 584,200.0 586,166.66666666666666 588,166.66666666666666 590,166.66666666666666 592,133.33333333333331 594,133.33333333333331 596,133.33333333333331 598,133.33333333333331 600,133.33333333333331 602,166.66666666666666 604,166.66666666666666 606,166.66666666666666 608,166.66666666666666 610,166.66666666666666 612,200.0 614,200.0 616,200.0 618,200.0 620,200.0 622,200.0 624,200.0 626,200.0 628,200.0 630,200.0 632,200.0 634,200.0 636,200.0 638,200.0 640,200.0 642,200.0 644,200.0 646,200.0 648,166.66666666666666 650,166.66666666666666 652,166.66666666666666 654,166.66666666666666 656,166.66666666666666 658,166.66666666666666 660,166.66666666666666 662,166.66666666666666 664,166.66666666666666 666,200.0 668,166.66666666666666 670,166.66666666666666 672,133.33333333333331 674,133.33333333333331 676,133.33333333333331 678,133.33333333333331 680,66.66666666666663 682,66.66666666666663 684,66.66666666666663 686,66.66666666666663 688,133.33333333333331 690,133.33333333333331 692,133.33333333333331 694,166.66666666666666 696,166.66666666666666 698,233.33333333333331 700,233.33333333333331 702,233.33333333333331 704,200.0 706,233.33333333333331 708,200.0 710,200.0 712,166.66666666666666 714,166.66666666666666 716,166.66666666666666 718,166.66666666666666 720,166.66666666666666 722,166.66666666666666 724,200.0 726,166.66666666666666 728,200.0 730,200.0 732,200.0 734,200.0 736,233.33333333333331 738,233.33333333333331 740,200.0 742,200.0 744,200.0 746,200.0 748,200.0 750,233.33333333333331 752,200.0 754,200.0 756,200.0 758,200.0 760,166.66666666666666 762,200.0 764,166.66666666666666 766,100.0 768,133.33333333333331 770,133.33333333333331 772,166.66666666666666 774,133.33333333333331 776,166.66666666666666 778,166.66666666666666 780,133.33333333333331 782,133.33333333333331 784,200.0 786,166.66666666666666 788,166.66666666666666 790,166.66666666666666 792,166.66666666666666 794,166.66666666666666 796,166.66666666666666 798,166.66666666666666 800,200.0 802,200.0 804,200.0 806,200.0 808,166.66666666666666 810,200.0 812,200.0 814,200.0 816,166.66666666666666 818,166.66666666666666 820,166.66666666666666 822,166.66666666666666 824,166.66666666666666 826,200.0 828,200.0 830,200.0 832,200.0 834,233.33333333333331 836,266.66666666666663 838,266.66666666666663 840,233.33333333333331 842,233.33333333333331 844,233.33333333333331 846,233.33333333333331 848,233.33333333333331 850,233.33333333333331 852,233.33333333333331 854,233.33333333333331 856,200.0 858,200.0 860,200.0 862,166.66666666666666 864,200.0 866,266.66666666666663 868,266.66666666666663 870,266.66666666666663 872,266.66666666666663 874,266.66666666666663 876,233.33333333333331 878,266.66666666666663 880,266.66666666666663 882,233.33333333333331 884,200.0 886,200.0 888,200.0 890,200.0 892,200.0 894,200.0 896,200.0 898,200.0 900,200.0 902,200.0 904,200.0 906,200.0 908,200.0 910,200.0 912,200.0 914,200.0 916,200.0 918,166.66666666666666 920,166.66666666666666 922,200.0 924,200.0 926,166.66666666666666 928,200.0 930,200.0 932,200.0 934,166.66666666666666 936,166.66666666666666 938,166.66666666666666 940,200.0 942,233.33333333333331 944,200.0 946,200.0 948,200.0 950,233.33333333333331 952,166.66666666666666 954,200.0 956,233.33333333333331 958,233.33333333333331 960,233.33333333333331 962,233.33333333333331 964,233.33333333333331 966,266.66666666666663 968,266.66666666666663 970,233.33333333333331 972,233.33333333333331 974,233.33333333333331 976,200.0 978,200.0 980,200.0 982,200.0 984,200.0 986,200.0 988,166.66666666666666 990,133.33333333333331 992,100.0 994,133.33333333333331 996,166.66666666666666 998,133.33333333333331 1000,133.33333333333331 1002,133.33333333333331 1004,200.0 1006,233.33333333333331 1008,233.33333333333331 1010,233.33333333333331 1012,233.33333333333331 1014,233.33333333333331 1016,200.0 1018,233.33333333333331 1020,233.33333333333331 1022,233.33333333333331 1024,233.33333333333331 1026,233.33333333333331 1028,200.0 1030,166.66666666666666 1032,166.66666666666666 1034,200.0 1036,200.0 1038,200.0 1040,200.0 1042,233.33333333333331 1044,266.66666666666663 1046,266.66666666666663 1048,266.66666666666663 1050,266.66666666666663 1052,266.66666666666663 1054,266.66666666666663 1056,266.66666666666663 1058,233.33333333333331 1060,300.0 1062,300.0 1064,300.0 1066,333.3333333333333 1066,200.0" /></g></svg>