<?xml version="1.0" encoding="utf-8" ?>
<svg baseProfile="full" height="100%" version="1.1" width="100%" xmlns="http://www.w3.org/2000/svg" xmlns:ev="http://www.w3.org/2001/xml-events" xmlns:xlink="http://www.w3.org/1999/xlink"><defs><style type="text/css"><![CDATA[
.payload_progress {
  fill:none;
  stroke: blue;
  stroke-width: 2
}

.player_advantage {
  fill:none;
  stroke: red;
  stroke-width: 1

}

.player_lifeline {
  fill:none;
  stroke: green;
  stroke-width: 1
}

.graph_border {
  fill: none;
  stroke: black;
}

.minute_ref_line {
  stroke: gray;
  stroke-width: 1;
  stroke-dasharray: 1,4
}

.progress_target_line {
  stroke: gray;
  stroke_width: 1;
  stroke-dasharray: 3,1
}

.progress_completion_line {
  stroke: gray;
  stroke_width: 1
}


]]></style></defs><text x="10" y="20">Florida Mayhem at New York Excelsior on route-66 round 2</text><g style="graph" transform="translate(10, 45)"><rect class="graph_border" height="400" width="1034" x="0" y="0" /><line class="minute_ref_line" x1="120" x2="120" y1="0" y2="400" /><text x="120" y="420">1:00</text><line class="minute_ref_line" x1="240" x2="240" y1="0" y2="400" /><text x="240" y="420">2:00</text><line class="minute_ref_line" x1="360" x2="360" y1="0" y2="400" /><text x="360" y="420">3:00</text><line class="minute_ref_line" x1="480" x2="480" y1="0" y2="400" /><text x="480" y="420">4:00</text><line class="minute_ref_line" x1="600" x2="600" y1="0" y2="400" /><text x="600" y="420">5:00</text><line class="minute_ref_line" x1="720" x2="720" y1="0" y2="400" /><text x="720" y="420">6:00</text><line class="minute_ref_line" x1="840" x2="840" y1="0" y2="400" /><text x="840" y="420">7:00</text><line class="minute_ref_line" x1="960" x2="960" y1="0" y2="400" /><text x="960" y="420">8:00</text><polyline class="payload_progress" points="0,400 0,398.84 2,398.84 4,400.0 6,400.0 8,400.0 10,400.0 12,400.0 14,400.0 16,400.0 18,400.0 20,400.0 22,400.0 24,400.0 26,400.0 28,400.0 30,400.0 32,400.0 34,400.0 36,400.0 38,400.0 40,400.0 42,400.0 44,400.0 46,400.0 48,400.0 50,400.0 52,400.0 54,400.0 56,400.0 58,400.0 60,400.0 62,400.0 64,400.0 66,400.0 68,400.0 70,400.0 72,400.0 74,400.0 76,400.0 78,400.0 80,400.0 82,400.0 84,400.0 86,400.0 88,400.0 90,400.0 92,400.0 94,400.0 96,400.0 98,400.0 100,400.0 102,400.0 104,400.0 106,400.0 108,400.0 110,400.0 112,400.0 114,400.0 116,400.0 118,400.0 120,400.0 122,400.0 124,400.0 126,400.0 128,400.0 130,400.0 132,400.0 134,400.0 136,400.0 138,400.0 140,400.0 142,400.0 144,400.0 146,400.0 148,400.0 150,400.0 152,400.0 154,400.0 156,400.0 158,400.0 160,400.0 162,400.0 164,400.0 166,400.0 168,400.0 170,400.0 172,400.0 174,400.0 176,400.0 178,400.0 180,400.0 182,400.0 184,400.0 186,400.0 188,400.0 190,400.0 192,400.0 194,400.0 196,400.0 198,400.0 200,400.0 202,400.0 204,400.0 206,400.0 208,400.0 210,400.0 212,400.0 214,400.0 216,400.0 218,400.0 220,400.0 222,400.0 224,400.0 226,400.0 228,400.0 230,400.0 232,400.0 234,400.0 236,400.0 238,400.0 240,400.0 242,400.0 244,400.0 246,400.0 248,400.0 250,400.0 252,400.0 254,400.0 256,400.0 258,400.0 260,400.0 262,400.0 264,400.0 266,400.0 268,400.0 270,400.0 272,400.0 274,400.0 276,400.0 278,400.0 280,400.0 282,400.0 284,400.0 286,400.0 288,400.0 290,400.0 292,400.0 294,400.0 296,400.0 298,400.0 300,400.0 302,400.0 304,400.0 306,400.0 308,400.0 310,400.0 312,400.0 314,400.0 316,400.0 318,400.0 320,400.0 322,400.0 324,400.0 326,400.0 328,400.0 330,400.0 332,400.0 334,400.0 336,400.0 338,400.0 340,400.0 342,400.0 344,400.0 346,400.0 348,400.0 350,400.0 352,400.0 354,400.0 356,400.0 358,400.0 360,400.0 362,400.0 364,400.0 366,400.0 368,400.0 370,400.0 372,400.0 374,400.0 376,400.0 378,400.0 380,400.0 382,400.0 384,400.0 386,400.0 388,400.0 390,400.0 392,400.0 394,400.0 396,398.84 398,398.84 400,398.84 402,398.84 404,398.84 406,398.84 408,398.84 410,398.84 412,398.84 414,398.84 416,398.84 418,398.84 420,398.84 422,398.84 424,398.84 426,398.84 428,398.84 430,398.84 432,398.84 434,398.84 436,398.84 438,398.84 440,398.84 442,398.84 444,398.84 446,398.84 448,398.84 450,398.84 452,400.0 454,400.0 456,400.0 458,400.0 460,400.0 462,400.0 464,400.0 466,400.0 468,400.0 470,400.0 472,400.0 474,400.0 476,400.0 478,400.0 480,400.0 482,400.0 484,400.0 486,400.0 488,400.0 490,400.0 492,400.0 494,400.0 496,400.0 498,400.0 500,400.0 502,400.0 504,400.0 506,400.0 508,400.0 510,400.0 512,400.0 514,400.0 516,400.0 518,400.0 520,400.0 522,400.0 524,400.0 526,400.0 528,400.0 530,400.0 532,400.0 534,400.0 536,400.0 538,400.0 540,400.0 542,400.0 544,400.0 546,400.0 548,400.0 550,400.0 552,400.0 554,400.0 556,400.0 558,400.0 560,400.0 562,400.0 564,400.0 566,400.0 568,400.0 570,400.0 572,400.0 574,400.0 576,400.0 578,400.0 580,400.0 582,400.0 584,400.0 586,400.0 588,400.0 590,400.0 592,400.0 594,400.0 596,400.0 598,400.0 600,400.0 602,400.0 604,400.0 606,400.0 608,400.0 610,400.0 612,400.0 614,400.0 616,400.0 618,400.0 620,400.0 622,400.0 624,400.0 626,400.0 628,400.0 630,400.0 632,400.0 634,400.0 636,400.0 638,400.0 640,400.0 642,400.0 644,400.0 646,400.0 648,400.0 650,400.0 652,400.0 654,400.0 656,400.0 658,400.0 660,400.0 662,400.0 664,400.0 666,400.0 668,400.0 670,400.0 672,400.0 674,400.0 676,400.0 678,400.0 680,400.0 682,400.0 684,400.0 686,400.0 688,400.0 690,400.0 692,400.0 694,400.0 696,400.0 698,400.0 700,400.0 702,400.0 704,400.0 706,400.0 708,400.0 710,400.0 712,400.0 714,400.0 716,400.0 718,400.0 720,400.0 722,400.0 724,400.0 726,400.0 728,400.0 730,400.0 732,400.0 734,400.0 736,400.0 738,400.0 740,400.0 742,400.0 744,400.0 746,400.0 748,400.0 750,400.0 752,400.0 754,400.0 756,400.0 758,400.0 760,400.0 762,400.0 764,400.0 766,400.0 768,400.0 770,400.0 772,400.0 774,400.0 776,400.0 778,400.0 780,400.0 782,400.0 784,400.0 786,400.0 788,400.0 790,400.0 792,400.0 794,400.0 796,400.0 798,400.0 800,400.0 802,400.0 804,400.0 806,400.0 808,400.0 810,400.0 812,400.0 814,400.0 816,400.0 818,400.0 820,400.0 822,400.0 824,400.0 826,400.0 828,400.0 830,400.0 832,400.0 834,400.0 836,400.0 838,400.0 840,400.0 842,400.0 844,400.0 846,400.0 848,400.0 850,400.0 852,400.0 854,400.0 856,400.0 858,400.0 860,400.0 862,400.0 864,400.0 866,400.0 868,400.0 870,400.0 872,400.0 874,400.0 876,400.0 878,400.0 880,400.0 882,400.0 884,400.0 886,400.0 888,400.0 890,400.0 892,400.0 894,400.0 896,400.0 898,400.0 900,400.0 902,400.0 904,400.0 906,400.0 908,400.0 910,400.0 912,400.0 914,400.0 916,400.0 918,400.0 920,400.0 922,400.0 924,400.0 926,400.0 928,400.0 930,400.0 932,400.0 934,400.0 936,400.0 938,400.0 940,400.0 942,400.0 944,400.0 946,400.0 948,400.0 950,400.0 952,400.0 954,400.0 956,400.0 958,400.0 960,400.0 962,400.0 964,400.0 966,400.0 968,400.0 970,400.0 972,400.0 974,400.0 976,400.0 978,400.0 980,400.0 982,400.0 984,400.0 986,400.0 988,400.0 990,400.0 992,400.0 994,400.0 996,400.0 998,400.0 1000,400.0 1002,400.0 1004,400.0 1006,400.0 1008,400.0 1010,400.0 1012,400.0 1014,400.0 1016,400.0 1018,400.0 1020,400.0 1022,400.0 1024,400.0 1026,400.0 1028,400.0 1030,400.0 1032,400.0 1034,400.0 1034,400.0" /><polyline class="player_advantage" points="0,200.0 0,200.0 2,200.0 4,200.0 6,200.0 8,200.0 10,200.0 12,200.0 14,200.0 16,200.0 18,200.0 20,200.0 22,200.0 24,200.0 26,200.0 28,200.0 30,200.0 32,200.0 34,200.0 36,200.0 38,200.0 40,200.0 42,200.0 44,166.66666666666666 46,166.66666666666666 48,200.0 50,200.0 52,200.0 54,200.0 56,200.0 58,200.0 60,200.0 62,200.0 64,200.0 66,200.0 68,166.66666666666666 70,200.0 72,200.0 74,200.0 76,200.0 78,200.0 80,200.0 82,200.0 84,200.0 86,200.0 88,200.0 90,200.0 92,200.0 94,200.0 96,200.0 98,200.0 100,200.0 102,200.0 104,200.0 106,200.0 108,200.0 110,200.0 112,200.0 114,200.0 116,200.0 118,166.66666666666666 120,166.66666666666666 122,166.66666666666666 124,133.33333333333331 126,133.33333333333331 128,133.33333333333331 130,100.0 132,100.0 134,100.0 136,133.33333333333331 138,133.33333333333331 140,133.33333333333331 142,166.66666666666666 144,166.66666666666666 146,166.66666666666666 148,166.66666666666666 150,200.0 152,200.0 154,200.0 156,200.0 158,200.0 160,200.0 162,200.0 164,200.0 166,166.66666666666666 168,166.66666666666666 170,166.66666666666666 172,133.33333333333331 174,133.33333333333331 176,200.0 178,200.0 180,200.0 182,200.0 184,200.0 186,200.0 188,200.0 190,200.0 192,200.0 194,200.0 196,200.0 198,200.0 200,200.0 202,200.0 204,200.0 206,200.0 208,200.0 210,200.0 212,200.0 214,200.0 216,200.0 218,200.0 220,200.0 222,200.0 224,200.0 226,200.0 228,200.0 230,200.0 232,200.0 234,166.66666666666666 236,166.66666666666666 238,166.66666666666666 240,166.66666666666666 242,166.66666666666666 244,166.66666666666666 246,166.66666666666666 248,166.66666666666666 250,166.66666666666666 252,200.0 254,200.0 256,200.0 258,233.33333333333331 260,166.66666666666666 262,166.66666666666666 264,200.0 266,200.0 268,200.0 270,200.0 272,200.0 274,200.0 276,166.66666666666666 278,200.0 280,200.0 282,200.0 284,200.0 286,200.0 288,200.0 290,166.66666666666666 292,166.66666666666666 294,166.66666666666666 296,166.66666666666666 298,166.66666666666666 300,166.66666666666666 302,166.66666666666666 304,133.33333333333331 306,133.33333333333331 308,133.33333333333331 310,133.33333333333331 312,166.66666666666666 314,133.33333333333331 316,133.33333333333331 318,133.33333333333331 320,133.33333333333331 322,133.33333333333331 324,166.66666666666666 326,166.66666666666666 328,166.66666666666666 330,166.66666666666666 332,200.0 334,200.0 336,200.0 338,200.0 340,200.0 342,200.0 344,200.0 346,200.0 348,200.0 350,200.0 352,200.0 354,200.0 356,200.0 358,200.0 360,200.0 362,200.0 364,200.0 366,200.0 368,200.0 370,200.0 372,200.0 374,200.0 376,200.0 378,200.0 380,200.0 382,200.0 384,200.0 386,233.33333333333331 388,233.33333333333331 390,233.33333333333331 392,200.0 394,200.0 396,233.33333333333331 398,233.33333333333331 400,266.66666666666663 402,266.66666666666663 404,233.33333333333331 406,233.33333333333331 408,233.33333333333331 410,266.66666666666663 412,266.66666666666663 414,300.0 416,300.0 418,266.66666666666663 420,266.66666666666663 422,266.66666666666663 424,266.66666666666663 426,266.66666666666663 428,266.66666666666663 430,233.33333333333331 432,200.0 434,200.0 436,200.0 438,200.0 440,200.0 442,200.0 444,200.0 446,200.0 448,200.0 450,200.0 452,200.0 454,200.0 456,233.33333333333331 458,233.33333333333331 460,233.33333333333331 462,233.33333333333331 464,233.33333333333331 466,200.0 468,200.0 470,233.33333333333331 472,200.0 474,233.33333333333331 476,233.33333333333331 478,233.33333333333331 480,233.33333333333331 482,266.66666666666663 484,300.0 486,300.0 488,300.0 490,300.0 492,300.0 494,266.66666666666663 496,266.66666666666663 498,266.66666666666663 500,266.66666666666663 502,266.66666666666663 504,266.66666666666663 506,200.0 508,200.0 510,200.0 512,200.0 514,200.0 516,200.0 518,200.0 520,200.0 522,200.0 524,200.0 526,200.0 528,200.0 530,200.0 532,200.0 534,200.0 536,200.0 538,200.0 540,200.0 542,200.0 544,200.0 546,200.0 548,200.0 550,200.0 552,200.0 554,200.0 556,200.0 558,200.0 560,200.0 562,200.0 564,200.0 566,200.0 568,233.33333333333331 570,233.33333333333331 572,300.0 574,266.66666666666663 576,300.0 578,300.0 580,333.3333333333333 582,333.3333333333333 584,300.0 586,300.0 588,333.3333333333333 590,333.3333333333333 592,300.0 594,300.0 596,300.0 598,300.0 600,266.66666666666663 602,266.66666666666663 604,266.66666666666663 606,233.33333333333331 608,200.0 610,200.0 612,200.0 614,200.0 616,200.0 618,200.0 620,200.0 622,200.0 624,200.0 626,200.0 628,200.0 630,200.0 632,200.0 634,200.0 636,200.0 638,200.0 640,200.0 642,200.0 644,166.66666666666666 646,166.66666666666666 648,200.0 650,200.0 652,200.0 654,200.0 656,200.0 658,166.66666666666666 660,166.66666666666666 662,200.0 664,200.0 666,200.0 668,200.0 670,233.33333333333331 672,266.66666666666663 674,266.66666666666663 676,300.0 678,300.0 680,233.33333333333331 682,233.33333333333331 684,266.66666666666663 686,300.0 688,300.0 690,300.0 692,233.33333333333331 694,266.66666666666663 696,266.66666666666663 698,266.66666666666663 700,266.66666666666663 702,266.66666666666663 704,233.33333333333331 706,233.33333333333331 708,233.33333333333331 710,233.33333333333331 712,200.0 714,200.0 716,200.0 718,200.0 720,200.0 722,200.0 724,200.0 726,200.0 728,233.33333333333331 730,233.33333333333331 732,233.33333333333331 734,200.0 736,200.0 738,200.0 740,233.33333333333331 742,200.0 744,200.0 746,200.0 748,200.0 750,200.0 752,200.0 754,200.0 756,200.0 758,200.0 760,200.0 762,200.0 764,200.0 766,200.0 768,200.0 770,200.0 772,200.0 774,200.0 776,200.0 778,200.0 780,233.33333333333331 782,200.0 784,166.66666666666666 786,166.66666666666666 788,166.66666666666666 790,166.66666666666666 792,166.66666666666666 794,133.33333333333331 796,133.33333333333331 798,133.33333333333331 800,233.33333333333331 802,233.33333333333331 804,200.0 806,233.33333333333331 808,233.33333333333331 810,233.33333333333331 812,233.33333333333331 814,233.33333333333331 816,200.0 818,200.0 820,200.0 822,200.0 824,200.0 826,200.0 828,200.0 830,166.66666666666666 832,200.0 834,233.33333333333331 836,233.33333333333331 838,200.0 840,200.0 842,200.0 844,200.0 846,166.66666666666666 848,166.66666666666666 850,200.0 852,200.0 854,200.0 856,200.0 858,200.0 860,200.0 862,200.0 864,200.0 866,200.0 868,200.0 870,233.33333333333331 872,200.0 874,166.66666666666666 876,200.0 878,200.0 880,200.0 882,200.0 884,233.33333333333331 886,166.66666666666666 888,166.66666666666666 890,166.66666666666666 892,200.0 894,200.0 896,200.0 898,200.0 900,200.0 902,200.0 904,200.0 906,200.0 908,200.0 910,200.0 912,200.0 914,200.0 916,200.0 918,233.33333333333331 920,233.33333333333331 922,233.33333333333331 924,233.33333333333331 926,233.33333333333331 928,266.66666666666663 930,266.66666666666663 932,233.33333333333331 934,200.0 936,233.33333333333331 938,200.0 940,233.33333333333331 942,266.66666666666663 944,266.66666666666663 946,266.66666666666663 948,300.0 950,300.0 952,300.0 954,266.66666666666663 956,266.66666666666663 958,266.66666666666663 960,233.33333333333331 962,200.0 964,200.0 966,233.33333333333331 968,233.33333333333331 970,200.0 972,166.66666666666666 974,233.33333333333331 976,233.33333333333331 978,233.33333333333331 980,233.33333333333331 982,200.0 984,200.0 986,200.0 988,200.0 990,200.0 992,200.0 994,200.0 996,200.0 998,200.0 1000,200.0 1002,200.0 1004,200.0 1006,233.33333333333331 1008,233.33333333333331 1010,266.66666666666663 1012,266.66666666666663 1014,266.66666666666663 1016,266.66666666666663 1018,300.0 1020,333.3333333333333 1022,333.3333333333333 1024,333.3333333333333 1026,300.0 1028,266.66666666666663 1030,333.3333333333333 1032,333.3333333333333 1034,366.6666666666667 1034,200.0" /></g></svg>