<?xml version="1.0" encoding="utf-8" ?>
<svg baseProfile="full" height="100%" version="1.1" width="100%" xmlns="http://www.w3.org/2000/svg" xmlns:ev="http://www.w3.org/2001/xml-events" xmlns:xlink="http://www.w3.org/1999/xlink"><defs><style type="text/css"><![CDATA[
.player_lifelines {
  display: none
}

.player_lifeline {
  fill:none;
  stroke: green;
  stroke-width: 1;
  display: inline
}

.graph_border {
  fill: none;
  stroke: black;
}

.minute_ref_line {
  stroke: gray;
  stroke-width: 1;
  stroke-dasharray: 1,4
}


        .fight_area {
        fill: lightyellow;
        stroke: gold;
        stroke-width: 1
        }
        
        .replay_area {
        fill:lightgray;
        stroke: lightgray;
        stroke-width: 0
        }
        
        .progress_target_line {
        stroke: gray;
        stroke_width: 1;
        stroke-dasharray: 3,1
        }

        .progress_completion_line {
        stroke: gray;
        stroke_width: 1
        }
        
        .payload_progress {
        fill:none;
        stroke: blue;
        stroke-width: 2
        }
        
        .player_advantage {
        fill:none;
        stroke: red;
        stroke-width: 1
        }
        ]]></style></defs><text x="10" y="20">Los Angeles Gladiators(A) at London Spitfire on route-66 round 1</text><g class="graph" transform="translate(10, 45)"><rect class="graph_border" height="400" width="1010" x="0" y="0" /><g class="fights"><rect class="fight_area" height="37.72000000000003" width="2" x="46" y="308.56" /><text x="46" y="308.56">#1 -1</text><rect class="fight_area" height="28.560000000000002" width="2" x="98" y="280.0" /><text x="98" y="280.0">#2 1</text><rect class="fight_area" height="33.16" width="18" x="126" y="246.84" /><text x="126" y="246.84">#3 5</text><rect class="fight_area" height="40.0" width="38" x="188" y="206.84" /><text x="188" y="206.84">#4 -1</text><rect class="fight_area" height="45.67999999999998" width="28" x="270" y="161.16000000000003" /><text x="270" y="161.16000000000003">#5 0</text><rect class="fight_area" height="88.00000000000004" width="10" x="390" y="73.15999999999998" /><text x="390" y="73.15999999999998">#6 3</text><rect class="fight_area" height="23.99999999999998" width="2" x="524" y="49.160000000000004" /><text x="524" y="49.160000000000004">#7 2</text><rect class="fight_area" height="37.72000000000002" width="2" x="552" y="11.439999999999984" /><text x="552" y="11.439999999999984">#8 1</text><rect class="fight_area" height="12.560000000000038" width="40" x="602" y="11.439999999999984" /><text x="602" y="11.439999999999984">#9 -5</text><rect class="fight_area" height="9.159999999999968" width="18" x="708" y="24.00000000000002" /><text x="708" y="24.00000000000002">#10 -6</text><rect class="fight_area" height="28.6" width="40" x="790" y="4.559999999999986" /><text x="790" y="4.559999999999986">#11 4</text><rect class="fight_area" height="12.600000000000032" width="30" x="862" y="4.559999999999986" /><text x="862" y="4.559999999999986">#12 -3</text><rect class="fight_area" height="325.67999999999995" width="34" x="976" y="17.160000000000018" /><text x="976" y="17.160000000000018">#13 -5</text></g><g class="replays"><rect class="replay_area" height="398" width="16" x="164" y="1" /></g><g class="completion"><line class="progress_target_line" x1="142" x2="142" y1="0.0" y2="265.16" /><line class="progress_completion_line" x1="0" x2="142" y1="265.16" y2="265.16" /><text x="142" y="-5">01:11</text><line class="progress_target_line" x1="424" x2="424" y1="0.0" y2="120.00000000000001" /><line class="progress_completion_line" x1="142" x2="424" y1="120.00000000000001" y2="120.00000000000001" /><text x="424" y="-5">03:32</text></g><g class="progress"><polyline class="payload_progress" points="0,400 2,400.0 4,400.0 6,400.0 8,398.84 10,395.44 12,393.16 14,389.71999999999997 16,388.56 18,385.15999999999997 20,381.72 22,378.28 24,377.15999999999997 26,373.72 28,371.44 30,368.0 32,365.72 34,362.28 36,360.0 38,356.56 40,354.28000000000003 42,350.84 44,348.56 46,346.28000000000003 48,345.16 50,341.72 52,341.72 54,340.55999999999995 56,340.55999999999995 58,340.55999999999995 60,340.55999999999995 62,340.55999999999995 64,338.28000000000003 66,336.0 68,333.72 70,331.44 72,329.15999999999997 74,326.84 76,323.44 78,320.0 80,317.72 82,315.44 84,313.16 86,312.0 88,309.71999999999997 90,309.71999999999997 92,308.56 94,308.56 96,308.56 98,308.56 100,308.56 102,308.56 104,306.28000000000003 106,304.0 108,302.84 110,300.56 112,297.16 114,294.84 116,292.56 118,289.15999999999997 120,286.84000000000003 122,284.56 124,282.28 126,280.0 128,278.84000000000003 130,276.56 132,274.28 134,272.0 136,269.72 138,269.72 140,267.44000000000005 142,265.16 144,263.99999999999994 146,263.99999999999994 148,263.99999999999994 150,263.99999999999994 152,263.99999999999994 154,263.99999999999994 156,263.99999999999994" /><polyline class="payload_progress" points="180,256.0 182,253.72 184,251.44000000000003 186,249.16 188,246.84 190,244.55999999999997 192,244.55999999999997 194,244.55999999999997 196,244.55999999999997 198,244.55999999999997 200,244.55999999999997 202,244.55999999999997 204,244.55999999999997 206,244.55999999999997 208,244.55999999999997 210,243.44 212,243.44 214,242.28 216,238.83999999999997 218,236.55999999999997 220,234.28 222,233.16 224,229.72000000000003 226,229.72000000000003 228,229.72000000000003 230,226.28 232,224.00000000000003 234,224.00000000000003 236,222.83999999999997 238,219.44 240,218.28000000000003 242,214.84 244,213.72 246,210.28000000000003 248,208.0 250,208.0 252,206.84 254,206.84 256,206.84 258,206.84 260,206.84 262,206.84 264,206.84 266,206.84 268,206.84 270,206.84 272,206.84 274,208.0 276,208.0 278,208.0 280,208.0 282,208.0 284,208.0 286,208.0 288,208.0 290,208.0 292,206.84 294,204.56000000000003 296,202.28000000000003 298,201.16 300,198.84 302,196.55999999999997 304,194.28 306,190.83999999999997 308,188.56 310,186.28 312,182.83999999999997 314,180.56 316,179.44 318,179.44 320,179.44 322,179.44 324,179.44 326,179.44 328,178.28 330,179.44 332,179.44 334,179.44 336,179.44 338,179.44 340,179.44 342,179.44 344,179.44 346,179.44 348,179.44 350,179.44 352,179.44 354,178.28 356,175.99999999999997 358,173.72 360,171.44 362,170.27999999999997 364,170.27999999999997 366,170.27999999999997 368,170.27999999999997 370,170.27999999999997 372,170.27999999999997 374,170.27999999999997 376,169.16000000000003 378,168.00000000000003 380,166.84 382,166.84 384,166.84 386,164.56 388,162.27999999999997 390,161.16000000000003 392,161.16000000000003 394,161.16000000000003 396,158.84 398,156.56 400,154.28000000000003 402,152.0 404,148.55999999999997 406,145.16 408,142.83999999999997 410,139.44 412,137.16 414,133.72000000000003 416,131.44 418,127.99999999999999 420,125.72000000000001 422,122.27999999999999 424,120.00000000000001 426,118.84000000000002 428,118.84000000000002 430,118.84000000000002 432,118.84000000000002 434,118.84000000000002 436,118.84000000000002 438,118.84000000000002 440,118.84000000000002 442,118.84000000000002 444,118.84000000000002 446,118.84000000000002 448,118.84000000000002 450,118.84000000000002 452,118.84000000000002 454,118.84000000000002 456,117.72 458,115.43999999999998 460,113.16000000000001 462,110.84 464,108.55999999999999 466,106.28000000000002 468,104.0 470,100.55999999999999 472,98.28000000000002 474,96.0 476,94.83999999999999 478,93.71999999999998 480,91.44000000000001 482,91.44000000000001 484,91.44000000000001 486,91.44000000000001 488,91.44000000000001 490,91.44000000000001 492,91.44000000000001 494,91.44000000000001 496,91.44000000000001 498,91.44000000000001 500,91.44000000000001 502,91.44000000000001 504,91.44000000000001 506,91.44000000000001 508,91.44000000000001 510,90.28 512,87.99999999999999 514,86.83999999999999 516,84.56000000000002 518,81.15999999999998 520,78.84000000000002 522,76.56 524,73.15999999999998 526,70.84000000000002 528,68.56 530,65.16000000000003 532,62.84 534,59.43999999999998 536,57.16000000000001 538,54.84 540,52.55999999999999 542,50.280000000000015 544,49.160000000000004 546,49.160000000000004 548,49.160000000000004 550,49.160000000000004 552,49.160000000000004 554,49.160000000000004 556,49.160000000000004 558,49.160000000000004 560,49.160000000000004 562,48.0 564,45.719999999999985 566,43.44000000000001 568,39.99999999999999 570,37.72000000000002 572,34.28 574,31.999999999999986 576,29.720000000000013 578,29.720000000000013 580,29.720000000000013 582,29.720000000000013 584,27.439999999999998 586,24.00000000000002 588,21.720000000000006 590,20.560000000000002 592,18.279999999999987 594,16.000000000000014 596,12.559999999999993 598,11.439999999999984 600,11.439999999999984 602,11.439999999999984 604,11.439999999999984 606,11.439999999999984 608,11.439999999999984 610,11.439999999999984 612,11.439999999999984 614,9.160000000000013 616,8.000000000000007 618,9.160000000000013 620,9.160000000000013 622,9.160000000000013 624,9.160000000000013 626,9.160000000000013 628,9.160000000000013 630,9.160000000000013 632,9.160000000000013 634,9.160000000000013 636,9.160000000000013 638,9.160000000000013 640,9.160000000000013 642,9.160000000000013 644,9.160000000000013 646,9.160000000000013 648,9.160000000000013 650,9.160000000000013 652,10.279999999999978 654,10.279999999999978 656,11.439999999999984 658,11.439999999999984 660,12.559999999999993 662,12.559999999999993 664,12.559999999999993 666,13.719999999999999 668,13.719999999999999 670,14.840000000000009 672,14.840000000000009 674,16.000000000000014 676,16.000000000000014 678,16.000000000000014 680,17.160000000000018 682,17.160000000000018 684,18.279999999999987 686,18.279999999999987 688,19.43999999999999 690,19.43999999999999 692,19.43999999999999 694,20.560000000000002 696,20.560000000000002 698,21.720000000000006 700,21.720000000000006 702,21.720000000000006 704,22.840000000000018 706,22.840000000000018 708,24.00000000000002 710,24.00000000000002 712,25.159999999999982 714,25.159999999999982 716,26.279999999999994 718,26.279999999999994 720,26.279999999999994 722,27.439999999999998 724,27.439999999999998 726,27.439999999999998 728,28.56000000000001 730,28.56000000000001 732,29.720000000000013 734,29.720000000000013 736,30.83999999999998 738,30.83999999999998 740,30.83999999999998 742,31.999999999999986 744,31.999999999999986 746,31.999999999999986 748,33.15999999999999 750,33.15999999999999 752,34.28 754,34.28 756,35.440000000000005 758,35.440000000000005 760,36.56000000000002 762,36.56000000000002 764,36.56000000000002 766,37.72000000000002 768,37.72000000000002 770,37.72000000000002 772,37.72000000000002 774,37.72000000000002 776,37.72000000000002 778,37.72000000000002 780,37.72000000000002 782,37.72000000000002 784,36.56000000000002 786,34.28 788,33.15999999999999 790,33.15999999999999 792,33.15999999999999 794,33.15999999999999 796,33.15999999999999 798,33.15999999999999 800,33.15999999999999 802,33.15999999999999 804,33.15999999999999 806,33.15999999999999 808,33.15999999999999 810,31.999999999999986 812,29.720000000000013 814,26.279999999999994 816,24.00000000000002 818,21.720000000000006 820,19.43999999999999 822,19.43999999999999 824,18.279999999999987 826,14.840000000000009 828,12.559999999999993 830,10.279999999999978 832,10.279999999999978 834,10.279999999999978 836,10.279999999999978 838,10.279999999999978 840,10.279999999999978 842,10.279999999999978 844,9.160000000000013 846,8.000000000000007 848,8.000000000000007 850,6.840000000000002 852,6.840000000000002 854,4.559999999999986 856,4.559999999999986 858,4.559999999999986 860,4.559999999999986 862,4.559999999999986 864,4.559999999999986 866,4.559999999999986 868,4.559999999999986 870,4.559999999999986 872,4.559999999999986 874,4.559999999999986 876,4.559999999999986 878,4.559999999999986 880,4.559999999999986 882,4.559999999999986 884,4.559999999999986 886,4.559999999999986 888,4.559999999999986 890,4.559999999999986 892,4.559999999999986 894,4.559999999999986 896,4.559999999999986 898,4.559999999999986 900,4.559999999999986 902,5.719999999999992 904,5.719999999999992 906,5.719999999999992 908,6.840000000000002 910,6.840000000000002 912,6.840000000000002 914,8.000000000000007 916,8.000000000000007 918,9.160000000000013 920,10.279999999999978 922,10.279999999999978 924,10.279999999999978 926,11.439999999999984 928,11.439999999999984 930,12.559999999999993 932,12.559999999999993 934,13.719999999999999 936,13.719999999999999 938,13.719999999999999 940,14.840000000000009 942,14.840000000000009 944,16.000000000000014 946,17.160000000000018 948,17.160000000000018 950,17.160000000000018 952,17.160000000000018 954,17.160000000000018 956,17.160000000000018 958,17.160000000000018 960,17.160000000000018 962,17.160000000000018 964,17.160000000000018 966,17.160000000000018 968,17.160000000000018 970,17.160000000000018 972,17.160000000000018 974,17.160000000000018 976,17.160000000000018 978,17.160000000000018 980,17.160000000000018 982,17.160000000000018 984,17.160000000000018 986,17.160000000000018 988,17.160000000000018 990,17.160000000000018 992,17.160000000000018 994,17.160000000000018 996,17.160000000000018 998,17.160000000000018 1000,17.160000000000018 1002,17.160000000000018 1004,17.160000000000018 1006,17.160000000000018 1008,17.160000000000018 1010,17.160000000000018 1010,342.84" /></g><g class="player_lifelines"><polyline class="player_lifeline" points="0,30.76923076923077 600,30.76923076923077" /><polyline class="player_lifeline" points="620,30.76923076923077 708,30.76923076923077" /><polyline class="player_lifeline" points="728,30.76923076923077 878,30.76923076923077" /><polyline class="player_lifeline" points="898,30.76923076923077 1002,30.76923076923077" /><polyline class="player_lifeline" points="1010,30.76923076923077 1010,30.76923076923077" /><polyline class="player_lifeline" points="0,61.53846153846154 612,61.53846153846154" /><polyline class="player_lifeline" points="632,61.53846153846154 712,61.53846153846154" /><polyline class="player_lifeline" points="732,61.53846153846154 882,61.53846153846154" /><polyline class="player_lifeline" points="902,61.53846153846154 1006,61.53846153846154" /><polyline class="player_lifeline" points="1010,61.53846153846154 1010,61.53846153846154" /><polyline class="player_lifeline" points="0,92.3076923076923 640,92.3076923076923" /><polyline class="player_lifeline" points="660,92.3076923076923 714,92.3076923076923" /><polyline class="player_lifeline" points="736,92.3076923076923 890,92.3076923076923" /><polyline class="player_lifeline" points="910,92.3076923076923 994,92.3076923076923" /><polyline class="player_lifeline" points="1010,92.3076923076923 1010,92.3076923076923" /><polyline class="player_lifeline" points="0,123.07692307692308 44,123.07692307692308" /><polyline class="player_lifeline" points="48,123.07692307692308 224,123.07692307692308" /><polyline class="player_lifeline" points="242,123.07692307692308 268,123.07692307692308" /><polyline class="player_lifeline" points="290,123.07692307692308 636,123.07692307692308" /><polyline class="player_lifeline" points="656,123.07692307692308 724,123.07692307692308" /><polyline class="player_lifeline" points="744,123.07692307692308 1002,123.07692307692308" /><polyline class="player_lifeline" points="1010,123.07692307692308 1010,123.07692307692308" /><polyline class="player_lifeline" points="0,153.84615384615384 290,153.84615384615384" /><polyline class="player_lifeline" points="310,153.84615384615384 622,153.84615384615384" /><polyline class="player_lifeline" points="642,153.84615384615384 706,153.84615384615384" /><polyline class="player_lifeline" points="726,153.84615384615384 974,153.84615384615384" /><polyline class="player_lifeline" points="1000,153.84615384615384 1010,153.84615384615384" /><polyline class="player_lifeline" points="0,184.6153846153846 186,184.6153846153846" /><polyline class="player_lifeline" points="198,184.6153846153846 292,184.6153846153846" /><polyline class="player_lifeline" points="310,184.6153846153846 710,184.6153846153846" /><polyline class="player_lifeline" points="732,184.6153846153846 860,184.6153846153846" /><polyline class="player_lifeline" points="880,184.6153846153846 982,184.6153846153846" /><polyline class="player_lifeline" points="1010,184.6153846153846 1010,184.6153846153846" /><polyline class="player_lifeline" points="0,215.3846153846154 124,215.3846153846154" /><polyline class="player_lifeline" points="140,215.3846153846154 278,215.3846153846154" /><polyline class="player_lifeline" points="296,215.3846153846154 388,215.3846153846154" /><polyline class="player_lifeline" points="408,215.3846153846154 788,215.3846153846154" /><polyline class="player_lifeline" points="808,215.3846153846154 1010,215.3846153846154" /><polyline class="player_lifeline" points="0,246.15384615384616 126,246.15384615384616" /><polyline class="player_lifeline" points="148,246.15384615384616 276,246.15384615384616" /><polyline class="player_lifeline" points="292,246.15384615384616 388,246.15384615384616" /><polyline class="player_lifeline" points="410,246.15384615384616 524,246.15384615384616" /><polyline class="player_lifeline" points="532,246.15384615384616 804,246.15384615384616" /><polyline class="player_lifeline" points="824,246.15384615384616 1010,246.15384615384616" /><polyline class="player_lifeline" points="0,276.9230769230769 132,276.9230769230769" /><polyline class="player_lifeline" points="152,276.9230769230769 210,276.9230769230769" /><polyline class="player_lifeline" points="230,276.9230769230769 296,276.9230769230769" /><polyline class="player_lifeline" points="316,276.9230769230769 522,276.9230769230769" /><polyline class="player_lifeline" points="544,276.9230769230769 792,276.9230769230769" /><polyline class="player_lifeline" points="812,276.9230769230769 994,276.9230769230769" /><polyline class="player_lifeline" points="1010,276.9230769230769 1010,276.9230769230769" /><polyline class="player_lifeline" points="0,307.6923076923077 96,307.6923076923077" /><polyline class="player_lifeline" points="116,307.6923076923077 398,307.6923076923077" /><polyline class="player_lifeline" points="418,307.6923076923077 550,307.6923076923077" /><polyline class="player_lifeline" points="570,307.6923076923077 1010,307.6923076923077" /><polyline class="player_lifeline" points="0,338.46153846153845 142,338.46153846153845" /><polyline class="player_lifeline" points="180,338.46153846153845 872,338.46153846153845" /><polyline class="player_lifeline" points="892,338.46153846153845 1010,338.46153846153845" /><polyline class="player_lifeline" points="0,369.2307692307692 142,369.2307692307692" /><polyline class="player_lifeline" points="156,369.2307692307692 828,369.2307692307692" /><polyline class="player_lifeline" points="840,369.2307692307692 1010,369.2307692307692" /></g><g class="advantages"><polyline class="player_advantage" points="2,200.0 4,200.0 6,200.0 8,200.0 10,200.0 12,200.0 14,200.0 16,200.0 18,200.0 20,200.0 22,200.0 24,200.0 26,200.0 28,200.0 30,200.0 32,200.0 34,200.0 36,200.0 38,200.0 40,200.0 42,200.0 44,200.0 46,233.33333333333331 48,200.0 50,200.0 52,200.0 54,200.0 56,200.0 58,200.0 60,200.0 62,200.0 64,200.0 66,200.0 68,200.0 70,200.0 72,200.0 74,200.0 76,200.0 78,200.0 80,200.0 82,200.0 84,200.0 86,200.0 88,200.0 90,200.0 92,200.0 94,200.0 96,200.0 98,166.66666666666666 100,166.66666666666666 102,166.66666666666666 104,166.66666666666666 106,166.66666666666666 108,166.66666666666666 110,166.66666666666666 112,166.66666666666666 114,166.66666666666666 116,200.0 118,200.0 120,200.0 122,200.0 124,200.0 126,166.66666666666666 128,133.33333333333331 130,133.33333333333331 132,133.33333333333331 134,100.0 136,100.0 138,100.0 140,133.33333333333331 142,133.33333333333331 144,66.66666666666663 146,66.66666666666663 148,100.0 150,100.0 152,133.33333333333331 154,133.33333333333331 156,166.66666666666666" /><polyline class="player_advantage" points="180,200.0 182,200.0 184,200.0 186,200.0 188,233.33333333333331 190,233.33333333333331 192,233.33333333333331 194,233.33333333333331 196,233.33333333333331 198,200.0 200,200.0 202,200.0 204,200.0 206,200.0 208,200.0 210,200.0 212,166.66666666666666 214,166.66666666666666 216,166.66666666666666 218,166.66666666666666 220,166.66666666666666 222,166.66666666666666 224,166.66666666666666 226,200.0 228,200.0 230,233.33333333333331 232,233.33333333333331 234,233.33333333333331 236,233.33333333333331 238,233.33333333333331 240,233.33333333333331 242,200.0 244,200.0 246,200.0 248,200.0 250,200.0 252,200.0 254,200.0 256,200.0 258,200.0 260,200.0 262,200.0 264,200.0 266,200.0 268,200.0 270,233.33333333333331 272,233.33333333333331 274,233.33333333333331 276,233.33333333333331 278,200.0 280,166.66666666666666 282,166.66666666666666 284,166.66666666666666 286,166.66666666666666 288,166.66666666666666 290,133.33333333333331 292,200.0 294,233.33333333333331 296,266.66666666666663 298,233.33333333333331 300,233.33333333333331 302,233.33333333333331 304,233.33333333333331 306,233.33333333333331 308,233.33333333333331 310,166.66666666666666 312,166.66666666666666 314,166.66666666666666 316,200.0 318,200.0 320,200.0 322,200.0 324,200.0 326,200.0 328,200.0 330,200.0 332,200.0 334,200.0 336,200.0 338,200.0 340,200.0 342,200.0 344,200.0 346,200.0 348,200.0 350,200.0 352,200.0 354,200.0 356,200.0 358,200.0 360,200.0 362,200.0 364,200.0 366,200.0 368,200.0 370,200.0 372,200.0 374,200.0 376,200.0 378,200.0 380,200.0 382,200.0 384,200.0 386,200.0 388,200.0 390,133.33333333333331 392,133.33333333333331 394,133.33333333333331 396,133.33333333333331 398,133.33333333333331 400,100.0 402,100.0 404,100.0 406,100.0 408,133.33333333333331 410,166.66666666666666 412,166.66666666666666 414,166.66666666666666 416,166.66666666666666 418,200.0 420,200.0 422,200.0 424,200.0 426,200.0 428,200.0 430,200.0 432,200.0 434,200.0 436,200.0 438,200.0 440,200.0 442,200.0 444,200.0 446,200.0 448,200.0 450,200.0 452,200.0 454,200.0 456,200.0 458,200.0 460,200.0 462,200.0 464,200.0 466,200.0 468,200.0 470,200.0 472,200.0 474,200.0 476,200.0 478,200.0 480,200.0 482,200.0 484,200.0 486,200.0 488,200.0 490,200.0 492,200.0 494,200.0 496,200.0 498,200.0 500,200.0 502,200.0 504,200.0 506,200.0 508,200.0 510,200.0 512,200.0 514,200.0 516,200.0 518,200.0 520,200.0 522,200.0 524,166.66666666666666 526,133.33333333333331 528,133.33333333333331 530,133.33333333333331 532,166.66666666666666 534,166.66666666666666 536,166.66666666666666 538,166.66666666666666 540,166.66666666666666 542,166.66666666666666 544,200.0 546,200.0 548,200.0 550,200.0 552,166.66666666666666 554,166.66666666666666 556,166.66666666666666 558,166.66666666666666 560,166.66666666666666 562,166.66666666666666 564,166.66666666666666 566,166.66666666666666 568,166.66666666666666 570,200.0 572,200.0 574,200.0 576,200.0 578,200.0 580,200.0 582,200.0 584,200.0 586,200.0 588,200.0 590,200.0 592,200.0 594,200.0 596,200.0 598,200.0 600,200.0 602,233.33333333333331 604,233.33333333333331 606,233.33333333333331 608,233.33333333333331 610,233.33333333333331 612,233.33333333333331 614,266.66666666666663 616,266.66666666666663 618,266.66666666666663 620,233.33333333333331 622,233.33333333333331 624,266.66666666666663 626,266.66666666666663 628,266.66666666666663 630,266.66666666666663 632,233.33333333333331 634,233.33333333333331 636,233.33333333333331 638,266.66666666666663 640,266.66666666666663 642,266.66666666666663 644,266.66666666666663 646,266.66666666666663 648,266.66666666666663 650,266.66666666666663 652,266.66666666666663 654,266.66666666666663 656,233.33333333333331 658,233.33333333333331 660,200.0 662,200.0 664,200.0 666,200.0 668,200.0 670,200.0 672,200.0 674,200.0 676,200.0 678,200.0 680,200.0 682,200.0 684,200.0 686,200.0 688,200.0 690,200.0 692,200.0 694,200.0 696,200.0 698,200.0 700,200.0 702,200.0 704,200.0 706,200.0 708,233.33333333333331 710,266.66666666666663 712,300.0 714,333.3333333333333 716,366.6666666666667 718,366.6666666666667 720,366.6666666666667 722,366.6666666666667 724,366.6666666666667 726,366.6666666666667 728,333.3333333333333 730,333.3333333333333 732,266.66666666666663 734,266.66666666666663 736,233.33333333333331 738,233.33333333333331 740,233.33333333333331 742,233.33333333333331 744,200.0 746,200.0 748,200.0 750,200.0 752,200.0 754,200.0 756,200.0 758,200.0 760,200.0 762,200.0 764,200.0 766,200.0 768,200.0 770,200.0 772,200.0 774,200.0 776,200.0 778,200.0 780,200.0 782,200.0 784,200.0 786,200.0 788,200.0 790,166.66666666666666 792,166.66666666666666 794,133.33333333333331 796,133.33333333333331 798,133.33333333333331 800,133.33333333333331 802,133.33333333333331 804,133.33333333333331 806,100.0 808,133.33333333333331 810,133.33333333333331 812,166.66666666666666 814,166.66666666666666 816,166.66666666666666 818,166.66666666666666 820,166.66666666666666 822,166.66666666666666 824,200.0 826,200.0 828,200.0 830,166.66666666666666 832,166.66666666666666 834,166.66666666666666 836,166.66666666666666 838,166.66666666666666 840,200.0 842,200.0 844,200.0 846,200.0 848,200.0 850,200.0 852,200.0 854,200.0 856,200.0 858,200.0 860,200.0 862,233.33333333333331 864,233.33333333333331 866,233.33333333333331 868,233.33333333333331 870,233.33333333333331 872,233.33333333333331 874,200.0 876,200.0 878,200.0 880,200.0 882,200.0 884,233.33333333333331 886,233.33333333333331 888,233.33333333333331 890,233.33333333333331 892,300.0 894,300.0 896,300.0 898,266.66666666666663 900,266.66666666666663 902,233.33333333333331 904,233.33333333333331 906,233.33333333333331 908,233.33333333333331 910,200.0 912,200.0 914,200.0 916,200.0 918,200.0 920,200.0 922,200.0 924,200.0 926,200.0 928,200.0 930,200.0 932,200.0 934,200.0 936,200.0 938,200.0 940,200.0 942,200.0 944,200.0 946,200.0 948,200.0 950,200.0 952,200.0 954,200.0 956,200.0 958,200.0 960,200.0 962,200.0 964,200.0 966,200.0 968,200.0 970,200.0 972,200.0 974,200.0 976,233.33333333333331 978,233.33333333333331 980,233.33333333333331 982,233.33333333333331 984,266.66666666666663 986,266.66666666666663 988,266.66666666666663 990,266.66666666666663 992,266.66666666666663 994,266.66666666666663 996,266.66666666666663 998,266.66666666666663 1000,233.33333333333331 1002,233.33333333333331 1004,300.0 1006,300.0 1008,333.3333333333333 1010,300.0 1010,200.0" /></g><g class="minute_ref"><line class="minute_ref_line" x1="120" x2="120" y1="0" y2="400" /><text x="120" y="420">1:00</text><line class="minute_ref_line" x1="240" x2="240" y1="0" y2="400" /><text x="240" y="420">2:00</text><line class="minute_ref_line" x1="360" x2="360" y1="0" y2="400" /><text x="360" y="420">3:00</text><line class="minute_ref_line" x1="480" x2="480" y1="0" y2="400" /><text x="480" y="420">4:00</text><line class="minute_ref_line" x1="600" x2="600" y1="0" y2="400" /><text x="600" y="420">5:00</text><line class="minute_ref_line" x1="720" x2="720" y1="0" y2="400" /><text x="720" y="420">6:00</text><line class="minute_ref_line" x1="840" x2="840" y1="0" y2="400" /><text x="840" y="420">7:00</text><line class="minute_ref_line" x1="960" x2="960" y1="0" y2="400" /><text x="960" y="420">8:00</text></g></g></svg>