<?xml version="1.0" encoding="utf-8" ?>
<svg baseProfile="full" height="100%" version="1.1" width="100%" xmlns="http://www.w3.org/2000/svg" xmlns:ev="http://www.w3.org/2001/xml-events" xmlns:xlink="http://www.w3.org/1999/xlink"><defs><style type="text/css"><![CDATA[
.player_lifelines {
  display: none
}

.player_lifeline {
  fill:none;
  stroke: green;
  stroke-width: 1;
  display: inline
}

.graph_border {
  fill: none;
  stroke: black;
}

.minute_ref_line {
  stroke: gray;
  stroke-width: 1;
  stroke-dasharray: 1,4
}


        .fight_area {
        fill: lightyellow;
        stroke: gold;
        stroke-width: 1
        }
        
        .replay_area {
        fill:lightgray;
        stroke: lightgray;
        stroke-width: 0
        }
        
        .progress_target_line {
        stroke: gray;
        stroke_width: 1;
        stroke-dasharray: 3,1
        }

        .progress_completion_line {
        stroke: gray;
        stroke_width: 1
        }
        
        .payload_progress {
        fill:none;
        stroke: blue;
        stroke-width: 2
        }
        
        .player_advantage {
        fill:none;
        stroke: red;
        stroke-width: 1
        }
        ]]></style></defs><text x="10" y="20">Los Angeles Gladiators at London Spitfire(A) on route-66 round 2</text><g class="graph" transform="translate(10, 45)"><rect class="graph_border" height="400" width="852" x="0" y="0" /><g class="fights"><rect class="fight_area" height="36.599999999999966" width="42" x="82" y="292.56" /><text x="82" y="292.56">#1 0</text><rect class="fight_area" height="27.399999999999977" width="60" x="170" y="265.16" /><text x="170" y="265.16">#2 0</text><rect class="fight_area" height="48.00000000000006" width="48" x="278" y="217.15999999999997" /><text x="278" y="217.15999999999997">#3 5</text><rect class="fight_area" height="93.71999999999997" width="2" x="408" y="123.44" /><text x="408" y="123.44">#4 1</text><rect class="fight_area" height="50.280000000000015" width="58" x="500" y="73.15999999999998" /><text x="500" y="73.15999999999998">#5 5</text><rect class="fight_area" height="25.159999999999982" width="14" x="634" y="48.0" /><text x="634" y="48.0">#6 -2</text><rect class="fight_area" height="352.0" width="114" x="738" y="48.0" /><text x="738" y="48.0">#7 10</text></g><g class="replays"><rect class="replay_area" height="398" width="4" x="216" y="1" /></g><g class="completion"><line class="progress_target_line" x1="274" x2="274" y1="0.0" y2="265.16" /><line class="progress_completion_line" x1="0" x2="274" y1="265.16" y2="265.16" /><text x="274" y="-5">02:17</text><line class="progress_target_line" x1="546" x2="546" y1="0.0" y2="118.84000000000002" /><line class="progress_completion_line" x1="274" x2="546" y1="118.84000000000002" y2="118.84000000000002" /><text x="546" y="-5">04:33</text></g><g class="progress"><polyline class="payload_progress" points="0,400 2,400.0 4,400.0 6,400.0 8,397.71999999999997 10,394.28000000000003 12,393.16 14,390.84 16,386.28 18,384.0 20,384.0 22,379.44 24,377.15999999999997 26,374.84000000000003 28,370.28 30,365.72 32,365.72 34,363.44 36,361.16 38,356.56 40,354.28000000000003 42,352.0 44,352.0 46,352.0 48,352.0 50,349.71999999999997 52,348.56 54,348.56 56,347.44 58,347.44 60,347.44 62,347.44 64,347.44 66,345.16 68,340.55999999999995 70,338.28000000000003 72,336.0 74,331.44 76,329.15999999999997 78,329.15999999999997 80,329.15999999999997 82,329.15999999999997 84,329.15999999999997 86,329.15999999999997 88,329.15999999999997 90,329.15999999999997 92,329.15999999999997 94,329.15999999999997 96,326.84 98,324.56 100,324.56 102,324.56 104,322.28 106,320.0 108,317.72 110,315.44 112,310.84000000000003 114,310.84000000000003 116,310.84000000000003 118,310.84000000000003 120,310.84000000000003 122,310.84000000000003 124,310.84000000000003 126,310.84000000000003 128,310.84000000000003 130,310.84000000000003 132,310.84000000000003 134,306.28000000000003 136,305.16 138,301.71999999999997 140,299.44 142,297.16 144,294.84 146,292.56 148,292.56 150,292.56 152,292.56 154,292.56 156,292.56 158,292.56 160,292.56 162,292.56 164,292.56 166,292.56 168,292.56 170,292.56 172,292.56 174,292.56 176,292.56 178,292.56 180,292.56 182,292.56 184,292.56 186,292.56 188,292.56 190,292.56 192,292.56 194,292.56 196,294.84 198,294.84 200,294.84 202,294.84 204,297.16 206,297.16 208,297.16" /><polyline class="payload_progress" points="220,296.0 222,294.84 224,294.84 226,294.84 228,294.84 230,294.84 232,294.84 234,294.84 236,294.84 238,294.84 240,294.84 242,294.84 244,292.56 246,288.0 248,285.71999999999997 250,283.44 252,282.28 254,276.56 256,274.28 258,274.28 260,274.28 262,269.72 264,267.44000000000005 266,266.28 268,266.28 270,266.28 272,266.28 274,265.16 276,265.16 278,265.16 280,265.16 282,265.16 284,265.16 286,265.16 288,265.16 290,265.16 292,265.16 294,265.16 296,265.16 298,265.16 300,265.16 302,265.16 304,265.16 306,265.16 308,265.16 310,265.16 312,265.16 314,265.16 316,265.16 318,265.16 320,265.16 322,265.16 324,265.16 326,265.16 328,265.16 330,262.84000000000003 332,262.84000000000003 334,262.84000000000003 336,262.84000000000003 338,262.84000000000003 340,262.84000000000003 342,262.84000000000003 344,262.84000000000003 346,262.84000000000003 348,262.84000000000003 350,262.84000000000003 352,262.84000000000003 354,262.84000000000003 356,260.56 358,258.28 360,256.0 362,251.44000000000003 364,249.16 366,246.84 368,244.55999999999997 370,240.0 372,237.72000000000003 374,235.44 376,233.16 378,228.56 380,226.28 382,224.00000000000003 384,219.44 386,219.44 388,219.44 390,219.44 392,219.44 394,219.44 396,219.44 398,219.44 400,219.44 402,219.44 404,219.44 406,217.15999999999997 408,217.15999999999997 410,217.15999999999997 412,210.28000000000003 414,210.28000000000003 416,205.72 418,203.43999999999997 420,201.16 422,198.84 424,194.28 426,192.0 428,187.44 430,185.16 432,182.83999999999997 434,182.83999999999997 436,178.28 438,175.99999999999997 440,173.72 442,171.44 444,169.16000000000003 446,166.84 448,164.56 450,162.27999999999997 452,157.72 454,153.16 456,153.16 458,150.84 460,146.28 462,146.28 464,146.28 466,141.71999999999997 468,137.16 470,137.16 472,132.56 474,130.28 476,127.99999999999999 478,127.99999999999999 480,123.44 482,123.44 484,123.44 486,123.44 488,123.44 490,123.44 492,123.44 494,123.44 496,123.44 498,123.44 500,123.44 502,123.44 504,123.44 506,123.44 508,123.44 510,123.44 512,123.44 514,123.44 516,123.44 518,123.44 520,123.44 522,123.44 524,123.44 526,123.44 528,123.44 530,123.44 532,123.44 534,123.44 536,123.44 538,123.44 540,123.44 542,123.44 544,123.44 546,118.84000000000002 548,118.84000000000002 550,118.84000000000002 552,118.84000000000002 554,118.84000000000002 556,118.84000000000002 558,118.84000000000002 560,118.84000000000002 562,118.84000000000002 564,118.84000000000002 566,117.72 568,117.72 570,117.72 572,117.72 574,117.72 576,116.56 578,116.56 580,115.43999999999998 582,112.00000000000001 584,109.72 586,107.43999999999998 588,102.84 590,100.55999999999999 592,96.0 594,91.44000000000001 596,91.44000000000001 598,87.99999999999999 600,84.56000000000002 602,82.28 604,79.99999999999999 606,77.72000000000001 608,73.15999999999998 610,73.15999999999998 612,73.15999999999998 614,73.15999999999998 616,73.15999999999998 618,73.15999999999998 620,73.15999999999998 622,73.15999999999998 624,73.15999999999998 626,73.15999999999998 628,73.15999999999998 630,73.15999999999998 632,73.15999999999998 634,73.15999999999998 636,73.15999999999998 638,73.15999999999998 640,73.15999999999998 642,73.15999999999998 644,73.15999999999998 646,73.15999999999998 648,73.15999999999998 650,73.15999999999998 652,73.15999999999998 654,73.15999999999998 656,73.15999999999998 658,73.15999999999998 660,73.15999999999998 662,73.15999999999998 664,73.15999999999998 666,73.15999999999998 668,73.15999999999998 670,73.15999999999998 672,73.15999999999998 674,73.15999999999998 676,73.15999999999998 678,73.15999999999998 680,73.15999999999998 682,73.15999999999998 684,73.15999999999998 686,73.15999999999998 688,73.15999999999998 690,73.15999999999998 692,73.15999999999998 694,73.15999999999998 696,73.15999999999998 698,73.15999999999998 700,73.15999999999998 702,70.84000000000002 704,70.84000000000002 706,70.84000000000002 708,68.56 710,64.00000000000001 712,64.00000000000001 714,64.00000000000001 716,60.55999999999999 718,59.43999999999998 720,54.84 722,54.84 724,54.84 726,54.84 728,52.55999999999999 730,51.44000000000002 732,48.0 734,48.0 736,48.0 738,48.0 740,48.0 742,45.719999999999985 744,45.719999999999985 746,45.719999999999985 748,44.560000000000024 750,42.28000000000001 752,41.16 754,41.16 756,39.99999999999999 758,39.99999999999999 760,39.99999999999999 762,39.99999999999999 764,39.99999999999999 766,38.83999999999999 768,38.83999999999999 770,38.83999999999999 772,36.56000000000002 774,33.15999999999999 776,29.720000000000013 778,27.439999999999998 780,25.159999999999982 782,20.560000000000002 784,18.279999999999987 786,18.279999999999987 788,13.719999999999999 790,13.719999999999999 792,13.719999999999999 794,13.719999999999999 796,13.719999999999999 798,13.719999999999999 800,13.719999999999999 802,13.719999999999999 804,13.719999999999999 806,13.719999999999999 808,13.719999999999999 810,13.719999999999999 812,13.719999999999999 814,13.719999999999999 816,13.719999999999999 818,13.719999999999999 820,13.719999999999999 822,13.719999999999999 824,13.719999999999999 826,13.719999999999999 828,13.719999999999999 830,13.719999999999999 832,13.719999999999999 834,12.559999999999993 836,12.559999999999993 838,12.559999999999993 840,12.559999999999993 842,12.559999999999993 844,12.559999999999993 846,12.559999999999993 848,12.559999999999993 850,12.559999999999993 852,400.0 852,400.0" /></g><g class="player_lifelines"><polyline class="player_lifeline" points="0,30.76923076923077 208,30.76923076923077" /><polyline class="player_lifeline" points="234,30.76923076923077 500,30.76923076923077" /><polyline class="player_lifeline" points="520,30.76923076923077 546,30.76923076923077" /><polyline class="player_lifeline" points="564,30.76923076923077 736,30.76923076923077" /><polyline class="player_lifeline" points="756,30.76923076923077 832,30.76923076923077" /><polyline class="player_lifeline" points="852,30.76923076923077 852,30.76923076923077" /><polyline class="player_lifeline" points="0,61.53846153846154 184,61.53846153846154" /><polyline class="player_lifeline" points="206,61.53846153846154 316,61.53846153846154" /><polyline class="player_lifeline" points="336,61.53846153846154 554,61.53846153846154" /><polyline class="player_lifeline" points="574,61.53846153846154 768,61.53846153846154" /><polyline class="player_lifeline" points="788,61.53846153846154 828,61.53846153846154" /><polyline class="player_lifeline" points="848,61.53846153846154 852,61.53846153846154" /><polyline class="player_lifeline" points="0,92.3076923076923 104,92.3076923076923" /><polyline class="player_lifeline" points="124,92.3076923076923 324,92.3076923076923" /><polyline class="player_lifeline" points="340,92.3076923076923 406,92.3076923076923" /><polyline class="player_lifeline" points="426,92.3076923076923 556,92.3076923076923" /><polyline class="player_lifeline" points="570,92.3076923076923 758,92.3076923076923" /><polyline class="player_lifeline" points="780,92.3076923076923 804,92.3076923076923" /><polyline class="player_lifeline" points="824,92.3076923076923 852,92.3076923076923" /><polyline class="player_lifeline" points="0,123.07692307692308 92,123.07692307692308" /><polyline class="player_lifeline" points="112,123.07692307692308 228,123.07692307692308" /><polyline class="player_lifeline" points="246,123.07692307692308 276,123.07692307692308" /><polyline class="player_lifeline" points="296,123.07692307692308 542,123.07692307692308" /><polyline class="player_lifeline" points="562,123.07692307692308 840,123.07692307692308" /><polyline class="player_lifeline" points="852,123.07692307692308 852,123.07692307692308" /><polyline class="player_lifeline" points="0,153.84615384615384 80,153.84615384615384" /><polyline class="player_lifeline" points="96,153.84615384615384 324,153.84615384615384" /><polyline class="player_lifeline" points="332,153.84615384615384 528,153.84615384615384" /><polyline class="player_lifeline" points="546,153.84615384615384 834,153.84615384615384" /><polyline class="player_lifeline" points="852,153.84615384615384 852,153.84615384615384" /><polyline class="player_lifeline" points="0,184.6153846153846 202,184.6153846153846" /><polyline class="player_lifeline" points="220,184.6153846153846 300,184.6153846153846" /><polyline class="player_lifeline" points="320,184.6153846153846 514,184.6153846153846" /><polyline class="player_lifeline" points="528,184.6153846153846 786,184.6153846153846" /><polyline class="player_lifeline" points="806,184.6153846153846 838,184.6153846153846" /><polyline class="player_lifeline" points="852,184.6153846153846 852,184.6153846153846" /><polyline class="player_lifeline" points="0,215.3846153846154 100,215.3846153846154" /><polyline class="player_lifeline" points="118,215.3846153846154 182,215.3846153846154" /><polyline class="player_lifeline" points="202,215.3846153846154 852,215.3846153846154" /><polyline class="player_lifeline" points="0,246.15384615384616 80,246.15384615384616" /><polyline class="player_lifeline" points="94,246.15384615384616 208,246.15384615384616" /><polyline class="player_lifeline" points="228,246.15384615384616 852,246.15384615384616" /><polyline class="player_lifeline" points="0,276.9230769230769 168,276.9230769230769" /><polyline class="player_lifeline" points="188,276.9230769230769 498,276.9230769230769" /><polyline class="player_lifeline" points="514,276.9230769230769 646,276.9230769230769" /><polyline class="player_lifeline" points="664,276.9230769230769 852,276.9230769230769" /><polyline class="player_lifeline" points="0,307.6923076923077 122,307.6923076923077" /><polyline class="player_lifeline" points="140,307.6923076923077 632,307.6923076923077" /><polyline class="player_lifeline" points="654,307.6923076923077 852,307.6923076923077" /><polyline class="player_lifeline" points="0,338.46153846153845 204,338.46153846153845" /><polyline class="player_lifeline" points="222,338.46153846153845 502,338.46153846153845" /><polyline class="player_lifeline" points="516,338.46153846153845 852,338.46153846153845" /><polyline class="player_lifeline" points="0,369.2307692307692 852,369.2307692307692" /></g><g class="advantages"><polyline class="player_advantage" points="2,200.0 4,200.0 6,200.0 8,200.0 10,200.0 12,200.0 14,200.0 16,200.0 18,200.0 20,200.0 22,200.0 24,200.0 26,200.0 28,200.0 30,200.0 32,200.0 34,200.0 36,200.0 38,200.0 40,200.0 42,200.0 44,200.0 46,200.0 48,200.0 50,200.0 52,200.0 54,200.0 56,200.0 58,200.0 60,200.0 62,200.0 64,200.0 66,200.0 68,200.0 70,200.0 72,200.0 74,200.0 76,200.0 78,200.0 80,200.0 82,200.0 84,200.0 86,200.0 88,200.0 90,200.0 92,200.0 94,133.33333333333331 96,166.66666666666666 98,166.66666666666666 100,166.66666666666666 102,200.0 104,200.0 106,166.66666666666666 108,166.66666666666666 110,166.66666666666666 112,200.0 114,200.0 116,200.0 118,166.66666666666666 120,166.66666666666666 122,166.66666666666666 124,233.33333333333331 126,233.33333333333331 128,233.33333333333331 130,233.33333333333331 132,233.33333333333331 134,233.33333333333331 136,233.33333333333331 138,233.33333333333331 140,200.0 142,200.0 144,200.0 146,200.0 148,200.0 150,200.0 152,200.0 154,200.0 156,200.0 158,200.0 160,200.0 162,200.0 164,200.0 166,200.0 168,200.0 170,233.33333333333331 172,233.33333333333331 174,233.33333333333331 176,233.33333333333331 178,233.33333333333331 180,233.33333333333331 182,233.33333333333331 184,266.66666666666663 186,233.33333333333331 188,200.0 190,200.0 192,200.0 194,200.0 196,200.0 198,200.0 200,200.0 202,166.66666666666666 204,133.33333333333331 206,200.0 208,200.0" /><polyline class="player_advantage" points="220,233.33333333333331 222,200.0 224,200.0 226,200.0 228,166.66666666666666 230,133.33333333333331 232,133.33333333333331 234,166.66666666666666 236,166.66666666666666 238,166.66666666666666 240,166.66666666666666 242,166.66666666666666 244,166.66666666666666 246,200.0 248,200.0 250,200.0 252,200.0 254,200.0 256,200.0 258,200.0 260,200.0 262,200.0 264,200.0 266,200.0 268,200.0 270,200.0 272,200.0 274,200.0 276,200.0 278,166.66666666666666 280,166.66666666666666 282,166.66666666666666 284,166.66666666666666 286,166.66666666666666 288,166.66666666666666 290,166.66666666666666 292,166.66666666666666 294,166.66666666666666 296,200.0 298,200.0 300,200.0 302,166.66666666666666 304,166.66666666666666 306,166.66666666666666 308,166.66666666666666 310,166.66666666666666 312,166.66666666666666 314,166.66666666666666 316,166.66666666666666 318,133.33333333333331 320,166.66666666666666 322,166.66666666666666 324,166.66666666666666 326,100.0 328,100.0 330,100.0 332,133.33333333333331 334,133.33333333333331 336,166.66666666666666 338,166.66666666666666 340,200.0 342,200.0 344,200.0 346,200.0 348,200.0 350,200.0 352,200.0 354,200.0 356,200.0 358,200.0 360,200.0 362,200.0 364,200.0 366,200.0 368,200.0 370,200.0 372,200.0 374,200.0 376,200.0 378,200.0 380,200.0 382,200.0 384,200.0 386,200.0 388,200.0 390,200.0 392,200.0 394,200.0 396,200.0 398,200.0 400,200.0 402,200.0 404,200.0 406,200.0 408,166.66666666666666 410,166.66666666666666 412,166.66666666666666 414,166.66666666666666 416,166.66666666666666 418,166.66666666666666 420,166.66666666666666 422,166.66666666666666 424,166.66666666666666 426,200.0 428,200.0 430,200.0 432,200.0 434,200.0 436,200.0 438,200.0 440,200.0 442,200.0 444,200.0 446,200.0 448,200.0 450,200.0 452,200.0 454,200.0 456,200.0 458,200.0 460,200.0 462,200.0 464,200.0 466,200.0 468,200.0 470,200.0 472,200.0 474,200.0 476,200.0 478,200.0 480,200.0 482,200.0 484,200.0 486,200.0 488,200.0 490,200.0 492,200.0 494,200.0 496,200.0 498,200.0 500,233.33333333333331 502,200.0 504,233.33333333333331 506,233.33333333333331 508,233.33333333333331 510,233.33333333333331 512,233.33333333333331 514,200.0 516,133.33333333333331 518,133.33333333333331 520,166.66666666666666 522,166.66666666666666 524,166.66666666666666 526,166.66666666666666 528,200.0 530,166.66666666666666 532,166.66666666666666 534,166.66666666666666 536,166.66666666666666 538,166.66666666666666 540,166.66666666666666 542,166.66666666666666 544,133.33333333333331 546,166.66666666666666 548,133.33333333333331 550,133.33333333333331 552,133.33333333333331 554,133.33333333333331 556,100.0 558,66.66666666666663 560,66.66666666666663 562,100.0 564,133.33333333333331 566,133.33333333333331 568,133.33333333333331 570,166.66666666666666 572,166.66666666666666 574,200.0 576,200.0 578,200.0 580,200.0 582,200.0 584,200.0 586,200.0 588,200.0 590,200.0 592,200.0 594,200.0 596,200.0 598,200.0 600,200.0 602,200.0 604,200.0 606,200.0 608,200.0 610,200.0 612,200.0 614,200.0 616,200.0 618,200.0 620,200.0 622,200.0 624,200.0 626,200.0 628,200.0 630,200.0 632,200.0 634,233.33333333333331 636,233.33333333333331 638,233.33333333333331 640,233.33333333333331 642,233.33333333333331 644,233.33333333333331 646,233.33333333333331 648,266.66666666666663 650,266.66666666666663 652,266.66666666666663 654,233.33333333333331 656,233.33333333333331 658,233.33333333333331 660,233.33333333333331 662,233.33333333333331 664,200.0 666,200.0 668,200.0 670,200.0 672,200.0 674,200.0 676,200.0 678,200.0 680,200.0 682,200.0 684,200.0 686,200.0 688,200.0 690,200.0 692,200.0 694,200.0 696,200.0 698,200.0 700,200.0 702,200.0 704,200.0 706,200.0 708,200.0 710,200.0 712,200.0 714,200.0 716,200.0 718,200.0 720,200.0 722,200.0 724,200.0 726,200.0 728,200.0 730,200.0 732,200.0 734,200.0 736,200.0 738,166.66666666666666 740,166.66666666666666 742,166.66666666666666 744,166.66666666666666 746,166.66666666666666 748,166.66666666666666 750,166.66666666666666 752,166.66666666666666 754,166.66666666666666 756,200.0 758,200.0 760,166.66666666666666 762,166.66666666666666 764,166.66666666666666 766,166.66666666666666 768,166.66666666666666 770,133.33333333333331 772,133.33333333333331 774,133.33333333333331 776,133.33333333333331 778,133.33333333333331 780,166.66666666666666 782,166.66666666666666 784,166.66666666666666 786,166.66666666666666 788,166.66666666666666 790,166.66666666666666 792,166.66666666666666 794,166.66666666666666 796,166.66666666666666 798,166.66666666666666 800,166.66666666666666 802,166.66666666666666 804,166.66666666666666 806,166.66666666666666 808,166.66666666666666 810,166.66666666666666 812,166.66666666666666 814,166.66666666666666 816,166.66666666666666 818,166.66666666666666 820,166.66666666666666 822,166.66666666666666 824,200.0 826,200.0 828,200.0 830,166.66666666666666 832,166.66666666666666 834,133.33333333333331 836,100.0 838,100.0 840,66.66666666666663 842,33.333333333333314 844,33.333333333333314 846,33.333333333333314 848,66.66666666666663 850,66.66666666666663 852,100.0 852,200.0" /></g><g class="minute_ref"><line class="minute_ref_line" x1="120" x2="120" y1="0" y2="400" /><text x="120" y="420">1:00</text><line class="minute_ref_line" x1="240" x2="240" y1="0" y2="400" /><text x="240" y="420">2:00</text><line class="minute_ref_line" x1="360" x2="360" y1="0" y2="400" /><text x="360" y="420">3:00</text><line class="minute_ref_line" x1="480" x2="480" y1="0" y2="400" /><text x="480" y="420">4:00</text><line class="minute_ref_line" x1="600" x2="600" y1="0" y2="400" /><text x="600" y="420">5:00</text><line class="minute_ref_line" x1="720" x2="720" y1="0" y2="400" /><text x="720" y="420">6:00</text><line class="minute_ref_line" x1="840" x2="840" y1="0" y2="400" /><text x="840" y="420">7:00</text></g></g></svg>